<svg width="61" height="61" viewBox="0 0 61 61" fill="none" xmlns="http://www.w3.org/2000/svg">
<path d="M36.2187 24.7813H49.5625V28.5938H36.2187V24.7813ZM36.2187 15.25H57.1875V19.0625H36.2187V15.25ZM36.2187 5.71875H57.1875V9.53125H36.2187V5.71875ZM20.9687 57.1875H13.3437C12.3335 57.1845 11.3656 56.7818 10.6512 56.0675C9.93689 55.3532 9.53425 54.3852 9.53123 53.375V40.0313C8.52102 40.0282 7.55305 39.6256 6.83872 38.9113C6.12439 38.1969 5.72175 37.229 5.71873 36.2188V24.7813C5.70477 24.0264 5.84314 23.2765 6.12559 22.5764C6.40804 21.8762 6.82876 21.2402 7.36261 20.7064C7.89645 20.1725 8.53245 19.7518 9.2326 19.4694C9.93274 19.1869 10.6826 19.0485 11.4375 19.0625H22.875C23.6298 19.0485 24.3797 19.1869 25.0799 19.4694C25.78 19.7518 26.416 20.1725 26.9499 20.7064C27.4837 21.2402 27.9044 21.8762 28.1869 22.5764C28.4693 23.2765 28.6077 24.0264 28.5937 24.7813V36.2188C28.5907 37.229 28.1881 38.1969 27.4737 38.9113C26.7594 39.6256 25.7914 40.0282 24.7812 40.0313V53.375C24.7782 54.3852 24.3756 55.3532 23.6612 56.0675C22.9469 56.7818 21.9789 57.1845 20.9687 57.1875ZM11.4375 22.875C11.1832 22.8597 10.9285 22.8985 10.6903 22.9889C10.4521 23.0793 10.2358 23.2192 10.0556 23.3994C9.87545 23.5795 9.73556 23.7959 9.64517 24.0341C9.55478 24.2723 9.51595 24.5269 9.53123 24.7813V36.2188H13.3437V53.375H20.9687V36.2188H24.7812V24.7813C24.7965 24.5269 24.7577 24.2723 24.6673 24.0341C24.5769 23.7959 24.437 23.5795 24.2569 23.3994C24.0767 23.2192 23.8604 23.0793 23.6222 22.9889C23.384 22.8985 23.1293 22.8597 22.875 22.875H11.4375ZM17.1562 17.1563C15.6482 17.1563 14.1739 16.7091 12.92 15.8712C11.6661 15.0334 10.6888 13.8425 10.1117 12.4492C9.53454 11.0559 9.38353 9.5228 9.67775 8.04369C9.97196 6.56458 10.6982 5.20594 11.7645 4.13956C12.8309 3.07319 14.1896 2.34698 15.6687 2.05277C17.1478 1.75855 18.6809 1.90955 20.0742 2.48667C21.4675 3.06379 22.6583 4.04111 23.4962 5.29503C24.334 6.54896 24.7812 8.02317 24.7812 9.53125C24.7752 11.5517 23.9699 13.4876 22.5413 14.9163C21.1126 16.3449 19.1767 17.1502 17.1562 17.1563ZM17.1562 5.71875C16.4022 5.71875 15.6651 5.94235 15.0381 6.36128C14.4112 6.7802 13.9225 7.37563 13.6339 8.07227C13.3454 8.76892 13.2699 9.53548 13.417 10.275C13.5641 11.0146 13.9272 11.6939 14.4604 12.2271C14.9936 12.7603 15.6729 13.1234 16.4125 13.2705C17.152 13.4176 17.9186 13.3421 18.6152 13.0535C19.3119 12.765 19.9073 12.2763 20.3262 11.6494C20.7451 11.0224 20.9687 10.2853 20.9687 9.53125C20.9657 8.52104 20.5631 7.55307 19.8487 6.83874C19.1344 6.12441 18.1664 5.72177 17.1562 5.71875Z" />
</svg>
