<svg width="64" height="72" viewBox="0 0 64 72" fill="none" xmlns="http://www.w3.org/2000/svg">
<path d="M59.4286 29.25H38.8571V9C38.8571 6.51516 36.81 4.5 34.2857 4.5H29.7143C27.19 4.5 25.1429 6.51516 25.1429 9V29.25H4.57143C2.04714 29.25 0 31.2652 0 33.75V38.25C0 40.7348 2.04714 42.75 4.57143 42.75H25.1429V63C25.1429 65.4848 27.19 67.5 29.7143 67.5H34.2857C36.81 67.5 38.8571 65.4848 38.8571 63V42.75H59.4286C61.9529 42.75 64 40.7348 64 38.25V33.75C64 31.2652 61.9529 29.25 59.4286 29.25Z" />
</svg>
