<?xml version="1.0" encoding="UTF-8"?>
<svg id="Layer_2" data-name="Layer 2" xmlns="http://www.w3.org/2000/svg" xmlns:xlink="http://www.w3.org/1999/xlink" viewBox="0 0 61.52 93.29">
  <defs>
    <style>
      .cls-1 {
        fill: url(#linear-gradient);
      }

      .cls-1, .cls-2, .cls-3, .cls-4 {
        stroke-width: 0px;
      }

      .cls-2 {
        fill: url(#linear-gradient-4);
      }

      .cls-3 {
        fill: url(#linear-gradient-2);
      }

      .cls-4 {
        fill: url(#linear-gradient-3);
      }
    </style>
    <linearGradient id="linear-gradient" x1="28.75" y1="-28.33" x2="43.94" y2="8.36" gradientTransform="translate(61.53 56.01) rotate(-180)" gradientUnits="userSpaceOnUse">
      <stop offset="0" stop-color="#4c1419"/>
      <stop offset=".13" stop-color="#53151a"/>
      <stop offset=".31" stop-color="#69191d"/>
      <stop offset=".53" stop-color="#8d2023"/>
      <stop offset=".78" stop-color="#be292b"/>
      <stop offset="1" stop-color="#e33"/>
    </linearGradient>
    <linearGradient id="linear-gradient-2" x1="9.9" y1="53.76" x2="30.4" y2="3.96" gradientUnits="userSpaceOnUse">
      <stop offset="0" stop-color="#1c8040"/>
      <stop offset=".11" stop-color="#238446"/>
      <stop offset=".28" stop-color="#399157"/>
      <stop offset=".48" stop-color="#5da574"/>
      <stop offset=".71" stop-color="#8fc29c"/>
      <stop offset=".96" stop-color="#cde6ce"/>
      <stop offset="1" stop-color="#d8ecd7"/>
    </linearGradient>
    <linearGradient id="linear-gradient-3" x1="33.38" y1="9.71" x2="53.3" y2="57.81" gradientUnits="userSpaceOnUse">
      <stop offset="0" stop-color="#1b391e"/>
      <stop offset=".11" stop-color="#224025"/>
      <stop offset=".28" stop-color="#38553b"/>
      <stop offset=".48" stop-color="#5c775e"/>
      <stop offset=".7" stop-color="#8ea68e"/>
      <stop offset=".96" stop-color="#cce1cc"/>
      <stop offset="1" stop-color="#d8ecd7"/>
    </linearGradient>
    <linearGradient id="linear-gradient-4" x1="18.87" y1="5.29" x2="34.46" y2="-32.58" gradientTransform="translate(61.53 56.01) rotate(-180)" gradientUnits="userSpaceOnUse">
      <stop offset="0" stop-color="#e33"/>
      <stop offset=".12" stop-color="#ee3a3a"/>
      <stop offset=".29" stop-color="#f05050"/>
      <stop offset=".49" stop-color="#f37474"/>
      <stop offset=".73" stop-color="#f7a5a6"/>
      <stop offset=".99" stop-color="#fce4e5"/>
      <stop offset="1" stop-color="#fde6e7"/>
    </linearGradient>
  </defs>
  <g id="Layer_1-2" data-name="Layer 1">
    <path class="cls-1" d="m14.83,48.14h8.64c.5,0,.93.48,1.07,1.18l5.95,31.05.04.23.23,1.25v.05s-1.64,8.8-1.64,8.8l-.04-.07h0l-15.22-40.1c-.41-1.07.13-2.39.97-2.39Z"/>
    <path class="cls-3" d="m33.73,3.21l-2.97,10.92-.02.06-.42,1.55-.08.28-10.73,38.53c-.24.86-1.03,1.46-1.93,1.46H2c-1.52,0-2.49-1.63-1.75-2.97L27.71,3.3l1.25-2.26c.72-1.31,2.57-1.39,3.41-.15s1.4,2.15,1.36,2.32Z"/>
    <path class="cls-4" d="m59.51,56.01h-15.58c-.9,0-1.69-.6-1.93-1.46l-10.73-38.53-.08-.28-.42-1.55v-.06s2.96-10.92,2.96-10.92l.07.09h0l27.46,49.74c.74,1.33-.23,2.97-1.75,2.97Z"/>
    <path class="cls-2" d="m29.11,90.7l1.65-8.8v-.05s.24-1.25.24-1.25l.04-.23,5.95-31.05c.13-.7.57-1.18,1.07-1.18h8.64c.84,0,1.38,1.31.97,2.39l-15.22,40.09-.69,1.83c-.4,1.06-1.43,1.12-1.89.12s-.78-1.73-.75-1.87Z"/>
  </g>
</svg>