<?xml version="1.0" encoding="UTF-8"?>
<svg id="Layer_2" data-name="Layer 2" xmlns="http://www.w3.org/2000/svg" xmlns:xlink="http://www.w3.org/1999/xlink" viewBox="0 0 835.19 1427.41">
  <defs>
    <style>
      .cls-1 {
        fill: url(#linear-gradient);
      }

      .cls-1, .cls-2, .cls-3, .cls-4, .cls-5, .cls-6, .cls-7, .cls-8, .cls-9, .cls-10, .cls-11, .cls-12, .cls-13, .cls-14, .cls-15, .cls-16, .cls-17, .cls-18, .cls-19, .cls-20, .cls-21, .cls-22, .cls-23, .cls-24, .cls-25, .cls-26, .cls-27, .cls-28, .cls-29, .cls-30, .cls-31, .cls-32, .cls-33, .cls-34, .cls-35, .cls-36, .cls-37 {
        stroke-width: 0px;
      }

      .cls-2 {
        fill: #f8ab7f;
      }

      .cls-3 {
        fill: #f79b78;
      }

      .cls-4 {
        fill: #f9ebce;
      }

      .cls-5 {
        fill: #5e3823;
      }

      .cls-6 {
        fill: #521715;
      }

      .cls-7 {
        fill: #2a482d;
      }

      .cls-8 {
        fill: #34190e;
      }

      .cls-9 {
        fill: #1a140f;
      }

      .cls-10 {
        fill: #412614;
      }

      .cls-11 {
        fill: #0e3e3d;
      }

      .cls-12 {
        fill: #e2c49b;
      }

      .cls-13 {
        fill: #e0765e;
      }

      .cls-14 {
        fill: #d1ae92;
      }

      .cls-15 {
        fill: #dead77;
      }

      .cls-16 {
        fill: #cc3a4b;
      }

      .cls-17 {
        fill: #ae3c3f;
      }

      .cls-18 {
        fill: #e0f1fb;
      }

      .cls-19 {
        fill: #c7e5ec;
      }

      .cls-20 {
        fill: #be5f53;
      }

      .cls-21 {
        fill: #be977f;
      }

      .cls-22 {
        fill: #b57e53;
      }

      .cls-23 {
        fill: #8bd2d1;
      }

      .cls-24 {
        fill: #905c33;
      }

      .cls-25 {
        fill: #8f6349;
      }

      .cls-26 {
        fill: #009987;
      }

      .cls-27 {
        fill: #857b52;
      }

      .cls-28 {
        fill: #69281e;
      }

      .cls-29 {
        fill: #73472f;
      }

      .cls-30 {
        fill: #fef2e6;
      }

      .cls-31 {
        fill: #e48766;
      }

      .cls-32 {
        fill: #fff;
      }

      .cls-33 {
        fill: #e7565a;
      }

      .cls-34 {
        fill: #fcbd8d;
      }

      .cls-35 {
        fill: #fbe2cb;
      }

      .cls-36 {
        fill: #fbf9ed;
      }

      .cls-37 {
        fill: #03b2a4;
      }
    </style>
    <linearGradient id="linear-gradient" x1="333.31" y1="1041.44" x2="249.58" y2="1418.18" gradientUnits="userSpaceOnUse">
      <stop offset="0" stop-color="#9f6c48"/>
      <stop offset="1" stop-color="#88573a"/>
    </linearGradient>
  </defs>
  <g id="Layer_1-2" data-name="Layer 1">
    <g>
      <g>
        <path class="cls-23" d="m307.55,456.52q-35.05,11.31-70.1,22.61c-5.64-1.09-15.28-56.5-19.6-64.82q-28.27,7.54-56.53,15.08c-3.13.11-18.82,3.17-19.6,5.28,7.35,22.1,13.37,44.66,19.6,67.09q-39.95,13.57-79.9,27.14c-8.9-24.74-24.84-81.4-31.66-108.54,20.24-7.79,41.77-12.86,61.81-21.11.44-.18,3.3.62,9.05-3.02,2.63-1.66,6.54-1.76,6.03-6.03,5.18,7.96,21.75-4.27,27.14-6.03.88-.29,4.81-.11,9.05-1.51,5.58-1.84,4.26-2.93,4.52-3.02,26.45-8.87,78.39-27.54,99.5-33.17,2.29-.61.81-4.14,5.28-3.02,13.72,36.78,26.23,74.73,35.43,113.07Z"/>
        <path class="cls-37" d="m105.54,387.17c-19.32,10.44-39.99,18.14-58.79,29.4-.96,5.19,2.96,3.53,3.02,3.77,6.82,27.15,22.76,83.8,31.66,108.54,2.91,8.1,7.27,16.08,10.55,24.12l-1.51,1.51c-3.99-7.43-12.22-19.46-19.6-10.55-2.84,3.43-2.46,3.38-3.02,7.54-9.06-13.82-17.82-48.43-24.12-69.35-2.61-8.68-6.9-19.04-9.05-27.14-1.23-4.64-1.45-4.29-1.51-4.52-2.72-10.47-7.08-24-9.05-33.92-1.38-6.98,3.07-4.98,3.02-5.28l20.35-6.03c1.49-.66.45-4.4.75-4.52.35-.15,2.69.53,7.54-1.51,6.03-2.54,12.05-4.99,18.09-7.54,9.54-4.03,19.18-7.84,28.64-12.06.18.36.75,3.07,3.02,7.54Z"/>
        <path class="cls-37" d="m266.85,346.47c-21.11,5.63-73.05,24.29-99.5,33.17-1.35-4.33-4.51-17.91-6.03-19.6,12.82-4.93,47.21-21.35,58.04-22.61,10.45-1.21,41.63,2.78,47.49,9.05Z"/>
        <g>
          <path class="cls-34" d="m123.63,373.6c.96,3.72.23,12,3.02,16.58.51,4.27-3.4,4.37-6.03,6.03-.78-12.8-39.76-72.03-44.47-73.87-.63-.25-.26,4.18-3.77,3.02-.67-7.92,7.14-12.46,9.8-12.06,7.87,1.18,38.36,48.29,41.46,60.3Z"/>
          <path class="cls-31" d="m120.61,396.22c-5.75,3.63-8.6,2.83-9.05,3.02-.29-4.77-4.06-8.17-6.03-12.06-2.26-4.47-2.83-7.18-3.02-7.54-5.57-10.88-11.17-21.53-18.09-31.66-.73-6.27-11.7-18.35-12.06-22.61,3.51,1.17,3.14-3.26,3.77-3.02,4.71,1.84,43.69,61.07,44.47,73.87Z"/>
        </g>
        <path class="cls-26" d="m153.78,384.16c-5.39,1.76-21.95,13.99-27.14,6.03-2.78-4.58-2.05-12.86-3.02-16.58,7.07-4.92,10.02-4.31,10.55-4.52,2.67-1.08,10.72-5.52,12.81-4.52.94.45,6.09,16.94,6.78,19.6Z"/>
        <g>
          <path class="cls-31" d="m40.71,376.62c3.11,7.91,6.45,15.59,7.54,24.12-.3.13.74,3.86-.75,4.52l-20.35,6.03c-1.88-10.34-4.67-19.51-6.03-30.15q9.8-2.26,19.6-4.52Z"/>
          <path class="cls-34" d="m40.71,376.62q-9.8,2.26-19.6,4.52c-.13-1.02-8.41-14.55,2.26-18.09,15.65-5.19,13.87,4.75,17.34,13.57Z"/>
        </g>
        <g>
          <path class="cls-13" d="m69.36,340.44c1.46,17.09,2.43,34.21,4.52,51.26-6.04,2.55-12.06,5-18.09,7.54-1.65-21.12-9.22-42.26-6.03-63.32,8.44,8.55,13.5-6.29,19.6,4.52Z"/>
          <path class="cls-34" d="m66.34,325.36c1.33,5.78,2.49,8.86,3.02,15.08-6.1-10.81-11.16,4.03-19.6-4.52.14-.96-.45-13.09,8.29-15.08,6.15-1.4,7.9,4.25,8.29,4.52Z"/>
        </g>
        <g>
          <path class="cls-34" d="m159.81,358.53c.13.67.2,11.37,0,13.57-6.35-13.5-15.43-25.79-18.84-40.7l-17.34,4.52c-3.52-10.47-17.8-29.01-2.26-36.18,3.83-1.77,11.15-2.22,15.08,0,4.09,2.32,21.84,51.2,23.37,58.79Z"/>
          <path class="cls-13" d="m159.81,372.1c1.32,2.81,2.93,7.37,3.02,10.55-4.23,1.4-8.16,1.22-9.05,1.51-.69-2.66-5.85-19.15-6.78-19.6-2.1-1-10.14,3.44-12.81,4.52-4.54-10.68-6.88-22.24-10.55-33.17l17.34-4.52c3.41,14.91,12.49,27.21,18.84,40.7Z"/>
          <path class="cls-12" d="m161.32,360.04c1.52,1.69,4.68,15.27,6.03,19.6-.26.09,1.06,1.17-4.52,3.02-.08-3.18-1.69-7.74-3.02-10.55.2-2.2.13-12.9,0-13.57-.17,1.83,1.44,1.43,1.51,1.51Z"/>
        </g>
        <path class="cls-23" d="m318.1,498.73c-5.24,7.34-14.9,37.16-19.6,46.73-.11.21-2.33-.64-3.02.75-3.35,6.82-5.63,15-9.05,21.86-7.11,14.3-23.53,50.13-27.14,55.78-2.91,4.55-6.13,10.43-10.55,13.57-16.24-10.48-32.99-20.56-49.75-30.15q33.17-10.18,66.33-20.35c-.02-10.72-20.97-63.83-14.32-68.59q33.54-9.8,67.09-19.6Z"/>
        <g>
          <path class="cls-13" d="m334.69,546.97c-7.03,8.68-22.89,8.55-24.12,9.05l-12.06-10.55c4.7-9.58,14.36-39.4,19.6-46.73,12.51-17.52,18.32,39.82,16.58,48.24Z"/>
          <path class="cls-34" d="m298.51,545.46l12.06,10.55c-1.25.5-15.18,9.62-24.12,12.06,3.42-6.86,5.7-15.04,9.05-21.86.68-1.39,2.91-.54,3.02-.75Z"/>
        </g>
        <g>
          <path class="cls-36" d="m307.55,456.52c9.74,11.68,33.98,51.07,34.67,63.32.23,4.06-5.1,24.12-7.54,27.14,1.73-8.43-4.07-65.77-16.58-48.24q-33.54,9.8-67.09,19.6c-6.64,4.77,14.31,57.88,14.32,68.59q-33.17,10.18-66.33,20.35c-3.53-2.02-7.02-3.99-10.55-6.03v-3.02c12.52,11.94,43.05-4.68,61.81-9.8-12.6-23.32-63.85-145.69-69.35-152.26-6.86-8.21-9.07-7.15-19.6-6.78q28.27-7.54,56.53-15.08c4.31,8.32,13.96,63.73,19.6,64.82q35.05-11.31,70.1-22.61Z"/>
          <path class="cls-4" d="m161.32,429.38c10.53-.37,12.74-1.43,19.6,6.78,5.5,6.58,56.75,128.94,69.35,152.26-18.76,5.12-49.29,21.74-61.81,9.8-4.15-18.82-9.74-37.28-15.08-55.78-3.92-13.59-8.27-27.06-12.06-40.7-6.23-22.43-12.25-44.98-19.6-67.09.78-2.11,16.47-5.17,19.6-5.28Z"/>
          <path class="cls-36" d="m173.38,542.45c-6.82.87-49.8,13.57-51.26,15.83-1.19,1.85,1.47,4.14,1.51,5.28.05,1.39-2.23,2.02-1.51,4.52-.64-2.35-1.84-8.55-2.26-9.05-.57-.67-14.53-2.7-17.34-3.02-3.32-.37-6.83-1.27-9.05,0-.39-1.17-1.04-1.87-1.51-3.02-3.28-8.04-7.64-16.02-10.55-24.12q39.95-13.57,79.9-27.14c3.79,13.64,8.14,27.12,12.06,40.7Z"/>
        </g>
        <path class="cls-26" d="m111.57,399.23c-20.04,8.25-41.57,13.32-61.81,21.11-.06-.23-3.97,1.42-3.02-3.77,18.81-11.26,39.48-18.96,58.79-29.4,1.97,3.89,5.74,7.29,6.03,12.06Z"/>
        <path class="cls-37" d="m188.45,601.24c3.54,2.04,7.02,4.01,10.55,6.03,16.76,9.59,33.51,19.67,49.75,30.15-.42.16-1.16-.22-1.51,0-8.41,5.16-23.84,7.73-27.14,9.05l-93.47-40.7c-.75-7.82-3.58-34.24-4.52-37.69-.72-2.5,1.56-3.13,1.51-4.52,20.71,14.12,43.19,25.19,64.82,37.69Z"/>
        <path class="cls-23" d="m173.38,542.45c5.33,18.5,10.93,36.96,15.08,55.78v3.02c-21.63-12.5-44.12-23.57-64.82-37.69-.04-1.13-2.7-3.43-1.51-5.28,1.46-2.26,44.44-14.96,51.26-15.83Z"/>
        <path class="cls-27" d="m247.25,637.43c-2.1,3.34-5.19,5.88-7.54,9.05-19.49,6.04-46.25,27.11-49.75,13.57,9.74-5.13,19.94-9.5,30.15-13.57,3.3-1.32,18.73-3.89,27.14-9.05Z"/>
      </g>
      <g>
        <g>
          <path class="cls-9" d="m750.77,1389.69q6.03,18.84,12.06,37.69c-39.2.08-78.39-.05-117.59,0,13.76-5.13,28.16-7.71,42.21-12.06,16.25-5.03,26.88-9.3,42.21-16.58,5.07-2.41,20.14-8.42,21.11-9.05Z"/>
          <path class="cls-9" d="m214.08,1422.86c3.59,1.55,6.96,1.55,7.54,4.52-20.1-.02-40.2.02-60.3,0q3.02-14.32,6.03-28.64c9.93,7.65,34.52,18.83,46.73,24.12Z"/>
        </g>
        <path class="cls-36" d="m642.23,545.46c1.5,17.09-48.62,98.55-60.3,119.1-4.42-2.35-9.76-5.95-13.57-9.05-8.41-6.83-15.62-14.72-25.63-19.6,7.32-5.69,34.57-17.57,48.24-40.7,4.36-4.61,8.14-8.47,12.06-13.57,11.5-14.97,24.93-36.99,25.63-55.78.45.12,1.02-.07,1.51,0,.26,9.26,11.21,9.86,12.06,19.6Z"/>
        <path class="cls-12" d="m482.43,524.36c-23.38,30.94-24.09,63.53-6.03,96.48q-18.09,11.31-36.18,22.61c-.19-.99-6.77-14.37-9.05-18.09,8.11-31.42,17.08-61.32,31.66-90.45,7.21-4.94,14.06-5.86,10.55-9.05,3.28-.17,5.95-.48,9.05-1.51Z"/>
        <g>
          <path class="cls-36" d="m346.75,871.1c5.65,4.08,12.86,7.21,18.09,12.06,3.06,2.84,6.08,6.06,9.05,9.05,3.4,3.43,6.92,8.26,10.55,12.06,4.72,4.94,8.49,11.3,13.57,16.58,6.17,6.42,11.78,13.13,18.09,19.6,1.04,1.07,4.36,5.72,12.06,13.57,32.6,33.23,61.79,58.4,97.99,87.44,9.32,7.47,19.25,13.88,28.64,21.11,12.15,9.34,23.18,20.34,36.18,28.64-.2,1.12-.07,6.09-3.02,22.61q-112.69-102.51-225.38-205.03c-4.57,1.52-7.35,11.6-15.83,19.6-5.22,4.93-10.3,8.54-16.58,12.06-13.45,7.53-56.23,24.16-66.33,9.05-.55-.83-4.96-13.21-6.03-16.58-1.87-5.9-2.77-12.15-4.52-18.09.5.23-1.13-2.18,10.55,3.02,8.36,3.72,12.09,13.39,34.67,9.05,11.85-2.28,29.23-13.94,36.18-24.12,1.31-1.91,1.07-2.13,1.51-3.02.16-.31,2.97-3.68,4.52-5.28-3.36-5.59-6.35-11.39-9.05-17.34,3.17-4.83,9.86-6.61,15.08-6.03Z"/>
          <path class="cls-28" d="m298.51,926.88c-22.59,4.34-26.32-5.33-34.67-9.05q17.34,4.52,34.67,9.05Z"/>
        </g>
        <g>
          <path class="cls-11" d="m610.57,7.27c150.03,42.19,179.14,316.75,150.76,419.85-16.92,61.47-86.96,101.91-129.65,98.74,83.7-48.49,76.94-158.96,84.42-242.72,3.59-12.56,7.72-36.99-12.06-34.67-.49.06-1.05-.12-1.51,0-1.2-8.51-21.03-32.82-28.64-41.46-48.39-54.87-113.43-98.64-186.94-108.54,9.25-32.86,28.8-87.74,68.59-92.71,22.14-2.77,48.42,7.09,55.03,1.51Z"/>
          <g>
            <path class="cls-9" d="m631.68,525.87c-.5-.04-1.02.07-1.51,0-.49-.07-1.05.12-1.51,0-4.42-1.2-9.97-6.83-12.06-10.55-10.02-17.81,4.5-91.37,3.02-117.59v-3.77c11.06-12.4,28.83-23.07,37.69-36.94,10.67-16.69,5.97-18.73,10.55-30.15-1.29,3.9,11.44,1.79,12.06,1.51,11.61,11.89,12.98,11.92,7.54-4.52,8.26-5.68,25.58-30,28.64-40.7-7.49,83.76-.72,194.23-84.42,242.72Z"/>
            <g>
              <path class="cls-9" d="m610.57,7.27c-6.61,5.59-32.88-4.27-55.03-1.51-39.8,4.97-59.34,59.86-68.59,92.71,73.5,9.9,138.55,53.68,186.94,108.54,7.62,8.63,27.44,32.95,28.64,41.46-6.81,1.71-22,22-27.14,28.64,2.15-10.86,2.63-22.24,4.52-33.17-17.95-81.84-128.5-123.32-202.77-138.69-42.26,34.97-48.69,72.33-39.95,125.13-1.7-.36-11.32-2-12.06-.75,3.09,12.98,5.58,26.68,15.08,36.94-8.6,61.07,11.38,86.12,45.23,129.65,9.7,12.48,20.62,23.62,30.15,36.18l-12.06,80.65-3.02,2.26c-2.9-2.18-7.71-1.8-10.55,0-110.45-36.72-119.75-111.07-114.57-216.33,2.85-57.87,31-245.28,104.77-249.5,21.56-54.38,81.48-55.97,130.4-42.21Z"/>
              <path class="cls-11" d="m475.64,75.11c3.52-.99,1.18,25.13.75,26.38-2.26,6.66-56.13,28.54-50.5,124.37-13.34-55.17,8.4-112.93,49.75-150.76Z"/>
              <path class="cls-35" d="m485.44,396.22c-33.84-43.53-53.83-68.58-45.23-129.65.19-1.37,1.59-2.88,3.02-3.02,0,.16,3.03-.47,3.02.75-9.28,62.8,8.72,83.11,39.2,131.91Z"/>
            </g>
          </g>
          <path class="cls-19" d="m687.45,323.85c5.44,16.44,4.07,16.42-7.54,4.52.4-.18,7.18-4.27,7.54-4.52Z"/>
        </g>
        <path class="cls-12" d="m557.81,703.76c-22.22,37.68-44.89,74.36-67.84,111.56-8.61-.44-40.23,33.16-42.97,33.17-3.93,0-3.43-8.69-3.77-9.05,8.1-7.53,11.99-18.31,18.09-27.14,12.95-18.73,57.17-73.05,61.81-90.45,6.08-7.83,12.56-15.92,18.09-24.12,4.69,7.73,8.14,6.11,16.58,6.03Z"/>
        <path class="cls-14" d="m581.93,664.56c-7.57,13.3-16.36,26.04-24.12,39.2-8.44.08-11.89,1.7-16.58-6.03,4.13-6.13,2.79-7.2,3.02-7.54,7.81-11.48,18.46-21.65,24.12-34.67,3.81,3.09,9.15,6.69,13.57,9.05Z"/>
        <path class="cls-12" d="m542.73,635.92c10.01,4.87,17.22,12.77,25.63,19.6-5.66,13.02-16.31,23.19-24.12,34.67l-6.03-50.5c.24-4.47,4.29-3.59,4.52-3.77Z"/>
        <path class="cls-13" d="m239.71,646.47c-6.46,8.69-19.17,35.45-21.11,45.23-2.94,2.35-6.41,4.91-9.05,7.54l-39.2-36.18c5.51-.69,14.5-4.68,19.6-3.02,3.5,13.54,30.26-7.53,49.75-13.57Z"/>
        <path class="cls-5" d="m218.61,700.74c-.15,1.16-1.25,1.33-1.51,4.52-2.51,2.23-11.31,9.44-12.06,10.55-.86-1.37-4.22-5.81-4.52-6.03,2.88-3.45,5.89-7.41,9.05-10.55,2.64-2.63,6.11-5.18,9.05-7.54-.5,2.54.37,6.2,0,9.05Z"/>
        <path class="cls-36" d="m440.22,650.99c.08,1-.05,2.02,0,3.02,2.03,44.33-9.82,123.72-12.06,171.86-10.94-11.64-21.43-23.8-33.17-34.67,5.58-45.8,6.15-63.1,25.63-107.04,4.13-9.32,12.66-27.96,19.6-33.17Z"/>
        <path class="cls-34" d="m122.12,568.08c.94,3.45,3.78,29.87,4.52,37.69,1.82,19.04-.93,38.96,3.02,58.04,1.18,1.66,36.06-.17,40.7-.75l39.2,36.18c-3.15,3.15-6.17,7.11-9.05,10.55-11.81-8.48-27.22-14.25-28.64-15.08-1.44-.84-14.22-12.82-27.89-18.09l2.26,33.17c-4.55,4.2-4.82,12.35-4.52,18.09-6.99-8.23-12.89-16.16-18.09-25.63,3.29-49.01-3.65-100.43-21.11-146.23,2.81.31,16.77,2.34,17.34,3.02.42.49,1.62,6.69,2.26,9.05Z"/>
        <g>
          <path class="cls-1" d="m324.13,1062.56q6.03,60.3,12.06,120.6v1.51c-16.09,76.88-24.96,154.89-33.17,232.92q17.34,4.9,34.67,9.8c-38.69-.02-77.39.03-116.08,0-.58-2.97-3.95-2.97-7.54-4.52,5.53-48.31,11.76-96.52,18.09-144.73,4.98-37.96,22.4-150.37,22.61-175.63.09-10.34-4.98-42.08-7.54-52.76-.27-1.12-2-.77-3.02-.75-.47-18.81,8.95-48.52,9.05-52.76,26.51,18.88,49.67,41.77,70.85,66.33Z"/>
          <path class="cls-29" d="m408.56,1255.52c-2.82,58.31,6.77,115.92,22.61,171.86-15.58,0-31.16,0-46.73,0,.97-34.21,1.2-69.35,6.03-103.27,1.42-10,12.87-63.89,15.08-69.35.76-1.88,1.97,1.29,3.02.75Z"/>
          <path class="cls-25" d="m410.06,1252.51c-2.3-.18-1.33,2.92-1.51,3.02-1.05.53-2.26-2.63-3.02-.75-2.21,5.46-13.65,59.35-15.08,69.35-4.83,33.92-5.06,69.06-6.03,103.27-4.52,0-9.05,0-13.57,0,5-45.35,10.36-90.77,9.05-136.43,2.78-19.36,6.19-38.7,9.05-58.04,7.38,4.45,13.97,15.67,21.11,19.6Z"/>
          <g>
            <path class="cls-22" d="m687.45,1415.32c-14.05,4.35-28.45,6.93-42.21,12.06-39.7.05-79.4-.04-119.1,0-10.36-29-14.45-59.52-19.6-89.7,41.19-4.42,82.55-8.38,122.11-21.86,3.37,4.19,26.11,69.26,45.23,97.24,5.94,7.33,9.75-2.4,13.57,2.26Z"/>
            <path class="cls-29" d="m628.66,1315.82c-39.56,13.48-80.92,17.44-122.11,21.86,5.15,30.18,9.24,60.7,19.6,89.7-2.01,0-4.02,0-6.03,0-9.94-36.62-15.37-74.4-16.58-112.31l5.28,17.34c40.5-1.68,79.96-11.2,119.1-19.6,1.43.77.47,2.67.75,3.02Z"/>
          </g>
          <path class="cls-22" d="m786.95,620.84c-34.68,28.18-51.29,68.66-73.87,105.53-7.61,12.43-56.39,85.9-57.29,91.21-.3,1.79,2.51,4.81,3.02,6.78-15.05,11.51-9.36,22.46-13.57,39.95-6.24,25.9-13,51.82-19.6,77.64-.04.15-2.69-.54-3.02.75-.52,2.04,2.02,2.47,1.51,4.52-6.49,26.01-15.41,51.29-21.11,77.64l-48.24,37.69c-9.4-7.23-19.33-13.63-28.64-21.11,31.23-59.89-14.73-94.68-55.78-131.16,66.36-68.86,142.75-132.89,192.21-214.07-61.91,75.64-132.12,144.45-205.78,208.8,37.06-56.12,73.72-112.83,108.54-170.35,9.16-15.13,53.45-96.65,57.29-101.01,6.16-6.98,7.33.45,10.55-4.52,3.33-5.15,11.5-68.79,13.57-82.16,45.74,26.19,93.16,50.11,140.2,73.87Z"/>
          <path class="cls-22" d="m461.32,525.87c-25.86,16.55-58.73,66.65-62.56,69.35-2.35,1.65-64.05,20.83-46.73,24.12,2.26.43,37.7-14.36,42.97-16.58-6.13,50.76-14.43,102.03-18.09,153.02-1.78,24.85-.41,93.21-1.51,97.99-.15.65-6.67,9.81-9.05,9.8-12.03-52.84-32.28-208.2-37.69-217.84-1.56-2.79-4.14-1.99-4.52,0-1.35,7.09,15.23,127.08,18.09,143.22,5.65,31.85,15.84,62.65,22.61,94.22-5.23-4.86-12.44-7.98-18.09-12.06-1.25-.9-5.89-12.75-25.63-15.08-3.68-9.38-5.23-20.18-9.05-29.4-25.71-62.13-54.01-88.18-43.72-152.26,3.09-19.24,21.21-47.25,7.54-33.92,3.64-11.62,6.4-23.44,11.31-34.67l-27.89,18.09c3.61-5.65,20.02-41.48,27.14-55.78,8.94-2.44,22.87-11.56,24.12-12.06,1.23-.49,17.09-.36,24.12-9.05,2.44-3.02,7.77-23.08,7.54-27.14,39.67,1.13,79.37,6.47,119.1,6.03Z"/>
          <path class="cls-10" d="m646.75,546.97c-2.07,13.37-10.23,77.01-13.57,82.16-3.22,4.97-4.39-2.46-10.55,4.52-3.84,4.35-48.13,85.88-57.29,101.01-34.83,57.52-71.48,114.24-108.54,170.35,73.66-64.35,143.87-133.16,205.78-208.8-49.46,81.18-125.86,145.21-192.21,214.07-14.05,14.58-28.47,28.82-42.21,43.72-7.7-7.85-11.02-12.5-12.06-13.57,21.58-43.47,48.45-83.92,73.87-125.13,22.95-37.2,45.62-73.88,67.84-111.56,7.76-13.15,16.55-25.89,24.12-39.2,11.68-20.54,61.8-102,60.3-119.1,3.7-2.98,4.14,1.29,4.52,1.51Z"/>
          <path class="cls-15" d="m750.77,1389.69c-.96.63-16.03,6.63-21.11,9.05-25.18-41.89-41.8-89.79-64.82-133.42l34.67-49q31.66,80.28,63.32,160.55c.21,5.3-8.35,10.41-12.06,12.81Z"/>
          <g>
            <path class="cls-29" d="m232.17,1278.14c-6.33,48.21-12.56,96.42-18.09,144.73-12.22-5.29-36.81-16.47-46.73-24.12-1.45-1.12-18.28-17.23-18.09-20.35,13.07-50.42,29.4-99.97,43.72-150q19.6,24.87,39.2,49.75Z"/>
            <path class="cls-29" d="m232.17,1278.14q-19.6-24.87-39.2-49.75c17.11-59.79,34.54-119.5,51.26-179.4,1.02-.01,2.75-.37,3.02.75,2.56,10.68,7.63,42.42,7.54,52.76-.21,25.26-17.63,137.67-22.61,175.63Z"/>
          </g>
          <path class="cls-10" d="m473.38,525.87c3.5,3.19-3.34,4.1-10.55,9.05-22.78,15.62-32.36,34.11-45.23,58.04-3.93,3.93-15.21,6.68-22.61,9.8-5.27,2.22-40.7,17.01-42.97,16.58-17.31-3.29,44.38-22.47,46.73-24.12,3.83-2.7,36.7-52.8,62.56-69.35,4-.04,8.07.2,12.06,0Z"/>
          <path class="cls-29" d="m410.06,1252.51c-7.14-3.93-13.72-15.15-21.11-19.6.07-.49-.07-1.02,0-1.51,3.69-24.27,7.04-48.63,13.57-72.36,50.21,49.64,175.26,138.91,248.75,116.84-21.69,15.87-49.02,16.2-74.62,14.32-19.96-1.47-152.78-30.09-166.58-37.69Z"/>
          <g>
            <path class="cls-14" d="m388.96,1231.4c-.07.49.07,1.02,0,1.51-2.86,19.34-6.27,38.68-9.05,58.04,1.32,45.66-4.04,91.09-9.05,136.43-10.55,0-21.11,0-31.66,0-5.42-32.69,18.27-199.89,16.58-210.3-.3-1.87-15.78-29.33-19.6-32.41v-1.51c1.58-6.15,4.18-12.05,6.03-18.09q23.37,33.17,46.73,66.33Z"/>
            <path class="cls-12" d="m339.21,1427.38c-.5,0-1.01,0-1.51,0q-17.34-4.9-34.67-9.8c8.21-78.02,17.08-156.04,33.17-232.92,3.82,3.09,19.3,30.54,19.6,32.41,1.69,10.42-22,177.61-16.58,210.3Z"/>
            <path class="cls-25" d="m402.53,1159.04c-6.53,23.73-9.88,48.1-13.57,72.36q-23.37-33.17-46.73-66.33c5.67-18.51,9.79-37.61,16.58-55.78,14.02,16.7,28.22,34.42,43.72,49.75Z"/>
          </g>
          <path class="cls-5" d="m358.81,1109.29c-6.8,18.17-10.91,37.27-16.58,55.78-1.85,6.04-4.45,11.94-6.03,18.09q-6.03-60.3-12.06-120.6c12.66,14.68,22.46,32.18,34.67,46.73Z"/>
          <path class="cls-22" d="m587.96,1113.81c2.95-16.53,2.82-21.49,3.02-22.61,3.85-21.99,7.35-44.54,12.06-66.33,5.7-26.35,14.62-51.63,21.11-77.64.51-2.05-2.02-2.48-1.51-4.52.33-1.3,2.98-.6,3.02-.75,11.12-28.69,17.45-59.05,27.14-88.19,10.78-32.46,21.04-40.88,6.03-29.4-.51-1.97-3.32-4.99-3.02-6.78.9-5.31,49.68-78.78,57.29-91.21,11.52-13.99,32.34-42.97,45.98-52.76,24.93-17.9,57.45-19.15,10.55-4.52l-6.78,6.78c-36.04,137.7-84.18,271.82-132.66,405.53q6.78,12.06,13.57,24.12c-22.33,9.68-27.38-3.08-47.49-11.31-1.91,24.22-9.14,47.35-15.08,70.85-.22-12.25.28-34.97,2.26-45.98.31-1.75,3.74-.87,4.52-5.28Z"/>
          <g>
            <path class="cls-15" d="m699.51,1213.31c-14.53-28.42-24.32-65.41-46.73-88.95-.41-.43-4.07-10.82-3.02,2.26.47,5.85,8.35,25.64,7.54,41.46-1.9,37.14-39.67,52.65-70.1,61.81l-257.04-269.85c4.14-5.29,16.59-26.91,16.58-31.66,8.47-8,11.25-18.07,15.83-19.6q112.69,102.51,225.38,205.03c-.79,4.41-4.21,3.53-4.52,5.28-1.98,11.01-2.48,33.73-2.26,45.98,5.94-23.5,13.17-46.63,15.08-70.85,20.11,8.23,25.15,20.99,47.49,11.31q-6.78-12.06-13.57-24.12c48.48-133.71,96.63-267.83,132.66-405.53l6.78-6.78c46.9-14.63,14.37-13.38-10.55,4.52-13.65,9.8-34.46,38.77-45.98,52.76,22.58-36.87,39.19-77.35,73.87-105.53,18.99,9.59,42.21,7.17,48.24,49-14.77,137.31-64.28,345.69-108.54,476.39-7.71,22.76-18.14,44.81-27.14,67.09Z"/>
            <path class="cls-24" d="m629.41,1112.3l5.28,6.78c-2.11,54.26-5.8,36.16-5.28-6.78Z"/>
          </g>
          <path class="cls-25" d="m526.15,1041.45c-36.2-29.04-65.39-54.21-97.99-87.44,13.74-14.9,28.16-29.14,42.21-43.72,41.05,36.48,87.01,71.26,55.78,131.16Z"/>
          <path class="cls-25" d="m590.97,1091.2c-13-8.3-24.03-19.3-36.18-28.64l48.24-37.69c-4.71,21.79-8.21,44.34-12.06,66.33Z"/>
          <path class="cls-10" d="m625.64,941.95c6.6-25.82,13.36-51.74,19.6-77.64,4.21-17.49-1.48-28.44,13.57-39.95,15.01-11.48,4.75-3.06-6.03,29.4-9.68,29.15-16.02,59.5-27.14,88.19Z"/>
          <path class="cls-22" d="m431.17,625.36c-3.01,11.65-13.01,49.87-13.57,55.03-.3,2.77-.37,4.27,3.02,3.77-19.48,43.94-20.05,61.24-25.63,107.04-4.59,37.65-6.99,75.33-10.55,113.07-3.63-3.8-7.15-8.63-10.55-12.06-1.61-9.73-5.36-19.07-7.54-28.64,2.38.02,8.9-9.15,9.05-9.8,1.1-4.78-.27-73.14,1.51-97.99,3.66-50.99,11.96-102.26,18.09-153.02,7.4-3.12,18.68-5.87,22.61-9.8,12.86-23.93,22.45-42.42,45.23-58.04-14.57,29.13-23.55,59.04-31.66,90.45Z"/>
          <path class="cls-10" d="m366.35,863.56c2.18,9.57,5.93,18.91,7.54,28.64-2.96-2.99-5.98-6.2-9.05-9.05-6.77-31.57-16.96-62.37-22.61-94.22-2.86-16.13-19.44-136.13-18.09-143.22.38-1.99,2.96-2.79,4.52,0,5.41,9.65,25.66,165.01,37.69,217.84Z"/>
          <path class="cls-15" d="m346.75,871.1c-5.21-.58-11.91,1.2-15.08,6.03-3.25-7.16-7.56-13.47-10.55-21.11,19.74,2.33,24.38,14.18,25.63,15.08Z"/>
          <g>
            <path class="cls-25" d="m114.58,842.45c4.27.97,7.34-2.28,11.31-1.51,14.8,9.43,29.17,20.05,44.47,28.64,1.26,11.68,4.46,28.66,9.05,39.2,7.84,31.95,7.68,68.62,31.66,93.47-17.99,11.04-50.29,30.24-71.61,22.61-20.3-7.27-52.74-94.03-61.06-116.08l36.94,67.84c4.28-.24-8.06-58.38-6.78-65.58l-4.52-5.28c-3.17-11.33-8.2-24.31-13.57-34.67,6.67-2.84-9.73-27.21-6.03-40.7,13.79,10.8,18.93,9.51,30.15,12.06Z"/>
            <path class="cls-15" d="m214.08,893.71c6.12,25.86,9.28,51.92,11.31,78.39-3.45,1.87-43.67-58.01-45.98-63.32-4.58-10.54-7.79-27.51-9.05-39.2,14.47,8.12,29.05,16.38,43.72,24.12Z"/>
            <g>
              <path class="cls-29" d="m36.19,755.01c1.72,15.6,10.6,27.33,19.6,40.7-9.98,14.64-1.69,27.8,4.52,42.97,8.99,21.92,26.97,49.98,43.72,67.09l4.52,5.28c-1.28,7.2,11.07,65.34,6.78,65.58l-36.94-67.84c-7.29-19.34-14.89-38.29-21.11-58.04-9.49-30.14-14.38-68.27-28.64-94.98-1.16-7.02,4.78-15.23,6.03-21.86,3.3,2.35.6,12.9,1.51,21.11Z"/>
              <path class="cls-25" d="m60.31,801.75c-3.69-.77-3.49,2.45-3.02,5.28,3.54,20.95,23.18,44.79,33.17,64.07,5.37,10.37,10.4,23.34,13.57,34.67-16.75-17.11-34.73-45.16-43.72-67.09-6.22-15.16-14.5-28.32-4.52-42.97,1.35,2,3.06,4.05,4.52,6.03Z"/>
            </g>
            <path class="cls-29" d="m60.31,801.75c4.82,6.54,18.67,24.37,24.12,28.64-3.7,13.49,12.71,37.86,6.03,40.7-9.98-19.28-29.63-43.12-33.17-64.07-.48-2.82-.67-6.05,3.02-5.28Z"/>
          </g>
          <path class="cls-21" d="m489.97,815.32c-25.42,41.21-52.29,81.66-73.87,125.13-6.31-6.47-11.92-13.18-18.09-19.6l34.67-88.95c.92.98,2.01,1.94,3.02,3.02,5.28,5.61,7.23,4.21,7.54,4.52.34.35-.16,9.05,3.77,9.05,2.73,0,34.36-33.61,42.97-33.17Z"/>
          <path class="cls-14" d="m440.22,643.46c.4,2.11-.19,5.08,0,7.54-6.93,5.21-15.47,23.85-19.6,33.17-3.39.5-3.31-1-3.02-3.77.55-5.16,10.56-43.37,13.57-55.03,2.28,3.72,8.86,17.1,9.05,18.09Z"/>
          <path class="cls-12" d="m428.16,825.87c1.57,1.67,2.96,4.35,4.52,6.03l-34.67,88.95c-5.08-5.28-8.85-11.65-13.57-16.58,3.56-37.73,5.96-75.42,10.55-113.07,11.73,10.87,22.23,23.03,33.17,34.67Z"/>
          <g>
            <path class="cls-22" d="m253.28,914.81c1.75,5.94,2.66,12.19,4.52,18.09,1,20.15-3.47,41.44,5.28,60.3,26.55-5.35,49.85-11.17,67.09-33.17l257.04,269.85c30.43-9.16,68.2-24.67,70.1-61.81,10.02,55.45,19.05,11.46-4.52-43.72,22.42,23.54,32.2,60.53,46.73,88.95v3.02l-34.67,49c23.02,43.63,39.64,91.53,64.82,133.42-15.33,7.28-25.96,11.55-42.21,16.58-3.81-4.66-7.63,5.07-13.57-2.26-19.11-27.98-41.86-93.05-45.23-97.24-.28-.35.68-2.25-.75-3.02-39.14,8.4-78.59,17.92-119.1,19.6l-5.28-17.34c1.21,37.91,6.64,75.69,16.58,112.31-29.65.03-59.3-.02-88.95,0-15.84-55.94-25.43-113.55-22.61-171.86.18-.09-.8-3.19,1.51-3.02,13.81,7.6,146.62,36.22,166.58,37.69,25.61,1.88,52.93,1.55,74.62-14.32-73.48,22.08-198.54-67.19-248.75-116.84-15.5-15.33-29.7-33.05-43.72-49.75-12.21-14.55-22.01-32.05-34.67-46.73-21.18-24.56-44.35-47.45-70.85-66.33.05-2-4.09-20.85-5.28-21.11-12.6,8.5-23.96,19.18-36.94,27.14-23.98-24.85-23.82-61.51-31.66-93.47,2.31,5.31,42.53,65.19,45.98,63.32-2.02-26.47-5.19-52.53-11.31-78.39,12.77,6.74,25.38,12.09,38.44,18.09,1.38.63.55,2.92.75,3.02Z"/>
            <path class="cls-10" d="m330.16,960.04c-17.24,22-40.54,27.81-67.09,33.17-8.75-18.86-4.27-40.16-5.28-60.3,1.07,3.37,5.48,15.75,6.03,16.58,8.36,39.89,13.68,41.54,38.44,22.61,5.86-4.48,25.07-23.95,27.89-31.66,6.28-3.52,11.36-7.13,16.58-12.06,0,4.75-12.44,26.37-16.58,31.66Z"/>
            <path class="cls-5" d="m652.78,1124.36c23.57,55.18,14.54,99.17,4.52,43.72.81-15.81-7.07-35.61-7.54-41.46-1.06-13.08,2.61-2.69,3.02-2.26Z"/>
            <path class="cls-25" d="m263.83,949.49c10.1,15.12,52.88-1.51,66.33-9.05-2.82,7.71-22.03,27.18-27.89,31.66-24.76,18.92-30.08,17.28-38.44-22.61Z"/>
          </g>
          <path class="cls-25" d="m226.14,776.12c-16.22-1.11-26.68-5.07-40.7-12.06,5.95-11.54,15.21-41.72,19.6-48.24.75-1.11,9.55-8.33,12.06-10.55-1.55,19.21-.14,53.9,9.05,70.85Z"/>
        </g>
        <g>
          <path class="cls-13" d="m69.36,566.57c3.82,45.63,13.71,90.98,10.55,137.19-17.55-38.17-15.34-88.21-19.6-99.5-1.33-3.54-6.09-6.04-8.29-9.05-2.6,10.11.74,10.02.75,10.55,1.4,41.59,9.07,90.09,19.6,130.4,38.35,49.35,67.66,80.87,129.65,99.5-48.81-24.91-76.12-55.94-104.02-101.76,69.45,91.7,117.24,89.28,162.06,114.57,26.48,14.94,45.33,43.28,74.62,54.27-6.95,10.18-24.33,21.84-36.18,24.12q-17.34-4.52-34.67-9.05c-11.68-5.2-10.05-2.79-10.55-3.02-.21-.09.63-2.38-.75-3.02-13.06-6-25.67-11.35-38.44-18.09-14.67-7.74-29.25-16-43.72-24.12-15.31-8.59-29.67-19.22-44.47-28.64-3.97-.77-7.04,2.48-11.31,1.51-37.03-23.71-43.84-45.23-66.33-76.13-3.55-4.88-11.09-14.36-12.06-11.31-.91-8.2,1.79-18.76-1.51-21.11,3.82-20.18,7.1-40.25,7.54-61.06C26.65,647.94-.62,592.51.01,565.06c9.29,2.66,4.61-8.66,9.05-17.34,1.74-3.4,6.87-7.1,7.54-8.29,8.65-15.36,18.77-32.06,25.63-48.24l15.08,62.56c7.31,3.18,1.02,11.89,12.06,12.81Z"/>
          <path class="cls-31" d="m34.68,455.01c-2.1,28.81-15.71,57.03-18.09,84.42-.67,1.19-5.8,4.89-7.54,8.29-4.44,8.68.24,20-9.05,17.34.16-6.82,23.28-103.94,33.17-114.57.06.23.27-.12,1.51,4.52Z"/>
          <path class="cls-34" d="m227.65,776.12c-.18-20.33.36-63.96-9.05-75.38.37-2.84-.5-6.5,0-9.05,1.94-9.77,14.64-36.53,21.11-45.23,2.35-3.16,5.44-5.7,7.54-9.05.35-.22,1.08.16,1.51,0,4.42-3.14,7.65-9.02,10.55-13.57l27.89-18.09c-4.9,11.23-7.67,23.05-11.31,34.67-2.42,7.72-9.64,19.1-12.06,35.43-3,20.26-.76,42.82-1.51,63.32,20.11,38.91,39.38,79.08,48.24,122.11q12.81,19.22,25.63,38.44c-.44.88-.2,1.1-1.51,3.02-29.29-10.99-48.15-39.33-74.62-54.27-44.82-25.29-92.61-22.87-162.06-114.57-6.09-10-12.05-20.12-18.09-30.15,3.15-46.21-6.73-91.55-10.55-137.19-.06-.75-2.78-5.56-1.51-15.08.56-4.16.17-4.1,3.02-7.54,7.44-5.1,14.64,11.63,16.58,17.34,11.92,34.97-1.97,101.1,45.23,165.83,29.88,40.98,86.93,74.42,115.33,53.52,16.45-12.11-6.4-3.73-20.35-4.52Z"/>
          <path class="cls-36" d="m321.12,856.02c3,7.63,7.31,13.95,10.55,21.11,2.7,5.94,5.69,11.74,9.05,17.34-1.55,1.6-4.37,4.97-4.52,5.28q-12.81-19.22-25.63-38.44c-8.86-43.03-28.14-83.2-48.24-122.11.75-20.5-1.5-43.06,1.51-63.32,2.42-16.32,9.64-27.7,12.06-35.43,13.68-13.33-4.45,14.68-7.54,33.92-10.29,64.09,18.01,90.13,43.72,152.26,3.81,9.21,5.36,20.01,9.05,29.4Z"/>
          <path class="cls-34" d="m79.91,703.76c6.04,10.03,12,20.15,18.09,30.15,27.9,45.82,55.21,76.85,104.02,101.76-61.99-18.63-91.3-50.14-129.65-99.5-10.53-40.32-18.19-88.81-19.6-130.4l7.54-1.51c4.25,11.29,2.05,61.32,19.6,99.5Z"/>
          <path class="cls-31" d="m114.58,842.45c-11.22-2.55-16.36-1.26-30.15-12.06-5.45-4.27-19.3-22.11-24.12-28.64-1.46-1.98-3.17-4.03-4.52-6.03-9-13.38-17.87-25.11-19.6-40.7.97-3.06,8.51,6.43,12.06,11.31,22.49,30.91,29.31,52.42,66.33,76.13Z"/>
          <path class="cls-2" d="m43.73,482.15c-.34,2.87-.37,6.35-1.51,9.05-6.86,16.19-16.98,32.88-25.63,48.24,2.38-27.39,15.99-55.61,18.09-84.42,2.15,8.09,6.43,18.46,9.05,27.14Z"/>
          <path class="cls-20" d="m67.85,551.49c-1.27,9.52,1.44,14.32,1.51,15.08-11.05-.93-4.75-9.63-12.06-12.81l-15.08-62.56c1.14-2.7,1.17-6.18,1.51-9.05,6.3,20.92,15.07,55.52,24.12,69.35Z"/>
          <path class="cls-35" d="m60.31,604.26l-7.54,1.51c-.02-.53-3.35-.45-.75-10.55,2.2,3,6.96,5.51,8.29,9.05Z"/>
          <path class="cls-36" d="m90.46,554.51c.11.21.81,2.74,1.51,4.52.63,1.62,1.01,2.85,1.51,4.52,11.14,37.77.48,84.64,30.15,138.69,5.2,9.47,11.1,17.4,18.09,25.63,12.79,15.06,26.21,27.45,43.72,36.18,14.02,6.99,24.49,10.95,40.7,12.06.5.03,1.01-.03,1.51,0,13.95.79,36.8-7.58,20.35,4.52-28.4,20.9-85.45-12.54-115.33-53.52-47.2-64.73-33.3-130.87-45.23-165.83-1.94-5.7-9.15-22.43-16.58-17.34,7.38-8.91,15.61,3.12,19.6,10.55Z"/>
          <path class="cls-7" d="m93.48,556.02c.15.45-.15,1.05,0,1.51l-1.51,1.51c-.69-1.78-1.39-4.31-1.51-4.52l1.51-1.51c.47,1.15,1.11,1.84,1.51,3.02Z"/>
          <path class="cls-13" d="m227.65,776.12c-.5-.03-1.01.03-1.51,0-9.18-16.96-10.6-51.64-9.05-70.85.26-3.19,1.36-3.36,1.51-4.52,9.4,11.42,8.87,55.05,9.05,75.38Z"/>
          <path class="cls-3" d="m102.52,556.02c17.46,45.81,24.39,97.23,21.11,146.23-29.67-54.06-19.01-100.93-30.15-138.69,4.15-3.1.09-5.74,0-6.03-.15-.46.15-1.06,0-1.51,2.22-1.27,5.72-.37,9.05,0Z"/>
          <path class="cls-29" d="m93.48,563.56c-.49-1.68-.88-2.9-1.51-4.52l1.51-1.51c.09.29,4.15,2.93,0,6.03Z"/>
        </g>
        <path class="cls-13" d="m171.87,694.71c-9.62,9.25-24.54,14.07-25.63,15.08l-2.26-33.17c13.67,5.27,26.45,17.25,27.89,18.09Z"/>
        <g>
          <path class="cls-17" d="m500.52,515.31c-2.8,2.9-4.11,5.62-6.03,9.05-.68,1.21-10.85,11.16-15.08,23.37-14.15,40.91-.81,66,24.87,97.24,35.17-8.71,61.77-23.36,86.68-49.75-13.68,23.13-40.92,35.02-48.24,40.7-.23.18-4.29-.7-4.52,3.77l6.03,50.5c-.23.34,1.12,1.41-3.02,7.54-5.53,8.2-12.01,16.29-18.09,24.12l6.03-77.64c-28.39,11.85-30.67,11.4-48.24-14.32-.51-.75.53-4.42,0-5.28-.38-.61-2.83-.68-4.52-3.77-18.06-32.95-17.35-65.54,6.03-96.48,1.27-1.68,7.04-8.73,7.54-9.05,2.85-1.8,7.66-2.18,10.55,0Z"/>
          <path class="cls-34" d="m716.1,283.15c-3.06,10.71-20.39,35.03-28.64,40.7-.36.25-7.14,4.34-7.54,4.52-.62.28-13.36,2.4-12.06-1.51,6.38-6.28,9.91-13.85,12.06-22.61,15.73,6.05,20.89-25.66,23.37-37.69l-20.35,19.6c2.83-5.06,7.17-21.59,21.11-37.69,19.78-2.32,15.65,22.12,12.06,34.67Z"/>
          <path class="cls-34" d="m704.04,248.48c-13.94,16.1-18.28,32.63-21.11,37.69-.37.66.87,3.13-1.51,3.02-27.63,40.73-9.39,4.89-6.03-12.06,5.13-6.65,20.33-26.93,27.14-28.64.46-.12,1.02.06,1.51,0Z"/>
          <path class="cls-3" d="m520.12,433.91v1.51l-1.51,79.9c-4.7,5.65-5.88,6.39-13.57,8.29q-1.13,29.77-2.26,59.55-4.15-29.4-8.29-58.79c1.92-3.42,3.23-6.15,6.03-9.05l3.02-2.26,12.06-80.65c5.19-.7,4.29,1.45,4.52,1.51Z"/>
          <path class="cls-30" d="m675.39,277.12c-3.36,16.95-21.6,52.79,6.03,12.06.33,5.06-.31,10.19-1.51,15.08-2.15,8.76-5.68,16.34-12.06,22.61-4.59,11.42.11,13.46-10.55,30.15,11.29-37.33,2.08-79.07,22.61-113.07-1.89,10.93-2.37,22.31-4.52,33.17Z"/>
          <path class="cls-3" d="m437.2,230.39c1.83.39,4.85,4.13,7.54,4.52-2.68,7.38-1.4,20.58-1.51,28.64-1.43.14-2.82,1.65-3.02,3.02-9.49-10.25-11.99-23.95-15.08-36.94.74-1.24,10.36.39,12.06.75Z"/>
          <path class="cls-36" d="m616.6,515.31c-1.13,5.46-.92,11.13-1.51,16.58-18.94-10.72-11.82-73.93-9.05-96.48,1.02-8.28,1.01-21.85,3.02-27.14,1.12-2.96,7.6-8.39,10.55-10.55,1.49,26.21-13.03,99.78-3.02,117.59Z"/>
          <path class="cls-17" d="m628.66,525.87c-.7,18.79-14.13,40.81-25.63,55.78,5.63-16.91,10.14-31.95,12.06-49.75.59-5.46.37-11.13,1.51-16.58,2.09,3.72,7.64,9.35,12.06,10.55Z"/>
          <path class="cls-2" d="m606.05,435.41c-2.77,22.55-9.89,85.76,9.05,96.48-1.92,17.8-6.43,32.84-12.06,49.75-3.92,5.1-7.71,8.96-12.06,13.57-24.92,26.39-51.51,41.04-86.68,49.75-25.69-31.24-39.03-56.33-24.87-97.24,4.22-12.21,14.39-22.15,15.08-23.37q4.15,29.4,8.29,58.79,1.13-29.77,2.26-59.55c7.69-1.9,8.87-2.64,13.57-8.29,24.91-29.94,43.6-74.85,87.44-79.9Z"/>
          <path class="cls-3" d="m523.13,721.85c-4.64,17.4-48.86,71.72-61.81,90.45q-2.26-82.92-4.52-165.83c7.54-4.63,15.36-13.01,24.12-16.58,17.57,25.72,19.86,26.17,48.24,14.32l-6.03,77.64Z"/>
          <path class="cls-17" d="m480.92,629.89c-8.76,3.58-16.58,11.95-24.12,16.58-.37.22-1.14-.22-1.51,0-4.65,2.83-9.85,5.84-15.08,7.54-.05-1,.08-2.02,0-3.02-.19-2.46.4-5.43,0-7.54q18.09-11.31,36.18-22.61c1.69,3.09,4.14,3.16,4.52,3.77.53.86-.51,4.53,0,5.28Z"/>
          <path class="cls-20" d="m679.92,304.26c1.2-4.89,1.83-10.02,1.51-15.08,2.38.12,1.14-2.35,1.51-3.02l20.35-19.6c-2.47,12.03-7.64,43.73-23.37,37.69Z"/>
          <path class="cls-13" d="m609.06,408.28c-2.01,5.28-2,18.86-3.02,27.14-43.84,5.05-62.53,49.96-87.44,79.9l1.51-79.9c20.92,18.56,62.48,5.23,73.87-18.09,5.15-3.06,10.83-12.13,15.08-9.05Z"/>
          <path class="cls-17" d="m593.99,417.32c-11.39,23.32-52.95,36.65-73.87,18.09v-1.51c22.4,5.61,54.44-5.01,73.87-16.58Z"/>
          <path class="cls-13" d="m461.32,812.3c-6.1,8.82-9.99,19.6-18.09,27.14-.31-.32-2.25,1.09-7.54-4.52,2.78-.44,4.14-7.44,4.52-9.8,3.27-20.24,10.54-94.38,12.06-117.59,1.34-20.46-1.82-42.54-1.51-45.23.11-.91,6.48,1.36,4.52-15.83.37-.22,1.14.22,1.51,0q2.26,82.92,4.52,165.83Z"/>
          <path class="cls-20" d="m435.69,834.91c-1.01-1.07-2.1-2.03-3.02-3.02-1.57-1.68-2.95-4.36-4.52-6.03,2.24-48.14,14.09-127.53,12.06-171.86,5.23-1.7,10.42-4.71,15.08-7.54,1.96,17.19-4.42,14.92-4.52,15.83-.31,2.69,2.85,24.77,1.51,45.23-1.52,23.21-8.79,97.35-12.06,117.59-.38,2.36-1.75,9.36-4.52,9.8Z"/>
          <g>
            <path class="cls-32" d="m514.09,245.46c-.42,13.77-2.68,18.38-15.08,19.6,19.82-8.59,5.1-44.09-14.32-34.67-9.09,4.41-10.62,25.21,2.26,33.17-20.8-3.55-39.66-5.59-31.66-31.66,3.53-1.87,33.14-34.09,58.79,13.57Z"/>
            <g>
              <path class="cls-9" d="m499.01,265.06c-1.29.13-4.37,3.24-12.06-1.51-12.89-7.96-11.35-28.76-2.26-33.17,19.42-9.41,34.14,26.09,14.32,34.67Z"/>
              <path class="cls-18" d="m486.2,243.95c5.86-.73,6.59,9.92,1.51,10.55-5.86.73-6.59-9.92-1.51-10.55Z"/>
            </g>
          </g>
          <g>
            <path class="cls-34" d="m679.92,243.95c-20.54,34-11.32,75.73-22.61,113.07-8.86,13.87-26.63,24.53-37.69,36.94v3.77c-2.95,2.16-9.43,7.6-10.55,10.55-4.24-3.08-9.93,5.98-15.08,9.05-19.43,11.57-51.47,22.19-73.87,16.58-.23-.06.66-2.21-4.52-1.51-9.54-12.56-20.45-23.7-30.15-36.18-30.48-48.8-48.48-69.11-39.2-131.91.02-1.22-3.02-.6-3.02-.75.1-8.06-1.18-21.27,1.51-28.64,3.69.57,7.49-1.39,10.55-3.02-8,26.07,10.86,28.11,31.66,31.66,7.69,4.75,10.77,1.63,12.06,1.51,12.39-1.22,14.66-5.82,15.08-19.6.69-22.93-26.14-35.28-47.49-28.64-3.66,1.14-20.45,14.22-21.86,18.09-2.69-.39-5.71-4.13-7.54-4.52-8.74-52.8-2.31-90.16,39.95-125.13,74.27,15.37,184.82,56.85,202.77,138.69Z"/>
            <g>
              <path class="cls-33" d="m580.42,354.01c2.62-.5,6.2.34,9.05,0-11.29,11-18.22,23.77-33.17,31.66-31.18-.05-33.73-16.33-45.23-16.58-2.81-4.02-4.26-8.61-4.52-9.05,11.28,2.69,9.9-.15,10.55,0,9.89,2.33,16.93,11.37,45.98,3.02,4.03-1.16,12.54-8.14,17.34-9.05Z"/>
              <path class="cls-9" d="m609.82,186.67c16.44-1.39,40.86,1.18,47.49,18.84-40.69-21.51-79.65,12.3-78.39-6.03.46-6.69,24.19-12.25,30.9-12.81Z"/>
              <path class="cls-16" d="m584.94,343.45c2.21,1.97-6.97,8.74-7.54,9.05-17.45,9.39-43.65,6.06-61.81,0-3.04-5.63-15.78-8.37-21.11-10.55-.18-.42-7.34-3.64,2.26-3.02,12.21.8,33.89,12.9,88.19,4.52Z"/>
              <path class="cls-9" d="m460.57,185.16c41.75-6.5,60.53,20.98,40.7,19.6-3.54-.25-41.46-28.35-63.32,3.02-2.97-12.01,12.9-21.1,22.61-22.61Z"/>
              <path class="cls-34" d="m545.74,308.78c-8.3.69-18.49,3.92-12.06,9.05-5.46-.13-9.48,1.38-12.06-4.52.6-5.08,2.65-27.64,6.78-28.64,13.03-3.18,1.77,25.46,17.34,24.12Z"/>
              <path class="cls-10" d="m514.09,245.46c-25.65-47.65-55.27-15.44-58.79-13.57-3.07,1.63-6.86,3.58-10.55,3.02,1.41-3.87,18.2-16.95,21.86-18.09,21.34-6.64,48.18,5.71,47.49,28.64Z"/>
              <path class="cls-8" d="m639.21,243.95c-9.59-29.05-44.45-26.22-60.3-3.02,7.12-22.67,31.67-27.79,52.01-16.58,7.7,4.25,2.61,12.38,20.35,6.78-4.88,4.46-8.68,6.74-12.06,12.81Z"/>
              <path class="cls-16" d="m556.3,385.66c-28.92,15.25-31.84,2.52-45.23-16.58,11.5.25,14.05,16.54,45.23,16.58Z"/>
              <path class="cls-6" d="m589.46,354.01c-2.85.34-6.42-.5-9.05,0l-3.02-1.51c.57-.31,9.75-7.08,7.54-9.05,9.59-1.48,16.64-3.52,25.63-6.78-4.77,7.27-18.05,14.36-21.11,17.34Z"/>
              <path class="cls-20" d="m560.82,311.79c.26,2.47-28.04,25.73-42.21,3.77-.61-3.25,2.99-2.07,3.02-2.26,2.58,5.9,6.6,4.4,12.06,4.52,10.49.24,17.63-1.31,27.14-6.03Z"/>
              <path class="cls-6" d="m515.59,352.5c1.48,2.73,1.91,4.31,1.51,7.54-.65-.15.73,2.69-10.55,0-3.85-6.34-9.8-12.89-12.06-18.09,5.32,2.18,18.06,4.93,21.11,10.55Z"/>
              <path class="cls-36" d="m545.74,308.78c4.71-.39,9.59.28,14.32,0l.75,3.02c-9.51,4.72-16.64,6.27-27.14,6.03-6.43-5.13,3.76-8.36,12.06-9.05Z"/>
              <path class="cls-20" d="m590.22,320.84c4.09.65,30.29,6.2,30.9,8.29,2.23,7.64-27.61-5.16-30.9-8.29Z"/>
              <path class="cls-20" d="m493.73,317.82c8.73-1.62-14.36,17.66-15.83,11.31.12-3.43,14.87-11.13,15.83-11.31Z"/>
              <path class="cls-32" d="m577.4,352.5l3.02,1.51c-4.8.91-13.31,7.89-17.34,9.05-29.05,8.36-36.09-.69-45.98-3.02.4-3.23-.03-4.8-1.51-7.54,18.16,6.06,44.36,9.39,61.81,0Z"/>
              <g>
                <path class="cls-32" d="m639.21,243.95c-.32.57.51,7.08-3.02,12.81-12.39,20.15-40.3,8.5-59.55,12.81-2.53-1.79,1.03-24.73,2.26-28.64,15.85-23.21,50.71-26.03,60.3,3.02Z"/>
                <g>
                  <path class="cls-9" d="m611.32,233.4c21.39-4.55,26.49,29.34,9.05,33.17-23.17,5.08-24.18-29.94-9.05-33.17Z"/>
                  <path class="cls-32" d="m608.31,246.97c5.33-2.28,8.53,8.35,3.02,9.05-6.74.85-6.71-7.47-3.02-9.05Z"/>
                </g>
              </g>
            </g>
          </g>
        </g>
      </g>
    </g>
  </g>
</svg>