<svg width="26" height="26" viewBox="0 0 26 26" fill="none" xmlns="http://www.w3.org/2000/svg">
<path d="M22.1917 4H18.0028L18.5275 9.24665C18.5275 9.24665 19.5768 10.296 21.1508 10.296C21.9771 10.2971 22.7752 9.9963 23.3953 9.45022C23.4609 9.38897 23.5097 9.31202 23.5372 9.22665C23.5648 9.14127 23.5701 9.05029 23.5527 8.96228L22.8119 4.52467C22.7871 4.37807 22.7112 4.24497 22.5977 4.14894C22.4842 4.05291 22.3404 4.00015 22.1917 4Z"/>
<path d="M18.0027 4L18.5274 9.24665C18.5274 9.24665 17.4781 10.296 15.9041 10.296C14.3301 10.296 13.2808 9.24665 13.2808 9.24665V4H18.0027Z"/>
<path d="M13.2807 4V9.24665C13.2807 9.24665 12.2314 10.296 10.6574 10.296C9.08339 10.296 8.03406 9.24665 8.03406 9.24665L8.55872 4H13.2807Z"/>
<path d="M8.55878 4H4.3709C4.22189 3.99994 4.07769 4.05274 3.96395 4.149C3.8502 4.24526 3.77429 4.37875 3.7497 4.52571L3.00992 8.96333C2.99263 9.05134 2.99801 9.14229 3.02554 9.22765C3.05307 9.31301 3.10186 9.38996 3.16732 9.45127C3.5115 9.75558 4.28066 10.297 5.41079 10.297C6.98478 10.297 8.03411 9.2477 8.03411 9.2477L8.55878 4Z"/>
<path d="M3.84412 10.2959V20.7892C3.84412 21.3458 4.06522 21.8796 4.4588 22.2732C4.85237 22.6668 5.38618 22.8879 5.94278 22.8879H20.6334C21.19 22.8879 21.7238 22.6668 22.1174 22.2732C22.511 21.8796 22.7321 21.3458 22.7321 20.7892V10.2959"/>
<path d="M16.2608 22.8878V16.5918C16.2608 16.0352 16.0397 15.5014 15.6461 15.1078C15.2526 14.7143 14.7188 14.4932 14.1622 14.4932H12.0635C11.5069 14.4932 10.9731 14.7143 10.5795 15.1078C10.186 15.5014 9.96484 16.0352 9.96484 16.5918V22.8878" stroke-miterlimit="16"/>
</svg>
