<svg width="78" height="78" viewBox="0 0 78 78" fill="none" xmlns="http://www.w3.org/2000/svg">
<path d="M58.5 42.25V35.75H71.5V42.25H58.5ZM62.4 65L52 57.2L55.9 52L66.3 59.8L62.4 65ZM55.9 26L52 20.8L62.4 13L66.3 18.2L55.9 26ZM16.25 61.75V48.75H13C11.2125 48.75 9.68176 48.113 8.40776 46.839C7.13376 45.565 6.49784 44.0353 6.50001 42.25V35.75C6.50001 33.9625 7.13701 32.4317 8.41101 31.1577C9.68501 29.8837 11.2147 29.2478 13 29.25H26L42.25 19.5V58.5L26 48.75H22.75V61.75H16.25ZM35.75 46.9625V31.0375L27.7875 35.75H13V42.25H27.7875L35.75 46.9625ZM45.5 49.8875V28.1125C46.9625 29.4125 48.1412 30.9974 49.036 32.8672C49.9308 34.7371 50.3772 36.7813 50.375 39C50.375 41.2208 49.9276 43.2662 49.0328 45.136C48.1379 47.0058 46.9603 48.5897 45.5 49.8875Z"/>
</svg>
