<svg width="109" height="109" viewBox="0 0 109 109" fill="none" xmlns="http://www.w3.org/2000/svg">
<path d="M95.3749 59.0415H86.2916C85.0048 59.0415 83.9254 58.6055 83.0534 57.7335C82.1814 56.8615 81.7469 55.7836 81.7499 54.4998C81.7499 53.213 82.1859 52.1336 83.0579 51.2616C83.9299 50.3896 85.0078 49.9551 86.2916 49.9582H95.3749C96.6617 49.9582 97.7411 50.3942 98.6131 51.2662C99.4851 52.1382 99.9196 53.216 99.9166 54.4998C99.9166 55.7866 99.4806 56.866 98.6086 57.738C97.7366 58.61 96.6587 59.0445 95.3749 59.0415ZM75.3916 76.2998C76.1485 75.2401 77.1326 74.6346 78.3437 74.4832C79.5548 74.3318 80.6902 74.6346 81.7499 75.3915L89.0166 80.8415C90.0763 81.5984 90.6819 82.5825 90.8333 83.7936C90.9846 85.0047 90.6819 86.1401 89.9249 87.1998C89.168 88.2596 88.184 88.8651 86.9728 89.0165C85.7617 89.1679 84.6263 88.8651 83.5666 88.1082L76.2999 82.6582C75.2402 81.9012 74.6346 80.9172 74.4833 79.7061C74.3319 78.495 74.6346 77.3596 75.3916 76.2998ZM89.0166 28.1582L81.7499 33.6082C80.6902 34.3651 79.5548 34.6679 78.3437 34.5165C77.1326 34.3651 76.1485 33.7595 75.3916 32.6998C74.6346 31.6401 74.3319 30.5047 74.4833 29.2936C74.6346 28.0825 75.2402 27.0984 76.2999 26.3415L83.5666 20.8915C84.6263 20.1345 85.7617 19.8318 86.9728 19.9832C88.184 20.1345 89.168 20.7401 89.9249 21.7998C90.6819 22.8595 90.9846 23.995 90.8333 25.2061C90.6819 26.4172 90.0763 27.4012 89.0166 28.1582ZM22.7083 68.1248H18.1666C15.6687 68.1248 13.5296 67.2347 11.7492 65.4543C9.96888 63.674 9.08023 61.5364 9.08326 59.0415V49.9582C9.08326 47.4602 9.97343 45.3211 11.7538 43.5408C13.5341 41.7605 15.6717 40.8718 18.1666 40.8748H36.3333L52.1156 31.3373C53.6294 30.429 55.1615 30.429 56.7117 31.3373C58.2619 32.2457 59.0386 33.5703 59.0416 35.3113V73.6884C59.0416 75.4293 58.265 76.754 56.7117 77.6623C55.1585 78.5707 53.6264 78.5707 52.1156 77.6623L36.3333 68.1248H31.7916V81.7498C31.7916 83.0366 31.3556 84.116 30.4836 84.988C29.6116 85.86 28.5337 86.2945 27.2499 86.2915C25.9631 86.2915 24.8837 85.8555 24.0117 84.9835C23.1397 84.1115 22.7052 83.0336 22.7083 81.7498V68.1248ZM49.9583 65.6269V43.3727L38.8312 49.9582H18.1666V59.0415H38.8312L49.9583 65.6269ZM63.5833 69.7144V39.2852C65.627 41.1019 67.2741 43.3167 68.5246 45.9297C69.7751 48.5427 70.3988 51.3994 70.3958 54.4998C70.3958 57.6033 69.7705 60.4615 68.52 63.0745C67.2696 65.6875 65.624 67.9008 63.5833 69.7144Z" />
</svg>
