<svg width="19" height="17" viewBox="0 0 19 17" fill="none" xmlns="http://www.w3.org/2000/svg">
<g clip-path="url(#clip0_565_1599)">
<path d="M16.6669 0.404297H2.95257C2.02342 0.404297 1.23828 1.19879 1.23828 2.13899V11.6798C1.23828 12.62 2.02342 13.4145 2.95257 13.4145H11.112L13.884 16.5002C13.9391 16.5615 14.0166 16.5948 14.0954 16.5948C14.13 16.5948 14.1649 16.5884 14.1983 16.5754C14.3086 16.5323 14.3811 16.4251 14.3811 16.3057V13.4145H16.6669C17.596 13.4145 18.3811 12.62 18.3811 11.6798V2.13899C18.3811 1.19879 17.596 0.404297 16.6669 0.404297ZM4.66685 4.1628H8.95257C9.11057 4.1628 9.23828 4.29232 9.23828 4.45192C9.23828 4.61151 9.11057 4.74103 8.95257 4.74103H4.66685C4.50885 4.74103 4.38114 4.61151 4.38114 4.45192C4.38114 4.29232 4.50885 4.1628 4.66685 4.1628ZM14.3811 9.36688H4.66685C4.50885 9.36688 4.38114 9.23736 4.38114 9.07777C4.38114 8.91817 4.50885 8.78865 4.66685 8.78865H14.3811C14.5391 8.78865 14.6669 8.91817 14.6669 9.07777C14.6669 9.23736 14.5391 9.36688 14.3811 9.36688ZM14.3811 7.05396H4.66685C4.50885 7.05396 4.38114 6.92443 4.38114 6.76484C4.38114 6.60525 4.50885 6.47573 4.66685 6.47573H14.3811C14.5391 6.47573 14.6669 6.60525 14.6669 6.76484C14.6669 6.92443 14.5391 7.05396 14.3811 7.05396Z" fill="white"/>
</g>
<defs>
<clipPath id="clip0_565_1599">
<rect width="18" height="17" fill="white" transform="translate(0.666626)"/>
</clipPath>
</defs>
</svg>
