<svg width="36" height="36" viewBox="0 0 36 36" fill="none" xmlns="http://www.w3.org/2000/svg">
<g clip-path="url(#clip0_1057_3098)">
<path d="M17.9907 35.9825C27.8331 35.9825 35.982 27.8159 35.982 17.9912C35.982 8.14897 27.8154 0 17.9731 0C8.14848 0 -0.000488281 8.14897 -0.000488281 17.9912C-0.000488281 27.8159 8.16611 35.9825 17.9907 35.9825ZM16.0152 26.6164C15.4155 26.6164 14.9216 26.3695 14.463 25.7521L10.0358 20.3195C9.77122 19.9667 9.61247 19.5786 9.61247 19.1729C9.61247 18.3793 10.2298 17.7266 11.0235 17.7266C11.5351 17.7266 11.9231 17.8854 12.3641 18.4674L15.9447 23.0887L23.4762 10.9887C23.8114 10.4596 24.27 10.1774 24.7286 10.1774C25.5047 10.1774 26.2279 10.7065 26.2279 11.5355C26.2279 11.9236 25.9985 12.3293 25.7868 12.6997L17.4969 25.7521C17.1264 26.3342 16.6149 26.6164 16.0152 26.6164Z"/>
</g>
<defs>
<clipPath id="clip0_1057_3098">
<rect width="35.9825" height="36"/>
</clipPath>
</defs>
</svg>
