<?xml version="1.0" encoding="UTF-8"?>
<svg id="Layer_2" data-name="Layer 2" xmlns="http://www.w3.org/2000/svg" viewBox="0 0 644.07 1357.82">
  <defs>
    <style>
      .cls-1 {
        fill: #f2e8de;
      }

      .cls-1, .cls-2, .cls-3, .cls-4, .cls-5, .cls-6, .cls-7, .cls-8, .cls-9, .cls-10, .cls-11, .cls-12, .cls-13, .cls-14, .cls-15, .cls-16, .cls-17, .cls-18, .cls-19, .cls-20, .cls-21, .cls-22, .cls-23, .cls-24, .cls-25, .cls-26, .cls-27, .cls-28, .cls-29, .cls-30, .cls-31, .cls-32 {
        stroke-width: 0px;
      }

      .cls-2 {
        fill: #4c484b;
      }

      .cls-3 {
        fill: #521a19;
      }

      .cls-4 {
        fill: #2b2722;
      }

      .cls-5 {
        fill: #958180;
      }

      .cls-6 {
        fill: #70332a;
      }

      .cls-7 {
        fill: #958f86;
      }

      .cls-8 {
        fill: #9c6b29;
      }

      .cls-9 {
        fill: #301f19;
      }

      .cls-10 {
        fill: #3d3029;
      }

      .cls-11 {
        fill: #5a4e4a;
      }

      .cls-12 {
        fill: #371312;
      }

      .cls-13 {
        fill: #0f1917;
      }

      .cls-14 {
        fill: #0c0b0b;
      }

      .cls-15 {
        fill: #24100a;
      }

      .cls-16 {
        fill: #c49434;
      }

      .cls-17 {
        fill: #b09d96;
      }

      .cls-18 {
        fill: #d8cfc7;
      }

      .cls-19 {
        fill: #a5634b;
      }

      .cls-20 {
        fill: #b08b86;
      }

      .cls-21 {
        fill: #a6792b;
      }

      .cls-22 {
        fill: #865a24;
      }

      .cls-23 {
        fill: #342527;
      }

      .cls-24 {
        fill: #876264;
      }

      .cls-25 {
        fill: #944e3c;
      }

      .cls-26 {
        fill: #821520;
      }

      .cls-27 {
        fill: #685647;
      }

      .cls-28 {
        fill: #690f15;
      }

      .cls-29 {
        fill: #edc468;
      }

      .cls-30 {
        fill: #fae1a4;
      }

      .cls-31 {
        fill: #ee2424;
      }

      .cls-32 {
        fill: #f5f3f2;
      }
    </style>
  </defs>
  <g id="Layer_1-2" data-name="Layer 1">
    <g>
      <g>
        <path class="cls-28" d="m590.43,404.6c1.75,5.49,8.03,3.41,9.05,5.28.44.8-1.07,17.3-1.51,18.1-2.59,4.76-14.67-6.54-16.59,20.36-13.02-8.34-13.9,35.88-16.59,46-.9,3.39-6.64,13.19-7.54,16.59-1.59,5.96-1.31,14.35-1.51,15.08-.35,1.26-2.67.25-3.02,1.51-1.32,4.77-.24,13.1-3.02,22.62-.11.36-4.42,5.67-4.52,6.03-.91,3.06,2.02,4.31,1.51,6.03-.59,2-4.29,2.25-4.52,3.02-1.22,3.95-.32,8.54-1.51,12.06-1.75,5.18-7.23,14.59-9.05,19.61-.25.7,5.73,5.53-6.03,11.31-6.09-4.83-1.79-6.65-1.51-9.05,3.69-31.02,36.83-129.8,45.24-168.16,1.01-4.61-6.97-24.02,12.06-26.39.56-.07,4.8,6.78,9.05,0Z"/>
        <path class="cls-26" d="m522.56,692.65c-2.5,24.46-34.84,139.32-48.26,162.12-24.87,42.27,9.07-30.53,18.1-63.34,6.08-27,2.65-34.39,3.02-36.19,2.77-13.54,15.31-75.34,16.59-79.18,9.36-28.13,12.34-.86,10.56,16.59Z"/>
        <path class="cls-26" d="m581.38,448.34c-.2,2.81,9.48,21.47-12.06,44.49-6.09,25.32-11.65,51.37-19.61,76.16-9.53,29.67-10.44,43.9-22.62,40.72-2.09-.55-1.42-1.44-1.51-1.51,11.76-5.78,5.78-10.61,6.03-11.31,1.82-5.02,7.3-14.42,9.05-19.61,1.19-3.52.29-8.12,1.51-12.06.24-.77,3.93-1.02,4.52-3.02.51-1.73-2.41-2.97-1.51-6.03.11-.36,4.42-5.67,4.52-6.03,2.78-9.52,1.69-17.85,3.02-22.62.35-1.26,2.67-.25,3.02-1.51.2-.73-.08-9.12,1.51-15.08.9-3.4,6.64-13.2,7.54-16.59,2.69-10.12,3.57-54.34,16.59-46Z"/>
        <g>
          <path class="cls-13" d="m614.56,372.93c2.29-.68,4.29-1.44,4.52-1.51,4.16-1.16,14.81,2.39,21.11-3.77-.67-10.98.26-57.53-11.31-61.08-7.28-2.24-145.88-2.56-152.32,1.51-4.22,2.67-5.55,13.35-1.51,15.08,7.65,3.28,21.8-34.28,29.41,37.7.43,4.04-1.63,7.87,3.02,12.06-8.04-.54-24.05,1.03-27.9,0-12.37-3.31-17.65-59-6.03-66.36,6.65-4.21,149.22-4.99,156.84-3.02,13.62,3.52,18.77,67.36,7.54,70.88-2.47.78-21.94.47-23.38-1.51Z"/>
          <path class="cls-31" d="m619.08,371.42l-1.51-1.51c1.27-3,1.67-3.02,3.02-7.54,4.09-13.76,5.33-11.99-3.02-25.64-9.93-16.22-25.16-18.75-40.72-9.05-22.87,14.26-9.74,41.85-12.82,43.74-28.25-2.55-58.82,7.65-59.57-10.56-7.61-71.98-21.76-34.42-29.41-37.7-4.04-1.74-2.71-12.42,1.51-15.08,6.44-4.07,145.04-3.74,152.32-1.51,11.57,3.55,10.65,50.1,11.31,61.08-6.3,6.16-16.95,2.61-21.11,3.77Z"/>
        </g>
        <g>
          <path class="cls-14" d="m617.57,336.74c-51.38-30.01-41.29,67.14,3.02,25.64-1.34,4.52-1.74,4.54-3.02,7.54-.08.2-2.69.56-3.02,3.02-7.25,2.16-14.6,7.42-22.62,8.29,1.52,7.98-2.82,19.26-1.51,23.38-4.25,6.78-8.49-.07-9.05,0-1.32-19.07,4.78-27.47-7.54-30.16-13.89-15.81-6.99-31.04,3.02-46.75,15.56-9.7,30.79-7.17,40.72,9.05Z"/>
          <path class="cls-10" d="m576.86,327.69c-10,15.71-16.91,30.94-3.02,46.75-11.57-2.53-49.52-.38-66.36-1.51-4.64-4.2-2.59-8.02-3.02-12.06.75,18.21,31.32,8.01,59.57,10.56,3.08-1.89-10.05-29.48,12.82-43.74Z"/>
          <path class="cls-7" d="m619.08,371.42c-.23.06-2.23.82-4.52,1.51.33-2.46,2.93-2.82,3.02-3.02l1.51,1.51Z"/>
          <path class="cls-4" d="m617.57,336.74c8.35,13.64,7.11,11.87,3.02,25.64-44.3,41.5-54.4-55.65-3.02-25.64Z"/>
        </g>
      </g>
      <g>
        <g>
          <path class="cls-30" d="m368.73,1243.11c-5.48,3.43-18.93,11.74-18.1,18.1-1.59-9.02-10.62-32.39-10.56-51.28,10.86-.19,20.21-.44,30.16-6.03-.12,13.4,7.32,27.72-1.51,39.21Z"/>
          <path class="cls-24" d="m326.51,1208.43c4.17.47,2.85,1.5,3.02,1.51,6.36,17.62,9.13,51.91,19.61,60.32-5.02,5.64-17.02,8.56-23.38,4.52-1.56-.99-12.02-31.22-12.82-34.69-.37-1.63-.98-22-4.52-33.18.89.17,12.75.9,18.1,1.51Z"/>
          <path class="cls-20" d="m340.08,1209.94c-.07,18.89,8.97,42.26,10.56,51.28.06.34,2.3-.88,1.51,6.79-1.6,2.19-2.89,2.12-3.02,2.26-10.47-8.42-13.24-42.71-19.61-60.32,1.45.1,8.35.04,10.56,0Z"/>
        </g>
        <g>
          <path class="cls-14" d="m317.46,24.56c.64,5.13-4.16,8.61-7.54,13.57l-1.51,3.02c-.14.1.48,2.06-3.02,1.51-2.97-4.05-10.29-13.26-9.05-1.51-.19-.33-2.75-3.22-4.52-6.03,5.02-12.35-.93-14.06-4.52-19.61-.31-.48.29-2.69,0-3.02,17.27-16.77,18.24-.16,30.16,12.06Z"/>
          <g>
            <path class="cls-14" d="m287.3,12.49c.29.33-.31,2.53,0,3.02-10.4,3.54,1.55,14.89,4.52,19.61,1.77,2.81,4.34,5.71,4.52,6.03,3.29,5.76,17.37,34.93,21.87,34.69l2.26-2.26c-4.4-7.33-11.28-25.74-15.08-30.92,3.5.56,2.88-1.41,3.02-1.51,2.6-1.86.85-2.05,1.51-3.02,3.38-4.96,8.18-8.44,7.54-13.57.09.1.78-3.13,2.26-1.51,30.7,33.63,9.23,24.97,9.8,35.44,13.5,16.86,10.23,32.12,10.56,33.93-10.89,7.51-24.12-8.51-27.9-7.54-5.62,1.45,3.3,17.95-27.15-1.51-14.71,22.96-12.54,25.55-42.23,7.54-16.37,6.1-2.3,20.36-38.46,9.05l-4.52-21.87c30.52-9.34,5.16-18.8-2.26-55.05-21.3,5.74,11.98,31.81,11.31,39.97-.89,10.95-40.34,2.43-31.67,13.57,3.86,4.96,20.89-10.9,25.64,23.38,2.08,11.77-17.59,17.63-25.64,13.57-5.41-2.72-7.52-10.2-11.31-9.05-.62,4.36-11.01,13.26-11.31,14.33-3.28,11.52,4.24,95.27-2.26,101.8-.63.63-15.12,5.67-17.34,3.77.49-5.4-.06-38.33-3.77-39.97-10.61-.51-21.11.82-31.67,1.51-1.21.08-.6-3.03-.75-3.02-14.57-56.69-.86-59.41-1.51-62.59-.24-1.19-8.2-4.84-9.05-7.54-.91-2.91,2.59-10.1-4.52-24.13l18.1-16.59c-10.93-13.41,9.45-42.63,21.11-41.47,2.32,3.61-1.77,16.51-1.51,17.34.49,1.53,19.78,15.22,12.06-14.33,3.07-.99,21.9-22.23,24.88-22.62,2.38-.32,5.98,3.36,8.29,4.52l-7.54,27.9c17.04,7.79,19.35,25.25,25.64,21.11,5.25-17.96-14.43-19.61-15.08-24.13-.17-1.17,11.02-17.6,6.03-21.87,18.09-11.83,16.1-17.28,30.16-12.06-5.52,18.36,4.66,11.97,18.1,17.34-4.19,16.39,13.17,44.29,13.57,46.75.15.89-7.28.23-3.77,3.77,31.47,12.96-6.19-19.89-2.26-52.03-12.51-2.35-17.09-12.23-18.1-12.82,11.03-17.68,27.71-1.4,29.41-1.51,2.55-.16,12.13-17.84,24.13,0,6.41-5.46,15.37-1.07,20.36,4.52Z"/>
            <g>
              <path class="cls-9" d="m213.4,9.47c1.01.59,5.58,10.47,18.1,12.82-3.93,32.14,33.73,64.99,2.26,52.03-3.51-3.54,3.92-2.88,3.77-3.77-.41-2.46-17.76-30.36-13.57-46.75-13.44-5.38-23.61,1.02-18.1-17.34,1.61.6,7.19,2.81,7.54,3.02Z"/>
              <path class="cls-9" d="m175.7,18.52c4.99,4.26-6.2,20.69-6.03,21.87.65,4.52,20.33,6.17,15.08,24.13-6.29,4.14-8.6-13.32-25.64-21.11l7.54-27.9c2.86,1.44,5.56,3.52,9.05,3.02Z"/>
              <path class="cls-9" d="m133.47,33.6c7.71,29.55-11.58,15.86-12.06,14.33-.26-.83,3.83-13.74,1.51-17.34,3.61.36,4.85,4.86,10.56,3.02Z"/>
              <path class="cls-9" d="m204.35,99.96h-1.51c-4.75-34.28-21.78-18.41-25.64-23.38-8.67-11.15,30.78-2.63,31.67-13.57.67-8.15-32.61-34.22-11.31-39.97,7.42,36.25,32.79,45.71,2.26,55.05l4.52,21.87Z"/>
              <path class="cls-9" d="m271.46,48.69c9.12-3.99,23.67,31.36,9.05,30.16-1.65-.13-14.51-27.77-9.05-30.16Z"/>
              <path class="cls-9" d="m305.39,42.65c3.8,5.18,10.69,23.58,15.08,30.92l-2.26,2.26c-4.5.24-18.58-28.93-21.87-34.69-1.24-11.75,6.08-2.54,9.05,1.51Z"/>
              <path class="cls-9" d="m254.87,23.05c14.18,3.82,23.89,27.07,12.06,25.64-1.52-.18-16.91-24.3-12.06-25.64Z"/>
              <path class="cls-9" d="m149.3,48.69c10.93-.89,4.46,18.49,1.51,24.13-1.77.11-13.56-23.15-1.51-24.13Z"/>
              <path class="cls-9" d="m123.67,59.24c9.11-2.25,3.05,22.73-3.02,18.1-2.09-1.6-2.15-16.82,3.02-18.1Z"/>
              <path class="cls-9" d="m291.82,35.11c-2.97-4.72-14.93-16.06-4.52-19.61,3.59,5.54,9.54,7.26,4.52,19.61Z"/>
              <path class="cls-15" d="m143.27,83.37c.26-.11,6.87.39,5.28,2.26-12.38,33-16.03,2.27-5.28-2.26Z"/>
              <path class="cls-9" d="m153.83,77.34c16.65,11.41,17.14,4.09,18.1,4.52,1.38.62-1.08,18.54-20.36-2.26l2.26-2.26Z"/>
              <path class="cls-9" d="m116.13,90.91c3.96,3.02,1.52,4.24,1.51,4.52-.35,9.75-5.16,6.65-1.51-4.52Z"/>
              <path class="cls-11" d="m308.41,41.14l1.51-3.02c-.66.97,1.09,1.15-1.51,3.02Z"/>
            </g>
          </g>
        </g>
        <g>
          <path class="cls-8" d="m68.62,371.42c-.35,9.61,7.39,14.93,7.54,15.84.86,5.16-18.45,88.17-21.11,102.55-.46,2.47-7.98,10.67-1.51,27.9-2.77,12.49-7.11,24.76-7.54,37.7-3.3-.59-11.47.09-12.06,0-11.27-1.77-22.46-4.3-33.93-4.52,12.21-58.7,34.96-116.99,55.05-174.19,3.01-3.53,10.05-3.49,13.57-5.28Z"/>
          <path class="cls-21" d="m174.19,359.36c-10.94,3.03-96.17,15.71-98.03,20.36-.6,1.51,7.28,8.64,7.54,13.57.34,6.39-26.24,106.72-30.16,124.42-6.47-17.23,1.05-25.43,1.51-27.9,2.66-14.38,21.97-97.39,21.11-102.55-.15-.91-7.89-6.23-7.54-15.84,12.92-6.55,73.94-29.63,87.47-33.18,5.03,7.69,11.71,14.59,18.1,21.11Z"/>
          <g>
            <path class="cls-13" d="m302.38,350.31c-2.08,36.1-19.86,61.05-40.72,88.98-2.4-.17-5.66-1.66-7.54-3.02-7.62-5.52-21.53-20.88-28.65-28.65-5.62-6.14-22.47-21.76-22.62-23.38-.38-4.04,14.98-3.96,7.54-15.84,5.65,5,11.79,9.46,18.1,13.57,8.07,5.26,16.78,9.82,24.88,15.08,14.24-19.64,32.08-31.5,20.36-52.78,12.06,0,27.21,5.78,28.65,6.03Z"/>
            <path class="cls-14" d="m186.25,333.72c-1.73,10.64,15.8,27.31,24.13,34.69,7.44,11.88-7.92,11.8-7.54,15.84.15,1.62,17,17.24,22.62,23.38-17.91-14.84-35.02-31.66-51.28-48.26-6.39-6.52-13.07-13.43-18.1-21.11,9.77-2.56,20.07-3.97,30.16-4.52Z"/>
          </g>
          <path class="cls-8" d="m269.2,665.51c.46.64.57,6.63,3.77,6.03l2.26-10.56c.62,9.03,1.61,18.08,1.51,27.15-23.61,2.2-47.2,5.48-70.88,7.54q-47.51-116.88-95.01-233.76c-1.76-5.48-16.91-51.81-14.33-52.78,62.99,81.51,112.7,172.68,172.68,256.38Z"/>
          <g>
            <path class="cls-30" d="m424.54,562.95c-4.47.57-9.08.98-13.57,1.51-.98.11-2.04-.14-3.02,0-6.85-53.43-19.8-107.86-31.67-159.11.19,26.92-3.42,53.88-4.52,80.68-1.05,25.61-1.96,63.73-1.51,88.98.21,11.59-.87,8.79,1.51,22.62v83.7c-.43.9-2.55-.12-6.03.75-22.32,5.58-64.3,3.74-88.98,6.03.1-9.07-.89-18.11-1.51-27.15-5.09-73.86-11.39-147.66-13.57-221.69,20.86-27.93,38.64-52.88,40.72-88.98,14.4,2.53,78.73,10.33,85.96,20.36q25.64,95.01,51.28,190.02c-2.92,4.13-9.45,1.55-15.08,2.26Z"/>
            <path class="cls-29" d="m407.95,564.46c-5.48.77-13.91.11-19.61,1.51-1.77-13.99-9.98-33.38-12.06-46-3.01-18.14.95-35.25-4.52-33.93,1.1-26.81,4.71-53.76,4.52-80.68,11.87,51.25,24.82,105.68,31.67,159.11Z"/>
            <path class="cls-16" d="m261.66,439.29c2.19,74.03,8.48,147.84,13.57,221.69l-2.26,10.56c-3.2.6-3.31-5.4-3.77-6.03-5.51-76.4-13.86-152.6-15.08-229.23,1.88,1.36,5.14,2.84,7.54,3.02Z"/>
            <path class="cls-8" d="m388.34,565.97c-.98.24-13.02,6.99-18.1,9.05-.46-25.25.45-63.37,1.51-88.98,5.47-1.32,1.52,15.79,4.52,33.93,2.09,12.61,10.29,32.01,12.06,46Z"/>
          </g>
          <path class="cls-22" d="m205.86,695.67c-16.09,1.4-73.04,9.09-76.91,9.05-.61,0-4.26-1.86-12.06-2.26-1.2-43.48-5.04-86.98-6.03-130.45-.84-36.64.65-73.44,0-110.09q47.51,116.88,95.01,233.76Z"/>
          <path class="cls-30" d="m225.46,407.62c7.12,7.78,21.04,23.14,28.65,28.65,1.22,76.64,9.57,152.84,15.08,229.23-59.98-83.7-109.69-174.87-172.68-256.38-2.58.98,12.57,47.3,14.33,52.78.65,36.66-.84,73.45,0,110.09-5.28-2.33-11.68-2.43-13.57-3.02-17.41-5.4-33.24-10.37-51.28-13.57.43-12.94,4.77-25.21,7.54-37.7,3.93-17.7,30.5-118.03,30.16-124.42-.26-4.93-8.14-12.06-7.54-13.57,1.85-4.65,87.09-17.33,98.03-20.36,16.25,16.6,33.36,33.42,51.28,48.26Z"/>
        </g>
        <g>
          <path class="cls-25" d="m273.72,344.28c11.72,21.29-6.12,33.14-20.36,52.78-8.1-5.26-16.81-9.82-24.88-15.08,12.71-15.88,26.17-31.14,39.21-46.75-.48,3.64,5.77,8.57,6.03,9.05Z"/>
          <path class="cls-14" d="m347.62,139.17c.96,6.28.64,13.35,1.51,19.61-5.36-6.33-42.57-8.67-43.74-11.31-11.62-26.44,30.62-10.92,42.23-8.29Z"/>
          <g>
            <path class="cls-25" d="m340.08,92.42c2.82,15.59,5.14,31.1,7.54,46.75-11.61-2.63-53.85-18.15-42.23,8.29,1.16,2.65,38.38,4.98,43.74,11.31,7.49,54.03,28.9,89.87-12.06,137.99-13.42,15.77-43.2,37.98-64.85,32.42-.83-.21,2.52-2.47.75-3.02-34.85-10.79-94.42-42.29-106.32-79.18-8.72-27.03-1.64-79.69,3.02-108.58,1.41-8.75,5.05-26.68,7.54-24.88,8.05,4.05,27.72-1.8,25.64-13.57h1.51c36.15,11.31,22.09-2.94,38.46-9.05,29.68,18.01,27.51,15.42,42.23-7.54,30.44,19.46,21.52,2.96,27.15,1.51,3.78-.97,17.01,15.05,27.9,7.54Z"/>
            <g>
              <path class="cls-14" d="m248.84,134.65c9.55-.29,18.68-1.28,17.34,11.31-1.33,12.55-24.04,8.5-46,12.82-8.4,1.65-24.8,10.91-26.39,6.79.69-4.44-1.29-14.05.75-17.34,2.06-3.33,48.23-13.39,54.29-13.57Z"/>
              <path class="cls-32" d="m278.25,274.9c8.43.34,21.93-1.19,30.16-3.02q-1.51,11.31-3.02,22.62c-2.6,2.19-4.43,6.62-8.29,7.54-15.55,3.69-39.64-10.64-47.51-24.13-1.41-2.42-3.71-6.4-3.77-9.05,1.41-.86,25.23,5.74,32.42,6.03Z"/>
              <path class="cls-14" d="m223.2,187.43c22.7-8.2,26.52,41.13,3.77,33.93,3.53-24.03-13.58-30.39-3.77-33.93Z"/>
              <path class="cls-14" d="m334.8,181.4c16.17-4.86,18.64,34.23,4.52,34.69-7.1.23-10.32-32.95-4.52-34.69Z"/>
              <path class="cls-12" d="m278.25,274.9c-7.19-.29-31.02-6.89-32.42-6.03.06,2.65,2.36,6.63,3.77,9.05-.04,2.64-4.51-.61-6.03-2.26-23.61-25.63.08-8.11,18.85-14.33,10.21,12.44,19.7,6.09,15.84,13.57Z"/>
              <path class="cls-15" d="m305.39,294.51q1.51-11.31,3.02-22.62c1.01-.22,9.39-7.85,19.61-6.79-6.34,9.02-14.31,22.42-22.62,29.41Z"/>
              <g>
                <path class="cls-12" d="m296.35,214.58l-3.02,7.54c-25.05,13.85,23.5,16.47,8.29,24.13-27.74,13.98-44.21-34.9-5.28-31.67Z"/>
                <path class="cls-32" d="m293.33,222.12l3.02-7.54c19.3,1.6,3.61,3.88-3.02,7.54Z"/>
              </g>
            </g>
          </g>
          <g>
            <path class="cls-12" d="m177.2,113.53c-2.49-1.79-6.13,16.13-7.54,24.88-4.66,28.89-11.74,81.56-3.02,108.58,11.91,36.89,71.48,68.39,106.32,79.18,1.77.55-1.59,2.8-.75,3.02-1.14,2.24-2.92,4.12-4.52,6.03-13.04,15.62-26.5,30.87-39.21,46.75-6.31-4.11-12.45-8.57-18.1-13.57-8.33-7.38-25.86-24.05-24.13-34.69l4.52-23.38c-24.52-12.53-49.02-30.48-55.8-58.82-2.91-3.08-24.96.77-38.46-8.29-13.47-9.05-32.37-57.55,2.26-60.32.15-.01-.45,3.09.75,3.02,10.56-.68,21.06-2.02,31.67-1.51,3.71,1.63,4.26,34.56,3.77,39.97,2.23,1.9,16.72-3.14,17.34-3.77,6.5-6.52-1.02-90.28,2.26-101.8.31-1.07,10.69-9.97,11.31-14.33,3.79-1.15,5.9,6.32,11.31,9.05Z"/>
            <path class="cls-15" d="m116.13,193.46c17.36-2.68,10.86,38.53-4.52,30.16-8.82-4.8-6.1-28.52,4.52-30.16Z"/>
          </g>
        </g>
        <g>
          <g>
            <path class="cls-25" d="m578.36,608.2c2.63,20.93-3.31,71.85-24.13,82.95-57.45-19.33,10.5-22.9,4.52-33.93-15.88,3.55-43.75,5.61-35.44-17.34,37-6.82,42.66-8.25,3.02-10.56-3.13-4.81-3.3-12.78-3.77-13.57.4,3.66,17.26.94,21.87,0,14.8-3.02,28.87-15.57,33.93-7.54Z"/>
            <path class="cls-19" d="m578.36,608.2c-5.06-8.03-19.13,4.52-33.93,7.54-4.61.94-21.46,3.66-21.87,0-.51-4.64,3.82-3.76,4.52-6.03,12.18,3.18,13.1-11.05,22.62-40.72,15.5,7.64,26.49,22.01,28.65,39.21Z"/>
            <path class="cls-25" d="m524.07,599.15c-.29,2.4-4.58,4.22,1.51,9.05.08.07-.58.96,1.51,1.51-.7,2.27-5.04,1.39-4.52,6.03-1.24-2.1-11.82-16.29-12.82-16.59-5.58-1.68-20.91,16.95-23.38-25.64,23.98-8.84,12.85,20.35,18.85,22.62,1.03.39,11.89-9.19,18.85,3.02Z"/>
          </g>
          <g>
            <path class="cls-25" d="m481.84,614.23c.38,4.33,4.98,22.73.75,24.13-14.14-2.97-50.86-10.32-61.08-18.1,12.8-1.81-2.11-18.08,9.05-28.65,2.09,1.87,42.75,16.22,51.28,22.62Z"/>
            <path class="cls-25" d="m424.54,562.95c3.86,8.19.23,23.46,6.03,28.65-11.15,10.58,3.76,26.85-9.05,28.65-2.04-1.55-4.04-.92-6.03-5.28l-4.52-50.52c4.49-.52,9.1-.94,13.57-1.51Z"/>
            <g>
              <path class="cls-12" d="m407.95,564.46c.97-.14,2.04.11,3.02,0l4.52,50.52c1.99,4.36,4,3.73,6.03,5.28,10.21,7.77,46.93,15.12,61.08,18.1,4.23-1.4-.38-19.8-.75-24.13-1.69-19.28-9.26-35.63,4.52-40.72,2.47,42.59,17.79,23.95,23.38,25.64,1,.3,11.58,14.49,12.82,16.59.47.79.64,8.77,3.77,13.57,39.64,2.3,33.98,3.73-3.02,10.56-8.31,22.95,19.56,20.89,35.44,17.34,5.97,11.03-61.98,14.61-4.52,33.93-17.81,9.49-20.02.68-31.67,1.51,1.78-17.45-1.19-44.72-10.56-16.59-62.67,2.65-127.8-6.1-140.25-78.42-2.38-13.83-1.3-11.03-1.51-22.62,5.08-2.06,17.11-8.81,18.1-9.05,5.69-1.4,14.12-.73,19.61-1.51Z"/>
              <path class="cls-3" d="m499.19,617.25c11.72-4.81,17.51,12.19,19.61,21.11-7.98,4.37-30.2-16.77-19.61-21.11Z"/>
            </g>
          </g>
        </g>
        <g>
          <path class="cls-25" d="m76.16,606.69c5.33,36.44-2.76,29.23-3.02,30.92-2.11,13.9-2.07,26.67-3.02,33.18-.42,2.88-4.49,4.21-4.52,4.52-3.02,28.45,2.61,85.54-1.51,120.65,2.81,4.46,7.24,3.51,9.05,5.28,37.52,36.68,18.78,60.63,25.64,79.18,1.06,2.87,13.12,8.06,12.06,21.87-.25,3.24-5.62,14.46-8.29,15.08-4.51,1.04-6.44-4.3-6.79-4.52,18.02-27.73-17.52-22.21-7.54-59.57-27.18,4.17-12.38,27.14-15.84,29.41-.44.29-8.62-1.93-9.8-3.77-3.7-5.73,4.6-14.99-7.54-9.8-4.91,2.1-7.27,5.66-12.06,7.54-.71-24.83,6.5-49.83,10.56-74.65-3.79-26.86-16.09-172.76-13.57-182.48,2.69-10.39,27.17-14.11,36.19-12.82Z"/>
          <path class="cls-25" d="m79.18,606.69c-2.72,16.8,1.3,151.88-6.03,194.55-1.81-1.77-6.24-.82-9.05-5.28,4.11-35.11-1.51-92.2,1.51-120.65.03-.32,4.1-1.64,4.52-4.52.95-6.5.9-19.28,3.02-33.18.26-1.69,8.34,5.53,3.02-30.92h3.02Z"/>
          <g>
            <path class="cls-12" d="m46,555.41c18.04,3.2,33.86,8.18,51.28,13.57-2.78,11.27-16.49,27.79-18.1,37.7h-3.02c-9.02-1.29-33.51,2.43-36.19,12.82-2.52,9.72,9.78,155.62,13.57,182.48-4.06,24.82-11.27,49.82-10.56,74.65.02.57-3.24,5.35-1.51,11.31,2.96,10.19,27.69,34.57,13.57-18.85,12.14-5.18,3.85,4.07,7.54,9.8,1.18,1.84,9.36,4.06,9.8,3.77,3.46-2.27-11.35-25.24,15.84-29.41-9.98,37.36,25.56,31.84,7.54,59.57-16.96-10.94-.86,2.57-11.31,6.03-7.9,2.61-17.17-7.95-18.1-7.54-1.45.64-7.96,21.67-23.38.75-15.88-21.54-8.02-79.7-1.51-105.57-9.12-82.93-27.63-168.67-7.54-251.1.6.09,8.76-.59,12.06,0Z"/>
            <path class="cls-12" d="m42.98,876.64c4.8-1.89,7.16-5.44,12.06-7.54,14.12,53.42-10.61,29.05-13.57,18.85-1.73-5.96,1.52-10.74,1.51-11.31Z"/>
            <path class="cls-6" d="m67.87,887.2c14.97,4.85,12.95,29.61.75,20.36-.85-.64-3.29-19.77-.75-20.36Z"/>
          </g>
        </g>
        <g>
          <path class="cls-23" d="m368.73,689.64c14.43,113.88,5.29,378.24,9.05,508.24-2.51,3.93-4,4.04-7.54,6.03-9.95,5.59-19.31,5.84-30.16,6.03-2.2.04-9.11.1-10.56,0-.17-.01,1.16-1.04-3.02-1.51-14-134.75-24.76-269.72-33.18-404.93q-20.74-.38-41.47-.75c-1.81,1.28-.13,6.92-.75,9.05-5.35,18.21-17.51,103.81-21.11,130.45-4.88,36.01-23.22,243.97-28.65,255.63-.98,2.1-10.97,11.57-12.06,12.06-5.18,2.35-27.94,4.77-34.69,4.52-3.03-.11-8.88-.99-12.06-1.51-.24-.04.53-.21-4.52-1.51,16.3-158.37,17.21-317.98,39.21-475.81,59.32-30.85,125.61-40.52,191.53-46Z"/>
          <path class="cls-14" d="m365.72,682.09c4.29,1.3,2.65,4.62,3.02,7.54-65.92,5.47-132.21,15.14-191.53,46-22,157.83-22.92,317.44-39.21,475.81-4.07-1.04-10.12-2.58-13.57-4.52-1.46-.82-11.73-9.83-12.06-10.56-6.02-13.25,4.62-255.64,6.03-291.07,2.67-66.91,5.74-133.79,10.56-200.58,3.87.04,60.82-7.65,76.91-9.05,23.68-2.06,47.27-5.34,70.88-7.54,24.68-2.3,66.66-.45,88.98-6.03Z"/>
          <path class="cls-14" d="m326.51,1208.43c-5.35-.6-17.21-1.33-18.1-1.51-.6-.12-6.74-5.14-10.56-6.03l-46.75-389.09c.63-2.13-1.05-7.77.75-9.05q20.74.38,41.47.75c8.42,135.21,19.18,270.18,33.18,404.93Z"/>
          <g>
            <path class="cls-24" d="m137.99,1211.44c5.06,1.3,4.29,1.47,4.52,1.51l3.02,37.7c-6.8-5.66-19.5-11.14-21.11-19.61-1.09-5.74.79-17.01,0-24.13,3.45,1.94,9.5,3.48,13.57,4.52Z"/>
            <path class="cls-30" d="m189.27,1209.94c-.4,11.98,2.76,24.35,3.02,36.19.06,2.92-2.25,18.35-3.02,24.13-18.05,6.23-15.52,13.07-25.64-4.52-1.41-2.45-2.96-.27-4.52-6.03-3.44-12.63-1.08-31.71-4.52-45.24,6.74.25,29.51-2.18,34.69-4.52Z"/>
            <path class="cls-20" d="m154.58,1214.46c3.45,13.53,1.09,32.61,4.52,45.24-2.75,1.65-1.95,1.36-4.52,0-4.39-2.33-6.28-6.75-9.05-9.05l-3.02-37.7c3.18.51,9.04,1.4,12.06,1.51Z"/>
          </g>
          <g>
            <path class="cls-4" d="m441.12,1277.8c8.3,5.92,28.23,24.23,28.65,34.69.24,5.84-.92,7.41-6.03,10.56-.03-7.71-18.74,1.05-38.46,1.51-2.64-1.01-17.03-42.47-30.92-46.75,12.62-6.45,11.08-13.17,15.84-16.59,1.73-.27,27.93,14.46,30.92,16.59Z"/>
            <path class="cls-32" d="m475.81,1312.49c5.87,12.8,12.03,22.23-4.52,31.67-24.11,1.5-75.35,12.71-78.42-18.1,14.61,1.75,59.77,3.82,70.88-3.02,5.11-3.14,6.27-4.72,6.03-10.56,2.1.34,1.18-3.05,2.26-3.02.65.02,2.01,2.99,3.77,3.02Z"/>
            <path class="cls-17" d="m392.86,1326.06c3.07,30.8,54.31,19.6,78.42,18.1-10.05,5.73-54.13,8.28-67.87,7.54-14.41-18.31-42.16-21.34-25.64-28.65,4.81.93,10.31,2.44,15.08,3.02Z"/>
            <g>
              <path class="cls-14" d="m394.37,1277.8c13.88,4.29,28.27,45.74,30.92,46.75,19.72-.46,38.42-9.22,38.46-1.51-11.11,6.84-56.27,4.77-70.88,3.02-4.77-.57-10.27-2.09-15.08-3.02-11.68-2.24-65.55-18.61-83.7-24.13-1.83-.56-6.18-1.78-5.28-4.52,3.36-24.88-2.52-19.17,10.56-39.21,3.17-4.86,8.82-11.64,13.57-15.08.8,3.47,11.26,33.7,12.82,34.69,6.36,4.03,18.36,1.12,23.38-4.52.13-.14,1.42-.08,3.02-2.26.79-7.67-1.45-6.44-1.51-6.79-.83-6.36,12.62-14.67,18.1-18.1,20.34-12.72-1.2,5.24,25.64,6.79-23.3,20.84-19.5,6.19-24.88,6.79-6.91.76.1,10.13,4.52,10.56,5.77.55,25.95-18.96,29.41-11.31,7.11,15.71-36.97,22.44-26.39,26.39,5.22,1.95,12.56-2.08,17.34-4.52Z"/>
              <path class="cls-32" d="m357.42,1265.74c3.16-1.38,18.06,2.84,15.84,8.29-2.86,7.02-25.52-4.06-15.84-8.29Z"/>
            </g>
          </g>
          <g>
            <path class="cls-14" d="m134.98,1276.29c-.24.17-2.54,4.31-3.77,4.52-3.42.58-33.29-1.75-6.79,3.02-27.71,16.18-55.02,33.33-76.91,57.31-1,.16-2.34-.22-3.02,0-6.05-11.62-12.66-5.48-4.52-19.61,3.42-5.94,31.76-33.65,39.21-40.72,6.52-6.19,14.3-12.02,21.11-18.1,5.28,10.37,23.08,9.41,34.69,13.57Z"/>
            <path class="cls-14" d="m124.42,1231.05c1.61,8.46,14.31,13.95,21.11,19.61,2.77,2.3,4.66,6.72,9.05,9.05-1.06,7.18-14.32,9.98-15.08,10.56q-16.59-6.03-33.18-12.06c3.01-2.58,5.3-.44,7.54-3.77.44-8.54-2.12-30.8,10.56-23.38Z"/>
            <path class="cls-2" d="m139.5,1270.26c-6.69,5.08-2.18,4.34-4.52,6.03-11.61-4.17-29.41-3.2-34.69-13.57,3.43-3.06,5.33-3.92,6.03-4.52q16.59,6.03,33.18,12.06Z"/>
            <path class="cls-1" d="m211.89,1304.95c-3.28,1.7-10.03,7.14-12.06,10.56-3.39,4.86-9.09,3.91-10.56,4.52-22.74,9.46-21.49,3.8-52.78,22.62-7.41,4.46-13.09,10.49-20.36,15.08-4.69.92-55.07-5.6-62.59-7.54-4.73-1.22-10.23-1.53-13.57-5.28.93-.74,4.24-3.68,4.52-3.77.67-.22,2.01.16,3.02,0,13.1-2.05,46.9-1.2,71.64-7.54,10.08-2.58,84.81-33.35,94.26-39.21l-1.51,10.56Z"/>
            <path class="cls-5" d="m39.97,1321.54c-8.14,14.12-1.52,7.98,4.52,19.61-.28.09-3.59,3.03-4.52,3.77,3.34,3.74,8.85,4.06,13.57,5.28l-3.02,4.52c-27.59-5.83-27.1-9.96-12.06-34.69-.16,1.14.37,1.67,1.51,1.51Z"/>
            <path class="cls-27" d="m189.27,1320.03q-26.39,11.31-52.78,22.62c31.3-18.82,30.04-13.17,52.78-22.62Z"/>
            <path class="cls-4" d="m163.63,1265.74c10.12,17.59,7.58,10.76,25.64,4.52l.75,4.52q14.7,8.29,29.41,16.59c-1.69,1.3-4.18,1.87-6.03,3.02-9.44,5.86-84.18,36.63-94.26,39.21-24.74,6.34-58.53,5.49-71.64,7.54,21.89-23.98,49.2-41.13,76.91-57.31,14.56,2.62,24.86-14.17,39.21-18.1Z"/>
            <path class="cls-18" d="m159.11,1259.7c1.57,5.76,3.11,3.58,4.52,6.03-14.35,3.93-24.65,20.72-39.21,18.1-26.51-4.77,3.37-2.43,6.79-3.02,1.23-.21,3.53-4.35,3.77-4.52,2.34-1.69-2.17-.95,4.52-6.03.77-.58,14.02-3.38,15.08-10.56,2.57,1.36,1.78,1.65,4.52,0Z"/>
            <path class="cls-14" d="m223.96,1288.36c-.16.22-3.59,2.3-4.52,3.02q-14.7-8.29-29.41-16.59l-.75-4.52c.76-5.78,3.08-21.21,3.02-24.13h1.51c.13,1.52-.61,3.43.75,4.52,2.07,1.66,21.53,4.87,29.41,37.7Z"/>
            <path class="cls-10" d="m223.96,1268.75c2.36,7.66,5.17,12.31,0,19.61-7.88-32.84-27.34-36.04-29.41-37.7-1.37-1.1-.62-3-.75-4.52,15.19-1.05,25.75,8.31,30.16,22.62Z"/>
          </g>
        </g>
      </g>
    </g>
  </g>
</svg>