<?xml version="1.0" encoding="UTF-8"?>
<svg id="Layer_2" data-name="Layer 2" xmlns="http://www.w3.org/2000/svg" viewBox="0 0 951.53 1194.98">
  <defs>
    <style>
      .cls-1 {
        fill: #f9f4e3;
      }

      .cls-1, .cls-2, .cls-3, .cls-4, .cls-5, .cls-6, .cls-7, .cls-8, .cls-9, .cls-10, .cls-11, .cls-12, .cls-13, .cls-14, .cls-15, .cls-16, .cls-17, .cls-18, .cls-19, .cls-20, .cls-21, .cls-22, .cls-23, .cls-24, .cls-25, .cls-26, .cls-27, .cls-28, .cls-29, .cls-30, .cls-31, .cls-32, .cls-33, .cls-34, .cls-35, .cls-36, .cls-37, .cls-38, .cls-39, .cls-40, .cls-41, .cls-42, .cls-43, .cls-44, .cls-45, .cls-46, .cls-47, .cls-48, .cls-49, .cls-50, .cls-51, .cls-52, .cls-53, .cls-54, .cls-55, .cls-56, .cls-57, .cls-58, .cls-59, .cls-60, .cls-61, .cls-62, .cls-63, .cls-64, .cls-65, .cls-66, .cls-67, .cls-68, .cls-69, .cls-70 {
        stroke-width: 0px;
      }

      .cls-2 {
        fill: #f9eabb;
      }

      .cls-3 {
        fill: #61545c;
      }

      .cls-4 {
        fill: #471f17;
      }

      .cls-5 {
        fill: #767372;
      }

      .cls-6 {
        fill: #5e2d1d;
      }

      .cls-7 {
        fill: #2b2d32;
      }

      .cls-8 {
        fill: #632222;
      }

      .cls-9 {
        fill: #895446;
      }

      .cls-10 {
        fill: #9a9798;
      }

      .cls-11 {
        fill: #51c1d5;
      }

      .cls-12 {
        fill: #966b2d;
      }

      .cls-13 {
        fill: #71352c;
      }

      .cls-14 {
        fill: #947534;
      }

      .cls-15 {
        fill: #a3aeab;
      }

      .cls-16 {
        fill: #382c2d;
      }

      .cls-17 {
        fill: #24b3bb;
      }

      .cls-18 {
        fill: #272017;
      }

      .cls-19 {
        fill: #828487;
      }

      .cls-20 {
        fill: #0d3133;
      }

      .cls-21 {
        fill: #064f5d;
      }

      .cls-22 {
        fill: #413a42;
      }

      .cls-23 {
        fill: #0b171e;
      }

      .cls-24 {
        fill: #0a3f3e;
      }

      .cls-25 {
        fill: #21a3b7;
      }

      .cls-26 {
        fill: #a7dbe5;
      }

      .cls-27 {
        fill: #111c17;
      }

      .cls-28 {
        fill: #121111;
      }

      .cls-29 {
        fill: #241c1c;
      }

      .cls-30 {
        fill: #25160e;
      }

      .cls-31 {
        fill: #ddf0f1;
      }

      .cls-32 {
        fill: #cb8263;
      }

      .cls-33 {
        fill: #dfe8ee;
      }

      .cls-34 {
        fill: #d4a539;
      }

      .cls-35 {
        fill: #dbb09f;
      }

      .cls-36 {
        fill: #c98e8a;
      }

      .cls-37 {
        fill: #db9f87;
      }

      .cls-38 {
        fill: #becbcc;
      }

      .cls-39 {
        fill: #bc9538;
      }

      .cls-40 {
        fill: #a7939a;
      }

      .cls-41 {
        fill: #c0d6b6;
      }

      .cls-42 {
        fill: #bfacb0;
      }

      .cls-43 {
        fill: #a4bebd;
      }

      .cls-44 {
        fill: #ab816f;
      }

      .cls-45 {
        fill: #84d2dd;
      }

      .cls-46 {
        fill: #8b4930;
      }

      .cls-47 {
        fill: #b6755f;
      }

      .cls-48 {
        fill: #b9756c;
      }

      .cls-49 {
        fill: #a25e44;
      }

      .cls-50 {
        fill: #c1e2ec;
      }

      .cls-51 {
        fill: #b48233;
      }

      .cls-52 {
        fill: #72a599;
      }

      .cls-53 {
        fill: #666a72;
      }

      .cls-54 {
        fill: #8cd5e3;
      }

      .cls-55 {
        fill: #301911;
      }

      .cls-56 {
        fill: #016266;
      }

      .cls-57 {
        fill: #a1a5aa;
      }

      .cls-58 {
        fill: #807178;
      }

      .cls-59 {
        fill: #73b8bd;
      }

      .cls-60 {
        fill: #f2d261;
      }

      .cls-61 {
        fill: #f3d8c0;
      }

      .cls-62 {
        fill: #e4e4ae;
      }

      .cls-63 {
        fill: #e5bc5e;
      }

      .cls-64 {
        fill: #edd897;
      }

      .cls-65 {
        fill: #fbf0ed;
      }

      .cls-66 {
        fill: #fcfdfe;
      }

      .cls-67 {
        fill: #018890;
      }

      .cls-68 {
        fill: #027c8e;
      }

      .cls-69 {
        fill: #042a25;
      }

      .cls-70 {
        fill: #009697;
      }
    </style>
  </defs>
  <g id="Layer_1-2" data-name="Layer 1">
    <g>
      <g>
        <path class="cls-65" d="m658.17,859.51c.22,1.46-.22,3.07,0,4.53-5.28-.24-10.54,23.03-10.57,25.67-.11,10.82,6.6,18.21,13.59,25.67,3.34,7.32,14.44,35.81,19.63,37.75,11.6,4.34,10.15-9.76,25.67,27.18,2.44,5.82,3.87,12.15,6.04,18.12,7.9,21.72,4.09,25.12,4.53,26.43,7.93,7.15,14.2,24.55,15.1,35.49-6.32-4.34.23-11.37-8.31-9.06-5.19,1.4-11.74,34.53,28.69,27.18,20.23-3.68,31.58-28.44,5.29-31.71-7.1-26.51-15.13-53.85-19.63-81.54-.7-4.32-1.04-9.2-1.51-13.59-.39-3.63-3.17-7.83-.76-12.08,20.38,43.47,13.54-14.67,14.35-17.37.4-1.34,2.92-.56,3.02-.76,1.96,13.46,9.85,24.93,13.59,37.75,5.17,17.7,24.64,109.78,21.14,122.31-.42,1.5-.15,2.76-1.51,4.53-3.92-.93-11.11-3.03-12.08-7.55-.14-.67,3.49-2.68.76-13.59-3.26,10.54-27.07,20.24-36.24,21.14-19.53,1.92-21.45-7.85-32.47-4.53-12.17,3.67-48.07,52.05-42.28,30.2,2.71.98,2.75,5.74,6.04-2.27,1.82-4.42-.55-5.14,0-6.8,15.09,1.39,6.57-8.17,7.55-11.33,6.63-21.37,23.3,16.48,15.1-15.86,3.34-.31,3.45,2.99,6.04-.76,1.68-16.48-16.21-97.25-21.14-104.19-1.02-1.44-15.58-8.08-27.18-22.65-2.76-37.96-11.29-31.54-6.04-78.52,1.65-14.74,7.21-29.74,9.06-44.55,1.54,11.52,2.84,23.27,4.53,34.73Z"/>
        <path class="cls-65" d="m825.79,1082.99l-10.57-6.04c-.04-1,.04-2.02,0-3.02-1.7-38.8.99-77.66,4.53-116.27-.17-1.85,1.45-1.43,1.51-1.51,1.59-2.09,10.45-6.1,13.59-9.06.59,28.43-12.31,116.45-9.06,135.9Z"/>
        <path class="cls-16" d="m661.19,915.38c-6.99-7.46-13.7-14.85-13.59-25.67,6.87,7.31,9.58,16.88,13.59,25.67Z"/>
      </g>
      <g>
        <g>
          <path class="cls-10" d="m93.42,568.07c-4.91,6.2-81.32,126.43-84.56,133.64-4.55,10.11-4.13,13.03-6.04,23.41-6.66-17.43-.45-23.86,7.55-40.02,3.22-6.51,72.5-117.38,77.01-123.07.07-.08.53-.35,1.51-1.51l4.53,7.55Z"/>
          <path class="cls-53" d="m273.12,655.65c9.96,8.28,18.35,18.51,28.69,26.43l1.51,5.29c2.5,3.21,1.04,6.46,1.51,7.55-1.49,9.58-5.85,17.43-10.57,25.67-9.3,16.23-22.46,30.16-33.22,45.3-.16.22-1.49-1.29-4.53,3.02l-3.02-1.51c7.35-11.21,44.8-61.8,45.3-70.22,1.06-17.75-36.6-26.27-30.2-44.55,1.28,1.03,3.27,1.97,4.53,3.02Z"/>
          <path class="cls-28" d="m261.03,765.89c5.08,7.06-25.54,53.35-31.71,61.16-7.88,9.96-13.19,15.19-24.16,21.9,15.7-27.54,33.09-54.14,51.34-80.03,3.04-4.31,4.37-2.8,4.53-3.02Z"/>
          <path class="cls-19" d="m256.5,768.91c-18.25,25.9-35.64,52.49-51.34,80.03-.18.11-.14,1.64-3.02,3.02,1.66-6.93-.14-6.48,0-6.8,4.91-11.02,41.22-62.33,51.34-77.77l3.02,1.51Z"/>
          <path class="cls-57" d="m117.58,548.44c15.99,4.52,25.71,9.02,39.26,19.63v4.53c-21.58-13.63-43.24-29.98-63.42-4.53l-4.53-7.55c10.63-12.63,10.41-13.12,28.69-12.08Z"/>
          <g>
            <path class="cls-28" d="m156.84,572.6c4.73,2.99,17.84,13.25,27.18,19.63,3.02,2.06,6.1,4.01,9.06,6.04,15.2,10.41,64,45.11,75.5,54.36-6.4,18.27,31.26,26.8,30.2,44.55-.5,8.41-37.96,59.01-45.3,70.22-10.12,15.44-46.43,66.75-51.34,77.77-.14.31,1.66-.14,0,6.8-.78.37-3.06,5.98-15.86,4.53-16.8-1.91-146.36-102.7-173.65-117.78-4.4-3.72-7.76-8.21-9.82-13.59,1.91-10.38,1.49-13.29,6.04-23.41,3.24-7.21,79.65-127.44,84.56-133.64,20.18-25.45,41.84-9.1,63.42,4.53Z"/>
            <g>
              <path class="cls-5" d="m157.6,592.23c3.59,1.29-8.34,13.15-3.78,3.78.24-.49,3.52-3.87,3.78-3.78Z"/>
              <g>
                <path class="cls-33" d="m208.18,646.59c-19.31,2.98-39.55-2.17-58.89,0-25.38-29.16-50.36-9.51-86.07-10.57,5.15-7.89,38.98-63.46,43.04-63.42,35.3,22.88,68.08,49.14,101.93,73.99Z"/>
                <path class="cls-50" d="m223.28,657.16c7.6,5.63,61.67,41.26,61.91,46.06-1.7,3.67-8.7,10.7-9.06,11.33-38.79-3.21-75.48-16.27-113.25-24.16-.86-7.6,16.36-18.06,22.65-21.14,6.14-3,28.58-8.36,37.75-12.08Z"/>
                <path class="cls-26" d="m149.29,646.59c-6.84.77-25.36,8.35-35.49,9.06v3.02c23.95,1.83,48.51,3.97,71.73,10.57-6.29,3.08-23.51,13.54-22.65,21.14-11.79-2.46-19.69-2.99-30.96-4.53-2.17-.3-7.14-4.43-8.31-4.53-9.1-27.38-20.02-27.96-49.08-25.67-5.45.43-15.44,5.23-20.39,6.04-2.62.43-3.93-.29-6.04-1.51,4.97-8.06,9.93-16.23,15.1-24.16,35.71,1.06,60.7-18.59,86.07,10.57Z"/>
                <path class="cls-59" d="m208.18,646.59c4.94,3.63,10.09,6.85,15.1,10.57-9.17,3.72-31.61,9.08-37.75,12.08-23.22-6.6-47.77-8.74-71.73-10.57v-3.02c10.13-.71,28.64-8.29,35.49-9.06,19.34-2.17,39.58,2.98,58.89,0Z"/>
                <g>
                  <path class="cls-33" d="m54.16,661.69c2.14,4.3,21.71,26.61,23.41,27.18,3.4,1.15,38.89-8.19,46.06-7.55,1.16.1,6.13,4.23,8.31,4.53,11.26,1.54,19.16,2.07,30.96,4.53,37.77,7.89,74.47,20.95,113.25,24.16-3.87,6.65-7.95,11.84-12.08,18.12-12.98,1.56-88.9-26.21-92.11-11.33-2.73,12.63,75.43,18.85,84.56,21.9-7.31,11-57.1,91.82-62.67,92.11q-87.96-60.78-175.92-121.56c-2.39-8.33,24.48-44.33,30.2-53.61,2.11,1.22,3.43,1.94,6.04,1.51Z"/>
                  <path class="cls-64" d="m264.05,732.67c-2.46,3.74-5.18,7.01-7.55,10.57-9.13-3.05-87.29-9.26-84.56-21.9,3.22-14.88,79.13,12.88,92.11,11.33Z"/>
                  <path class="cls-64" d="m116.83,738.71c2.74-1.09,51.9,3.46,58.89,4.53,16.49,2.52,65.03,10.75,15.86,14.35q13.59,12.08,27.18,24.16-20.76-4.15-41.53-8.31c-1.85,1.09,28.24,18.62,27.94,23.41-.4,6.18-56.95-28.54-62.67-32.47-4.6-3.16-33.44-22.58-25.67-25.67Z"/>
                </g>
                <path class="cls-33" d="m123.62,681.32c-7.17-.64-42.65,8.7-46.06,7.55-1.7-.58-21.27-22.88-23.41-27.18,4.95-.81,14.94-5.61,20.39-6.04,29.05-2.29,39.97-1.71,49.08,25.67Z"/>
              </g>
            </g>
          </g>
        </g>
        <g>
          <path class="cls-33" d="m641.56,684.34c-9.52,20.72-6.79,18.09-4.53,27.18-117.9,60.72-237.1,118.96-352.59,184.22-17.22,3-16.43-21.94-12.08-33.22,82.9-45.92,167.94-87.96,252.18-131.37,15-7.73,87.2-51.71,96.64-52.85,4.04-.49,14.87,5.48,20.39,6.04Z"/>
          <path class="cls-33" d="m688.37,543.91c-9.89,14.3-.78,36.3-6.04,52.85-17.87-9.72-12.9,9.63-12.84,22.65,16.79.77,33.99,6.31,50.59,10.57l-1.51,1.51c-1.39-.29-3.15.3-4.53,0-6.47-1.39-34.37-9.77-38.51-7.55-3.79,5.74-2.93,15.51-3.78,18.12-.49,1.52-1.02,2.97-1.51,4.53-9.19,29.09-16.5,58.11-24.16,87.58h-1.51c-1.82-10.68-5.91-16.04-7.55-22.65-2.26-9.09-4.99-6.46,4.53-27.18,6.81-7.65-8.24-26.88-12.08-40.77,7.67-5.26,14.84-11.22,23.41-15.1,6.78-5.15,5.01-8.42,5.29-9.06,3.4-7.82,3.8-19.93,7.55-27.94l-2.27-2.27c-31.71,15.65-65.64,25.45-99.66,34.73-2.4,1.78-2.19,6.07-6.8,12.08-6.75,8.8-25.29,35.69-25.67,43.79-5.68-2.09-.33-4.97-8.31-4.53-20.56,13.02-45.61,19.01-64.18,34.73-9.75,1.23-53.92,15.18-63.42,19.63-15.91,1.48,41.39-32.41,58.14-45.3,43.39-33.4,66.54-59.19,101.17-101.17l63.42,6.04c3.12,2.18-7.7,8.38-.76,10.57,28.59-6.69,51.98-11.9,58.89-43.79,13.36-7.21,5.22-34.63,4.53-46.81h1.51c1.92,11.5,3.38,23.42,6.04,34.73Z"/>
          <path class="cls-33" d="m641.56,60.7c.72,1.5,23.21,20.01,25.67,21.14q-54.74,31.71-109.48,63.42l-19.63-16.61c-31.72,19.87-65.67,35.89-98.15,54.36-1.53.87-.41,4.34-.76,4.53-10.19,5.78-19.81,12.42-30.2,18.12.36-4.32-.6-1.15-4.53-3.02-4.06-1.93-6.26-1.03-6.04-3.78.35-4.44,60-50.61,63.42-62.67,12.43-7.38,89.02-53.4,94.38-54.36,19.73-3.55,13.98,12.03,22.65,12.08,3.55.02,52.48-32.07,62.67-33.22Z"/>
          <path class="cls-66" d="m896.76,170.93c-1.92,2.8-20.63,19.39-24.16,21.14-9.33,4.63-52.61,13.74-67.2,18.12-1.11,1.21,3.06,11.35,3.78,13.59-.83,2.99-2.29,4.12-4.53,6.04-3.63,3.11-3.48,4.51-3.78,4.53-.24.02-3.09-2.43-3.78-3.02-8.61-7.39-10.53-27.06-12.08-37.75,12.24-4.58,43.56-18.42,51.34-25.67,7.4-6.88,11.27-18.05,16.61-26.43-.38-7.53-5.74-10.76-6.04-11.33-5.1-9.52-13.54-16.71-13.59-22.65,9.57-6.03,18.62-13.2,27.94-19.63,4.14,9.57,40.79,63.31,41.53,67.2.85,4.5-3.53,12.21-6.04,15.86Z"/>
          <path class="cls-15" d="m365.23,201.13c13.11-1.53,26.14,2.61,39.26,1.51,3.93,1.87,4.89-1.3,4.53,3.02-28.42,15.59-60.14,27.39-87.58,45.3-23.75,8.92-49.1,9.85-73.99,13.59,6.63-5.84,13.76-11.78,21.14-16.61,13.44-8.81,84.49-45.4,96.64-46.81Z"/>
          <g>
            <path class="cls-33" d="m268.59,247.95c-7.38,4.83-14.51,10.77-21.14,16.61-5.86,1.83-60.43,39.69-66.44,49.83-15.83,6.99-27.1,21.35-39.26,33.22-7.12,6.95-15.13,13.08-21.14,21.14-6.46-22.01-37.29-53.12-23.41-67.95,5.91-6.32,96.59-56.97,114.76-69.46,27.38,6.05-.85,17.81,4.53,31.71,2.65.75,45-19.41,52.1-15.1Z"/>
            <path class="cls-66" d="m150.8,436.7c-7.56,15.28,2.35,32.99,3.02,49.83-4.58,3.91-7.87,10.49-12.08,15.1-3.14,3.44-5.7,6.75-8.31,10.57-3.65.43-1.7-2.85-2.27-4.53-1.39-4.13-2.89-32-19.63-84.56,67.76-65.67,42.09-62.76,39.26,13.59Z"/>
          </g>
          <g>
            <path class="cls-43" d="m869.58,266.07c-5.52-2.86-12.81-38.66-12.08-44.55.9-7.23,13.17-21.26,15.1-29.45,3.53-1.75,22.24-18.34,24.16-21.14q15.86,31.33,31.71,62.67c-15.09,9.86-47.85,24.52-58.89,32.47Z"/>
            <path class="cls-38" d="m872.6,192.07c-1.93,8.18-14.2,22.22-15.1,29.45-.73,5.89,6.56,41.69,12.08,44.55-.56.4-2.34,2.42-3.02,3.02-.28.25-3.59-.8-6.04,4.53-5.48-2.21-3.77-.2-6.04,0-2.06.18-5.05-.39-6.04,0,3.11-3.31-2.92-6.36-7.55-10.57-7.65-6.95-15.64-13.75-24.16-19.63-3.21-13.08-7.23-18.63-7.55-19.63-.72-2.24-4.89-12.38-3.78-13.59,14.59-4.38,57.87-13.49,67.2-18.12Z"/>
          </g>
          <path class="cls-33" d="m531.33,679.81c5.8,2.13,11.19,4.6,16.61,7.55-35.16,18.8-70.08,36.52-105.7,54.36l51.34-32.47c-11.37,1.97-23.48-.66-34.73.76,18.56-15.72,43.62-21.71,64.18-34.73,7.98-.44,2.63,2.44,8.31,4.53Z"/>
          <path class="cls-66" d="m404.49,202.64c-13.12,1.1-26.15-3.04-39.26-1.51,25.89-25.7,64.74-45.99,96.64-64.93-3.42,12.05-63.07,58.22-63.42,62.67-.22,2.75,1.98,1.85,6.04,3.78Z"/>
          <g>
            <path class="cls-59" d="m442.24,741.73c-33.83,16.94-67.62,33.84-101.17,51.34-6.53-6.8-5.68-8.65-6.04-9.06,10.22-22.09,38.99-44.33,60.4-54.36,9.5-4.45,53.67-18.4,63.42-19.63,11.25-1.42,23.36,1.22,34.73-.76l-51.34,32.47Z"/>
            <path class="cls-43" d="m321.44,773.44c4.37,2.62,10.27,6.74,13.59,10.57.36.41-.49,2.26,6.04,9.06-17.21,8.98-42.82,31.78-48.32,9.82-5.1-20.33,14.85-25.92,15.1-35.49,4.36,2.59,9.21,3.42,13.59,6.04Z"/>
          </g>
          <path class="cls-68" d="m321.44,773.44c-4.38-2.62-9.23-3.45-13.59-6.04q-6.8-23.41-13.59-46.81c4.72-8.24,9.08-16.09,10.57-25.67,4.69,10.86,34.58,84.69,16.61,78.52Z"/>
          <g>
            <path class="cls-25" d="m72.28,563.54c-8.08,1.06-21.89,2.93-27.18-6.04,13.77-7.69,59.32-33.89,67.95-36.24.51-.14,10.6-.61,10.57.76-15.33,16.05-31.57,31.15-51.34,41.53Z"/>
            <path class="cls-50" d="m117.58,548.44c-18.28-1.04-18.06-.55-28.69,12.08-.98,1.16-1.44,1.43-1.51,1.51-3.49-5.79-3.9.04-15.1,1.51,19.77-10.38,36.01-25.47,51.34-41.53.03-1.37-10.06-.89-10.57-.76-9.4-9.13-47.64,18.03-66.44,24.16,11.17-12.75,65.56-32.97,84.56-37.75.56,1.68-1.38,4.96,2.27,4.53,2.6-3.82,5.17-7.13,8.31-10.57-6.74,18.56-23.22,29.48-36.24,43.04.38,3.08,6.71,2.26,12.08,3.78Z"/>
            <path class="cls-11" d="m113.05,521.26c-8.63,2.35-54.19,28.55-67.95,36.24-.22-.38-4.3-3.41-3.02-8.31.3-1.13,2.84-1.84,4.53-3.78,18.8-6.13,57.04-33.29,66.44-24.16Z"/>
          </g>
          <path class="cls-50" d="m846.93,130.16c-10.39,4.04-21,18.23-31.71,18.12,6.07-11.06,13.11-26.93,15.1-39.26,1.03-.24,2.15-.96,3.02-1.51.05,5.94,8.49,13.13,13.59,22.65Z"/>
          <path class="cls-33" d="m513.21,368.75c1.59,3.09,10.36,8.17,16.61,27.18-24.72,8.26-45.04,25.94-68.71,36.24-27.97,12.18-85.08,20.88-112.5,59.65-1.67,2.36-27.47,50.74-24.92,52.1,26.55-13.69,53.98-28.71,83.81-33.22-6.02,8.62-16,19.09-18.88,28.69,20.44-8.44,40.8-17.03,61.16-25.67-5.2,20.72-25.2,55.34-21.14,76.26,1.73,8.9,18.68,17.19,16.61,21.14-26.38,9.08-83.22,31.08-104.19,44.55-15.6-1.18-31.15-2.73-46.81-3.02,31.43-22.34,61.29-46.47,89.09-73.24-28.05-.39-55.82,8.84-83.81,3.78-113.74,89.92-46.88,24.08,6.04-46.81-23.48,12.6-82.03,50.65-99.66,57.38-4.06,1.55-13.07,1.04-12.84,4.53-2.96-2.03-6.04-3.98-9.06-6.04,21.89-6.47,37.74-22.18,55.87-34.73,11.59-8.02,39.25-23.59,45.3-30.96,12.42-30.85,37.2-54.74,45.3-67.2,6.95,4.44,14.12-6.94,26.43-10.57,10.25-3.02,31.9-4.37,43.79-6.04,10.55-12.07,102.47-73.32,108.72-75.5,1.84-.64,2.25,1.52,3.78,1.51Z"/>
          <path class="cls-33" d="m294.26,652.63c-8.79-.16-20.97-1.56-21.14,3.02-1.26-1.05-3.25-1.99-4.53-3.02-11.5-9.25-60.3-43.95-75.5-54.36-.23-3.49,8.78-2.98,12.84-4.53,17.63-6.74,76.18-44.78,99.66-57.38-52.92,70.89-119.78,136.73-6.04,46.81,27.99,5.06,55.76-4.17,83.81-3.78-27.8,26.76-57.66,50.89-89.09,73.24Z"/>
          <path class="cls-66" d="m668.74,83.35c.64,3.69-.49,4.13-3.02,6.04-6.37,4.8-131.71,74-139.68,77.01-26.9,10.17-58.94,11.02-83.81,24.16-.31-.49-2.25-2.92-3.02-3.02.34-.19-.77-3.66.76-4.53,32.48-18.47,66.43-34.49,98.15-54.36l19.63,16.61q54.74-31.71,109.48-63.42c.4.19,1.66-.31,1.51,1.51Z"/>
          <path class="cls-50" d="m836.36,167.91c-7.78,7.25-39.1,21.09-51.34,25.67-.14-.97.12-2.04,0-3.02,7.58-9.69,14.43-19.9,21.14-30.2l30.2,7.55Z"/>
          <path class="cls-33" d="m478.48,501.63l31.71,30.2c-11.37,10.06-23.06,19.58-33.22,30.96,6.43,7.29,18.49,10.9,27.94,9.82,21.31-2.45,113.45-52.18,136.66-70.97,12.37,5.15,26.25,5.48,39.26,7.55.69,12.18,8.83,39.6-4.53,46.81-18.47.99-52.31,28.55-58.89,43.79-6.95-2.19,3.88-8.39.76-10.57l-63.42-6.04c-34.64,41.98-57.79,67.77-101.17,101.17-16.75,12.89-74.04,46.78-58.14,45.3-21.41,10.03-50.18,32.27-60.4,54.36-3.32-3.83-9.22-7.95-13.59-10.57,17.97,6.17-11.92-67.66-16.61-78.52-.47-1.09.99-4.34-1.51-7.55,13.04-9.29,24.35-23.11,37.75-31.71,20.97-13.46,77.81-35.47,104.19-44.55,2.07-3.95-14.88-12.24-16.61-21.14-4.06-20.92,15.94-55.53,21.14-76.26,2.5-1.06,5.1-1.98,7.55-3.02,7.07-2.99,14.04-6.1,21.14-9.06Z"/>
          <g>
            <path class="cls-43" d="m658.17,619.41c-.28.64,1.5,3.91-5.29,9.06-8.57,3.88-15.74,9.84-23.41,15.1-26.41,18.13-53.93,29.02-81.54,43.79-5.42-2.95-10.81-5.42-16.61-7.55.38-8.1,18.92-34.99,25.67-43.79,33.02-2.78,67.51-11.85,101.17-16.61Z"/>
            <path class="cls-43" d="m658.17,619.41c-33.66,4.77-68.16,13.83-101.17,16.61,4.61-6.01,4.4-10.3,6.8-12.08,34.02-9.28,67.95-19.08,99.66-34.73l2.27,2.27c-3.75,8.01-4.15,20.11-7.55,27.94Z"/>
          </g>
          <path class="cls-33" d="m442.24,190.56c3.53,5.57,8.14,29.06,11.33,30.2,11.77-5.12,23.74-9.95,35.49-15.1-19.86,19.13-39.76,11.1-30.96,43.79-42.95,14.7-68.52,39.98-97.4,58.89-8.89,5.82-17.62,12.16-26.43,18.12q-36.62,9.82-73.24,19.63c2.89-5.57,6.08-11.04,9.06-16.61,2.28-4.27,7.01-13.27,9.06-16.61,4.66-7.62,8.41-16.22,13.59-23.41,10.97-15.21,35.88-30.95,28.69-38.51,27.44-17.91,59.16-29.71,87.58-45.3,10.39-5.7,20.01-12.34,30.2-18.12.77.1,2.71,2.53,3.02,3.02Z"/>
          <g>
            <path class="cls-50" d="m199.12,383.85c-5.67,5.14-46.73,49.64-48.32,52.85,2.83-76.35,28.5-79.26-39.26-13.59-1.43-4.5-8.01-18.36-7.55-20.39,2.17-9.49,26.64.18,16.61-33.98,6.01-8.06,14.02-14.19,21.14-21.14-1.88,5.84,8.32-2.2,23.41,0,18.05,2.63,28.88,20.36,33.98,36.24Z"/>
            <path class="cls-26" d="m279.16,312.88c-2.05,3.35-6.78,12.34-9.06,16.61-1.12.32-2.04-1.61-2.27-1.51-4.06,1.77-55.63,50.71-68.71,55.87-5.1-15.89-15.93-33.61-33.98-36.24-15.08-2.2-25.28,5.84-23.41,0,12.17-11.88,23.43-26.23,39.26-33.22q18.5-6.8,37-13.59c40.4,24.5,30.38,36.76,61.16,12.08Z"/>
          </g>
          <path class="cls-50" d="m321.44,250.97c7.19,7.55-17.72,23.29-28.69,38.51-5.18,7.19-8.93,15.78-13.59,23.41-30.77,24.68-20.75,12.42-61.16-12.08q-18.5,6.8-37,13.59c6.01-10.14,60.58-48,66.44-49.83,24.89-3.74,50.24-4.67,73.99-13.59Z"/>
          <path class="cls-11" d="m197.61,459.35c-9.31,17.22-8.49,40.47-7.55,58.89.39,7.67,3.87,15.51,3.02,23.41-7.85,5.05-25.76,21.87-28.69,23.41-2.1,1.1-5.45,3.31-7.55,3.02-13.56-10.61-23.28-15.11-39.26-19.63-5.37-1.52-11.7-.7-12.08-3.78,13.02-13.55,29.5-24.48,36.24-43.04,4.21-4.61,7.5-11.19,12.08-15.1,4.65-3.96,33.56-18.98,43.79-27.18Z"/>
          <path class="cls-26" d="m294.26,652.63c15.66.29,31.21,1.84,46.81,3.02-13.4,8.6-24.71,22.42-37.75,31.71l-1.51-5.29c-10.34-7.91-18.73-18.15-28.69-26.43.17-4.58,12.36-3.18,21.14-3.02Z"/>
          <path class="cls-33" d="m528.31,225.29c2.11,8.99,4.4,18.1,6.04,27.18-21.29-15.92-.88,39,3.02,13.59,3.81,3.41,6.37,2.02,9.06,6.04-14.6,1.08-16.02,21.11-7.55,28.69-1.93,2.05-1.32,5.09-1.51,5.29-12.87,13.21-27.85,18.72-28.69,27.94-1.62,3.06,3.06,7.15,3.02,7.55-.91,8.94-5.28,4.05-1.51,18.12.3,1.12,2.8,8.64,3.02,9.06-1.52,0-1.94-2.15-3.78-1.51-6.26,2.18-98.17,63.43-108.72,75.5-11.89,1.67-33.54,3.02-43.79,6.04-12.31,3.63-19.47,15.01-26.43,10.57,1.78-2.74,5.04-4.49,4.53-8.31-5.4-2.58-11.07-4.56-16.61-6.8,12.56-20.62,33.93-42.41,52.85-57.38,24.76-19.59,76.51-49.35,105.7-73.24-5.17-4.39-16.45-16.58-19.63-18.88,20.86-25.86,45.77-48.1,70.97-69.46Z"/>
          <g>
            <path class="cls-50" d="m239.89,557.5c-18.13,12.55-33.98,28.26-55.87,34.73-9.34-6.38-22.45-16.64-27.18-19.63v-4.53c2.1.29,5.45-1.92,7.55-3.02,6.99,3.51,10.67-7.13,11.33-7.55.32-.21,1.41,3.02,7.55-1.51,14.19-10.47,24.48-25.77,40.02-34.73.44,11.67,10.18,26.21,16.61,36.24Z"/>
            <path class="cls-25" d="m318.42,444.25c5.54,2.24,11.22,4.21,16.61,6.8.51,3.82-2.75,5.56-4.53,8.31-8.1,12.46-32.88,36.34-45.3,67.2-6.05,7.37-33.71,22.93-45.3,30.96-6.43-10.03-16.17-24.57-16.61-36.24-.84-22.19,31.9-55.81,49.83-67.95,27.38-18.54,30.82-14.92,45.3-9.06Z"/>
          </g>
          <g>
            <path class="cls-45" d="m587.2,391.4c.86,3.64,2.92,7.44,3.02,11.33.64,1.39,2.74.47,3.02.76,1.47,21.48-2.4,15.85-10.57,25.67-1.29,1.55-10.47,9.1-10.57,9.82-.16,1.11,11.29,15.41,12.08,18.88-15.24,3.78-84.04,34.77-105.7,43.79-7.1,2.96-14.07,6.07-21.14,9.06-.89-6.14,19.25-16.57,30.96-25.67,21.12-16.42,40.41-35.21,61.16-52.1-32.55-2.16-65.77-.55-97.4,8.31-13.92,23.97-28.67,46.72-44.55,69.46-29.83,4.51-57.26,19.53-83.81,33.22-2.55-1.36,23.25-49.74,24.92-52.1,27.41-38.77,84.53-47.47,112.5-59.65,23.66-10.31,43.98-27.99,68.71-36.24.29,7.32,32.42,20.89,36.24,21.14-3.9,7.96,1.59,9.67,7.55,4.53,8.62-7.43,2.9-15.89,3.02-25.67,5.01-1.44,6.21-7.79,10.57-4.53Z"/>
            <path class="cls-59" d="m457.34,510.69c-2.45,1.04-5.05,1.96-7.55,3.02-20.36,8.64-40.72,17.23-61.16,25.67,2.87-9.6,12.86-20.07,18.88-28.69,15.87-22.74,30.63-45.49,44.55-69.46,31.63-8.86,64.85-10.47,97.4-8.31-20.74,16.88-40.03,35.68-61.16,52.1-11.71,9.1-31.84,19.53-30.96,25.67Z"/>
          </g>
          <path class="cls-33" d="m662.7,166.4c14.84,4.1,12.69,14,21.14,12.08.24,3.34-3.27,5.73-3.02,9.06-2.31-.06-.68-3.72-3.78-3.02-9.96,2.24-79.61,57.74-100.42,57.38-3.04-12.54-7.94-24.71-9.06-37.75,8.62-.45,77.17-33.96,95.13-37.75Z"/>
          <path class="cls-50" d="m680.82,187.54c.3,4.08,1.47,2.86,1.51,3.02.79,3.13,4.19,7.61,6.04,10.57,1.07,1.72,1.66,2.87,3.02,4.53,13.54,16.58,23.97,15.23,25.67,27.18-.24.03,1.44,3.98-3.78,3.02-15.56-4.33-31.7-6.27-47.57-9.06-5.75-1.01-9.93-5.62-15.86-6.04q-35.86,14.35-71.73,28.69c-.66-2.67-.93-5.16-1.51-7.55,20.81.36,90.46-55.14,100.42-57.38,3.09-.7,1.47,2.96,3.78,3.02Z"/>
          <path class="cls-45" d="m599.28,459.35c8.96,15.42,25.71,35.38,42.28,42.28-23.21,18.79-115.34,68.52-136.66,70.97-9.45,1.09-21.51-2.53-27.94-9.82,10.16-11.37,21.85-20.9,33.22-30.96,48.05-42.5,83.97-55.96,84.56-61.16.08-.74-8.64-7.32-7.55-12.84,3.27,1.93,8.53,2.06,12.08,1.51Z"/>
          <path class="cls-50" d="m587.2,457.84c-1.09,5.52,7.63,12.1,7.55,12.84-.59,5.2-36.51,18.65-84.56,61.16l-31.71-30.2c21.66-9.02,90.46-40.01,105.7-43.79.84-.21,2.05.1,3.02,0Z"/>
          <path class="cls-26" d="m457.34,294.76c3.18,2.3,14.46,14.49,19.63,18.88-29.19,23.89-80.94,53.65-105.7,73.24q-12.46-14.35-24.92-28.69c-35.56,4.39-66.12,26.57-92.87,49.83-1.86-.35-4.1.23-6.04,0,12.97-17.28,23.15-29.85,7.55-50.59-1.35-5.77,5.75-10.76,6.04-11.33q36.62-9.82,73.24-19.63c8.81-5.96,17.54-12.3,26.43-18.12,29.03-11.54,58.47-18.89,89.85-19.63,2.06,2.35,4.26,4.21,6.8,6.04Z"/>
          <path class="cls-50" d="m519.25,207.17c.34.34-1.61,4.01,4.53,3.02.5.03,1.01-.04,1.51,0-.89,5.43,1.85,10.12,3.02,15.1-25.2,21.36-50.12,43.6-70.97,69.46-2.54-1.83-4.73-3.69-6.8-6.04-31.38.74-60.82,8.09-89.85,19.63,28.88-18.91,54.45-44.19,97.4-58.89-8.81-32.69,11.1-24.66,30.96-43.79,4.97-2.18,20.67-12.32,21.9-12.08,2.11.42,4.63,9.91,8.31,13.59Z"/>
          <g>
            <path class="cls-33" d="m247.44,408.01c1.94.23,4.18-.35,6.04,0,11,2.07,22.17,6.15,33.22,8.31l-13.59,37c-17.94,12.15-50.67,45.76-49.83,67.95-15.53,8.96-25.83,24.26-40.02,34.73-6.14,4.53-7.23,1.3-7.55,1.51-.65.42-4.34,11.06-11.33,7.55,2.93-1.54,20.84-18.36,28.69-23.41.85-7.9-2.63-15.74-3.02-23.41,4.64-14.81,30.95-69.29,31.71-73.24.48-2.5-.37-4.58-3.02-5.29,5.88-6.55,27.41-30,28.69-31.71Z"/>
            <path class="cls-33" d="m190.06,518.24c-.93-18.42-1.76-41.67,7.55-58.89,4.76-8.81,20.18-18.56,21.14-19.63,2.65.7,3.5,2.79,3.02,5.29-.76,3.94-27.07,58.43-31.71,73.24Z"/>
          </g>
          <path class="cls-50" d="m371.27,386.87c-18.92,14.97-40.29,36.76-52.85,57.38-14.48-5.86-17.92-9.48-45.3,9.06l13.59-37c-11.05-2.15-22.23-6.24-33.22-8.31,26.74-23.26,57.31-45.44,92.87-49.83q12.46,14.35,24.92,28.69Z"/>
          <g>
            <path class="cls-35" d="m667.23,98.45c-.06,7.39-.55,14.66,1.51,21.9-35.05,11.87-23.49,22.95-6.04,46.06-17.97,3.79-86.52,37.31-95.13,37.75-.16,0,.46-3.07-.76-3.02-9.06.4-19.14-.82-27.94,0,5.23-4.63,76.87-35.34,55.12-36.24-4.34-.18-69.25,35.15-74.75,42.28-3.68-3.68-6.19-13.17-8.31-13.59-1.23-.24-16.93,9.9-21.9,12.08-11.75,5.15-23.71,9.98-35.49,15.1-3.18-1.14-7.8-24.63-11.33-30.2,24.87-13.14,56.91-13.99,83.81-24.16,7.97-3.01,133.31-72.21,139.68-77.01,4.05-1.05,1.57,1.33,1.51,9.06Z"/>
            <path class="cls-65" d="m538.88,201.13c-9.59.89-17.32-.91-15.1,9.06-6.14.99-4.19-2.68-4.53-3.02,5.5-7.13,70.41-42.46,74.75-42.28,21.76.9-49.88,31.61-55.12,36.24Z"/>
          </g>
          <path class="cls-33" d="m650.62,324.96l-21.14-1.51c-7.72-8.4-19.81-22.37-27.18-28.69-5.39-4.62-9.74-9.18-16.61-12.08-.95-8.3-4.05-16.13-6.04-24.16,29.8-1.04,43.06,2.45,67.95-15.1-9.81,46.01,29.03,46.11,3.02,81.54Z"/>
          <path class="cls-11" d="m658.17,411.03q-2.27,18.12-4.53,36.24c-.31.04.85,2.28-6.04,1.51-1.51-5.36-32.64-18.33-34.73-28.69.42-.16,1.16.22,1.51,0,11.56-7.32,22.88-15.68,34.73-22.65.35.74,3.11,1.49,9.06,13.59Z"/>
        </g>
      </g>
      <g>
        <path class="cls-33" d="m768.41,1161.52c2.99-.06,6.04,0,9.06,0,.53,0,3.42,2.47,10.57,1.51-8.77,14.48-30.84,13.93-27.18,22.65,2.64,6.3,11.34,6.48,18.12,4.53-.2.15.82,2.45-2.27,4.53-21.53-2.5-45.79,7.89-47.57-15.1-.18-2.34-.39-7.45,0-9.06.67-2.76,4.77-8.27,7.55-9.06,2.97-.84,23.61.16,31.71,0Z"/>
        <g>
          <path class="cls-28" d="m736.7,112.04c-.4-.21-1.16.22-1.51,0-11.14-14.68,8.34-28.12,23.41-25.67,40.54,3.09,22.18,17.85,12.08,21.14-14.15,4.61-34.21-3.2-33.98,4.53Z"/>
          <path class="cls-7" d="m724.62,27.48l-5.29,7.55c-10.83-17.29-9.26-2.42-11.33,1.51-10.83,20.58-1.09-28.46-14.35,13.59-3.03-29.97-.17-13.27-6.8-7.55.04-4.47.46-10.87,1.51-15.1,4.52-6.68,8.82-7.89,16.61-9.06,12.36-1.85,9.72.52,20.39,1.51l-.76,7.55Z"/>
          <g>
            <path class="cls-28" d="m830.32,109.02c-1.99,12.34-9.03,28.2-15.1,39.26-.36.66-2.53,2.05-9.06,12.08-6.71,10.3-13.56,20.51-21.14,30.2-1.2-9.76,3.26-18.84-4.53-24.92,4.34-4.4,9.33-8.65,12.08-14.35,18.74-38.77-21.93-44.21-21.14-19.63-.19,2.97-6.35.82-12.08,1.51-5.91.71-22.83,4.32-27.18,7.55-11.31,8.39,3.05,20.64-11.33,27.18-1.24.57-11.36,1.99-20.39,4.53-.45-5.8,8.85-3.95,9.82-4.53,1.7-1.03-1.58-2.38-.76-3.02,9.83-7.64,18.13-13.13,5.29-37.75-11.8-.84-27.14,2.16-18.88,3.02-6.63-.56-5.65-1.54-6.04-1.51-1.35-4.78,3.33-10.06,7.55-12.08.55-.26,10.24-1.68,12.08-1.51,20.53,1.87,5.43,22.58,43.79,2.27-6.78-2.44-9.61-1.61-16.61-5.29-.24-7.73,19.83.08,33.98-4.53,10.1-3.29,28.46-18.05-12.08-21.14-15.07-2.45-34.54,10.99-23.41,25.67-10.94-6.87-12.29-21.18,0-27.94-24.3.63-20.01-8.84-24.16-9.82-2.6-.61-11.45,4.4-12.08,4.53-5.43,1.09-11.13,2.16-16.61,3.02-4,.63-9.3,4.83-13.59,1.51.15-1.82-1.11-1.32-1.51-1.51-2.46-1.13-24.95-19.64-25.67-21.14-2.09-4.37-2.2-9.05-.76-13.59,24.31,26.15,4.31.95,9.82-23.41,2.27-10.04,5.31-3.16,7.55,2.27-4.27-.62-3.3-3.27-3.78-3.02-2.49,1.32-.55,15.99.76,18.88,13.2,29.19,7.66-27.24,15.1,9.06,10.18-17.72,13.52-34.67,12.08-6.04,5.65,2.84,4.27-2.04,4.53-2.27,6.63-5.72,3.76-22.42,6.8,7.55,13.25-42.05,3.51,6.99,14.35-13.59,10.02.46-5.99,29.03,11.33,3.02,10.28,5-2.1,9.93-2.27,11.33-1.61,13.58,33.23-2.15,37.75-7.55l-10.57-1.51c0-.76,6.26-4.34,4.53-7.55-.83-1.54-37.43,5.86-3.02-7.55-8.08-1.21-13.91-2.74-21.14.76l.76-7.55c-10.67-.99-8.02-3.36-20.39-1.51h-1.51c-10.85-18.96-17.54,1.27-18.88,1.51-.54.1-3.76-4.2-10.57-3.02-4.95.86-8.42,7.04-12.84,9.06,2.21-21.73,21.77-14.6,23.41-15.1,3.5-1.08,3.66-10.11,4.53-10.57,2.07-1.09,43.75,1.14,46.81,1.51,12.67,1.54,24.55,11.43,37.75,7.55,15.61,10.28,34.11,15.82,46.06,30.96q6.04,13.59,12.08,27.18c-1.59,13.79.71,27.79-1.51,41.53Z"/>
            <path class="cls-7" d="m703.47,18.42c-12.71-6.17-12.39-1.87-15.1,9.06-1.05,4.23-1.47,10.63-1.51,15.1-.26.23,1.12,5.1-4.53,2.27,1.44-28.63-1.9-11.68-12.08,6.04-7.44-36.3-1.9,20.13-15.1-9.06-1.31-2.89-3.25-17.56-.76-18.88.47-.25-.5,2.4,3.78,3.02.64.09-1.29,1.97,3.02,0,4.42-2.02,7.89-8.2,12.84-9.06,6.81-1.18,10.03,3.12,10.57,3.02,1.34-.24,8.03-20.47,18.88-1.51Z"/>
            <path class="cls-7" d="m708,36.54c2.07-3.93.5-18.8,11.33-1.51l5.29-7.55c7.23-3.5,13.06-1.96,21.14-.76-34.41,13.41,2.19,6.01,3.02,7.55,1.73,3.21-4.52,6.79-4.53,7.55l10.57,1.51c-4.52,5.4-39.36,21.13-37.75,7.55.17-1.4,12.55-6.32,2.27-11.33-17.32,26.01-1.3-2.56-11.33-3.02Z"/>
            <path class="cls-28" d="m764.63,42.58c7.7,3.79-25.5,18.8-24.92,23.41,21.11.89,36.41-14.24,38.51-14.35,1.79-.09,2.81.31,2.27,2.27-.8,2.9-38.48,24.21-55.87,13.59-1.12-4.66,26.16-8.77,40.02-24.92Z"/>
          </g>
          <path class="cls-53" d="m703.47,18.42h1.51c-7.79,1.17-12.09,2.38-16.61,9.06,2.71-10.93,2.39-15.23,15.1-9.06Z"/>
        </g>
        <path class="cls-64" d="m676.29,555.99c-6.91,31.89-30.3,37.1-58.89,43.79,6.58-15.24,40.42-42.8,58.89-43.79Z"/>
        <g>
          <path class="cls-66" d="m866.56,269.09c24.29,8.69,33.48,13.05,56.63,0,28.11,45.62,52.56,58.77-15.86,76.26q11.33,21.14,22.65,42.28c-54.98,58.7-18.71,71.85-18.12,86.07.87,21.16-38.02,25.79-51.34,37.75,5.07,29.48,15.66,56.98,30.2,83.05.18,4.39-25.69,33.21-28.69,20.39,3.69-9.07-1.44-8.53-1.51-9.06-.12-.98.16-2.06,0-3.02-1.25-7.39-2.87-14.33-6.04-21.14,4.67-9.66,1.12-6.79-4.53-18.12.57-.52-.72-4.25,10.57-11.33-7.81-26.12-15.21-56.87-7.55-83.81,4.96-17.45,14.28-18.81,16.61-21.14,2.25-2.25,8.32-4.6,12.08-9.82,1.59-10.49.5-20.33,1.51-30.96.48-5.05,1.06-10.04,1.51-15.1,1.59-17.74,4.27-41.81,4.53-58.89,5.2-1.71,24.66-42.01,24.16-44.55-.46-2.37-12.14-5.55-14.35-5.29-16.2,1.94-1.44,16.8-11.33,16.61-.24-1.48,2.54-2.03.76-3.02-12.37,1.09-18.22-18.74-27.94-22.65,2.45-5.33,5.76-4.28,6.04-4.53Z"/>
          <path class="cls-33" d="m889.21,332.51c.13-8.41-.28-25.74-1.51-33.22,9.88.19-4.87-14.67,11.33-16.61,2.21-.26,13.88,2.92,14.35,5.29.5,2.54-18.96,42.83-24.16,44.55Z"/>
        </g>
        <path class="cls-62" d="m768.41,1160.01v1.51c-8.1.16-28.74-.84-31.71,0v-1.51c3.96-5.17,7.51-10.89,10.57-16.61,14.94-2.12,16.31,3.32,21.14,16.61Z"/>
        <g>
          <path class="cls-70" d="m756.33,1095.07c-2.19,4.96-3.44,11.26-4.53,16.61-7.31-2.54-17.87,5.75-18.88,6.04-3.08.89-4.27-1.99-6.04-1.51-.36.1-5.67,4.45-6.04,4.53-1.42.31-12.92-.12-13.59,0-1.22.22-.29,2.82-1.51,3.02-2.7.44-15.99-.36-19.63,0-1.19.12-.33,2.91-1.51,3.02-5.01.48-8.12-1.8-13.59-1.51-.98.05-6.38,10.02-14.35-3.02-.69-4.5-3.19-9.09,3.02-12.08,2.64.39,2.86.9,4.53,1.51-5.79,21.85,30.11-26.53,42.28-30.2,4.89,6.32-15.44,16.78-21.9,28.69,24.65-1.69,48.43-7.25,71.73-15.1Z"/>
          <path class="cls-33" d="m659.68,1110.17c-6.21,3-3.71,7.58-3.02,12.08.24,1.56-.34,3.7,0,4.53-2.49.79-15.4,5.32-15.86,6.04-7.18,11.39,32.42,9.71,30.96,1.51,2.41.32,1.06,2.98,2.27,3.02,1.12.04.38-3,1.51-3.02,17.48-.25,23.91-2.06,43.04-7.55,3.12,10.18-45.71,17.5-54.36,24.16-14.91,1.08-30.4,3.05-45.3,0-.04-.15-2.93.49-3.02-.76-.36-4.83,2.57-16.59,3.02-17.37,3.3-5.61,35.02-23.49,40.77-22.65Z"/>
          <path class="cls-24" d="m692.9,1075.44c8.2,32.34-8.47-5.51-15.1,15.86-.98,3.16,7.54,12.72-7.55,11.33,2.6-7.75,8.82-26.61,17.37-28.69,3.22-.79,4.13,1.62,5.29,1.51Z"/>
          <path class="cls-56" d="m774.45,1078.46c-11.3,1.46-14.33,8.03-18.12,16.61-23.3,7.85-47.08,13.41-71.73,15.1,6.45-11.91,26.79-22.37,21.9-28.69,11.02-3.32,12.93,6.45,32.47,4.53,9.17-.9,32.98-10.6,36.24-21.14,2.74,10.91-.9,12.92-.76,13.59Z"/>
          <path class="cls-28" d="m732.17,1060.34c3.15,2.16,5.67,1.3,9.06,1.51,23.16,1.41,19.15-5.62,16.61-15.1,26.29,3.27,14.95,28.03-5.29,31.71-40.43,7.35-33.88-25.78-28.69-27.18,8.53-2.31,1.98,4.72,8.31,9.06Z"/>
          <path class="cls-27" d="m748.78,1134.33c3.51.83.28,5.72-1.51,9.06-3.06,5.72-6.61,11.44-10.57,16.61-19.85-.41-110.17,9.85-119.29-3.78-.79-3.17,1.75-4.29,1.51-5.29,14.9,3.05,30.39,1.08,45.3,0,16.28-1.17,73.46-7.78,84.56-16.61Z"/>
          <path class="cls-67" d="m751.8,1111.68v1.51c-12.09,8.38-19.44,9.64-33.22,13.59-19.13,5.49-25.56,7.3-43.04,7.55-1.13.02-.39,3.06-1.51,3.02-1.21-.04.15-2.7-2.27-3.02-.94-.13-9.95,5.19-15.1-7.55-.34-.83.24-2.97,0-4.53,7.96,13.04,13.37,3.07,14.35,3.02,5.47-.29,8.58,1.99,13.59,1.51,1.18-.11.32-2.9,1.51-3.02,3.64-.36,16.93.44,19.63,0,1.22-.2.29-2.8,1.51-3.02.67-.12,12.17.31,13.59,0,.37-.08,5.68-4.43,6.04-4.53,1.77-.48,2.96,2.4,6.04,1.51,1.01-.29,11.57-8.58,18.88-6.04Z"/>
          <path class="cls-59" d="m754.82,1113.19c4.51-2.3-2.43,17.19-4.53,19.63-.14.16-1.43,1.44-1.51,1.51-11.11,8.83-68.28,15.44-84.56,16.61,8.65-6.66,57.48-13.98,54.36-24.16,13.78-3.95,21.13-5.21,33.22-13.59.44-.31,2.65.3,3.02,0Z"/>
          <path class="cls-26" d="m656.66,1126.78c5.15,12.74,14.16,7.42,15.1,7.55,1.47,8.2-38.14,9.88-30.96-1.51.45-.72,13.37-5.25,15.86-6.04Z"/>
        </g>
        <g>
          <path class="cls-44" d="m709.52,164.89c-3.45-.2-5.91,1.05-9.06-1.51,5.33-4.82,11.62-5.54,7.55-10.57,1.04-.12,2.44.22,3.02,0,1.85-.71,2.21-1.29,3.02-3.02,3.82-8.13-1.49-5.61-1.51-6.04-.06-1.47,1.87-1.87,1.51-3.02-3.76-11.86-7.43-9.67-18.12-10.57-8.26-.86,7.08-3.86,18.88-3.02,12.84,24.63,4.54,30.12-5.29,37.75Z"/>
          <g>
            <path class="cls-29" d="m674.78,121.1c11.09,13.02-6.91,2.03-15.1,18.12-6.92,13.58,2.26,20.76,12.84,28.69,5.85-.93-3.09-10.07-3.78-12.84-3.26-13.1,4.77-16.06-6.04-15.86,2.79-3.01,25.73-10.44,27.18-10.57.39-.03-.59.95,6.04,1.51,10.69.9,14.36-1.29,18.12,10.57l-9.82-7.55c.47,3.4,5.91,7.48,6.8,10.57.45,1.57-.29,4.18,0,6.04v3.02c-.58.22-1.98-.12-3.02,0-15.89-43.38-15.97,3.72-7.55,10.57,3.15,2.56,5.61,1.31,9.06,1.51-.83.64,2.46,1.99.76,3.02-.96.58-10.27-1.27-9.82,4.53-5.22,1.47-10.2,7.23-16.61,6.04-8.45,1.92-6.3-7.98-21.14-12.08-17.45-23.1-29.01-34.19,6.04-46.06-2.06-7.24-1.57-14.51-1.51-21.9,6.36-1,1.19,15.2,3.02,20.39.93,2.62,4.37,2.07,4.53,2.27Z"/>
            <g>
              <path class="cls-37" d="m684.6,146.77c20.16,22.5,1.07,28.81-3.02,27.18-2.75-1.09-7.81-14.71,3.02-27.18Z"/>
              <path class="cls-66" d="m662.7,139.22c10.81-.21,2.78,2.75,6.04,15.86.69,2.76,9.63,11.91,3.78,12.84-10.58-7.93-19.75-15.11-12.84-28.69,3.67,2.62,2.87,0,3.02,0Z"/>
              <path class="cls-1" d="m708,152.81c4.07,5.03-2.22,5.75-7.55,10.57-8.42-6.85-8.34-53.95,7.55-10.57Z"/>
              <path class="cls-33" d="m714.05,140.73c.36,1.15-1.57,1.55-1.51,3.02h-1.51c-.88-3.09-6.32-7.17-6.8-10.57l9.82,7.55Z"/>
              <path class="cls-56" d="m714.05,149.79h-3.02c-.29-1.86.45-4.47,0-6.04h1.51c.02.43,5.33-2.09,1.51,6.04Z"/>
              <path class="cls-66" d="m714.05,149.79c-.81,1.73-1.17,2.31-3.02,3.02v-3.02h3.02Z"/>
            </g>
          </g>
        </g>
        <path class="cls-66" d="m581.16,347.61c10.16,1.63,21.94,13.39,35.49,12.08,13.02,12.45,17.83,24.23,35.49,10.57.26,2.88-1.24,3.01-1.51,4.53-.4,2.3-4.17,7.61-4.53,10.57-.81,6.63-.13,5.35,3.02,12.08-11.85,6.97-23.17,15.33-34.73,22.65l-11.33-46.81c-15.49,26.21,7.7,22.96,8.31,46.81.03,1.18-1.3,10.08-1.51,10.57-4.19,9.91-17.02,9.55-20.39,12.08-6.92,5.19,16.95,13.97,23.41-10.57,2-7.58,2.06-10.19,3.02,3.02.45,6.17-.59,13.07-4.53,18.12-.23.3-5.69,4.38-6.04,4.53-1.28.55-4.45,1.26-6.04,1.51-3.55.55-8.81.42-12.08-1.51-.97.1-2.18-.21-3.02,0-.79-3.46-12.24-17.77-12.08-18.88.1-.71,9.28-8.26,10.57-9.82,10.19,16.78,33.93-4.48,12.84-27.18-1.49-1.61-2.17,1.61-2.27,1.51-.28-.28-2.38.63-3.02-.76-.1-3.88-2.16-7.69-3.02-11.33-1.93-8.21,2.08-9.85.76-10.57-5.96-.35-7.89,6.28-11.33,9.06-15.13,12.23-2.49-.75-15.1-6.8,7.38-5.71,9.95-18.99,0-23.41-9.45-4.2-14.3,3.72-16.61,0,4.44-3.14,9.46-5.24,12.08-10.57,6.29-1.84,11.16-.76,12.08-4.53.9,1.47,9.9,8.94,17.37,28.69,2.05-.46-4.73-23.39-5.29-25.67Z"/>
        <g>
          <path class="cls-28" d="m825.79,1082.99c1.74,10.38,9.08,11.31,7.55,30.2l-6.8-18.12-20.39,6.04c-2.31-.4-5.28-.99-7.55-1.51-10.01-2.29-20.37-5.6-29.45-10.57-5.1,7.89-4.88,12.99-5.29,13.59-1.18,1.75-7.9,9.64-9.06,10.57-.37.3-2.58-.31-3.02,0v-1.51c1.09-5.35,2.34-11.65,4.53-16.61,3.79-8.58,6.82-15.15,18.12-16.61.97,4.52,8.16,6.62,12.08,7.55,9.46,2.23,18.4,1.47,27.94,1.51,4.81-3.58.89-6.95.76-10.57l10.57,6.04Z"/>
          <path class="cls-25" d="m833.34,1113.19c-.54,6.73-1.72,12.04-4.53,18.12-.94,2.03-10.36,14.73-13.59,19.63-16.23,7.89-33.17,40.31-54.36,34.73-3.66-8.72,18.41-8.17,27.18-22.65l2.27,1.51c3.05-.88,36.08-44.45,37-49.08,3.79-19.11-6.73-14.83-20.39-11.33-1.27-.17-.6-2.99-.76-3.02l20.39-6.04,6.8,18.12Z"/>
          <path class="cls-21" d="m806.16,1101.11c.15.03-.51,2.85.76,3.02,13.66-3.51,24.18-7.78,20.39,11.33-.92,4.62-33.94,48.2-37,49.08l-2.27-1.51c-7.15.96-10.04-1.51-10.57-1.51q8.31-20.01,16.61-40.02c-1.14-3.02-12.17-2.66-16.61-5.29-4.48-2.65-6.36-8.84-12.08-12.08,12.97,1.61,28.46,12.82,33.22-4.53,2.27.52,5.24,1.11,7.55,1.51Z"/>
          <path class="cls-70" d="m777.47,1161.52c-3.02,0-6.07-.06-9.06,0v-1.51c8.92-11.45,3.04-14.42,3.02-25.67-.02-8.64-2.92-16.53,6.04-18.12,4.44,2.63,15.47,2.27,16.61,5.29q-8.31,20.01-16.61,40.02Z"/>
          <path class="cls-11" d="m765.39,1104.13c5.72,3.24,7.6,9.43,12.08,12.08-8.96,1.6-6.06,9.48-6.04,18.12q-10.57-.76-21.14-1.51c2.1-2.44,9.04-21.93,4.53-19.63,1.16-.93,7.88-8.82,9.06-10.57-.16,1.31.38,1.37,1.51,1.51Z"/>
          <path class="cls-33" d="m798.61,1099.6c-4.76,17.35-20.25,6.14-33.22,4.53-1.13-.14-1.67-.2-1.51-1.51.41-.6.18-5.7,5.29-13.59,9.08,4.97,19.43,8.28,29.45,10.57Z"/>
          <path class="cls-17" d="m771.43,1134.33c.02,11.25,5.9,14.22-3.02,25.67-4.83-13.29-6.2-18.74-21.14-16.61,1.79-3.34,5.02-8.23,1.51-9.06.08-.07,1.37-1.35,1.51-1.51q10.57.76,21.14,1.51Z"/>
        </g>
        <path class="cls-37" d="m534.35,252.48c.83,4.58,3.73,8.94,3.02,13.59-3.9,25.41-24.31-29.51-3.02-13.59Z"/>
        <path class="cls-13" d="m582.67,429.15c8.17-9.82,12.04-4.19,10.57-25.67.1.1.77-3.12,2.27-1.51,21.1,22.7-2.64,43.96-12.84,27.18Z"/>
        <path class="cls-35" d="m587.2,391.4c-4.36-3.26-5.56,3.09-10.57,4.53-.77.22-2.05-.11-3.02,0,.38-2.29,3.92-3.05,3.02-6.04,3.44-2.78,5.36-9.41,11.33-9.06,1.32.72-2.68,2.36-.76,10.57Z"/>
        <path class="cls-61" d="m573.61,421.6c-5.96,5.14-11.45,3.43-7.55-4.53,3.88.25,5.87-1.46,9.06-3.02-.43,2.59-.76,5.02-1.51,7.55Z"/>
        <path class="cls-31" d="m576.63,395.93c-.12,9.79,5.6,18.24-3.02,25.67.75-2.53,1.08-4.96,1.51-7.55,1.59-9.56-1.48-10.76-1.51-12.08-.04-1.9-.29-4.33,0-6.04.97-.11,2.25.22,3.02,0Z"/>
        <g>
          <path class="cls-68" d="m575.12,278.15c-2.58-.4-5.64.27-8.31,0-.89,3.47-1.49,7.11-2.27,10.57l-15.1,3.02c-.99-6.73,1.33-13.12-3.02-19.63-2.69-4.02-5.25-2.63-9.06-6.04.71-4.65-2.19-9.01-3.02-13.59-1.64-9.08-3.93-18.19-6.04-27.18-1.17-4.98-3.91-9.67-3.02-15.1,9.59.74,22.32-3.8,33.22-.76q8.31,34.35,16.61,68.71Z"/>
          <path class="cls-28" d="m538.88,201.13c8.8-.82,18.88.4,27.94,0,1.21-.05.6,3.03.76,3.02,1.12,13.04,6.02,25.21,9.06,37.75.58,2.39.85,4.88,1.51,7.55.67,2.7.84,6.36,1.51,9.06,1.99,8.03,5.09,15.87,6.04,24.16-1.86-.78-10-4.44-10.57-4.53q-8.31-34.35-16.61-68.71c-10.9-3.05-23.63,1.49-33.22.76-.5-.04-1.01.03-1.51,0-2.22-9.97,5.51-8.17,15.1-9.06Z"/>
        </g>
        <path class="cls-64" d="m665.72,226.8c-4.86,4.3-14.21,13.85-18.12,16.61-24.89,17.55-38.16,14.06-67.95,15.1-.67-2.7-.84-6.36-1.51-9.06q35.86-14.35,71.73-28.69c5.93.42,10.1,5.03,15.86,6.04Z"/>
        <path class="cls-33" d="m650.62,324.96c.1,26.78,5.67,7.68,10.57-3.02-2.11,7.31-1.74,12.17-1.51,19.63.05,1.58,5.76-.72,0,16.61h-1.51c-1.98-2.12-4.16-4.02-6.04-6.04-8.06-8.68-14.74-20.09-22.65-28.69l21.14,1.51Z"/>
        <path class="cls-66" d="m676.29,447.27c-2.65,4.11-12.09-1.49-22.65,0q2.27-18.12,4.53-36.24c4.23,8.6,15.12,32.11,18.12,36.24Z"/>
        <path class="cls-56" d="m566.06,323.45c9.98,13.14,9.08,22.38,15.1,21.14.22.86-.21,2.15,0,3.02.55,2.28,7.34,25.21,5.29,25.67-7.47-19.75-16.46-27.23-17.37-28.69-.25-.41.71-3.16-3.02-9.06-1.64-2.59-3.96-6.21-7.55-6.04.18-.46.09-2.07,0-3.02-.22-2.45-5.37-9.54-9.06-9.06.29-.62-1.73-12.24,1.51-13.59,8.15,25.33,14.27,18.53,15.1,19.63Z"/>
        <path class="cls-64" d="m614.38,420.09c-.35.22-1.09-.16-1.51,0h-1.51c-.6-23.85-23.79-20.6-8.31-46.81l11.33,46.81Z"/>
        <path class="cls-4" d="m612.87,432.17c-6.46,24.54-30.32,15.76-23.41,10.57,3.37-2.53,16.2-2.17,20.39-12.08l3.02,1.51Z"/>
        <g>
          <g>
            <path class="cls-23" d="m862.03,614.88c-9.85,38.2-6.97,79.02-10.57,118.54-1.87,20.52-14.05,91.38-13.59,99.66.45,8.11,6.92,16.92,10.57,24.16-6.91,11.66-3.69,23.55-4.53,36.24-.05.74-4.42,3.72-4.53,4.53-2.09,15.1,22.26,23.8-4.53,49.08-3.14,2.96-12,6.97-13.59,9.06l2.27-46.81-44.55,10.57-4.53-1.51,48.32-17.37c-2.76-4.75-23.32-17.6-24.16-18.88-1.25-1.9-9.89-42.43-9.06-44.55,1.71-4.37,29.38-3.12-1.51-10.57-3.95-10.85-10.53-21.25-16.61-30.96l36.24,6.8,3.02-135.9c-35.76,6.72-62.84-.88-96.64-8.31-11.22-2.46-22.16-3.82-33.22-6.04-.6-.12-11.13-4.06-10.57-6.04.49-1.56,1.02-3.01,1.51-4.53,9.16-.05,18.16,1.79,27.18,3.02,36.95,5.06,126.01,19.26,151-15.86,2.45-3.44,5.76-14.08,7.55-18.88.27-.73-.71-3.45,3.02-4.53.07.53,5.2-.01,1.51,9.06Z"/>
            <path class="cls-29" d="m646.09,734.18c1.1,21.89,6.3,43.29,9.06,64.93,2.62,20.53,4.46,41.49,7.55,61.91.84,5.58,2.21,11.41,4.53,16.61-5.26-7.95-4.48-12.96-9.06-18.12-1.69-11.46-2.99-23.21-4.53-34.73-4.11-30.66-6.83-77.52-9.06-90.6h1.51Z"/>
            <path class="cls-7" d="m771.43,796.09c-6.33-10.11-14.73-19.99-21.14-30.2-2.29-22.22-17.15-50.11-24.16-71.73-1.21-2.17-8.93,7.71-9.06,8.31-3.67.63-4.33-2.84-4.53-3.02l1.51-40.77c33.81,7.42,60.89,15.03,96.64,8.31l-3.02,135.9-36.24-6.8Z"/>
            <path class="cls-22" d="m771.43,796.09c6.08,9.71,12.66,20.1,16.61,30.96,30.89,7.45,3.22,6.2,1.51,10.57-.83,2.12,7.81,42.65,9.06,44.55-6.95,7.99-27.81,14.16-39.26,19.63-3.86-4.46-12.32-13.99-16.61-16.61-1.99-7.98-2.69-12.9-3.02-21.14-1.3-32.06,8.82-28.31,10.57-33.98.95-3.07.65-57.86,0-64.18,6.41,10.21,14.81,20.09,21.14,30.2Z"/>
            <path class="cls-42" d="m680.82,652.63c.21,3.64-.96,7.01-1.51,10.57-.61,3.94-.92,8.13-1.51,12.08-5.81,39.07.33,79.41,0,119.29-20.49-74.95-12.88-11-6.04,3.02-6.2,3.76-9.79,5.15-16.61,1.51-2.76-21.65-7.96-43.04-9.06-64.93,7.67-29.47,14.97-58.49,24.16-87.58-.56,1.98,9.97,5.92,10.57,6.04Z"/>
            <path class="cls-7" d="m821.26,956.15c-.06.08-1.68-.34-1.51,1.51-3.17-4.45-1.38-1.48-12.08,0-8.03,1.11-16.12,2-24.16,3.02l-4.53-40.77,44.55-10.57-2.27,46.81Z"/>
            <path class="cls-3" d="m759.35,901.79c4.74,5.47,8.14,12.91,15.1,16.61l4.53,1.51,4.53,40.77c-.67.09-5.93,1.86-6.04,3.02-2.25-1.73-7.57-4.9-10.57-4.53-3.74-12.82-11.63-24.29-13.59-37.75.49-.91,4.42-.68,4.53-3.78.06-1.79-12.25-21.03-15.1-32.47,4.29,2.62,12.75,12.15,16.61,16.61Z"/>
            <path class="cls-7" d="m774.45,918.4c-6.96-3.7-10.36-11.14-15.1-16.61,11.45-5.47,32.31-11.64,39.26-19.63.84,1.28,21.4,14.13,24.16,18.88l-48.32,17.37Z"/>
            <path class="cls-22" d="m714.05,658.67l-1.51,40.77c-12.26-10.87-20.62-25.77-33.22-36.24.55-3.56,1.72-6.93,1.51-10.57,11.06,2.22,22,3.58,33.22,6.04Z"/>
            <path class="cls-28" d="m712.54,699.45c.2.18.86,3.65,4.53,3.02-.2.88.07,2.04,0,3.02-7.03,25.81,13.29,84.26,18.12,117.78,1.93,13.39.13,27.63,4.53,40.77.33,8.24,1.03,13.16,3.02,21.14,2.85,11.43,15.16,30.68,15.1,32.47-.11,3.09-4.04,2.86-4.53,3.78-.1.2-2.62-.58-3.02.76-.81,2.69,6.03,60.84-14.35,17.37-2.41,4.25.36,8.45.76,12.08-7.49-3.35,2.4-4.83-9.06-4.53l-4.53-32.47q-16.61-2.64-33.22-5.29c-.86-3.25.44-9.53-5.29-13.59-28.07-8.74-24.01-15.6-26.43-31.71-.22-1.46.22-3.07,0-4.53,4.58,5.16,3.8,10.17,9.06,18.12,7.08,10.71,8.63,8.88,21.14,13.59,14.92,5.61,61.17,16.69,22.65-.76,10.09-19.1,8.63-52.62,9.06-75.5-1.51-3.63-37.27-11.45-43.79-11.33-4-2.36-3.12-3.15-4.53-6.04-6.84-14.02-14.45-77.97,6.04-3.02,6.17-.1,36.21,12.18,37.75,6.8q-8.31-49.83-16.61-99.66l-21.14-26.43c.59-3.95.9-8.14,1.51-12.08,12.6,10.47,20.96,25.37,33.22,36.24Z"/>
            <path class="cls-42" d="m658.17,864.04c2.42,16.11-1.64,22.97,26.43,31.71,5.73,4.06,4.42,10.34,5.29,13.59,2.83,10.65,5.91,30.95,6.04,42.28-7.95.29-15.1-1.11-15.1,1.51-5.2-1.94-16.29-30.43-19.63-37.75-4.01-8.8-6.72-18.36-13.59-25.67.03-2.64,5.29-25.91,10.57-25.67Z"/>
            <path class="cls-40" d="m676.29,803.64c2.63,15.57,5.24,31.19,7.55,46.81-8.38,5.57-9.93,14.39-21.14,10.57-3.09-20.42-4.93-41.38-7.55-61.91,6.82,3.64,10.41,2.25,16.61-1.51,1.41,2.89.53,3.68,4.53,6.04Z"/>
            <path class="cls-58" d="m688.37,891.22c-12.51-4.71-14.06-2.88-21.14-13.59-2.32-5.2-3.69-11.03-4.53-16.61,11.21,3.82,12.76-5,21.14-10.57,1.98,13.4,4.54,27.18,4.53,40.77Z"/>
            <path class="cls-3" d="m750.29,765.89c.65,6.32.95,61.11,0,64.18-1.75,5.66-11.87,1.91-10.57,33.98-4.4-13.14-2.6-27.38-4.53-40.77,8.34-24.68-19.07-103.94-18.12-117.78.07-.98-.2-2.14,0-3.02.13-.6,7.85-10.48,9.06-8.31,7.01,21.62,21.87,49.51,24.16,71.73Z"/>
            <path class="cls-7" d="m677.8,794.58c.33-39.88-5.81-80.22,0-119.29l21.14,26.43q8.31,49.83,16.61,99.66c-1.55,5.38-31.58-6.89-37.75-6.8Z"/>
            <path class="cls-7" d="m688.37,891.22c.01-13.6-2.55-27.37-4.53-40.77-2.31-15.62-4.92-31.24-7.55-46.81,6.52-.12,42.28,7.7,43.79,11.33-.43,22.88,1.03,56.4-9.06,75.5,38.52,17.44-7.73,6.37-22.65.76Z"/>
            <path class="cls-7" d="m727.64,947.09c-7.87.2-17.75,4.03-31.71,4.53-.13-11.33-3.21-31.64-6.04-42.28q16.61,2.64,33.22,5.29l4.53,32.47Z"/>
            <path class="cls-40" d="m735.19,823.27c-4.83-33.52-25.15-91.97-18.12-117.78-.95,13.84,26.46,93.11,18.12,117.78Z"/>
          </g>
          <g>
            <path class="cls-67" d="m836.36,379.32c20.67,1.15,35.47,10.15,46.81,27.18-1.01,10.63.08,20.46-1.51,30.96-3.76,5.22-9.83,7.56-12.08,9.82,16.24-28.56-2.17-53.91-31.71-58.89-22.91-3.87-27.59,5.62-37.75,3.02,8.27-11.9,22.72-12.83,36.24-12.08Z"/>
            <path class="cls-52" d="m887.7,299.29c1.23,7.48,1.64,24.81,1.51,33.22-.26,17.08-2.94,41.15-4.53,58.89-2.35-8.65-5.75-8.96-12.08-13.59,8.57.81,2.57-4.84,3.02-6.8.28-1.23,2.9-.31,3.02-1.51.86-8.46-1.9-13.27-1.51-16.61.07-.64,4.47-10.79,4.53-12.08,1.83-37.81-4.12-37.77-21.14-67.2,9.71,3.91,15.57,23.74,27.94,22.65,1.78.99-1,1.54-.76,3.02Z"/>
            <path class="cls-11" d="m872.6,377.81c6.33,4.63,9.73,4.94,12.08,13.59-.45,5.06-1.03,10.05-1.51,15.1-11.34-17.03-26.14-26.03-46.81-27.18l-9.06-19.63c9.66-.35,14.38,3.93,23.41,3.02,5.54,7.45,14.77,9.88,21.9,15.1Z"/>
            <path class="cls-33" d="m771.43,285.7c-1.23,1.82-1.72,4.31-3.02,6.04-2.9-1.02-4.26-3.88-6.04-6.04-3.64-4.43-7.23-8.92-10.57-13.59,3.15-3.43,7.04-6.01,10.57-9.06,11.92-10.29,21.72-22.65,34.73-31.71.68.59,3.53,3.04,3.78,3.02.29-.02.14-1.42,3.78-4.53-10.22,18.83-21.23,38.14-33.22,55.87Z"/>
            <path class="cls-11" d="m816.73,243.41c-8.72,7.46-16.23,15.93-24.16,24.16-9.13,9.48-18.27,22.41-21.14,18.12,11.99-17.73,23-37.04,33.22-55.87,2.24-1.92,3.7-3.05,4.53-6.04.32,1,4.34,6.55,7.55,19.63Z"/>
            <path class="cls-63" d="m860.52,273.62c17.02,29.43,22.97,29.39,21.14,67.2-.06,1.29-4.46,11.44-4.53,12.08-.39,3.34,2.37,8.15,1.51,16.61-.12,1.2-2.74.28-3.02,1.51-.45,1.96,5.55,7.6-3.02,6.8-7.12-5.22-16.36-7.65-21.9-15.1-9.03.91-13.75-3.37-23.41-3.02-8.81.32-15.98,5.19-24.16,7.55,6.77-9.54,12.67-6.07,13.59-13.59,7.69-12.31,10.63-49.75,37.75-80.03,2.27-.2.56-2.21,6.04,0Z"/>
            <path class="cls-62" d="m840.89,263.05c-5.06,11.65-81.09,38.64-42.28,40.77-1.52,1.53-3.2,4.22-4.53,6.04-6.45,3.51-13.11-4.93-18.88-4.53-.64.04-1.83,2.78-3.78,3.02,5.46-13.05,25.77-31.48,21.14-40.77,7.94-8.23,15.44-16.7,24.16-24.16,8.52,5.88,16.51,12.68,24.16,19.63Z"/>
            <path class="cls-1" d="m848.44,273.62c-3.56,1.41-11.81,10.51-15.1,13.59-15.75,14.76-20.51,28.24-27.18,28.69,2.75-12.8,11.3-31.06-7.55-12.08-38.81-2.13,37.22-29.12,42.28-40.77,4.63,4.21,10.66,7.26,7.55,10.57Z"/>
            <path class="cls-64" d="m854.48,273.62c-27.12,30.28-30.06,67.72-37.75,80.03-7.91,3.98,1.57-34.23,3.02-38.51,4.58-13.53,16.44-25.45,13.59-27.94,3.29-3.08,11.54-12.18,15.1-13.59.99-.39,3.98.18,6.04,0Z"/>
            <g>
              <path class="cls-59" d="m857.5,610.35c-1.79,4.79-5.1,15.43-7.55,18.88-25,35.12-114.05,20.92-151,15.86,3.08-7.26,16.09-4.25,15.1-13.59,1.38.3,3.14-.29,4.53,0,11.31,2.32,21.56,6.92,34.73,9.06,10.49,1.7,28.09,4.7,37.75,1.51,32.39,3.24,45.04-8.88,66.44-31.71Z"/>
              <path class="cls-14" d="m860.52,602.8c.16.96-.12,2.04,0,3.02-3.73,1.08-2.75,3.8-3.02,4.53-21.4,22.83-34.05,34.95-66.44,31.71-.99-.1-2.04.13-3.02,0,9.27-8.84,20.12-17.82,30.2-25.67,4.09-3.19,15.66-7.66,16.61-13.59,4.51-1.64,10.98-6.17,15.1-9.06.34.61,8.13,8.78,10.57,9.06Z"/>
              <path class="cls-26" d="m714.05,631.49c.99,9.34-12.02,6.33-15.1,13.59-9.02-1.23-18.03-3.07-27.18-3.02.84-2.61-.01-12.38,3.78-18.12,4.13-2.22,32.03,6.16,38.51,7.55Z"/>
              <path class="cls-51" d="m848.44,472.94c1.07-1.56,2.51-3.88,4.53-4.53-7.66,26.94-.26,57.69,7.55,83.81-11.29,7.07-10,10.8-10.57,11.33-6.8,6.17-48.05,29.23-60.4,43.79-4.06-.32-35.5-6.6-36.24-8.31,2.77-3.86,15.49-23.21,16.61-24.16,11.74-9.93,50.41,5.7,51.34-6.8,10.3-.49,21.32-8.13,30.2-12.84h-15.1l9.82-62.67c-3.33-2.66-34.52,63.88-43.04,67.95-26.99-18.1-29.74-41.43-114.76-58.14,2.67,2.14,1.21,7.56,1.51,12.84.24,4.19,1.12,9.21,1.51,13.59,1.47,16.4,6.6,55.96-3.02,15.1-2.66-11.32-4.12-23.23-6.04-34.73-.25-1.52,4.86-6.55-3.02-30.2l-1.51-30.2c18.29,23.62,98.05,76.82,115.52,78.52,17.58,1.71,45.25-40.03,55.12-54.36Z"/>
              <path class="cls-63" d="m682.33,596.76c16.29,8.86,22.99,20,66.44,22.65l-6.04,4.53c-8.64-.15-10.81-3.31-11.33-3.02-10.07,5.67,51.64,20.49,56.63,21.14.98.13,2.03-.1,3.02,0-9.66,3.19-27.26.19-37.75-1.51-8.22-5.2-23.04-7.96-33.22-10.57-16.6-4.26-33.8-9.8-50.59-10.57-.07-13.02-5.04-32.37,12.84-22.65Z"/>
              <path class="cls-64" d="m715.56,560.52c-4.54,10.12-24.07,25.53-18.12,37,5.15,9.93,45.77,15.79,52.85,21.9-.5-.02-1.01.03-1.51,0-43.45-2.65-50.15-13.79-66.44-22.65,5.26-16.55-3.85-38.55,6.04-52.85,9.62,40.86,4.49,1.3,3.02-15.1,7.39,3.67,19.93,29.5,24.16,31.71Z"/>
              <path class="cls-41" d="m753.31,640.55c-13.17-2.14-23.42-6.74-34.73-9.06l1.51-1.51c10.18,2.61,25,5.37,33.22,10.57Z"/>
              <path class="cls-12" d="m854.48,581.66c-.99,2.04-9.27,3.62-4.53,12.08-4.12,2.89-10.59,7.43-15.1,9.06-14.08,5.11-30.43,5.69-45.3,4.53,12.35-14.56,53.6-37.62,60.4-43.79,5.65,11.33,9.2,8.46,4.53,18.12Z"/>
              <path class="cls-63" d="m860.52,602.8c-2.44-.28-10.23-8.45-10.57-9.06-4.74-8.46,3.54-10.04,4.53-12.08,3.17,6.81,4.79,13.75,6.04,21.14Z"/>
              <path class="cls-34" d="m803.14,560.52c3.94,2.64,2.05,8.31,18.12,7.55-.93,12.5-39.6-3.14-51.34,6.8-1.12.95-13.84,20.3-16.61,24.16.74,1.71,32.18,7.99,36.24,8.31,14.87,1.16,31.22.58,45.3-4.53-.95,5.93-12.52,10.4-16.61,13.59-25.32,4.77-49.63,8-75.5,7.55l6.04-4.53c.5.03,1.01-.02,1.51,0,37.54,1.68-23.45-5.89-43.79-35.49,6.36-7.11,12.4-14.25,18.12-21.9,1.31-1.75,8.32-5.37,7.55-8.31q-21.14-19.25-42.28-38.51c-.3-5.28,1.16-10.69-1.51-12.84,85.02,16.71,87.78,40.04,114.76,58.14Z"/>
              <path class="cls-39" d="m818.24,616.39c-10.08,7.85-20.93,16.83-30.2,25.67-4.99-.65-66.69-15.47-56.63-21.14.51-.29,2.69,2.87,11.33,3.02,25.88.45,50.18-2.78,75.5-7.55Z"/>
              <path class="cls-12" d="m821.26,568.07c-16.07.76-14.18-4.91-18.12-7.55,8.52-4.07,39.71-70.61,43.04-67.95l-9.82,62.67h15.1c-8.88,4.71-19.9,12.35-30.2,12.84Z"/>
              <path class="cls-63" d="m724.62,562.03c-3.97-5.41-7.52-.7-9.06-1.51-4.23-2.21-16.77-28.04-24.16-31.71-.39-4.38-1.27-9.4-1.51-13.59q21.14,19.25,42.28,38.51c.77,2.94-6.24,6.56-7.55,8.31Z"/>
              <path class="cls-60" d="m724.62,562.03c-5.73,7.65-11.76,14.79-18.12,21.9,20.34,29.59,81.33,37.17,43.79,35.49-7.08-6.11-47.7-11.97-52.85-21.9-5.95-11.47,13.58-26.88,18.12-37,1.54.81,5.09-3.9,9.06,1.51Z"/>
            </g>
            <path class="cls-20" d="m837.87,388.38c-4.9,15.32-19.64,1.24-21.14,12.08-4.24.12-5.51,1.38-9.06,3.02-4.36,2.02-8.21,4.75-10.57,9.06l-1.51-1.51c2.03-6.17,3.39-13.23,4.53-19.63,10.16,2.6,14.84-6.89,37.75-3.02Z"/>
            <path class="cls-45" d="m827.3,359.69l9.06,19.63c-13.52-.75-27.97.18-36.24,12.08.26-1.46-4.56-9.2,1.51-22.65.94-2.08,1.45-1.42,1.51-1.51,8.18-2.36,15.35-7.23,24.16-7.55Z"/>
            <path class="cls-59" d="m771.43,308.35c-.62.08-.83,1.12-12.08,3.02l-15.1-3.02c8.13-3.29,15.4-8.55,23.41-12.08,3.97-2.58.16-3.74.76-4.53,1.3-1.73,1.79-4.22,3.02-6.04,2.87,4.29,12.01-8.64,21.14-18.12,4.63,9.29-15.68,27.72-21.14,40.77Z"/>
            <path class="cls-70" d="m768.41,291.74c-.59.79,3.21,1.95-.76,4.53-8.01,3.53-15.28,8.79-23.41,12.08-16.79,6.8-5.65.9-3.02-7.55l21.14-15.1c1.78,2.16,3.14,5.02,6.04,6.04Z"/>
            <path class="cls-54" d="m762.37,285.7l-21.14,15.1c3.03-9.74,5.88-19.48,9.06-28.69h1.51c3.34,4.67,6.93,9.16,10.57,13.59Z"/>
            <path class="cls-60" d="m816.73,353.65c-.92,7.52-6.82,4.05-13.59,13.59-.06.09-.57-.57-1.51,1.51-3.07-.14-.29-3.83,0-10.57.84-19.4.3-22.56,4.53-42.28,6.67-.45,11.43-13.93,27.18-28.69,2.85,2.49-9.01,14.4-13.59,27.94-1.45,4.28-10.93,42.49-3.02,38.51Z"/>
            <path class="cls-64" d="m794.08,309.86c-12.8,17.56-38.45,87.75-57.38,111.74-13.09-8.3-22.8-12.65-36.24-22.65,4.11-16.57,6.07-33.72,12.08-49.83,5.05,1.24,2.88,29.72,12.08,15.86,3.34-5.03,8.45-40.11,12.08-50.59,7.46-.54,15.29-1.78,22.65-3.02,11.25-1.9,11.46-2.94,12.08-3.02,1.95-.24,3.14-2.98,3.78-3.02,5.76-.4,12.42,8.04,18.88,4.53Z"/>
            <path class="cls-63" d="m806.16,315.9c-4.23,19.72-3.69,22.88-4.53,42.28-4.41-5.23-3.35-11.97-6.8-16.61-5.04.95-13.7,84.9-15.86,95.13-.39,1.85-.83,5.38-3.02,6.04-11.94-7.74-26.77-13.22-39.26-21.14,18.93-24,44.58-94.18,57.38-111.74,1.33-1.82,3.01-4.51,4.53-6.04,18.85-18.98,10.3-.72,7.55,12.08Z"/>
            <path class="cls-2" d="m692.9,392.91c-6.43-5.24-7.22-4.24-7.55-4.53-2.67-2.36-4.96-6.56-7.55-9.06,1.25-7.19,24.14-92.85,32.47-87.58-9.61,33.1-11.86,67.3-17.37,101.17Z"/>
            <path class="cls-64" d="m680.82,338.55c-8.13,10.72-4.09,4.32-12.08-1.51,5.88-15.68,11.05-31.58,18.12-46.81,7.34-7.17,21.18-27.64,27.94-33.22,27.94-23.08-6.16,16.45-14.35,30.96-8.68,15.38-15.27,33.55-19.63,50.59Z"/>
            <g>
              <path class="cls-66" d="m759.35,250.97c-1.91.63-2.13,3.05-3.02,4.53-5.76,9.6-3.71,9.87-6.04,16.61-3.18,9.21-6.03,18.95-9.06,28.69-2.63,8.45-13.77,14.35,3.02,7.55l15.1,3.02c-7.36,1.24-15.19,2.48-22.65,3.02-8.09-1.04-20.69,25.43-24.16,34.73-6.01,16.11-7.97,33.26-12.08,49.83-2.81-2.09-4.89-3.87-7.55-6.04,5.5-33.87,7.76-68.07,17.37-101.17-8.32-5.26-31.21,80.39-32.47,87.58-1.59-1.54-2.99-2.99-4.53-4.53,3.22-11.95,4.48-24.24,7.55-36.24,4.36-17.04,10.95-35.21,19.63-50.59,8.19-14.5,42.29-54.04,14.35-30.96-6.76,5.58-20.59,26.05-27.94,33.22-4.17,4.07-3.1,5.09-6.04,3.02,23.3-66.91-13.2,14.62-19.63,28.69-4.9,10.7-10.47,29.8-10.57,3.02,26.01-35.43-12.83-35.53-3.02-81.54,3.91-2.76,13.26-12.31,18.12-16.61,15.87,2.79,32,4.73,47.57,9.06,5.21.96,3.53-2.99,3.78-3.02,17.11-1.96,12.9-5.19,22.65-9.06,16.48-6.53,11.2,17.39,19.63,27.18Z"/>
              <path class="cls-69" d="m762.37,263.05c-3.53,3.05-7.42,5.63-10.57,9.06h-1.51c2.33-6.74.28-7.01,6.04-16.61l6.04,7.55Z"/>
              <path class="cls-11" d="m734.43,257.01c16.79-5.72,8.79,10.61,5.29,32.47q-11.7-1.13-23.41-2.27c-7.08-2.24,16.37-29.61,18.12-30.2Z"/>
            </g>
            <path class="cls-2" d="m736.7,314.39c-3.63,10.48-8.74,45.55-12.08,50.59-9.2,13.86-7.03-14.62-12.08-15.86,3.47-9.3,16.07-35.77,24.16-34.73Z"/>
            <path class="cls-64" d="m680.82,293.25c-5.7,16.37-13.53,32.73-21.14,48.32-.23-7.46-.6-12.32,1.51-19.63,6.43-14.07,42.93-95.61,19.63-28.69Z"/>
            <path class="cls-64" d="m680.82,338.55c-3.07,12-4.33,24.29-7.55,36.24-5.22-5.21-10.06-11.21-15.1-16.61h1.51c4.84-6.1,6.4-14.03,9.06-21.14,7.99,5.83,3.95,12.23,12.08,1.51Z"/>
            <path class="cls-1" d="m668.74,337.04c-2.67,7.11-4.22,15.04-9.06,21.14,5.76-17.33.05-15.03,0-16.61,7.61-15.59,15.44-31.95,21.14-48.32,2.94,2.07,1.87,1.05,6.04-3.02-7.07,15.23-12.24,31.13-18.12,46.81Z"/>
            <path class="cls-34" d="m801.63,358.18c-.29,6.74-3.07,10.43,0,10.57-6.07,13.45-1.25,21.19-1.51,22.65-1.14,6.4-2.5,13.46-4.53,19.63-1.77,5.4-10.96,22.64-16.61,25.67,2.15-10.23,10.81-94.18,15.86-95.13,3.45,4.64,2.38,11.38,6.8,16.61Z"/>
          </g>
        </g>
        <g>
          <path class="cls-29" d="m605.32,457.84c17.87,22.24,40.5,43.83,70.97,41.53,3.11-4.34-4.33-20.8-4.53-21.9-.7-3.78-2.45-7.84,3.02-7.55,1.35,2.23,3.77,6.79,4.53,9.06,7.88,23.65,2.77,28.68,3.02,30.2h-1.51c-13.01-2.07-26.9-2.4-39.26-7.55-16.57-6.9-33.32-26.86-42.28-42.28,1.59-.25,4.76-.96,6.04-1.51Z"/>
          <path class="cls-18" d="m869.58,447.27c-2.33,2.33-11.65,3.69-16.61,21.14-2.02.65-3.46,2.97-4.53,4.53-1.27-6.29-5.03.45-9.06,0,12.58-21.86,22.64-39.6,1.51-60.4-6.65-6.55-8.72-8.44-18.12-10.57-1.35-.31-1.59-1.64-6.04-1.51,1.5-10.84,16.24,3.23,21.14-12.08,29.54,4.99,47.96,30.33,31.71,58.89Z"/>
          <g>
            <g>
              <path class="cls-13" d="m738.21,965.21c4.5,27.69,12.53,55.03,19.63,81.54,2.54,9.48,6.55,16.51-16.61,15.1-3.18-13.28-13-46.45-18.12-55.87,3.71-14.47-3.93-29.13-4.53-43.79,6.26,1.5,13.13,3.03,19.63,3.02Z"/>
              <path class="cls-4" d="m736.7,951.62c.47,4.39.81,9.27,1.51,13.59-6.51,0-13.37-1.52-19.63-3.02-3.06-.73-13.8-7.23-16.61-3.78l4.53,21.9c-15.52-36.94-14.07-22.84-25.67-27.18,0-2.62,7.15-1.22,15.1-1.51,13.96-.5,23.84-4.33,31.71-4.53,11.46-.3,1.57,1.18,9.06,4.53Z"/>
              <path class="cls-13" d="m718.58,962.19c.6,14.66,8.24,29.32,4.53,43.79-2.48-4.57-5.29-10.43-10.57-7.55-2.17-5.97-3.6-12.3-6.04-18.12l-4.53-21.9c2.81-3.45,13.55,3.04,16.61,3.78Z"/>
              <path class="cls-9" d="m723.11,1005.98c5.12,9.42,14.94,42.59,18.12,55.87-3.39-.21-5.91.65-9.06-1.51-.9-10.93-7.17-28.33-15.1-35.49-.44-1.3,3.37-4.7-4.53-26.43,5.28-2.88,8.09,2.98,10.57,7.55Z"/>
            </g>
            <g>
              <path class="cls-4" d="m807.67,957.66c-.47,21.7-5.84,96.7,0,110.99.2.49,5.85,5.47,7.55,5.29.04,1-.04,2.02,0,3.02.14,3.62,4.05,6.99-.76,10.57-9.53-.04-18.48.72-27.94-1.51,1.36-1.77,1.09-3.03,1.51-4.53,13.1,1.72.06-98.85-1.51-104.95-1.8-7-3.57-8.61-9.06-12.84.11-1.16,5.37-2.93,6.04-3.02,8.04-1.02,16.13-1.91,24.16-3.02Z"/>
              <path class="cls-48" d="m777.47,963.7c5.49,4.23,7.26,5.84,9.06,12.84,1.57,6.1,14.61,106.66,1.51,104.95,3.5-12.53-15.97-104.61-21.14-122.31,3-.37,8.32,2.8,10.57,4.53Z"/>
              <path class="cls-55" d="m819.75,957.66c-3.54,38.61-6.23,77.47-4.53,116.27-1.71.18-7.35-4.8-7.55-5.29-5.84-14.29-.47-89.29,0-110.99,10.7-1.48,8.91-4.45,12.08,0Z"/>
            </g>
          </g>
          <path class="cls-6" d="m525.29,374.79c.46.97.96,2.13,1.51,3.02.39.64-2.16,4.29,5.29,12.08,5.94,6.21,17.98,7.9,24.92,10.57,6.33,2.44,8.57,12.7,16.61,1.51.03,1.32,3.1,2.52,1.51,12.08-3.19,1.56-5.18,3.27-9.06,3.02-3.82-.25-35.95-13.83-36.24-21.14-6.25-19.01-15.02-24.09-16.61-27.18-.22-.42-2.72-7.94-3.02-9.06l9.06-4.53c-2.67,17.91,5.14,17.74,6.04,19.63Z"/>
          <g>
            <path class="cls-13" d="m759.35,133.18l13.59,50.59c-.08,1.29-11.86,19.94-13.59,21.9-3.12,3.53-16.59,13.73-21.14,15.1-.23.07,1.48-3.98-3.78-3.02-5.41.99-20.7,13.41-40.02-13.59,5.05-.04,9.23,2.12,16.61,1.51,16.18-1.34,9.08-3.83,0-18.12,18.05-8.29,20.88-29.22,21.14-46.81,4.35-3.23,21.27-6.84,27.18-7.55Z"/>
            <path class="cls-13" d="m792.57,151.3c-2.75,5.7-7.74,9.94-12.08,14.35,7.79,6.07,3.33,15.16,4.53,24.92.12.98-.14,2.05,0,3.02,1.55,10.69,3.47,30.36,12.08,37.75-13.01,9.06-22.81,21.42-34.73,31.71l-6.04-7.55c.89-1.48,1.11-3.9,3.02-4.53,3.52,4.09,6.09,4.64,9.06,1.51,9.77-10.3,6.79-95.83,6.04-114.76,7.86,17.84,10.68,2.18,18.12,13.59Z"/>
            <path class="cls-4" d="m774.45,137.71c.75,18.93,3.73,104.46-6.04,114.76-9.4-20.94-2.76-39.99-9.06-46.81,1.73-1.96,13.51-20.61,13.59-21.9l-13.59-50.59c5.73-.69,11.89,1.46,12.08-1.51.01.34,2.59,5.06,3.02,6.04Z"/>
            <path class="cls-13" d="m735.19,112.04c.35.22,1.11-.21,1.51,0,7,3.68,9.83,2.84,16.61,5.29-38.37,20.31-23.26-.4-43.79-2.27-1.46-13.83-2.98-27.34,1.51-40.77,4.15.97-.14,10.45,24.16,9.82-12.29,6.76-10.94,21.07,0,27.94Z"/>
            <path class="cls-37" d="m698.94,78.82q-.76,18.88-1.51,37.75c-4.22,2.02-8.9,7.3-7.55,12.08-1.45.13-24.39,7.56-27.18,10.57-.15,0,.65,2.62-3.02,0,8.19-16.09,26.19-5.1,15.1-18.12l7.55-39.26c5.48-.86,11.18-1.93,16.61-3.02Z"/>
            <path class="cls-47" d="m711.03,187.54c-10.95,5.03-17.7,2.92-28.69,3.02-.04-.16-1.21,1.06-1.51-3.02-.25-3.33,3.26-5.72,3.02-9.06,6.41,1.19,11.39-4.57,16.61-6.04,9.03-2.54,19.14-3.96,20.39-4.53,14.38-6.54.01-18.79,11.33-27.18-.26,17.59-3.09,38.52-21.14,46.81Z"/>
            <path class="cls-13" d="m792.57,151.3c-7.44-11.41-10.26,4.25-18.12-13.59-.43-.98-3.01-5.7-3.02-6.04-.79-24.58,39.88-19.14,21.14,19.63Z"/>
            <path class="cls-47" d="m711.03,74.29c-4.49,13.43-2.97,26.94-1.51,40.77-1.84-.17-11.53,1.25-12.08,1.51q.76-18.88,1.51-37.75c.63-.13,9.48-5.14,12.08-4.53Z"/>
            <path class="cls-65" d="m674.78,121.1c-.16-.19-3.6.36-4.53-2.27-1.83-5.18,3.34-21.38-3.02-20.39.06-7.73,2.54-10.11-1.51-9.06,2.53-1.91,3.66-2.35,3.02-6.04,4.29,3.32,9.59-.88,13.59-1.51l-7.55,39.26Z"/>
            <path class="cls-55" d="m768.41,252.48c-2.97,3.13-5.54,2.58-9.06-1.51-8.43-9.79-3.15-33.71-19.63-27.18l-1.51-3.02c4.55-1.37,18.02-11.57,21.14-15.1,6.3,6.82-.34,25.87,9.06,46.81Z"/>
            <path class="cls-8" d="m711.03,187.54c9.08,14.29,16.18,16.78,0,18.12-6.86-9.71-12.7-3.66-22.65-4.53-1.85-2.96-5.25-7.44-6.04-10.57,10.99-.1,17.74,2.01,28.69-3.02Z"/>
            <path class="cls-4" d="m694.41,204.15c19.32,27,34.6,14.58,40.02,13.59,5.26-.96,3.54,3.09,3.78,3.02l1.51,3.02c-9.75,3.87-5.54,7.1-22.65,9.06-1.7-11.95-12.13-10.6-25.67-27.18-.13-1.92,1.27-1.5,3.02-1.51Z"/>
            <path class="cls-36" d="m711.03,205.66c-7.38.61-11.56-1.55-16.61-1.51-1.75.01-3.15-.41-3.02,1.51-1.36-1.66-1.95-2.81-3.02-4.53,9.95.87,15.79-5.18,22.65,4.53Z"/>
          </g>
          <path class="cls-30" d="m673.27,423.11c31.68,44.04,66.52,73.63,119.29,90.6,21.9-7.29,35.52-21.14,46.81-40.77,4.03.45,7.79-6.29,9.06,0-9.86,14.33-37.54,56.07-55.12,54.36-17.47-1.7-97.22-54.9-115.52-78.52-1.07-1.39-1.45-1.42-1.51-1.51-3-4.13-13.89-27.64-18.12-36.24-5.95-12.1-8.71-12.85-9.06-13.59-3.15-6.73-3.83-5.45-3.02-12.08,10.98,11.17,18.12,25.15,27.18,37.75Z"/>
          <path class="cls-37" d="m676.29,447.27c.06.09.44.12,1.51,1.51l1.51,30.2c-.76-2.28-3.18-6.83-4.53-9.06-11.32-18.64-15.05-11.81-27.18-18.12-.11-.97.22-2.24,0-3.02,6.89.77,5.73-1.47,6.04-1.51,10.56-1.49,20.01,4.11,22.65,0Z"/>
          <path class="cls-4" d="m671.76,477.47c.2,1.1,7.64,17.56,4.53,21.9-30.47,2.3-53.11-19.28-70.97-41.53.35-.15,5.81-4.23,6.04-4.53,16.85,12.24,39.24,23.38,60.4,24.16Z"/>
          <path class="cls-13" d="m647.6,451.8c12.14,6.31,15.86-.52,27.18,18.12-5.47-.29-3.72,3.77-3.02,7.55-21.16-.78-43.55-11.92-60.4-24.16,3.94-5.05,4.98-11.95,4.53-18.12,10.37,5.95,21.12,11.1,31.71,16.61Z"/>
          <path class="cls-4" d="m839.38,472.94c-11.29,19.63-24.91,33.48-46.81,40.77.5-3.65-.72-9.32,0-12.08.41-1.59,9.5-16.39,10.57-19.63,11.53-14.4,38.67-51.58,37.75-69.46,21.13,20.8,11.07,38.54-1.51,60.4Z"/>
          <path class="cls-13" d="m840.89,412.54c.91,17.88-26.22,55.06-37.75,69.46.61-1.85,1.24-4.09,1.51-6.04.86-6.31,1.11-6.01-3.02-12.08,5.52-2.41,2.21-5.06,1.51-7.55,8.67-17.15,15.73-35.56,19.63-54.36,9.4,2.13,11.47,4.03,18.12,10.57Z"/>
          <path class="cls-37" d="m816.73,400.46c4.45-.13,4.69,1.2,6.04,1.51-3.9,18.8-10.96,37.21-19.63,54.36-.5-1.78-2.24-4.05-3.02-6.04,9.87,5.28-2.68-17.66,7.55-46.81,3.55-1.64,4.83-2.9,9.06-3.02Z"/>
          <path class="cls-35" d="m558.51,326.47c-8.26,6.5-29.2,13.57-35.49,19.63-5.94,5.73-2.15,5.74-2.27,6.04-.51,1.33-1.33,1.81-1.51,3.02l-9.06,4.53c-3.77-14.07.6-9.18,1.51-18.12,7.03,1.8,17.09-9,24.16-15.1,2.48-2.14,12.73-7.21,13.59-9.06,3.69-.48,8.84,6.61,9.06,9.06Z"/>
          <path class="cls-47" d="m550.96,303.82c-3.24,1.35-1.22,12.97-1.51,13.59-.86,1.85-11.11,6.92-13.59,9.06-7.15-12.2-12.94.92-27.18,7.55.84-9.22,15.83-14.73,28.69-27.94.19-.2-.42-3.24,1.51-5.29.35-.37,7.62-3.18,9.06-4.53-1.21,6.93,2.34,5.45,3.02,7.55Z"/>
          <path class="cls-9" d="m546.43,272.11c4.35,6.51,2.04,12.9,3.02,19.63.03.24-2.26-.76-1.51,4.53-1.44,1.35-8.71,4.16-9.06,4.53-8.47-7.58-7.05-27.61,7.55-28.69Z"/>
          <path class="cls-4" d="m535.86,326.47c-7.07,6.1-17.13,16.9-24.16,15.1.04-.4-4.64-4.49-3.02-7.55,14.24-6.63,20.03-19.75,27.18-7.55Z"/>
          <path class="cls-47" d="m566.06,335.53c3.73,5.9,2.77,8.65,3.02,9.06-.92,3.77-5.79,2.69-12.08,4.53-5.7,1.66-32.53,14.21-25.67,19.63-2.38,1.89-4.16,3.65-6.04,6.04-.9-1.89-8.71-1.72-6.04-19.63.18-1.21,1-1.69,1.51-3.02,2.56,2.55,13.78-7.02,22.65-13.59l22.65-3.02Z"/>
          <path class="cls-47" d="m576.63,389.89c.9,2.99-2.64,3.76-3.02,6.04-.29,1.71-.04,4.14,0,6.04-8.04,11.19-10.28.93-16.61-1.51,4.1-9.91-13.78-6.82-10.57-22.65,5.51-3.11,7.49-4.82,10.57-10.57,1.73-3.24,1.03-5.19,4.53-7.55,9.95,4.42,7.38,17.7,0,23.41,12.61,6.04-.03,19.02,15.1,6.8Z"/>
          <path class="cls-49" d="m561.53,359.69c-3.5,2.36-2.8,4.31-4.53,7.55-13.33.7-33.13,23.32-10.57,10.57-3.21,15.83,14.67,12.74,10.57,22.65-6.94-2.67-18.98-4.36-24.92-10.57-7.45-7.79-4.89-11.44-5.29-12.08,8.27,7.21,1.63-2.17,12.08-13.59,2.03-1.42,3.99-3.07,6.04-4.53,2.31,3.72,7.16-4.2,16.61,0Z"/>
          <path class="cls-32" d="m526.8,377.81c-.55-.89-1.05-2.05-1.51-3.02,1.88-2.39,3.66-4.15,6.04-6.04,2.99-2.37,5.82-3.32,7.55-4.53-10.45,11.42-3.81,20.8-12.08,13.59Z"/>
          <path class="cls-47" d="m685.35,388.38c.33.29,1.12-.71,7.55,4.53,2.66,2.17,4.74,3.95,7.55,6.04,13.44,10.01,23.15,14.35,36.24,22.65,12.49,7.92,27.32,13.4,39.26,21.14,5.33,3.45,10.08,5.68,10.57,6.04.86.63,14.5,14.22,15.1,15.1,4.13,6.07,3.88,5.77,3.02,12.08-94.1-34.06-92.35-43.03-146.47-95.13,9.65-13.97,15.95,9.16,27.18,7.55Z"/>
          <path class="cls-46" d="m658.17,358.18c5.04,5.41,9.88,11.4,15.1,16.61,1.54,1.54,2.94,2.99,4.53,4.53,2.59,2.5,4.88,6.7,7.55,9.06-11.23,1.61-17.53-21.52-27.18-7.55-.35-.34-3.12.94-7.55-6.04.27-1.52,1.77-1.65,1.51-4.53-.06-.67-4.11-3.98-6.04-12.08.97-.78,3.23-5.46,6.04-6.04,1.88,2.02,4.06,3.92,6.04,6.04Z"/>
          <path class="cls-46" d="m658.17,380.83c54.12,52.1,52.37,61.08,146.47,95.13-.27,1.95-.9,4.19-1.51,6.04-1.07,3.24-10.16,18.04-10.57,19.63-23.65-12.86-48.32-26.68-70.22-42.28-27.07-19.28-41.09-36.73-43.79-37.75-2.13-.8-3.58.84-5.29,1.51-9.06-12.6-16.2-26.58-27.18-37.75.36-2.96,4.13-8.27,4.53-10.57,4.43,6.98,7.2,5.7,7.55,6.04Z"/>
          <path class="cls-6" d="m792.57,501.63c-.72,2.76.5,8.43,0,12.08-52.77-16.98-87.61-46.56-119.29-90.6,1.71-.67,3.16-2.31,5.29-1.51,2.71,1.02,16.72,18.47,43.79,37.75,21.9,15.6,46.57,29.43,70.22,42.28Z"/>
          <path class="cls-49" d="m647.6,448.78c.22.78-.11,2.05,0,3.02-10.6-5.51-21.34-10.67-31.71-16.61-.96-13.21-1.02-10.6-3.02-3.02l-3.02-1.51c.21-.49,1.54-9.39,1.51-10.57h1.51c2.09,10.36,33.23,23.33,34.73,28.69Z"/>
          <path class="cls-6" d="m603.81,343.08c24.4,10.5,30.48,24.66,42.28,15.1,1.93,8.1,5.98,11.41,6.04,12.08-17.65,13.66-22.46,1.88-35.49-10.57-13.55,1.31-25.33-10.45-35.49-12.08-.21-.87.22-2.16,0-3.02-1.25-4.84-1.3-8.36-1.51-9.06,7.79,2.55,16.67,4.33,24.16,7.55Z"/>
          <path class="cls-13" d="m557,349.12c-2.62,5.33-7.64,7.43-12.08,10.57-2.05,1.46-4.01,3.11-6.04,4.53-1.73,1.21-4.56,2.16-7.55,4.53-6.86-5.42,19.97-17.97,25.67-19.63Z"/>
          <path class="cls-13" d="m794.08,436.7c.24,1.13,4.08,8.59,6.04,13.59.78,1.99,2.52,4.26,3.02,6.04.7,2.49,4.01,5.14-1.51,7.55-.6-.88-14.24-14.47-15.1-15.1-3.4-4.53,3.12-17.86,7.55-12.08Z"/>
          <path class="cls-37" d="m800.12,450.29c-1.96-5-5.8-12.46-6.04-13.59-2.05-9.75-1.89-15.2,3.02-24.16,2.36-4.31,6.21-7.04,10.57-9.06-10.23,29.15,2.32,52.09-7.55,46.81Z"/>
          <path class="cls-4" d="m797.1,412.54c-4.91,8.96-5.07,14.41-3.02,24.16-4.43-5.78-10.95,7.55-7.55,12.08-.49-.36-5.24-2.59-10.57-6.04,2.19-.66,2.63-4.19,3.02-6.04,5.65-3.03,14.84-20.27,16.61-25.67l1.51,1.51Z"/>
          <path class="cls-47" d="m575.12,278.15c.57.09,8.71,3.75,10.57,4.53,6.87,2.9,11.22,7.46,16.61,12.08-15.41-3.54-5.91,6.18-9.06,15.86-.3.92-9.5,7.68-7.55,16.61,4.41,20.24,12.84-5.06,13.59-6.04,6.69-8.69,15.08,21.97,4.53,21.9-7.49-3.22-16.37-5-24.16-7.55-.12-.39-2.17-5.33-3.02-7.55,16.9-20.91,5.88-21.18,4.53-17.37-.52,1.46,7.75-1.76-7.55,11.33-1.42-2.97-2.59-6.24-6.04-7.55,2.84-11.24,29.85-7.59,21.14-23.41-.27-.49-9.17-3.42-10.57-3.78-2.27-.58-4.51-1.65-6.04-1.51-2.26.21-5.38,3.57-7.55,4.53.08-.49-.11-1.03,0-1.51.78-3.46,1.38-7.1,2.27-10.57,2.67.27,5.72-.4,8.31,0Z"/>
          <path class="cls-37" d="m564.55,288.72c-.11.48.08,1.02,0,1.51-1.38,7.94-4.98,21.22,3.02,25.67-.14,2.93.51,4.89-1.51,7.55-.83-1.1-6.95,5.7-15.1-19.63-.68-2.1-4.23-.62-3.02-7.55-.75-5.29,1.54-4.29,1.51-4.53l15.1-3.02Z"/>
          <path class="cls-13" d="m558.51,329.49c-.83,2.09-11.49,6.39-15.1,9.06-8.87,6.57-20.09,16.14-22.65,13.59.12-.3-3.68-.31,2.27-6.04,6.28-6.06,27.23-13.13,35.49-19.63.09.95.18,2.56,0,3.02Z"/>
          <path class="cls-35" d="m566.06,335.53l-22.65,3.02c3.61-2.68,14.27-6.97,15.1-9.06,3.59-.17,5.91,3.45,7.55,6.04Z"/>
          <path class="cls-13" d="m557,367.24c-3.08,5.75-5.06,7.46-10.57,10.57-22.56,12.75-2.76-9.87,10.57-10.57Z"/>
          <path class="cls-9" d="m602.3,294.76c7.37,6.32,19.46,20.29,27.18,28.69,7.91,8.6,14.59,20.01,22.65,28.69-2.81.58-5.07,5.26-6.04,6.04-11.8,9.56-17.88-4.6-42.28-15.1,10.55.07,2.16-30.58-4.53-21.9-.75.98-9.18,26.28-13.59,6.04-1.95-8.93,7.25-15.69,7.55-16.61,3.15-9.68-6.34-19.39,9.06-15.86Z"/>
          <path class="cls-24" d="m573.61,321.94c.84,1.75,2.5,4.69,3.02,6.04.85,2.22,2.9,7.16,3.02,7.55.21.7.26,4.22,1.51,9.06-6.03,1.24-5.12-8-15.1-21.14,2.02-2.66,1.37-4.62,1.51-7.55.02-.48-.11-1.07,0-1.51,3.45,1.31,4.62,4.58,6.04,7.55Z"/>
          <path class="cls-9" d="m578.14,287.21c1.4.36,10.3,3.28,10.57,3.78,8.71,15.81-18.3,12.17-21.14,23.41-.11.44.02,1.03,0,1.51-8-4.45-4.4-17.73-3.02-25.67,2.17-.96,5.29-4.32,7.55-4.53-17.09,25.14,29.87,24.03,6.04,1.51Z"/>
          <path class="cls-49" d="m578.14,287.21c23.83,22.52-23.13,23.63-6.04-1.51,1.53-.14,3.77.93,6.04,1.51Z"/>
          <path class="cls-9" d="m576.63,327.98c-.52-1.35-2.18-4.29-3.02-6.04,15.3-13.09,7.03-9.86,7.55-11.33,1.35-3.82,12.36-3.54-4.53,17.37Z"/>
        </g>
      </g>
    </g>
  </g>
</svg>