<?xml version="1.0" encoding="UTF-8"?>
<svg id="Layer_2" data-name="Layer 2" xmlns="http://www.w3.org/2000/svg" xmlns:xlink="http://www.w3.org/1999/xlink" viewBox="0 0 1004.27 1277.04">
  <defs>
    <style>
      .cls-1 {
        fill: url(#linear-gradient);
      }

      .cls-1, .cls-2, .cls-3, .cls-4, .cls-5, .cls-6, .cls-7, .cls-8, .cls-9, .cls-10, .cls-11, .cls-12, .cls-13, .cls-14, .cls-15, .cls-16, .cls-17, .cls-18, .cls-19, .cls-20, .cls-21, .cls-22, .cls-23, .cls-24, .cls-25, .cls-26, .cls-27, .cls-28, .cls-29, .cls-30, .cls-31, .cls-32, .cls-33, .cls-34, .cls-35, .cls-36, .cls-37, .cls-38, .cls-39, .cls-40, .cls-41, .cls-42, .cls-43, .cls-44, .cls-45, .cls-46, .cls-47, .cls-48, .cls-49, .cls-50 {
        stroke-width: 0px;
      }

      .cls-2 {
        fill: #f9d89e;
      }

      .cls-3 {
        fill: #f3e4cd;
      }

      .cls-4 {
        fill: #4a201c;
      }

      .cls-5 {
        fill: #5e5f65;
      }

      .cls-6 {
        fill: #795848;
      }

      .cls-7 {
        fill: #828588;
      }

      .cls-8 {
        fill: #573b2f;
      }

      .cls-9 {
        fill: #566061;
      }

      .cls-10 {
        fill: #593124;
      }

      .cls-11 {
        fill: #27aa87;
      }

      .cls-12 {
        fill: #9b6c29;
      }

      .cls-13 {
        fill: #538769;
      }

      .cls-14 {
        fill: #46332d;
      }

      .cls-15 {
        fill: #8a6755;
      }

      .cls-16 {
        fill: #6e4835;
      }

      .cls-17 {
        fill: #70716f;
      }

      .cls-18 {
        fill: #2e1a14;
      }

      .cls-19 {
        fill: #3c9981;
      }

      .cls-20 {
        fill: #0b3a2e;
      }

      .cls-21 {
        fill: #0f2629;
      }

      .cls-22 {
        fill: #0d1c17;
      }

      .cls-23 {
        fill: #414448;
      }

      .cls-24 {
        fill: #0a5b48;
      }

      .cls-25 {
        fill: #067a5d;
      }

      .cls-26 {
        fill: #42261b;
      }

      .cls-27 {
        fill: #23272a;
      }

      .cls-28 {
        fill: #1f1411;
      }

      .cls-29 {
        fill: #103e3c;
      }

      .cls-30 {
        fill: #121617;
      }

      .cls-31 {
        fill: #d1a868;
      }

      .cls-32 {
        fill: #dead45;
      }

      .cls-33 {
        fill: #d9e2ea;
      }

      .cls-34 {
        fill: #c69932;
      }

      .cls-35 {
        fill: #dfe0d9;
      }

      .cls-36 {
        fill: #dcbda7;
      }

      .cls-37 {
        fill: #aa7b2b;
      }

      .cls-38 {
        fill: #bcb5ad;
      }

      .cls-39 {
        fill: #b49a91;
      }

      .cls-40 {
        fill: #8bcfba;
      }

      .cls-41 {
        fill: #8d4f2f;
      }

      .cls-42 {
        fill: #b9e0cf;
      }

      .cls-43 {
        fill: #a07e6b;
      }

      .cls-44 {
        fill: #857176;
      }

      .cls-45 {
        fill: #857a6a;
      }

      .cls-46 {
        fill: #64ba9f;
      }

      .cls-47 {
        fill: #e4be7e;
      }

      .cls-48 {
        fill: #f0d9ca;
      }

      .cls-49 {
        fill: #fefaf8;
      }

      .cls-50 {
        fill: #693116;
      }
    </style>
    <linearGradient id="linear-gradient" x1="108.86" y1="203.02" x2="192.55" y2="222.88" gradientUnits="userSpaceOnUse">
      <stop offset="0" stop-color="#0e201f"/>
      <stop offset="1" stop-color="#0c0d0f"/>
    </linearGradient>
  </defs>
  <g id="Layer_1-2" data-name="Layer 1">
    <g>
      <g>
        <g>
          <path class="cls-37" d="m608.51,977.6c2.01,8.57,4.1,23.29-3.77,28.67-7.53,5.15-111.24,30.14-113.93,35.46-.77,1.53.18,6.13,2.26,6.79q56.21-18.49,112.42-36.97,3.77,77.72,7.55,155.43c-3.92,6.57-42.18-46.56-76.96,13.58-5.84,10.1-19.72,43.74-22.64,56.59-4.78,1.06-10.88,2.18-15.09,4.53h-6.04v-24.14c14.31-40.97,19.92-86.51,31.69-129.02-10.59-9.61-19.43-24.82-31.69-32.44-.35-.22-.68-1.95-6.79-4.53l-132.04-36.22v-9.05c6.23,2.93,113.93,24.1,133.55,33.2l3.77-2.26c-.19-8.79.26-17.62,0-26.41-.02-.5.02-1.01,0-1.51q58.85-15.84,117.7-31.69Z"/>
          <path class="cls-32" d="m492.31,1056.07v185.61l-1.51-1.51c-18.61-29.23-27.09-66.91-65.64-73.94-33.05-6.03-44.79,3.1-70.17,21.13-.06-17.34,1.55-34.9,1.51-52.06,0-1.23-3.02-.6-3.02-.75-.17-39.67,3.21-79.48,0-119.21l132.04,36.22c6.11,2.58,6.44,4.31,6.79,4.53Z"/>
          <path class="cls-12" d="m613.03,1125.48c.87,13.97,3.64,28.22,4.53,42.25.77,12.24.86,24.89,3.02,36.97l-2.26,2.26c-34.71,11.12-69.22,22.3-104.88,30.18,2.92-12.85,16.79-46.49,22.64-56.59,34.79-60.14,73.04-7.01,76.96-13.58q-3.77-77.72-7.55-155.43-56.21,18.49-112.42,36.97c-2.08-.66-3.04-5.26-2.26-6.79,2.69-5.32,106.4-30.31,113.93-35.46,7.87-5.39,5.78-20.1,3.77-28.67v-1.51c.13.13,1.42.09,3.02,2.26,2.25,28.97-4.46,28.6-4.53,30.18-.72,16.77,4.34,89.78,6.04,116.95Z"/>
          <g>
            <path class="cls-32" d="m351.97,976.09c44.49,17.48,92.59,23.24,138.83,34.71.26,8.79-.19,17.62,0,26.41l-3.77,2.26c-19.62-9.1-127.32-30.27-133.55-33.2-10.23-4.81-11.29-25.98-1.51-30.18Z"/>
            <path class="cls-32" d="m382.15,973.07c32.42,13.61,68.77,17.21,102.61,27.16l4.53-1.51c1.37,3.55,1.33,6.83,1.51,10.56.02.5-.02,1.01,0,1.51-46.24-11.47-94.34-17.23-138.83-34.71,5.44-2.33,23.79-5.24,30.18-3.02Z"/>
            <path class="cls-34" d="m602.47,973.07c.33.05,5.8,2.78,6.04,3.02v1.51q-58.85,15.84-117.7,31.69c-.17-3.73-.14-7.01-1.51-10.56,19.91-2.69,103.04-27.29,113.18-25.65Z"/>
          </g>
          <path class="cls-34" d="m492.31,1217.53v-161.47c12.26,7.62,21.1,22.84,31.69,32.44-11.77,42.51-17.38,88.05-31.69,129.02Z"/>
          <path class="cls-37" d="m490.8,1240.17c-6.06,3.62-12.1.77-18.11,0-39.68-5.06-78.19-17.78-116.95-27.16-5.52-6.03-.74-20.62-.75-25.65,25.38-18.03,37.12-27.15,70.17-21.13,38.55,7.03,47.03,44.71,65.64,73.94Z"/>
        </g>
        <g>
          <g>
            <path class="cls-8" d="m602.47,973.07c-10.14-1.64-93.26,22.96-113.18,25.65l-4.53,1.51v-130.53l-102.61-21.88v-15.09c5.26,3.59,81.35,16.99,97.33,24.14,1.32-.4,3.49-4.45,3.77-4.53,20.4-5.31,39.67-14.45,60.36-18.86-20.88-1.23-40.22-8.23-55.83-11.32,8.49.82,7.16-1.47,7.55-1.51,28.9-2.9,59.29-18.16,89.03-24.14,6.52-1.31,12.84-3.66,19.62-3.77,2.15,31.13-4.43,27.15-4.53,28.67-2.14,32.3,6.65,109.07,3.02,151.66Z"/>
            <path class="cls-6" d="m484.77,986.65c-28.45-26.23-64.31-43.32-102.61-49.8v-89.03q51.31,10.94,102.61,21.88v116.95Z"/>
            <path class="cls-6" d="m484.77,986.65v13.58c-33.84-9.95-70.19-13.55-102.61-27.16v-36.22c38.31,6.48,74.17,23.56,102.61,49.8Z"/>
            <g>
              <path class="cls-6" d="m481.75,820.66c.31,10.76-2.92,21.78,1.51,31.69-.29.07-2.45,4.13-3.77,4.53-15.98-7.15-92.08-20.55-97.33-24.14-6.87-4.69-7.92-27.4,1.51-28.67,4.93-.66,85.8,14.21,98.09,16.6Z"/>
              <path class="cls-6" d="m487.78,822.17c15.61,3.09,34.96,10.09,55.83,11.32-20.69,4.42-39.96,13.55-60.36,18.86-4.43-9.91-1.2-20.93-1.51-31.69,3.2.62,4.92,1.29,6.04,1.51Z"/>
            </g>
          </g>
          <g>
            <path class="cls-25" d="m582.85,657.68q.75,69.42,1.51,138.83c-29.74,5.98-60.14,21.24-89.03,24.14v-27.16c6.46,1.76,14.53-49.79,15.09-59.61,1.01-17.75,1.57-43.67-15.09-53.57v-3.02c4.36,1.05,74.9-20.83,87.52-19.62Z"/>
            <path class="cls-46" d="m493.82,675.79c.36,1.06-.12,1.12,1.51,1.51v83c-10.77-6.04-23.23-30.67-30.94-34.71-30.2-15.84-65.38,44.26-76.21,66.4-.33.06-.41,3.92-6.04,3.02-1.32-44.73-1.64-89.55-1.51-134.3l113.18,15.09Z"/>
            <g>
              <path class="cls-40" d="m582.85,619.96q-44.52,11.32-89.03,22.64-57.34-7.55-114.69-15.09c12.94-6.44,59.59-13.13,79.22-22.64,6.42-.63,115.96,12.59,124.5,15.09Z"/>
              <path class="cls-25" d="m582.85,619.96c1.91.56,6.32-.98,7.55.75-.6,23.2,3.35,23.54-7.55,27.92-18.44,7.4-86.38,16.65-89.03,20.37-.2.28-.24,6.09,0,6.79l-113.18-15.09v-7.55c13.74-5.53,107.8,16.88,112.42,13.58,1.94-1.38.11-20.25.75-24.14q44.52-11.32,89.03-22.64Z"/>
              <path class="cls-11" d="m379.13,627.5q57.34,7.55,114.69,15.09c-.64,3.9,1.18,22.76-.75,24.14-4.63,3.3-98.68-19.11-112.42-13.58-12.01-6.46-14.45-19.21-1.51-25.65Z"/>
            </g>
            <path class="cls-11" d="m495.33,804.06v16.6c-.38.04.95,2.33-7.55,1.51-1.11-.22-2.84-.89-6.04-1.51-12.29-2.39-93.16-17.26-98.09-16.6-2.17-2.93-1.41-5.78-1.51-9.05,5.63.9,5.7-2.96,6.04-3.02,5.11-.85,39.22.15,46.03,1.51,4.63.92,26,9.48,31.69,12.07,24.6,11.19,27.06,27.24,29.43-1.51Z"/>
            <path class="cls-24" d="m582.85,648.63v9.05c-12.63-1.21-83.16,20.66-87.52,19.62-1.63-.39-1.15-.45-1.51-1.51-.24-.7-.2-6.51,0-6.79,2.65-3.73,70.59-12.97,89.03-20.37Z"/>
            <path class="cls-11" d="m495.33,760.3v43.76c-2.36,28.75-4.82,12.69-29.43,1.51-5.69-2.59-27.06-11.15-31.69-12.07-6.81-1.35-40.92-2.36-46.03-1.51,10.83-22.14,46.01-82.24,76.21-66.4,7.71,4.04,20.17,28.66,30.94,34.71Z"/>
            <path class="cls-25" d="m495.33,793.49v-113.18c16.66,9.9,16.1,35.82,15.09,53.57-.56,9.82-8.63,61.37-15.09,59.61Z"/>
          </g>
        </g>
      </g>
      <g>
        <path class="cls-22" d="m365.55,191.39c8.74.84,11.72-3.28,10.56,7.55-11.47-.75-23.21.55-34.71,0,1.72-.78-2.3-10.08,24.14-7.55Z"/>
        <g>
          <path class="cls-40" d="m376.12,198.94c.24.02,2.93,2.97,3.77,3.02,16.26.86,32.76-.63,49.04,0-4.92,12.1-10.12,30.7-10.56,43.76-1.12,33.2,11.71,58.73,28.67,86.01-34.14,2.85-68.38,3.68-102.61,3.02-2.3-.04-.73,3.1-3.02,3.02q-10.56-10.56-21.13-21.13c-4.28-19.51.04-14.24,0-15.09-.01,1.02-.37,2.75.75,3.02,10.15,2.41,80.13-1.31,99.6-1.51-14.6-30.25-7.09-64.73-9.81-78.47-4.74-23.94-36.79-28.3-30.18,0-6.12-.03-7.01-1.51-7.55-1.51-2.75-12.93-15.72-11.72-19.62,0-3.34.02-8.1,1.45-12.07,1.51,0-8.84.18-23.35-4.53-22.64.2-1.51,3.13-2.39,4.53-3.02,11.5.55,23.23-.75,34.71,0Z"/>
          <path class="cls-40" d="m336.88,201.95c4.71-.72,4.53,13.8,4.53,22.64-13.69.21-24.47-1.68-22.64,3.02-.05-.33-2.87-4.55-3.02-6.04,3.65-7.46,3.55-22.07,21.13-19.62Z"/>
          <path class="cls-20" d="m373.1,223.08c.54,0,1.43,1.48,7.55,1.51,10.06.05,20.12-.03,30.18,0,2.72,13.74-4.79,48.22,9.81,78.47-19.47.2-89.45,3.92-99.6,1.51-1.12-.27-.77-2-.75-3.02-1.05-20.32-.34-66.06-1.51-73.94-1.83-4.7,8.94-2.8,22.64-3.02,3.97-.06,8.73-1.48,12.07-1.51,6.42-.05,13.17-.01,19.62,0Z"/>
          <path class="cls-11" d="m341.41,337.77c-16.1-.55-18.15-7.57-21.13-21.13q10.56,10.56,21.13,21.13Z"/>
          <path class="cls-46" d="m410.82,224.59c-10.06-.03-20.12.05-30.18,0-6.61-28.3,25.44-23.94,30.18,0Z"/>
          <path class="cls-19" d="m373.1,223.08c-6.44-.01-13.2-.05-19.62,0,3.9-11.72,16.86-12.93,19.62,0Z"/>
        </g>
        <g>
          <path class="cls-46" d="m465.15,192.9l2.26,1.51c-12.61,3.07-34.49,28.07-39.99,38.48-.43.82,2,11.88-6.04,14.34-1.48-.34-1.73-1.51-3.02-1.51.44-13.06,5.64-31.66,10.56-43.76,3.45-8.47,13.15-20.86,16.6-30.18l4.53-3.02q1.51,12.45,3.02,24.9c.99,1.6,9.78-.59,12.07-.75Z"/>
          <path class="cls-25" d="m421.39,247.23c1.57.35,3.02-.65,4.53.75.63.59-1.33,5.16,1.51,5.28-4.42,70.46,99.87,103.55,123.74,18.86.37-1.31,2.99-.6,3.02-.75h1.51q-1.51,18.86-3.02,37.73c-5.72,1.47-10.96,17.29-25.65,21.13-11.66,3.05-23.04.66-34.71,1.51-11.45.83-21.42-1.15-33.2,1.51.27-2.01-6.84-1.95-12.07-1.51-16.96-27.28-29.79-52.82-28.67-86.01,1.29,0,1.53,1.17,3.02,1.51Z"/>
          <path class="cls-46" d="m587.38,313.62c-1.92-.32-4.97,1.83-6.04,3.02-3.65-5.4-1.71-10.46-7.55-9.05,3.74-12.08-.83-24.28-1.51-36.22-.23-4.01-1.32-8.46-1.51-12.07-.08-1.58,2.94-17.36,0-31.69,5.08-.68,4.35-.15,7.55-4.53,4.87,10.52,10.31,77.59,9.05,90.54Z"/>
          <path class="cls-40" d="m581.34,316.64c-4.49,4.98-7.92,10.77-13.58,15.09-10.4,1.26-29.93.26-40.74-1.51,14.7-3.84,19.93-19.65,25.65-21.13l21.13-1.51c5.83-1.4,3.9,3.66,7.55,9.05Z"/>
          <path class="cls-46" d="m587.38,313.62c-1.27,13.07-6.02,16.46-19.62,18.11,5.66-4.32,9.09-10.11,13.58-15.09,1.07-1.18,4.12-3.33,6.04-3.02Z"/>
          <path class="cls-40" d="m570.78,259.3c.18,3.62,1.28,8.06,1.51,12.07h-18.11c.67-3.23-.47-8.37,0-12.07h16.6Z"/>
          <g>
            <path class="cls-22" d="m570.78,227.61c2.94,14.33-.08,30.11,0,31.69h-16.6q-3.77-15.47-7.55-30.94c3.43-5.11,12.18.85,24.14-.75Z"/>
            <path class="cls-22" d="m572.29,271.37c.68,11.94,5.24,24.14,1.51,36.22l-21.13,1.51q1.51-18.86,3.02-37.73h16.6Z"/>
          </g>
          <g>
            <path class="cls-40" d="m511.93,171.77q10.94,15.84,21.88,31.69c18.17,5.41,35.42-.03,44.52,19.62-3.2,4.37-2.46,3.85-7.55,4.53-11.97,1.61-20.72-4.35-24.14.75q3.77,15.47,7.55,30.94c-.47,3.7.67,8.84,0,12.07-.03.15-2.65-.55-3.02.75-23.87,84.69-128.16,51.6-123.74-18.86,3.11-49.64,69.17-82.27,113.18-35.46-20.17-32.5-45.13-27.05-75.45-24.9-2.29.16-11.08,2.35-12.07.75q-1.51-12.45-3.02-24.9c18.86-.17,37.73.22,56.59,0,.3,0,3.91,3.05,5.28,3.02Z"/>
            <path class="cls-19" d="m427.42,253.26c-2.84-.12-.88-4.69-1.51-5.28-1.5-1.41-2.96-.4-4.53-.75,8.03-2.46,5.6-13.52,6.04-14.34,5.5-10.41,27.38-35.41,39.99-38.48l-2.26-1.51c30.32-2.15,55.28-7.6,75.45,24.9-44-46.81-110.06-14.18-113.18,35.46Z"/>
            <g>
              <path class="cls-29" d="m480.99,221.57c59.84-11.34,69.6,75.05,15.09,81.49-56.88,6.72-56.08-73.72-15.09-81.49Z"/>
              <path class="cls-24" d="m498.35,247.23c-6.89,5.9,4.62,6.01,6.04,14.34,3.33,19.54-28.01,29.08-36.22-6.79,6.12-11.06,19.43-11.61,30.18-7.55Z"/>
              <path class="cls-29" d="m468.17,254.77c8.21,35.87,39.55,26.33,36.22,6.79-1.42-8.32-12.93-8.43-6.04-14.34,16.05,6.06,22.81,24.18,8.3,36.22-19.94,16.54-51.74-4.7-38.48-28.67Z"/>
            </g>
          </g>
        </g>
      </g>
      <g>
        <path class="cls-27" d="m192.01,1243.19c5.52,1.37,10.99,2.23,16.6,3.02,23.93,3.37,238.28,12.7,279.93,13.58,76.22,1.62,219.21.18,292-7.55,16.83-1.79,40.34-.43,33.2-11.32-.79-1.2-24.27-11.72-3.02-15.84,2.5,26.8,29.8,13.53,49.8,16.6,47.89-8.57,96.06-16.56,140.34-37.73-18.53,28.79-137.99,47.71-172.78,52.82-193.76,28.42-511.43,28.35-703.21-9.05-20.62-4.02-118.23-25.54-124.5-44.52-1.12-3.4.6-6.7,1.51-9.81,18.92,24.67,172.46,56.23,187.87,52.82.49-.11,2.34-2.07,2.26-3.02Z"/>
        <path class="cls-9" d="m848.44,1143.59c19.19,2.35,38.34,5.58,57.34,9.05,21.72,3.97,117.64,16.24,95.07,51.31-44.28,21.17-92.45,29.15-140.34,37.73,2.14-9.42-3.31-15.85-6.04-24.14,31.9-16.04,28.23-26.55-6.04-31.69l-4.53-15.09c2.42-6.71,1.9-18.91,1.51-26.41-.06-1.21,3.03-.6,3.02-.75Z"/>
        <path class="cls-23" d="m149.76,1199.42c-5.03,12.37-4.28,14.25,6.04,22.64,7.65,13.63,22.41,17.71,36.22,21.13.08.94-1.78,2.91-2.26,3.02-15.42,3.42-168.95-28.15-187.87-52.82,1.26-4.32,1.73-2.83,3.02-4.53,48.39,1.06,96.82,4.32,144.87,10.56Z"/>
        <path class="cls-9" d="m157.31,1146.61c.13,1.5,2.99,4.98,3.02,5.28.94,10.71-1.32,27.87,0,35.46-5.55,1.56-8.66,7.4-10.56,12.07-48.05-6.24-96.48-9.5-144.87-10.56,9.64-12.74,59.96-26.38,76.96-30.18,24.62-5.5,50.83-6.05,75.45-12.07Z"/>
        <path class="cls-9" d="m351.97,1134.54q.75,25.28,1.51,50.55-24.14,1.13-48.29,2.26c-11.94-5.4-14.76-5.98-27.16-13.58,4.91-10.69-.74-25.85,7.55-33.2l66.4-6.04Z"/>
        <path class="cls-23" d="m354.99,1187.35c.02,5.04-4.76,19.63.75,25.65,38.76,9.39,77.27,22.1,116.95,27.16-17.02,7.48-132.79-9.28-137.32-18.86-.2-1.71.3-3.61,0-5.28-1.01-5.65,1.6-10.84-1.51-16.6-2.75-5.1-22.39-9.23-28.67-12.07q24.14-1.13,48.29-2.26-.75-25.28-1.51-50.55h1.51c0,.16,3.01-.47,3.02.75.05,17.16-1.57,34.73-1.51,52.06Z"/>
        <path class="cls-9" d="m659.81,1125.48c1.85,9.22,3.39,18.58,4.53,27.92,1.28,1.92,9.64,3.52,12.07,3.77-1.22,6.33,1.17,10.92,3.02,16.6l-61.87-6.04c-.89-14.04-3.65-28.29-4.53-42.25,12.69,3.09,40.59,5.97,46.78,0Z"/>
        <path class="cls-23" d="m472.69,1240.17c6,.77,12.05,3.62,18.11,0l1.51,1.51h6.04c41.82-3.87,89.58,9.44,128.27-1.51,15.18.58,30.32-.39,45.27-3.02.26,6.82,36.94,10.02,47.53,10.56,28.79,1.47,63.79-5.61,61.12,4.53-72.79,7.73-215.78,9.16-292,7.55-41.64-.88-256-10.21-279.93-13.58,12.44-7.11,17.49-8.83,12.07-22.64-.45-1.14,3.18-2.67,0-3.02.18.04,1.32-3.19,2.26-3.02,21.1,3.89,42.64,7.05,64.13,3.02,16.06.66,33.5,1.89,48.29-4.53.3,1.67-.2,3.57,0,5.28,4.53,9.58,120.3,26.35,137.32,18.86Z"/>
        <path class="cls-23" d="m807.7,1194.9c2.41.83.74,3.86,4.53,3.02-.29,4.16-1.64,25.81-1.51,27.16-21.25,4.12,2.23,14.64,3.02,15.84,7.14,10.89-16.37,9.53-33.2,11.32,2.68-10.13-32.33-3.06-61.12-4.53-10.59-.54-47.27-3.74-47.53-10.56,7.91-1.39,52.04-14.55,54.33-20.37.18-15.86-3.69-31.84-4.53-47.53,32.06,18.25,74.01,21.51,86.01,25.65Z"/>
        <path class="cls-23" d="m854.48,1217.53c-.52-1.59-8.25-2.79-6.04-31.69,34.26,5.14,37.94,15.65,6.04,31.69Z"/>
        <path class="cls-9" d="m789.59,1134.54c2.39,11.63,3.73,23.79,6.04,35.46l7.55,3.77,4.53,21.13c-12-4.14-53.96-7.41-86.01-25.65-.22-4.07-1.5-2.85-1.51-3.02-.19-3.5.16-7.06,0-10.56-.37-8.02.32-16.12,0-24.14q34.71,1.51,69.42,3.02Z"/>
        <path class="cls-23" d="m679.43,1173.77c.44,1.36.15,2.85,1.51,4.53-13.9,15.27-55.29,28.63-58.85,46.78-.21,1.09-2.62,3.7-1.51,8.3.29,1.19,5.28,4.06,6.04,6.79-38.69,10.95-86.44-2.36-128.27,1.51,4.21-2.35,10.31-3.47,15.09-4.53,35.66-7.88,70.17-19.06,104.88-30.18l2.26-2.26c-2.16-12.08-2.24-24.73-3.02-36.97l61.87,6.04Z"/>
        <path class="cls-27" d="m234.27,1208.48c1.25,9.06,43.13,11.67,52.82,12.07-21.49,4.04-43.03.87-64.13-3.02-.95-.17-2.08,3.06-2.26,3.02-4.62-1-5.57-4.39-7.55-6.04l21.13-6.04Z"/>
        <path class="cls-9" d="m250.87,1166.22c-11.76,4.24-10.36,22.63-12.07,33.2-.09.57-5.53,1.79-4.53,9.05l-21.13,6.04c-3.59-3.01-17.14-19.13-19.62-22.64-.41-.58,1.34-4.37-9.05-9.81,1.4-13.34,2.97-26.67,4.53-39.99l63.38-4.53c-.1,14.05-1.69,25.76-1.51,28.67Z"/>
      </g>
      <g>
        <path class="cls-26" d="m771.48,230.63c-7.09,2.94-1.77,3.28-4.53,4.53-1.36.61-6.04-.62-6.79,0-1.9,1.56-3.62,7.21-11.32,15.09.21-6.42-4.97-15.64,1.51-19.62,1.95-1.2,12.58-2,21.13,0Z"/>
        <g>
          <path class="cls-29" d="m797.14,72.18c1.18,6.29-15.94,3.52-22.64,4.53.46-8,1.39-14.44,4.53-21.88-17.09-28.68-37.91-13.36-44.52-14.34-9.09-8.72-21.79-7.68-33.2-7.55-7.24.45-51.93,10.41-54.33,9.05-1.38-.78-2.75-12.15-5.28-15.09,8.06-19.93,23.93-10.76,29.43-12.07,6.58-7.93,17.69-9.78,27.16-6.04,11.95-11.74,30.89-12.69,39.23,3.02,28.6-6.47,28.17,16.47,30.18,18.11,34.18,4.23,19.03,17.78,29.43,42.25Z"/>
          <path class="cls-21" d="m774.5,76.7c-1.05,18.23-6.23,21.42,4.53,36.22h-1.51c-18.69-7.89-13.58-23.69-12.07-40.74.14-1.61,3.02-6.42,3.02-6.79-.14-17.21-20.89-3.77-50.55-18.86-14.06-1.44-27.17,7.37-28.67,7.55-12.39,1.49-36.88-4.04-39.99,2.26,4.77,19.33-4.14,40.31,6.04,58.1-.14,6.49.93,12.25-1.51,12.07-4.04-14.11-18.1-29.15-15.09-41.5-11.95-2.59-1.94-14.71-3.02-18.11-.44-1.38-15.4-4.4,3.02-22.64-.05-5.66.89-12.1,3.02-17.35,2.53,2.94,3.91,14.31,5.28,15.09,2.4,1.36,47.08-8.61,54.33-9.05,11.41-.13,24.11-1.18,33.2,7.55,6.61.98,27.43-14.35,44.52,14.34-3.14,7.44-4.07,13.89-4.53,21.88Z"/>
          <path class="cls-29" d="m788.08,120.47c-.34-.25-7.87-1.09-8.3-1.51-1.69-1.65-.13-5.17-.75-6.04-10.76-14.8-5.58-17.99-4.53-36.22,6.7-1.01,23.82,1.77,22.64-4.53-1.94,8.72.11,16.34,0,17.35-.06.57-2.11,5.87-4.53,6.04-.47,2.98,6.2,13.41-4.53,24.9Z"/>
          <path class="cls-22" d="m765.45,72.18c-33.81-3.74-53.14-12.34-87.52-1.51-7,2.21-14.36,4.13-19.62,9.81-.67,11.46-2.78,22.41-3.02,33.95-10.17-17.79-1.27-38.77-6.04-58.1,3.11-6.3,27.6-.78,39.99-2.26,1.5-.18,14.61-8.99,28.67-7.55,29.66,15.09,50.42,1.66,50.55,18.86,0,.37-2.88,5.18-3.02,6.79Z"/>
        </g>
        <g>
          <path class="cls-26" d="m519.47,369.46c.45,4.22-7.55,8.54-7.55,9.81,0,1.37,17.62,15.47,21.13,17.35.63.34-3.53,3.34.75,3.02,4.24-2.73,9.43-3.69,14.34-3.02-2.41,5.26-3.88,11.33-6.04,16.6-5.82,1.34-29.14,18.08-30.94,18.11-5.4.09-8.68-15.15-12.83,3.02-5.87-11.53-24.95-65.15-5.28-69.42,6.75-1.46,9.97,7.06,12.07,7.55,2.59.59,9.67-3.32,14.34-3.02Z"/>
          <path class="cls-26" d="m542.11,413.22c-.79,1.93-2.15,2.96-1.51,6.04-2.15,9.12-6.7,8.34-12.07,13.58-2.78,2.71-11.22,6.89-15.09,12.07-2.52,3.37,1.39,4.09-1.51,4.53-4.22-4.53-10.02-8.35-13.58-15.09,4.15-18.17,7.43-2.93,12.83-3.02,1.79-.03,25.11-16.77,30.94-18.11Z"/>
          <path class="cls-8" d="m533.05,396.62c-3.5-1.88-21.12-15.99-21.13-17.35,0-1.27,8-5.59,7.55-9.81,16.78,1.08,32.59,16.64,13.58,27.16Z"/>
          <path class="cls-39" d="m513.44,444.91c3.87-5.18,12.31-9.36,15.09-12.07-1.6,4.99-11.09,16.19-15.09,12.07Z"/>
        </g>
        <g>
          <path class="cls-2" d="m691.5,242.7c-5.05,23.37,13.78,30.3,15.09,31.69.91.97,1.72,2.55,4.53,4.53l-9.05,109.4c1.73,22.96-2.88,168.19,1.51,175.8q-18.86-2.26-37.73-4.53c2.2-60.76-1.67-121.84-1.51-182.59.08-30.19-2.36-62.09,1.51-92.05.88-6.85-.43-7.84,3.02-18.11,1.39-4.14,14.19-26.11,19.62-28.67.86,1.53,1.51,3.8,3.02,4.53Z"/>
          <path class="cls-2" d="m766.95,235.15c3.49,2.1,7.84,3.76,9.05,8.3,3.44,12.83-18.26,124.6-21.13,149.39-4.57,39.54-6.18,78.75-7.55,118.46-.38,11.21,1.87,22.81-1.51,33.95-9.51,8.11-23.13,6.78-31.69,11.32-2.34,1.24-8.3,7.08-9.05,9.05-1.84.16-1.35-1.23-1.51-1.51-4.39-7.62.22-152.85-1.51-175.8l9.05-109.4c3.6-.23,12.23-4.27,15.09-6.04,33.6,17.28,47.4,23.93,10.56-7.55,6.41-5.42,11.4-14.4,12.07-15.09,7.69-7.88,9.42-13.53,11.32-15.09.75-.62,5.43.61,6.79,0Z"/>
          <path class="cls-47" d="m703.58,564.12c.16.27-.33,1.67,1.51,1.51-2.28,5.99.25,6.37,0,9.05-.42,4.51-1.23,9.03-1.51,13.58-12.54-1.14-25.01-4.7-37.73-4.53.81-7.71-.28-16.31,0-24.14q18.86,2.26,37.73,4.53Z"/>
          <path class="cls-31" d="m736.77,265.33c36.84,31.47,23.04,24.82-10.56,7.55.14-.09,1.37-2.92,1.51-3.02.98-.66,8.61-4.15,9.05-4.53Z"/>
        </g>
        <g>
          <path class="cls-6" d="m928.42,473.58c.15.97-.13,2.04,0,3.02.18,1.3,2.29,5.43,3.02,7.55-50.27,44.04-121.2,66.09-159.96,87.52q-6.04-15.09-12.07-30.18v-1.51c44.79-19.44,90.72-35.56,135.81-54.33,5.67-2.36,25.71-11.74,27.16-12.07,1.22-.28,1.98,3.2,6.04,0Z"/>
          <path class="cls-6" d="m659.81,280.42c-2.74,9.34-15.96,5.78-19.62,12.83-9.97,19.19,7.45,108.37,10.56,113.18.65,1,9.94,5.8,12.07,1.51,1.66-3.34-2.39-24.2,1.51-30.94-.17,60.75,3.71,121.83,1.51,182.59-.28,7.83.81,16.44,0,24.14-.6,5.72-2.66,11.39-1.51,17.35-3.93,5.66-7.63,11.06-10.56,17.35l-15.84,18.11-2.26-2.26c-.15-23.8-7.01-108.54-19.62-122.99l-3.02-3.02c.36-2.07,3.96-1.76,4.53-3.77,2.35-8.39,4.66-131.95,4.53-153.17-.14-22.08-2.86-44.25-1.51-66.4,9.57-6.46,21.08-11.08,30.18-18.11,2.15,5.64,4.24,9.72,9.05,13.58Z"/>
          <path class="cls-8" d="m620.58,284.95c-1.36,22.15,1.37,44.32,1.51,66.4-1.58-.5-4.21,1.02-4.53,2.26-1.09,4.33-4.06,72.08-6.04,89.03l-22.64-16.6c3.21,7.63,22.65,21.17,24.14,27.16,3.04,12.18-4.66,30.62-15.84,27.92-4.08-.99-51.35-53.27-56.59-61.87-.64-3.08.72-4.1,1.51-6.04,2.15-5.27,3.63-11.34,6.04-16.6,13.4,1.82,28.32,23.67,42.25,26.41,3.17-17.02,18.43-131.71,23.39-136.57,1.83-.03,6.5-1.31,6.79-1.51Z"/>
          <path class="cls-8" d="m622.09,351.35c.14,21.21-2.17,144.77-4.53,153.17-.56,2.01-4.17,1.7-4.53,3.77-36.96-4.15-76.09-32-101.11-58.85,2.9-.44-1.01-1.15,1.51-4.53,4,4.11,13.49-7.09,15.09-12.07,5.37-5.24,9.92-4.46,12.07-13.58,5.24,8.6,52.51,60.88,56.59,61.87,11.19,2.71,18.89-15.74,15.84-27.92-1.5-6-20.94-19.53-24.14-27.16l22.64,16.6c1.98-16.95,4.94-84.71,6.04-89.03.31-1.25,2.95-2.76,4.53-2.26Z"/>
          <path class="cls-8" d="m653.78,618.45c-8.63,18.51-7.82,27.44-31.69,30.18-4,.46-25.61,1.1-27.16-2.26l21.13-135.06c12.6,14.44,19.47,99.19,19.62,122.99l2.26,2.26,15.84-18.11Z"/>
          <path class="cls-6" d="m668.87,266.84c-3.45,10.27-2.13,11.26-3.02,18.11-2.69-6.92-5.33-3.96-6.04-4.53-4.81-3.86-6.91-7.94-9.05-13.58,4.79-3.7,8.95-8.14,13.58-12.07l4.53,12.07Z"/>
          <path class="cls-8" d="m688.49,238.17c-5.43,2.57-18.23,24.54-19.62,28.67l-4.53-12.07c2.08-1.77,12.25-18.12,21.88-19.62,6.23-.97,1.9,2.38,2.26,3.02Z"/>
          <path class="cls-6" d="m874.1,633.54c1.65,6.42,1.92,11.59,1.51,18.11-41.81,2.71-87.64,2.26-120.72-27.16-6.09-10.98-10.77-20.28-9.05-33.2,4.9-3.1,9.95-7.36,15.09-10.56,1.9,3.38,9.07,15.86,11.32,16.6,6.24,2.06,69.65-1.14,84.51-1.51,3.5,9.52,15.31,29.76,17.35,37.73Z"/>
          <path class="cls-8" d="m875.6,651.65l-.75,3.02c-11.8-.62-25.45,3.35-36.97,3.02-2.33-.07-1.07-2.96-2.26-3.02-32.88-1.6-63.22,1.4-80.73-30.18,33.08,29.42,78.91,29.87,120.72,27.16Z"/>
          <path class="cls-15" d="m785.06,238.17c4.51,11.7,7.55,39.1,9.05,42.25,3.91,8.2,10.64,3.35,18.11,7.55-5.88,4.21-8.55,6.52-14.34,0l-2.26,2.26c16.01,14.42,30.08,2.8,21.13-11.32.07-5.58-3.9-8.92-1.51-12.07,11.71,3.96,65.31,16.8,69.42,25.65-34.38-1.56-16.59,2.8-12.07,14.34,19.01,48.58,32.23,115.86,49.8,166.75-1.45.33-21.5,9.71-27.16,12.07l-12.07-18.11c46.12-17.98,5.35-4.37-15.09-1.51-5.34-28.21-13.25-56.74-16.6-85.26-6.63-56.42.44-115.76-12.07-59.61-11.37,51.05-20.31,119.01-13.58,170.52-24.95,11.61-48.88,26.24-73.94,37.73-.03-.82-2.24-2.33-1.51-8.3,4.49-36.94,67.43-160.1,76.96-214.28-11,20.14-16.57,46.88-25.65,69.42-14.83,36.79-36.01,71.72-46.78,110.16-2.38,8.5-2.24,24.81-7.55,24.9,1.36-39.71,2.98-78.92,7.55-118.46,2.86-24.79,24.57-136.57,21.13-149.39-1.22-4.54-5.56-6.2-9.05-8.3,2.76-1.24-2.56-1.59,4.53-4.53,9.79,2.29,7.58,4,13.58,7.55Z"/>
          <path class="cls-43" d="m884.66,292.5c9.63,56.18,35.3,126.73,43.76,181.08-4.06,3.2-4.81-.28-6.04,0-17.57-50.89-30.79-118.17-49.8-166.75-4.52-11.54-22.31-15.9,12.07-14.34Z"/>
          <path class="cls-43" d="m812.23,265.33c-5.02,3.19-.81,3.47-1.51,4.53-9.51,14.34-10.33,2.1-16.6,10.56-1.5-3.16-4.54-30.56-9.05-42.25,26.48,15.64,15.72,20.05,27.16,27.16Z"/>
          <path class="cls-8" d="m815.24,266.84c-2.39,3.15,1.57,6.49,1.51,12.07-1.8-2.84-5.35-6.01-6.04-9.05.7-1.05-3.51-1.34,1.51-4.53l3.02,1.51Z"/>
          <g>
            <path class="cls-8" d="m931.44,484.14l-1.51,4.53c-17.88,22.84-39.73,41.57-63.38,58.1l7.55,86.77c-2.04-7.96-13.85-28.2-17.35-37.73-14.86.36-78.26,3.57-84.51,1.51-2.25-.74-9.42-13.22-11.32-16.6,13.93-8.7,9.95-8.72,10.56-9.05,38.76-21.44,109.69-43.49,159.96-87.52Z"/>
            <path class="cls-33" d="m775.25,580.72c9.6-1.04,7.79,6.12,6.04,7.55-2.15,1.75-17.21-6.34-6.04-7.55Z"/>
          </g>
          <path class="cls-15" d="m895.22,485.65c-45.09,18.76-91.03,34.89-135.81,54.33-17.17-6.34-7.51-9.69-7.55-10.56,25.07-11.49,48.99-26.12,73.94-37.73,2.09-.97,4.08-2.12,6.04-3.02,3.89-1.79,6.35-3.99,7.55-4.53,5.72-2.58,12.21-5.04,18.11-7.55,7.82-3.32,17.4-5.84,25.65-9.05l12.07,18.11Z"/>
          <path class="cls-6" d="m665.85,284.95c-3.86,29.96-1.43,61.86-1.51,92.05-3.9,6.73.15,27.59-1.51,30.94-2.13,4.29-11.42-.51-12.07-1.51-3.11-4.81-20.53-93.99-10.56-113.18,3.66-7.04,16.88-3.49,19.62-12.83.71.57,3.35-2.39,6.04,4.53Z"/>
          <path class="cls-6" d="m868.06,466.03c-1.02.14-4.67,3.25-10.56.75-13.13-43.82-16.51-40.58-18.11-88.28-.64-19.14,1.68-38.27,0-57.34,12.51-56.15,5.44,3.19,12.07,59.61,3.35,28.52,11.26,57.05,16.6,85.26Z"/>
          <path class="cls-26" d="m839.39,378.51c1.6,47.69,4.98,44.46,18.11,88.28,5.9,2.5,9.54-.61,10.56-.75,20.44-2.87,61.21-16.47,15.09,1.51-8.26,3.22-17.84,5.74-25.65,9.05l-15.84-48.29q-1.13,27.92-2.26,55.83c-1.19.54-3.65,2.74-7.55,4.53-2.66-13-1.47-106.09,2.26-110.16.27-.3,3.21.17,5.28,0Z"/>
          <path class="cls-8" d="m839.39,378.51c-2.07.17-5.01-.3-5.28,0-3.73,4.07-4.93,97.16-2.26,110.16-1.95.9-3.95,2.05-6.04,3.02-6.73-51.51,2.21-119.47,13.58-170.52,1.68,19.07-.64,38.2,0,57.34Z"/>
          <path class="cls-43" d="m810.72,269.86c.69,3.05,4.24,6.22,6.04,9.05-.06,5.22,1.58,5.02,1.51,5.28-.84,3.03-5.75,3.57-6.04,3.77-7.47-4.2-14.2.66-18.11-7.55,6.27-8.46,7.09,3.78,16.6-10.56Z"/>
          <path class="cls-8" d="m812.23,287.97c.29-.21,5.2-.74,6.04-3.77.07-.26-1.57-.06-1.51-5.28,8.95,14.12-5.11,25.74-21.13,11.32l2.26-2.26c5.79,6.52,8.45,4.21,14.34,0Z"/>
          <path class="cls-3" d="m857.5,476.6c-5.9,2.5-12.38,4.97-18.11,7.55q1.13-27.92,2.26-55.83l15.84,48.29Z"/>
        </g>
        <g>
          <path class="cls-26" d="m656.8,143.1c.47,1.65-.46,4.36,0,6.04,1.69,6.14,2.4,7.87,4.53,13.58,5.68,15.28,9.1,18.16,21.13,28.67,20.99,18.33,31.96,24.37,55.83,6.04,19.4-14.9,31.39-46.43,28.67-21.13-.05.49.1,1.04,0,1.51-1.26,5.99-17.37,25.42-22.64,28.67-11.7,7.24-32.12,9.28-45.27,6.04-22.3-5.5-35.36-29.17-42.25-48.29-.34-.93.6-4.3-1.51-8.3-20.94-4.7-17.73-34.18-6.79-30.94,7.43,2.2-1.77,13.83,8.3,18.11Z"/>
          <path class="cls-6" d="m683.96,99.34c-10.24-3.5-17.8-1.25-24.14,6.79-3.53,23.88,3.29-5.3,37.73,6.79,2.12,4.49,5.12,8.49,1.51,13.58-21.21-10.57-29.48-9.95-34.71,16.6-1.93,1.59-3.5,6.72-7.55,6.04-.46-1.68.47-4.39,0-6.04-1.56-5.43-1.42-11.02-3.02-16.6,2.44.17,1.37-5.58,1.51-12.07.24-11.54,2.35-22.49,3.02-33.95,5.26-5.68,12.61-7.6,19.62-9.81-4.25,11.36,9.33,2.48,9.05,8.3-.04.89-14.16,6.22-15.84,8.3-8.49,10.49,12.16,2,12.83,12.07Z"/>
          <path class="cls-16" d="m772.99,143.1c.28,1.81,1.53,8.6,1.51,9.05-.1,2.45-4.96,20.1-7.55,24.14,2.72-25.31-9.27,6.23-28.67,21.13-2.62-6.82,5.14-13.06-4.53-13.58.14-.1,1.35-2.88,1.51-3.02,7.43-6.46,19.07-14.6,13.58-21.13,8.76.29,6.08,1.8,12.83,4.53,9.01-7.47,3.34-18.26,3.77-27.92l7.55,6.79Z"/>
          <path class="cls-26" d="m788.08,120.47c15.32,11.1,1.55,31.77-13.58,31.69.02-.46-1.23-7.25-1.51-9.05-3.88-24.75-7.76-4.04-12.07-6.04,3.94-13.1,19.34-12.84,16.6-24.14h1.51c.63.86-.93,4.39.75,6.04.43.42,7.96,1.26,8.3,1.51Z"/>
          <path class="cls-15" d="m765.45,72.18c-1.51,17.06-6.61,32.85,12.07,40.74,2.74,11.31-12.66,11.04-16.6,24.14-5.89-2.73,12.74-21.35-3.77-6.04-5.1-5.67-7.17-7.73-14.34-10.56-7.19-2.84-8.16-4.42-16.6-1.51l-4.53-6.04c1.74.01,8.61-7.88,33.2.75-8.02-21.33-50.03-21.13-40.74-2.26-4.27-.46,1.74-7.5-16.6,0-2.15-3.93-9.26-10.6-13.58-12.07-.67-10.08-21.32-1.59-12.83-12.07,1.68-2.08,15.8-7.41,15.84-8.3.28-5.82-13.3,3.06-9.05-8.3,34.38-10.83,53.72-2.23,87.52,1.51Z"/>
          <path class="cls-6" d="m733.76,183.85c9.67.52,1.91,6.76,4.53,13.58-23.87,18.33-34.84,12.3-55.83-6.04l4.53-9.05c17.15,13.62,29.49,14.18,46.78,1.51Z"/>
          <path class="cls-6" d="m688.49,156.68c.49,3.53-8.29,4.01-12.07,4.53-1.95.27-4.08-.26-6.04,0-3.09.42-6.06.32-9.05,1.51-2.12-5.71-2.84-7.44-4.53-13.58,4.04.68,5.61-4.45,7.55-6.04,7.6-6.24,14.53-11.57,20.37-19.62,4.61,1.31.02,23.22,3.77,33.2Z"/>
          <path class="cls-8" d="m670.38,161.21c2.2,5.17,13.05,18.31,16.6,21.13l-4.53,9.05c-12.03-10.51-15.45-13.39-21.13-28.67,2.99-1.19,5.97-1.09,9.05-1.51Z"/>
          <path class="cls-6" d="m714.14,111.41c2.72.29,3.78,1.48,7.55,1.51l4.53,6.04c-1.4.48-3.65.84-5.28,1.51v3.02l21.88-3.02c7.17,2.83,9.24,4.89,14.34,10.56,16.51-15.31-2.12,3.31,3.77,6.04,4.31,2,8.19-18.72,12.07,6.04l-7.55-6.79c-.43,9.66,5.24,20.44-3.77,27.92-6.74-2.73-4.07-4.24-12.83-4.53-14.59-.48-15.17,12.75-33.2,16.6-9.31,1.99-7.08-1.49-7.55-1.51l-1.51-4.53c6.91.16,16.6-6.51,16.6-14.34-.58-1.07-12.35,7.33-23.39.75-10-5.96-14.83-32.65-5.28-28.67-3.28,4.57,2.85,6.81,4.53,9.05,1.86,2.48,1.38,2.91,1.51,3.02.69.63,9.69,13.59,12.07,3.02,6.29.7,31.89,5.2,34.71-.75,7.48-15.85-3.09-.76-3.77-.75-1.29,0-6.97-17.28-18.11-16.6-14.34.88,21.31,28.61-8.3,12.07-.39-.22,2.31-.12-6.04-4.53-.56-.3,5.85-6.07-8.3,0-.59-1.4-3.45-5.88-3.77-6.04,3.61-5.09.61-9.09-1.51-13.58-.2-.42.21-1.13,0-1.51,18.34-7.5,12.33-.46,16.6,0Z"/>
          <path class="cls-26" d="m699.05,126.5c.32.16,3.18,4.64,3.77,6.04,14.15-6.07,7.74-.3,8.3,0-15.08,3.5-5.6,13.03,6.04,4.53,29.61,16.54-6.04-11.19,8.3-12.07,11.14-.69,16.82,16.6,18.11,16.6.68,0,11.26-15.09,3.77.75-2.81,5.96-28.41,1.46-34.71.75-4.52-.51-7.61.39-12.07-3.02-.13-.11.35-.53-1.51-3.02,2.46-3.35-1.45-7.77-4.53-9.05-9.54-3.98-4.72,22.71,5.28,28.67,11.04,6.58,22.81-1.83,23.39-.75,0,7.83-9.69,14.49-16.6,14.34-5.42-.12-16.25-8.65-18.11-13.58-3.76-9.98.84-31.89-3.77-33.2-5.84,8.05-12.77,13.38-20.37,19.62,5.23-26.55,13.5-27.17,34.71-16.6Z"/>
          <path class="cls-26" d="m683.96,99.34c4.32,1.48,11.43,8.14,13.58,12.07.21.38-.2,1.09,0,1.51-34.43-12.09-41.26,17.09-37.73-6.79,6.35-8.04,13.91-10.29,24.14-6.79Z"/>
          <path class="cls-4" d="m676.41,161.21c13.45,18.36,27.59,13.41,31.69,13.58.46.02-1.76,3.5,7.55,1.51l1.51,3.02c-8.88.02-17.64.4-26.41-1.51-6.06,3.59,24.53,18.22,41.5,1.51,1.03.52,1.89,1.29,3.02,1.51-.16.14-1.37,2.92-1.51,3.02-17.29,12.67-29.63,12.11-46.78-1.51-3.55-2.82-14.4-15.96-16.6-21.13,1.95-.26,4.08.27,6.04,0Z"/>
          <path class="cls-18" d="m748.85,159.7c5.49,6.52-6.15,14.67-13.58,21.13-1.13-.22-1.98-.99-3.02-1.51-8.75-4.4-9.03-.02-15.09,0l-1.51-3.02c18.03-3.85,18.61-17.08,33.2-16.6Z"/>
          <g>
            <path class="cls-18" d="m744.32,206.48c.5,4.71-.7,10.7,0,15.09-8.08,2.42-2.74,15.73-6.04,22.64-8.37-2.05-18.36,0-27.92,0-6.17,0-10.47-14.7-3.77,30.18-1.31-1.39-20.14-8.32-15.09-31.69,2.27-10.5,6.16-2.6,7.55-5.28.97-1.87-.7-19.08,0-24.9,13.16,3.24,33.57,1.2,45.27-6.04Z"/>
            <path class="cls-8" d="m744.32,221.57c.55,3.44,1.99,10.04,6.04,9.05-6.48,3.98-1.3,13.2-1.51,19.62-.67.69-5.67,9.67-12.07,15.09-.45.38-8.08,3.87-9.05,4.53-9.55,5.8-15.31-14.32-12.07-18.86,1.98-2.78,18.13,2.66,22.64-6.79,3.29-6.9-2.05-20.21,6.04-22.64Z"/>
            <path class="cls-26" d="m738.28,244.21c-4.51,9.45-20.65,4.01-22.64,6.79-3.24,4.54,2.52,24.66,12.07,18.86-.14.09-1.37,2.93-1.51,3.02-2.86,1.77-11.49,5.81-15.09,6.04-2.81-1.97-3.61-3.56-4.53-4.53-6.7-44.88-2.4-30.18,3.77-30.18,9.56,0,19.55-2.05,27.92,0Z"/>
          </g>
          <g>
            <path class="cls-26" d="m771.48,571.67c-.61.34,3.37.36-10.56,9.05-5.14,3.21-10.19,7.46-15.09,10.56-.65.41-4.28-.99-7.55,1.51-6.06.97,2.76,15.73-4.53,13.58,2.99-16.51-8.15-4.74-27.16-13.58-.3-1.37.18-3.08,0-4.53,4.03.31,8.03,3.72,14.34,3.02,29.95-15.43,41.83-12.84,38.48-49.8q6.04,15.09,12.07,30.18Z"/>
            <path class="cls-8" d="m751.86,529.41c.04.87-9.63,4.22,7.55,10.56v1.51c3.35,36.95-8.53,34.36-38.48,49.8-6.31.7-10.31-2.71-14.34-3.02-1-.08-2.03.09-3.02,0,.28-4.56,1.09-9.07,1.51-13.58,14.69-3.07,12.28-5.02,9.05-18.11,8.56-4.54,22.18-3.21,31.69-11.32,3.37-11.14,1.12-22.75,1.51-33.95,5.31-.09,5.16-16.4,7.55-24.9,10.77-38.44,31.95-73.37,46.78-110.16,9.08-22.54,14.66-49.27,25.65-69.42-9.53,54.18-72.47,177.34-76.96,214.28-.73,5.97,1.47,7.48,1.51,8.3Z"/>
            <path class="cls-14" d="m733.76,606.37c-5.89,1.54-12.6-1.45-18.11-1.51-2.97-3.8-7.98-7.18-9.05-12.07,19.02,8.84,30.16-2.93,27.16,13.58Z"/>
            <path class="cls-26" d="m705.08,574.68c.25-2.68-2.28-3.07,0-9.05.75-1.97,6.72-7.82,9.05-9.05,3.23,13.09,5.64,15.04-9.05,18.11Z"/>
          </g>
          <path class="cls-26" d="m721.68,112.92c-3.77-.02-4.83-1.22-7.55-1.51-9.29-18.87,32.72-19.06,40.74,2.26-24.59-8.64-31.46-.74-33.2-.75Z"/>
          <path class="cls-8" d="m742.81,120.47l-21.88,3.02v-3.02c1.64-.67,3.88-1.02,5.28-1.51,8.44-2.91,9.41-1.33,16.6,1.51Z"/>
          <path class="cls-8" d="m706.59,170.26l1.51,4.53c-4.1-.17-18.24,4.78-31.69-13.58,3.78-.51,12.57-.99,12.07-4.53,1.86,4.94,12.69,13.46,18.11,13.58Z"/>
          <path class="cls-35" d="m711.12,132.54c8.34,4.4,5.65,4.31,6.04,4.53-11.63,8.5-21.11-1.02-6.04-4.53Z"/>
          <path class="cls-36" d="m712.63,143.1c-2.38,10.57-11.38-2.39-12.07-3.02,4.46,3.41,7.55,2.51,12.07,3.02Z"/>
          <path class="cls-48" d="m699.05,137.07c-1.68-2.24-7.81-4.48-4.53-9.05,3.08,1.28,6.98,5.71,4.53,9.05Z"/>
          <path class="cls-49" d="m732.25,179.32c-16.97,16.71-47.55,2.09-41.5-1.51,8.77,1.91,17.53,1.53,26.41,1.51,6.06-.02,6.34-4.4,15.09,0Z"/>
        </g>
        <g>
          <path class="cls-24" d="m742.81,619.96c-3.3-3.08-2.46,14.86-1.51,27.92,12.1,166.02,57.62,357.33,78.47,524.39l-16.6,1.51-7.55-3.77c-2.31-11.68-3.65-23.83-6.04-35.46-14.71-71.68-40.53-237.15-49.8-311.61-6.59-52.92-9.28-106.27-15.09-159.2-.07-.66,3.28-4.12.75-9.05-6.83-.83-13.52-2.29-20.37-3.02-.37-.04-5.7-2.26-6.79-3.02-26.33,170.21-31.27,332.85-15.84,505.53-1.42-.06-5.7,3.05-6.04,3.02-2.43-.25-10.79-1.85-12.07-3.77-1.14-9.33-2.67-18.7-4.53-27.92-11.2-55.69-38.9-228.78-42.25-279.93-5.49-83.62,4.53-135.32,4.53-193.91,28.08,1.11,31.98-27.41,43.01-48.29,16.89.59,33.64,1.32,50.55,1.51,5.51.06,12.22,3.05,18.11,1.51,7.29,2.15-1.53-12.61,4.53-13.58,2.5,8.81,1.89,18.37,4.53,27.16Z"/>
          <path class="cls-20" d="m703.58,588.27c.99.09,2.02-.08,3.02,0,.18,1.45-.3,3.16,0,4.53,1.07,4.89,6.09,8.27,9.05,12.07-16.91-.19-33.66-.92-50.55-1.51-11.03,20.88-14.93,49.4-43.01,48.29v-3.02c23.87-2.74,23.06-11.67,31.69-30.18,2.93-6.3,6.64-11.69,10.56-17.35-1.15-5.96.91-11.63,1.51-17.35,12.72-.18,25.19,3.39,37.73,4.53Z"/>
          <path class="cls-13" d="m837.88,712.01c2.29,143.11.8,286.35,7.55,429.32.06,1.2,2.9-.09,3.02,2.26,0,.16-3.08-.46-3.02.75.39,7.5.91,19.7-1.51,26.41l-10.56-1.51c.46-7.14-10.05-103.27-12.07-142.6-6.34-123.31-6.89-247.06-10.56-370.47,8.56,4.26,18.29,46.59,27.16,55.83Z"/>
          <path class="cls-20" d="m745.83,591.28c-1.71,12.92,2.96,22.21,9.05,33.2,17.51,31.58,47.85,28.58,80.73,30.18,1.2.06-.07,2.95,2.26,3.02v54.33c-8.87-9.25-18.6-51.58-27.16-55.83-27.19-6.04-58.21-3.87-67.91-36.22-2.64-8.8-2.03-18.36-4.53-27.16,3.26-2.5,6.89-1.1,7.55-1.51Z"/>
          <path class="cls-24" d="m742.81,619.96c9.69,32.34,40.71,30.18,67.91,36.22,3.67,123.41,4.22,247.15,10.56,370.47,2.02,39.33,12.53,135.46,12.07,142.6-.1,1.5-1.62,1.67-1.51,3.02h-12.07c-20.85-167.05-66.36-358.37-78.47-524.39-.95-13.06-1.8-30.99,1.51-27.92Z"/>
          <path class="cls-20" d="m705.08,651.65c-1.18,40.47,3.37,81.04,3.02,121.48-.19,21.89-4.5,50.42-4.53,70.92-.11,103.87,3.34,207.77,6.04,311.61-9.07,1.35-18.29-1.16-27.16-1.51-15.42-172.68-10.49-335.31,15.84-505.53,1.09.76,6.42,2.98,6.79,3.02Z"/>
          <path class="cls-20" d="m724.7,663.72l-9.05,2.26c.05,155.24-1.6,310.39,4.53,465.54.32,8.02-.37,16.13,0,24.14h-10.56c-2.69-103.85-6.15-207.75-6.04-311.61.02-20.5,4.34-49.03,4.53-70.92.35-40.44-4.2-81.01-3.02-121.48,6.86.73,13.54,2.19,20.37,3.02,2.53,4.93-.83,8.39-.75,9.05Z"/>
          <g>
            <path class="cls-26" d="m709.61,1155.66h10.56c.16,3.51-.19,7.06,0,10.56-4.31,2.15-23.01,25.92-24.9,25.65-.63-.09-.38-1.93-2.26-4.53-.6-.82-.08-9.83-12.07-9.05-1.36-1.68-1.07-3.17-1.51-4.53-1.84-5.68-4.23-10.27-3.02-16.6.34.03,4.62-3.07,6.04-3.02,8.88.35,18.09,2.86,27.16,1.51Z"/>
            <g>
              <path class="cls-18" d="m819.77,1172.26h12.07c1.94-.04,2.27,2.14.75,3.02-12.83,7.43-17.95-11.63-20.37,22.64-3.79.84-2.12-2.19-4.53-3.02l-4.53-21.13,16.6-1.51Z"/>
              <g>
                <path class="cls-41" d="m843.92,1170.75l4.53,15.09c-2.22,28.9,5.51,30.1,6.04,31.69,2.73,8.29,8.17,14.72,6.04,24.14-20-3.07-47.3,10.2-49.8-16.6-.13-1.35,1.21-23,1.51-27.16,2.43-34.26,7.55-15.21,20.37-22.64,1.52-.88,1.18-3.06-.75-3.02-.11-1.35,1.41-1.52,1.51-3.02l10.56,1.51Z"/>
                <path class="cls-50" d="m825.05,1231.11l9.81.75c-3.3,4.2-11.19,2.56-9.81-.75Z"/>
                <path class="cls-50" d="m822.03,1222.06c7.22-3.69,14.74,7.45,1.51,3.02-.55-.18-2.96-2.28-1.51-3.02Z"/>
              </g>
            </g>
            <g>
              <path class="cls-18" d="m721.68,1169.24c.83,15.69,4.71,31.67,4.53,47.53-2.29,5.82-46.42,18.98-54.33,20.37-14.95,2.63-30.1,3.59-45.27,3.02-.76-2.73-5.75-5.6-6.04-6.79-1.11-4.6,1.29-7.21,1.51-8.3,21.47,1.43,58.07-20.91,70.92-37.73,1.88,2.6,1.63,4.44,2.26,4.53,1.88.26,20.59-23.5,24.9-25.65,0,.17,1.29-1.05,1.51,3.02Z"/>
              <path class="cls-10" d="m693.01,1187.35c-12.85,16.82-49.46,39.15-70.92,37.73,3.57-18.15,44.96-31.51,58.85-46.78,11.99-.77,11.48,8.23,12.07,9.05Z"/>
            </g>
          </g>
        </g>
      </g>
      <g>
        <g>
          <path class="cls-1" d="m160.32,126.5c.41-.2,1.13.21,1.51,0l1.51,4.53c-16.17,8.4-4.65,45.4,18.11,36.22,9.66-2.71,9.28,20,28.67,35.46-5.73,18.01.23,35.46,0,53.57-2.32-3.97-4.59-12.34-8.3-12.07l-20.37,24.14c-16.01,3.74-31.19,10.07-46.78,15.09-8.45,2.72-21.75,9.43-24.14,9.05-3.02-.47-15.86-13.84-16.6-17.35-3.3-15.59,10.36-25.33,10.56-27.16.73-6.47-23.09-22.89,9.05-48.29-20.4-39.71-13.13-38.69,13.58-65.64.18-.18-.79-2.47,2.26-4.53,11.35,1.53,20.99,1.91,30.94-3.02Z"/>
          <path class="cls-21" d="m300.66,85.76c19.3,27.72-2.04,40.32,15.09,59.61-1.63,9.96.47,22.92-1.51,31.69-5.9,26.1-17.11,14.03-7.55,53.57,1.77,7.31,5.83,8.78,6.04,10.56-6.34.54-5.58,17-6.04,23.39-1.29,3.03-13.75-.11-15.09-1.51-1.28-1.34-7.43-34.34-7.55-36.22-1.46-23.93,8.83-42.51,0-41.5,4.78-9.7,8.93-28.67,9.05-39.23,16.62-9.04,18.82-14.21,0-4.53-.05-.62-2.51-10.44-3.02-12.07-.49-1.57-.92-8.33-2.26-9.05-38.95,4.84-44.27-8-7.55-6.04,4.66-3.13-19.51-54.18-29.43-39.23.2-.25.74-5.48,2.26-6.04,24.09,4.38,43.09,38.99,49.8,61.87,9.16-11.94,3.77-32.37-2.26-45.27Z"/>
          <g>
            <path class="cls-21" d="m300.66,85.76c6.03,12.9,11.42,33.33,2.26,45.27-6.71-22.88-25.7-57.49-49.8-61.87-1.53.56-2.06,5.78-2.26,6.04-14.11,17.62-32,30.46-33.2,32.44-.09.14,1.92,1.31,1.51,2.26-13.28-4.28-16.21-10.94-24.9-22.64-7.66,12.15-20.06,32.37-32.44,39.23-.38.21-1.1-.2-1.51,0-2.88-11.42,19.2-53.36,2.26-31.69l.75-12.83c-5.31-7.36-22.05,32.18-22.64-9.81,17.88-18.65,48.58-36.23,73.19-22.64,10.29-5.9,35.96-5.4,42.25,7.55,19.71-5.62,36.67,11.88,44.52,28.67Z"/>
            <path class="cls-21" d="m160.32,126.5c-9.95,4.93-19.59,4.55-30.94,3.02-3.06,2.06-2.09,4.35-2.26,4.53-19.9-21.36-2.94-44.63,13.58-61.87.59,41.99,17.32,2.45,22.64,9.81l-.75,12.83c16.93-21.67-5.15,20.27-2.26,31.69Z"/>
          </g>
          <path class="cls-30" d="m219.18,109.9c14.63,4.71,17.01-2.82,21.13,10.56h-3.02c-7.64-.32-15.06-2.12-22.64-3.02-.3-.04-4.78-3.01-5.28-3.02-17.13-.36-20.09,20.19-21.88,21.88-2.34,2.2-3.77-1.43-4.53-.75-.67-5.82-13.91-7.49-19.62-4.53l-1.51-4.53c12.39-6.87,24.78-27.08,32.44-39.23,8.69,11.69,11.61,18.36,24.9,22.64Z"/>
          <path class="cls-30" d="m312.74,241.19c.22,1.92-7.48,12.41-.75,37.73-34.98,2.51-75.39-56.41-64.13-23.39,2.01,5.88,12.66,11.5,13.58,17.35-16.69,1.44-20.54-32.18-22.64-46.78-.14-1-1.73-5.5-.75-6.04,11.94.52,15.48-4.86,17.35-6.04,11.33-7.11,22.67-16.49,28.67-28.67,8.83-1.01-1.46,17.57,0,41.5.11,1.88,6.27,34.88,7.55,36.22,1.34,1.4,13.8,4.54,15.09,1.51.45-6.39-.3-22.85,6.04-23.39Z"/>
          <path class="cls-35" d="m293.12,146.12c0-.74.02-4.3,0-4.53,18.82-9.69,16.62-4.51,0,4.53Z"/>
        </g>
        <g>
          <g>
            <path class="cls-42" d="m318.77,227.61c1.17,7.88.46,53.62,1.51,73.94.04.85-4.28-4.42,0,15.09,2.97,13.55,5.02,20.57,21.13,21.13,3.7,11.59.65,23.18,0,34.71-1.64,2.34-5.43,5.55-6.04,7.55-28.45,7.39-57.69,6.04-86.77,6.04-1.95-1.01-3.94-38.7-3.77-43.76.84-25.18,5.75-30.71,10.56-49.8l42.25,17.35q-19.62-13.96-39.23-27.92c.49-2.35,3.38-6.75,3.02-9.05-.92-5.85-11.58-11.47-13.58-17.35-11.26-33.02,29.15,25.9,64.13,23.39-6.73-25.32.98-35.8.75-37.73-.21-1.78-4.27-3.26-6.04-10.56,5.79,1.16,7.15-5.15,9.05-9.05.15,1.49,2.97,5.7,3.02,6.04Z"/>
            <path class="cls-40" d="m134.67,283.44c10.67,15.36,16.93,32.16,22.64,49.8.96,37.69-.13,78.29-22.64,110.16,2.35-7,5.59-18.6,6.04-25.65.08-1.3,4.21-5.05-.75-9.05q-25.28-9.05-50.55-18.11l-11.32-6.04c-2.48-3.31,9.28-28.97,11.32-34.71,6.83-19.17,14.29-38.17,21.13-57.34,2.39.37,15.7-6.33,24.14-9.05Z"/>
            <path class="cls-40" d="m365.55,425.29c-9.2,1.63-18.75,2.44-27.92,4.53-.05,5.06-.33,10.05-.75,15.09-.52,6.21.76,13.77,0,19.62-2.23,17.05-8.61,38.42-9.05,56.59-2.08,3.53-18.33,2.42-22.64,2.26-2.94-.11-4.89.48-7.55-1.51,1.09-1.01,12.24-23.21,13.58-26.41,11.73-28.04,28.46-92.33,30.18-122.99.65-11.53,3.7-23.12,0-34.71,2.29.08.71-3.06,3.02-3.02,9.05,29.63,18.88,59.43,21.13,90.54Z"/>
            <path class="cls-11" d="m187.49,526.4c-8.27.36-16.62-.26-24.9,0l-3.77,3.02q-4.53-14.34-9.05-28.67c1.27-.46,14.37-7.92,24.14-12.07,3.94,17.77-4.18,25.9,13.58,37.73Z"/>
            <path class="cls-42" d="m178.43,310.6c1.94,4.3,43.89-16.63,49.8-19.62,8.84,20.64,12.67,28.01,15.09,51.31.51,4.86,2.29,42.41-.75,43.76q-35.84.75-71.68,1.51c-2.01-12.13-9.71-42.36-13.58-54.33-5.7-17.64-11.97-34.44-22.64-49.8,15.59-5.02,30.77-11.35,46.78-15.09q-1.51,21.13-3.02,42.25Z"/>
            <path class="cls-40" d="m210.12,256.28c1.13,1.93,1.92,4.08,3.02,6.04,3.81,6.77,7.21,14.11,10.56,21.13-7.62,10.31-32.28,21.32-45.27,27.16q1.51-21.13,3.02-42.25l20.37-24.14c3.71-.27,5.98,8.1,8.3,12.07Z"/>
            <path class="cls-40" d="m335.37,380.02c-6.31,20.64-8.13,77.01-40.74,119.97-3.88,5.12-21.38,22.96-25.65,24.9-1.1.5-1.85,1.31-3.02,1.51-1.63-3.92-6.03-.18-7.55,0-4.57.56-21.05-.29-30.18,0-8.77-21.47,1.46-43.47,6.04-64.89,4.99-.34,7.44,4.06,15.84,3.02,26.27-3.25,61.87-21.83,9.81-14.34,8.95-3.04,11.12-7.12,16.6-12.83.61-.63,16.14-7.47,3.77-12.07-17.51-6.52-45.12,23.69-20.37-9.81-.63-10.41-25.14,16.95-29.43,18.86-3.99,1.79-42.38,9.25-53.57,12.07-4.18-18.1-3.34-42.56-6.04-58.85q35.84-.75,71.68-1.51c3.05-1.35,1.26-38.9.75-43.76h1.51c-.17,5.06,1.82,42.75,3.77,43.76,29.08,0,58.32,1.35,86.77-6.04Z"/>
            <path class="cls-46" d="m297.65,521.87c-1.39,1.3-4.31,2.59-6.04,3.02-1.6.4-4.1-.21-6.04,0-2.95.32-6.07-.16-9.05,0-2.55.14-3.74-.16-6.04,1.51-.15-.26.33-1.67-1.51-1.51,4.27-1.93,21.77-19.78,25.65-24.9,32.62-42.96,34.43-99.33,40.74-119.97.61-1.99,4.4-5.2,6.04-7.55-1.73,30.65-18.46,94.94-30.18,122.99-1.34,3.2-12.49,25.4-13.58,26.41Z"/>
            <path class="cls-25" d="m255.39,292.5c.92-3.65,2.83-9.66,3.02-10.56q19.62,13.96,39.23,27.92l-42.25-17.35Z"/>
            <path class="cls-11" d="m170.89,387.57c2.7,16.29,1.86,40.75,6.04,58.85-13.86,3.49-34.97,12.16-46.78,10.56,2.94-4.09,3-9.04,4.53-13.58,22.51-31.87,23.59-72.47,22.64-110.16,3.87,11.96,11.57,42.19,13.58,54.33Z"/>
            <path class="cls-40" d="m217.67,526.4c-4.02.13-8.05-.1-12.07,0-.5.01-1.01-.01-1.51,0-5.52.15-11.09-.24-16.6,0-17.76-11.82-9.64-19.96-13.58-37.73,12.89-5.47,27.8-14.73,40.74-19.62,11.83,14.1,3.52,39,3.02,57.34Z"/>
            <path class="cls-11" d="m234.27,461.51c-4.57,21.42-14.8,43.42-6.04,64.89-3.51.11-7.05-.11-10.56,0,.5-18.35,8.82-43.25-3.02-57.34,6.56-2.48,12.9-5.5,19.62-7.55Z"/>
            <path class="cls-25" d="m228.23,290.99c-5.91,2.99-47.86,23.92-49.8,19.62,12.99-5.84,37.66-16.85,45.27-27.16.19.4,2.19,2.09,4.53,7.55Z"/>
          </g>
          <g>
            <path class="cls-27" d="m270.48,526.4c5.74,9.67-.67,14.54,10.56,16.6,7.08,1.3,6.63-4.67,10.56-6.04,1.36-.47,1.76-1.29,3.02-1.51.98-.17,16.27,2.58,19.62,3.02,20.98,35.5,31.91,80.6,34.71,121.48,6.83,99.68-33.53,301.32-52.82,408.19-3.53.56-2.86-1.44-3.02-1.51-6.96-3.21-18.16.53-19.62-3.77,15.58-113.61-.88-316.8,12.07-410.46,1.13-8.16,4.78-17.79,7.55-25.65l-2.26-2.26q-16.98,6.41-33.95,12.83c-2.78,42.1-5.67,84.08-10.56,126-.03.24-.79-1.58-1.51,4.53-12.74,107.96-32.31,214.05-48.29,321.42h-19.62c3.28-15.47,3.97-35.4,4.53-53.57,3.41-111.55,3.28-190.57-9.05-301.81-7.04-63.43-30.06-125.17-1.51-188.63,11.4-7.06,35.28,13.49,33.2-18.86.5-.01,1.01.01,1.51,0,.73,3.88-1.94,16.25,2.26,18.11,2.66,1.18,53.75.17,58.1-1.51,6.02-2.33,5.72,2.59,0-16.6,1.17-.2,1.92-1.01,3.02-1.51,1.84-.16,1.36,1.25,1.51,1.51Z"/>
            <path class="cls-30" d="m305.19,523.38c4.7,4.12,6.14,10.16,9.05,15.09-3.35-.44-18.64-3.19-19.62-3.02l-3.02-10.56c1.72-.42,4.64-1.72,6.04-3.02,2.65,1.99,4.6,1.4,7.55,1.51Z"/>
            <path class="cls-30" d="m187.49,526.4c5.51-.24,11.08.15,16.6,0,2.08,32.35-21.8,11.81-33.2,18.86-28.55,63.46-5.53,125.19,1.51,188.63,12.34,111.24,12.46,190.25,9.05,301.81-.56,18.17-1.25,38.1-4.53,53.57h-21.13c-5.42-63.09-10.76-126.33-16.6-189.38-12.63-136.29-54.83-266.98,19.62-370.47l3.77-3.02c8.28-.26,16.63.36,24.9,0Z"/>
            <g>
              <path class="cls-38" d="m220.69,1223.57c5.41,13.8.37,15.52-12.07,22.64-5.61-.79-11.07-1.65-16.6-3.02-13.81-3.42-28.56-7.5-36.22-21.13,14.9,12.11,49.9,15.44,64.89,1.51Z"/>
              <path class="cls-30" d="m176.92,1197.91l16.6-6.04c2.47,3.5,16.03,19.63,19.62,22.64,1.97,1.65,2.93,5.03,7.55,6.04,3.18.35-.45,1.87,0,3.02-14.99,13.93-49.99,10.6-64.89-1.51-10.31-8.38-11.06-10.27-6.04-22.64,1.9-4.67,5.01-10.52,10.56-12.07,1.87,10.73,15.49,29.86,28.67,26.41-18.22-5.83-11.95-14.72-12.07-15.84Z"/>
            </g>
            <path class="cls-30" d="m293.12,1066.63c-6.04.01-12.07-.01-18.11,0-7.57.02-15.24-.85-22.64,1.51-1.09-100.13-2.99-200.21-6.04-300.3v-4.53c4.89-41.93,7.78-83.91,10.56-126q16.98-6.41,33.95-12.83l2.26,2.26c-2.76,7.86-6.42,17.49-7.55,25.65-12.95,93.66,3.51,296.84-12.07,410.46,1.46,4.3,12.65.56,19.62,3.77Z"/>
            <path class="cls-30" d="m258.41,526.4l7.55,16.6c-4.34,1.68-55.44,2.69-58.1,1.51-4.2-1.86-1.53-14.23-2.26-18.11,4.02-.1,8.06.13,12.07,0,3.51-.11,7.05.11,10.56,0,9.13-.29,25.61.56,30.18,0Z"/>
            <path class="cls-30" d="m285.57,524.89l6.04,12.07c-3.93,1.36-3.48,7.33-10.56,6.04l-4.53-18.11c2.98-.16,6.11.32,9.05,0Z"/>
            <path class="cls-17" d="m265.96,526.4c5.72,19.19,6.02,14.27,0,16.6l-7.55-16.6c1.51-.18,5.92-3.92,7.55,0Z"/>
            <path class="cls-17" d="m276.52,524.89l4.53,18.11c-11.23-2.06-4.83-6.93-10.56-16.6,2.29-1.67,3.48-1.37,6.04-1.51Z"/>
            <path class="cls-44" d="m291.61,524.89l3.02,10.56c-1.26.22-1.66,1.04-3.02,1.51l-6.04-12.07c1.94-.21,4.43.4,6.04,0Z"/>
            <path class="cls-7" d="m246.34,767.84h-1.51c.72-6.11,1.48-4.29,1.51-4.53v4.53Z"/>
            <g>
              <g>
                <path class="cls-26" d="m176.92,1089.26h1.51c.51,35.21-5.4,73.72-1.51,108.65.12,1.12-6.15,10.02,12.07,15.84-13.18,3.46-26.81-15.68-28.67-26.41-1.32-7.59.94-24.75,0-35.46-.03-.3-2.89-3.78-3.02-5.28-.55-6.52.34-35.75-1.51-57.34h21.13Z"/>
                <path class="cls-6" d="m196.54,1089.26c-2.6,17.49-5.49,35.27-7.55,52.82-1.56,13.32-3.13,26.65-4.53,39.99,10.4,5.44,8.64,9.23,9.05,9.81l-16.6,6.04c-3.89-34.93,2.01-73.44,1.51-108.65h18.11Z"/>
              </g>
              <g>
                <path class="cls-6" d="m293.12,1066.63c.15.07-.52,2.07,3.02,1.51-4.29,23.8-9.01,48.26-10.56,72.43-8.29,7.35-2.64,22.5-7.55,33.2-.36-.22-1.15.23-1.51,0-2.64-1.65-3.6-4.76-10.56-3.77l9.05-103.37c6.04-.01,12.07.01,18.11,0Z"/>
                <path class="cls-26" d="m275.01,1066.63l-9.05,103.37c6.96-.98,7.92,2.12,10.56,3.77-2.14,0-4.26,4.36-4.53,4.53-.2.13-4.29,1.49-4.53,1.51-11.32.92-15.97-3.39-16.6-13.58-.18-2.91,1.41-14.62,1.51-28.67.16-23.22.25-46.19,0-69.42,7.39-2.36,15.06-1.49,22.64-1.51Z"/>
              </g>
            </g>
            <g>
              <path class="cls-30" d="m250.87,1166.22c.63,10.19,5.28,14.5,16.6,13.58l14.34,6.04-9.81-7.55c.27-.17,2.38-4.52,4.53-4.53.36.23,1.14-.22,1.51,0,12.41,7.6,15.22,8.18,27.16,13.58,6.28,2.84,25.92,6.98,28.67,12.07-20.29,18.33-69.93,8.78-95.07,0,1.71-10.57.31-28.96,12.07-33.2Z"/>
              <path class="cls-3" d="m238.79,1199.42c25.14,8.78,74.78,18.33,95.07,0,3.11,5.76.49,10.95,1.51,16.6-14.78,6.42-32.23,5.19-48.29,4.53-9.68-.4-51.56-3.01-52.82-12.07-1.01-7.26,4.43-8.48,4.53-9.05Z"/>
              <path class="cls-5" d="m271.99,1178.3l9.81,7.55-14.34-6.04c.24-.02,4.32-1.38,4.53-1.51Z"/>
            </g>
          </g>
        </g>
        <g>
          <path class="cls-26" d="m140.71,417.75c-6.67.09-26.67-13.26-29.43-13.58-18.32-2.14-18.77,61.3-17.35,73.94.08.73-4.32,1.21,2.26,13.58,6.43,4.92,114.06-30.47,126.76-37.73,11.89-6.79,15.11-18.11,18.11-18.11.85,0,7.95,8.84,9.05,9.05,6.36,1.24,22.94-14.97,26.41-7.55-5.48,5.71-7.64,9.79-16.6,12.83,52.06-7.49,16.46,11.09-9.81,14.34-8.4,1.04-10.85-3.36-15.84-3.02-6.72,2.05-13.06,5.07-19.62,7.55-12.95,4.89-27.85,14.15-40.74,19.62-9.78,4.15-22.88,11.61-24.14,12.07-90.21,33.04-67.06-30.9-60.36-110.16q25.28,9.05,50.55,18.11c4.97,4,.84,7.75.75,9.05Z"/>
          <path class="cls-6" d="m140.71,417.75c-.45,7.05-3.69,18.66-6.04,25.65-1.52,4.54-1.59,9.49-4.53,13.58l-2.26,4.53q-16.98,8.3-33.95,16.6c-1.42-12.64-.96-76.08,17.35-73.94,2.76.32,22.76,13.67,29.43,13.58Z"/>
          <g>
            <path class="cls-8" d="m471.18,342.29c4.57.13,15.75,1.69,16.6,6.04-2.69,5.37-13.46,24.66-16.6,27.92-10.98,11.38-18.65,6.77-27.16,15.09-11.31,11.06-70.05,127.56-107.14,73.19.76-5.85-.52-13.4,0-19.62,12.79,12.27,11.22,17.45,30.94,10.56,21.54-7.52,73.45-71.95,73.19-77.72-.03-.71-5.58-7.18-6.04-12.83-.52-6.39,1.73-11.13,4.53-16.6,10.34-.72,21.89-6.31,31.69-6.04Z"/>
            <g>
              <path class="cls-8" d="m492.31,331.73c2.22,2.81.78,4.66,0,7.55-7.41-4.2-14.28.41-21.13,3.02-9.8-.27-21.35,5.31-31.69,6.04,4.68-9.14,8.71-12.62,19.62-15.09,11.78-2.66,21.75-.68,33.2-1.51Z"/>
              <path class="cls-45" d="m492.31,339.28c-1.1,4.05-2.82,5.64-4.53,9.05-.85-4.35-12.03-5.91-16.6-6.04,6.85-2.61,13.72-7.22,21.13-3.02Z"/>
            </g>
            <path class="cls-8" d="m336.88,444.91c.42-5.04.7-10.03.75-15.09,9.17-2.09,18.71-2.89,27.92-4.53.19-.03-.16,1.24,2.26,3.02,23.26-20.25,40.73-47.25,67.15-63.38.46,5.65,6,12.12,6.04,12.83.26,5.77-51.65,70.19-73.19,77.72-19.71,6.89-18.15,1.71-30.94-10.56Z"/>
          </g>
          <path class="cls-16" d="m276.52,437.36c-3.47-7.42-20.05,8.79-26.41,7.55-1.11-.22-8.21-9.05-9.05-9.05-2.99,0-6.21,11.32-18.11,18.11-12.7,7.25-120.33,42.65-126.76,37.73-6.58-12.37-2.18-12.86-2.26-13.58q16.98-8.3,33.95-16.6l2.26-4.53c11.81,1.6,32.92-7.07,46.78-10.56,11.19-2.82,49.58-10.29,53.57-12.07,4.28-1.92,28.8-29.27,29.43-18.86-24.75,33.5,2.87,3.29,20.37,9.81,12.36,4.6-3.16,11.44-3.77,12.07Z"/>
          <g>
            <path class="cls-26" d="m196.54,158.19c11.98,16.03,22.27,57.75,58.85,55.83-1.87,1.18-5.42,6.56-17.35,6.04-.98.54.61,5.04.75,6.04-3.89-1.4-2.33,9.14-10.56,21.88-2.62,4.05-11.12,10.66-15.09,14.34-1.1-1.96-1.89-4.1-3.02-6.04.23-18.11-5.73-35.56,0-53.57-19.39-15.47-19.01-38.18-28.67-35.46.87-4.79-1.26-11.46-6.04-12.07,6.81-7.9-5.52-6.11,1.51-15.09,7.39,5.76,13.88,10.43,19.62,18.11Z"/>
            <path class="cls-8" d="m182.96,135.56c-19.31-8.88-29.19,18.92-7.55,19.62,4.78.62,6.9,7.29,6.04,12.07-22.76,9.18-34.28-27.82-18.11-36.22,5.7-2.96,18.95-1.29,19.62,4.53Z"/>
            <path class="cls-16" d="m238.79,226.1c2.1,14.6,5.95,48.22,22.64,46.78.36,2.31-2.53,6.7-3.02,9.05-.19.91-2.1,6.92-3.02,10.56-4.82,19.09-9.72,24.62-10.56,49.8h-1.51c-2.42-23.3-6.25-30.67-15.09-51.31-2.34-5.45-4.34-7.15-4.53-7.55-3.35-7.02-6.75-14.36-10.56-21.13,3.97-3.68,12.47-10.28,15.09-14.34,8.23-12.74,6.67-23.28,10.56-21.88Z"/>
            <path class="cls-15" d="m290.1,129.52c-4.34,6.96,2.12,8.23-4.53,10.56-.32-4.67-27.32-11.28-28.67-2.26-.16,1.09,4.97,17.62,6.04,21.13-2,3.07-14.99-3.75-18.11-3.77-.86-10.09-1.72-25.59-4.53-34.71-4.11-13.38-6.5-5.85-21.13-10.56.41-.95-1.6-2.12-1.51-2.26,1.2-1.99,19.09-14.82,33.2-32.44,9.92-14.94,34.08,36.1,29.43,39.23-36.73-1.96-31.4,10.87,7.55,6.04,1.34.72,1.77,7.49,2.26,9.05Z"/>
            <path class="cls-8" d="m214.65,117.45c-10.96,7.5-11.78,28.45-18.11,40.74-5.74-7.68-12.23-12.35-19.62-18.11,1.51-1.93,3.81-2.53,6.04-4.53.76-.68,2.19,2.96,4.53.75,1.8-1.69,4.75-22.24,21.88-21.88.5.01,4.98,2.98,5.28,3.02Z"/>
            <path class="cls-28" d="m182.96,135.56c-2.23,1.99-4.52,2.59-6.04,4.53-7.02,8.99,5.3,7.2-1.51,15.09-21.65-.7-11.76-28.5,7.55-19.62Z"/>
            <path class="cls-16" d="m240.3,120.47c2.8,9.12,3.66,24.62,4.53,34.71-.24,0-3.36,1.13-4.53,1.51q-1.51-18.11-3.02-36.22h3.02Z"/>
            <g>
              <path class="cls-6" d="m237.28,120.47q1.51,18.11,3.02,36.22c-15.21,4.96-4.38,10.85.75,19.62-17.14-.38-30.93-15.64-30.94-9.81,28.41,48.15,63.74,15.39,66.4,4.53,3.32-13.58-16.58,6.39-21.88,6.79-13.47,1.01-8.84-9.91,14.34-17.35-7.2-4.11-5.62-14.95-9.05-22.64,1.29-2.87,9.72,7.85,25.65,2.26,6.65-2.33.19-3.61,4.53-10.56.51,1.63,2.96,11.45,3.02,12.07.02.23,0,3.79,0,4.53-.12,10.56-4.28,29.53-9.05,39.23-6,12.18-17.34,21.56-28.67,28.67-36.58,1.92-46.87-39.8-58.85-55.83,6.32-12.29,7.15-33.24,18.11-40.74,7.57.9,15,2.7,22.64,3.02Z"/>
              <path class="cls-26" d="m210.88,134.05c3.92-1.65,36.74,1.72,16.6,7.55-11.62,3.36-24.69-4.14-16.6-7.55Z"/>
            </g>
            <g>
              <path class="cls-26" d="m285.57,140.08c-15.93,5.59-24.36-5.13-25.65-2.26,3.43,7.68,1.85,18.53,9.05,22.64-23.17,7.44-27.8,18.37-14.34,17.35,5.31-.4,25.21-20.37,21.88-6.79-2.66,10.86-37.98,43.62-66.4-4.53,0-5.83,13.79,9.43,30.94,9.81-5.13-8.77-15.97-14.66-.75-19.62,1.17-.38,4.29-1.51,4.53-1.51,3.12.02,16.11,6.85,18.11,3.77-1.07-3.5-6.2-20.04-6.04-21.13,1.35-9.02,28.35-2.41,28.67,2.26Z"/>
              <path class="cls-49" d="m227.48,177.81l35.46,2.26c-8.16,14.37-27.64,10.57-35.46-2.26Z"/>
            </g>
          </g>
        </g>
      </g>
    </g>
  </g>
</svg>