<svg width="36" height="36" viewBox="0 0 36 36" fill="none" xmlns="http://www.w3.org/2000/svg">
<g clip-path="url(#clip0_1057_3090)">
<path d="M17.9995 35.9825C27.8466 35.9825 35.9995 27.8159 35.9995 17.9912C35.9995 8.14897 27.8289 0 17.9818 0C8.15245 0 -0.000488281 8.14897 -0.000488281 17.9912C-0.000488281 27.8159 8.17008 35.9825 17.9995 35.9825ZM12.5995 26.3342C11.823 26.3342 11.2407 25.7873 11.2407 25.0643C11.2407 24.6939 11.3289 24.447 11.5583 24.1117L16.1818 17.7266L11.823 11.7296C11.523 11.3239 11.4348 11.0769 11.4348 10.6713C11.4348 9.93045 12.0877 9.3131 12.8642 9.3131C13.4819 9.3131 13.8348 9.5424 14.2583 10.1245L18.123 15.7335H18.2112L22.023 10.1421C22.4112 9.5424 22.7818 9.3131 23.3465 9.3131C24.123 9.3131 24.7229 9.87753 24.7229 10.6007C24.7229 10.9358 24.6348 11.2357 24.37 11.5708L19.7819 17.8148L24.3348 24.0411C24.5818 24.3586 24.6877 24.6233 24.6877 24.9937C24.6877 25.7873 24.07 26.3342 23.2406 26.3342C22.6759 26.3342 22.3407 26.1226 21.8819 25.4875L17.9642 19.8961H17.8936L13.9583 25.4875C13.4819 26.1226 13.1818 26.3342 12.5995 26.3342Z" />
</g>
<defs>
<clipPath id="clip0_1057_3090">
<rect width="36" height="36"/>
</clipPath>
</defs>
</svg>
