<?xml version="1.0" encoding="UTF-8"?>
<svg id="Layer_2" data-name="Layer 2" xmlns="http://www.w3.org/2000/svg" viewBox="0 0 274.83 340.8">
  <defs>
    <style>
      .cls-1 {
        fill: #f4be9a;
      }

      .cls-1, .cls-2, .cls-3, .cls-4, .cls-5, .cls-6, .cls-7, .cls-8, .cls-9, .cls-10, .cls-11, .cls-12, .cls-13, .cls-14, .cls-15, .cls-16, .cls-17, .cls-18, .cls-19, .cls-20, .cls-21, .cls-22, .cls-23, .cls-24, .cls-25, .cls-26, .cls-27, .cls-28, .cls-29, .cls-30, .cls-31, .cls-32, .cls-33, .cls-34, .cls-35, .cls-36, .cls-37, .cls-38, .cls-39, .cls-40, .cls-41, .cls-42, .cls-43, .cls-44, .cls-45 {
        stroke-width: 0px;
      }

      .cls-2 {
        fill: #fad7b5;
      }

      .cls-3 {
        fill: #4c5c36;
      }

      .cls-4 {
        fill: #603f2f;
      }

      .cls-5 {
        fill: #604a2f;
      }

      .cls-6 {
        fill: #7c6243;
      }

      .cls-7 {
        fill: #4f2d24;
      }

      .cls-8 {
        fill: #2b100e;
      }

      .cls-9 {
        fill: #5c2316;
      }

      .cls-10 {
        fill: #5b6a3d;
      }

      .cls-11 {
        fill: #46494e;
      }

      .cls-12 {
        fill: #87905a;
      }

      .cls-13 {
        fill: #a28052;
      }

      .cls-14 {
        fill: #2f3235;
      }

      .cls-15 {
        fill: #39160f;
      }

      .cls-16 {
        fill: #1a2f1d;
      }

      .cls-17 {
        fill: #142a22;
      }

      .cls-18 {
        fill: #424620;
      }

      .cls-19 {
        fill: #0b090a;
      }

      .cls-20 {
        fill: #a96443;
      }

      .cls-21 {
        fill: #1e1e21;
      }

      .cls-22 {
        fill: #24160e;
      }

      .cls-23 {
        fill: #d4ab73;
      }

      .cls-24 {
        fill: #dccbb9;
      }

      .cls-25 {
        fill: #c8beb4;
      }

      .cls-26 {
        fill: #c9734c;
      }

      .cls-27 {
        fill: #dbd1ce;
      }

      .cls-28 {
        fill: #dbaa81;
      }

      .cls-29 {
        fill: #aa7160;
      }

      .cls-30 {
        fill: #cdc98a;
      }

      .cls-31 {
        fill: #b4b372;
      }

      .cls-32 {
        fill: #9d908e;
      }

      .cls-33 {
        fill: #a19d65;
      }

      .cls-34 {
        fill: #b78e5c;
      }

      .cls-35 {
        fill: #301914;
      }

      .cls-36 {
        fill: #304426;
      }

      .cls-37 {
        fill: #6d3b31;
      }

      .cls-38 {
        fill: #6b7844;
      }

      .cls-39 {
        fill: #816559;
      }

      .cls-40 {
        fill: #82422b;
      }

      .cls-41 {
        fill: #752c20;
      }

      .cls-42 {
        fill: #fff;
      }

      .cls-43 {
        fill: #e7c38c;
      }

      .cls-44 {
        fill: #e4ddaf;
      }

      .cls-45 {
        fill: #e9e6e2;
      }
    </style>
  </defs>
  <g id="Layer_1-2" data-name="Layer 1">
    <g>
      <g>
        <path class="cls-33" d="m259.45,183.47c-11.04,9.82-22.46,19.42-33.91,28.78-1.25-.53-1.27-.14-1.97,0-15.15-3.83-30.2-8.4-45.34-12.22-.03-.25.06-.59,0-.79,2.6-1.95,3.9-5.08,5.91-7.49.58-.69,2.06-1.97,2.76-2.76.38.17,2.45.05,2.56,0,4.13-1.96,34.33-29.56,41.6-34.7,14.73,4.52,29.13,10.35,43.77,15.18-5.37,4.38-10.21,9.4-15.38,14Z"/>
        <path class="cls-31" d="m231.06,154.29c-7.27,5.14-37.46,32.74-41.6,34.7-.12.05-2.18.17-2.56,0,4.39-4.97,34.54-34.98,37.66-36.28,2.51-1.04,5.33,1.21,6.51,1.58Z"/>
      </g>
      <g>
        <path class="cls-14" d="m207.79,109.34c-.98,3.15-2.06,5.01-2.76,7.1-.22.66-1.14,2.09-1.18,2.76-.08,1.19.39,1.3.39,1.58-.7-.05-.81,2.24-.79,2.37-1.02-1.42-2.94,4.25-3.55,5.91-.46,1.24-1.21,1-1.18,2.76,0,.4-.07.97,0,1.18-.98.59-1.46,2.13-1.97,3.15-.05.1-.14.74-.79,1.97-1.27,2.41-4.48,7.2-5.13,8.67-11.91,2.99-24.02,4.62-36.28,5.52-.26-.02-.53.02-.79,0-1.56-.13-3.19-.02-4.73-.39-1.43-.77.34-2.66.79-3.94,8.11,1.09,33.86-.83,39.63-5.52,5.41-4.41,14.66-31.43,17.35-33.12.13-.08.61.04.99,0Z"/>
        <path class="cls-21" d="m180.98,105.01c1.92,0,4.38.74,6.31.79-.03.33.15,1.06-.2,1.18-1.38.47-18.29-.35-22.47,0-5.39,13.22-10,27.34-14.79,41.01-.45,1.28-2.22,3.18-.79,3.94-.83-.2-2.76-.23-3.15-.99-.48-.93.85-3.73.79-4.93.22-.17.82-.31.79-.79l3.94-7.29c-1.49-2.84.61-6.69,1.58-9.66,1.36-4.2,5.77-19.3,8.48-21.29,3.71-2.73,14.72-1.96,19.52-1.97Z"/>
        <g>
          <path class="cls-11" d="m207.79,109.34c-.38.04-.85-.08-.99,0-2.69,1.69-11.94,28.71-17.35,33.12-5.76,4.69-31.52,6.61-39.63,5.52,4.79-13.67,9.4-27.79,14.79-41.01,4.18-.35,21.09.47,22.47,0,.35-.12.16-.85.2-1.18,2.3.06,13.75-1.11,14.39-.79.79.39-1.4,2.72,7.1,1.97.1,1.31-.95,2.24-.99,2.37Z"/>
          <path class="cls-19" d="m173.29,110.53c6.84-1.03,6.46,5.64,0,6.7-6.71,1.11-5.15-5.93,0-6.7Z"/>
        </g>
      </g>
      <g>
        <path class="cls-39" d="m49.68,298.61c.07,1.61,1.02,3.23,1.58,4.73-.11.69-.3,1.38-.39,1.97-.72,4.68-.65,8.62-1.58,9.46h-1.18c-.12-1.29.05-2.64,0-3.94-.02-.52.02-1.05,0-1.58-.12-3.67.09-7.37,0-11.04l1.58.39Z"/>
        <path class="cls-7" d="m129.33,228.82c-.41,3.77,1.05,9.34-1.18,11.04-8.09,8.21-18.58,22.14-25.63,29.38-.42.43-1.45.07-1.58.2-1.98-.2-3.95-.52-5.91-.79-19.59-2.63-37.22-8.73-39.23-8.67-1.63.04-2.95,6.33-3.35,7.89-1.53.1-.92,4.21-3.94,6.11l-.39,21.88c-.07-3.43-.36-6.84-.39-10.25-.12-12.48.09-24.97,0-37.46,15.39,4.24,30.89,8.15,46.33,12.22q17.25-15.77,34.5-31.54c.26,0,.53.03.79,0Z"/>
        <path class="cls-30" d="m47.71,210.68c-.21,1.63-1.5,2.46-2.37,3.94-7.38,2.38-23.27,9.95-28.39,11.43-5.17,1.5-3.3-.45,1.97-3.55,4.46-2.62,23.15-9.99,28.78-11.83Z"/>
        <path class="cls-4" d="m52.44,267.85c-2.6,10.1-.88,11.04-1.18,19.52-.14,3.81-1.65,9.61-1.58,11.24l-1.58-.39c-.02-.79.02-1.58,0-2.37l.39-21.88c3.02-1.9,2.41-6.02,3.94-6.11Z"/>
        <path class="cls-35" d="m49.29,314.77c.94-.05,1.84.24,2.76.39,9.93,1.67,19.76,4.08,29.57,6.31,11.18,3.72,22.96,5.23,34.3,8.28,2.76.74,6.73,1.65,9.07,2.37,1.07.33,3,.72,3.15.79,3.56,1.53,1.33,3.08,1.97,6.7-.97-.39-17.06-3.23-20.5-3.94-6.72-1.39-13.43-2.74-20.11-4.34-13.63-3.26-27.11-7.07-40.42-11.43-.25-.24-.39-1.41-.59-1.97-.04-.11-.37-1.41-.39-1.58-.08-.5.05-1.06,0-1.58h1.18Z"/>
        <g>
          <path class="cls-43" d="m96.6,193.72c.29.35,1.76,4.12,3.55,4.73.08.66,2.22-.25,4.34-.39,12.59-.85,25.77-4.17,38.25-6.31.58,1.37-.77,1.25,3.15,1.97-10.38.59-41.76,6.73-55.6,9.07,3.17-2.3,5.85.26,2.37-4.93-4.08-6.08-34.82-35.19-43.18-42.78-3.02-.85-36.66,8.55-43.18,9.46-.44-.26-4.85-2.3-5.13-2.37-.49-1.34.04-1.14,0-1.18q25.53-5.32,51.06-10.65c15.91,13.22,31.09,27.46,44.36,43.37Z"/>
          <path class="cls-5" d="m1.18,162.18c.28.06,4.68,2.11,5.13,2.37,9.65,5.63,37.59,34.65,47.32,44.56-.7.17-1.65-.39-1.97.79l-2.17-.39c-.29.18-1.3.77-1.38.79-9.82-9.06-19.4-18.48-28.78-28-6.52-6.61-12.69-13.6-19.32-20.11.23-.9.71-.11,1.18,0Z"/>
          <path class="cls-43" d="m90.29,202.79c-11.53,1.95-25.61,3.61-36.67,6.31-9.73-9.91-37.66-38.93-47.32-44.56,6.51-.92,40.16-10.31,43.18-9.46,8.36,7.59,39.09,36.7,43.18,42.78,3.48,5.19.8,2.62-2.37,4.93Z"/>
        </g>
        <path class="cls-33" d="m51.65,209.89c6.26,1.77,12.59,3.25,18.93,4.73,14.77,3.46,29.39,7.62,44.16,11.04,3.1.72,11.68,3.22,13.8,3.15q-17.25,15.77-34.5,31.54c-15.44-4.07-30.94-7.99-46.33-12.22-5.65-1.55-11.2-3.35-16.95-4.53,4.82-9.6,9.17-19.71,14.59-28.98.87-1.48,2.16-2.31,2.37-3.94.56-.18.37-.39.39-.39.08-.02,1.09-.61,1.38-.79l2.17.39Z"/>
        <path class="cls-30" d="m231.45,219.75c-.3-2.12-2.67-4.31-1.97-5.91,9.92,2.17,20.12,2.78,29.97,5.32,0,1.4-25.89.21-28,.59Z"/>
        <g>
          <path class="cls-7" d="m135.24,227.24c4.29.27,11.21,4.18,15.38,5.91-3.8,9.8-6.57,19.56-7.89,29.97-.51,4.04-.89,7.76-1.18,11.83h-1.58c-.03-6.85-.58-7.17-1.97-13.41-.9-4-.87-8.68-3.55-12.03,1.4,11.16-1.37,80.39,0,84.38.12.35.85.16,1.18.2-2.7,1.58-3.24,5.96,2.76,5.13-1.99.32-4.03.82-5.91,1.58h-1.18c-.53.04-1.11-1.15-1.18-1.18-.64-3.63,1.59-5.17-1.97-6.7v-93.05c2.23-1.7.78-7.28,1.18-11.04,1.34-.14,2.6-1.79,5.91-1.58Z"/>
          <path class="cls-37" d="m228.3,221.72c-.08,21.57-1,43.11-1.58,64.66-.23,8.4-.15,16.83-.39,25.24-.12,4.06.4,4.87.39,5.13-.07,2.51-.76,5.13-.39,7.69-.34.77-2.46.62-3.94.99-5.34,1.32-16.15,2.88-22.47,3.94-17.31,2.92-34.71,5.5-52.05,8.28-3.16.51-6.31,1.07-9.46,1.58-6,.83-5.46-3.54-2.76-5.13,3.27-1.91,64.3-13.27,74.13-15.38,1.48-.32,11.5-1.56,11.83-2.17-.14-7.51,2.37-37.1,1.58-40.61-.1-.42-.45.45-1.18-.2,2.52-16.47,1.59-35.79,3.15-52.64,1.48-1.43,3.01-1.29,3.15-1.38Z"/>
          <path class="cls-43" d="m225.54,212.26c.66,1.33,2.67,1.3,3.94,1.58-.7,1.61,1.67,3.8,1.97,5.91-1.03.19-2.3,1.45-3.15,1.97-.15.09-1.67-.05-3.15,1.38-1.56,16.85-.64,36.16-3.15,52.64-1.96,12.83-8.12,30.25-12.22,42.98-9.83,2.11-70.86,13.46-74.13,15.38-.33-.03-1.06.15-1.18-.2-1.37-3.99,1.4-73.22,0-84.38,2.68,3.34,2.65,8.02,3.55,12.03-.27,0-.72-.1-.79.2-.95,4.02.9,16.9,1.58,21.88.51,3.74,1.28,7.44,1.18,11.24h.79c-.06-5.83.43-11.73.79-17.55,33.55-5.42,49.26-5.66,71.37-33.32.68-.86,1.94-2.03,1.18-2.96,1.81-1.16,3.8-1.87,5.13-3.75l2.56-14c-21.67,3.58-43.29,7.53-64.66,12.62l-2.17-.39c-1.31-.92-2.87-1.75-4.34-2.37-4.17-1.74-11.09-5.64-15.38-5.91,0-.27-.1-.71.2-.79,13.03-3.3,57-9.7,74.72-12.62,4.14-.68,9.45-.77,13.41-1.58.71-.14.72-.53,1.97,0Z"/>
          <path class="cls-23" d="m141.55,277.32c.05-.78-.06-1.58,0-2.37.29-4.07.67-7.78,1.18-11.83.52-.18,1.06-.63,1.58-.79,19.58-6.1,53.26-10.71,69.79-21.29.76.93-.5,2.1-1.18,2.96-22.11,27.66-37.82,27.9-71.37,33.32Z"/>
          <path class="cls-6" d="m154.96,235.52c-3.45,8.97-8.64,17.33-10.65,26.81-.51.16-1.06.61-1.58.79,1.32-10.41,4.09-20.17,7.89-29.97,1.47.61,3.03,1.44,4.34,2.37Z"/>
          <path class="cls-34" d="m138,261.54c1.4,6.24,1.94,6.56,1.97,13.41.01,2.51.72,8.44-1.18,8.67-.67-4.98-2.53-17.87-1.58-21.88.07-.29.52-.2.79-.2Z"/>
          <path class="cls-13" d="m141.55,274.95c-.06.78.05,1.58,0,2.37-.35,5.82-.85,11.72-.79,17.55h-.79c.1-3.8-.68-7.5-1.18-11.24,1.9-.24,1.2-6.17,1.18-8.67h1.58Z"/>
          <path class="cls-34" d="m209.77,318.72c4.11-12.72,10.26-30.15,12.22-42.98.73.65,1.09-.22,1.18.2.8,3.51-1.72,33.11-1.58,40.61-.33.61-10.35,1.85-11.83,2.17Z"/>
          <path class="cls-13" d="m214.1,241.04c-16.53,10.58-50.21,15.19-69.79,21.29,2.01-9.48,7.19-17.84,10.65-26.81l2.17.39c21.38-5.09,42.99-9.04,64.66-12.62l-2.56,14c-1.33,1.88-3.31,2.58-5.13,3.75Z"/>
        </g>
        <g>
          <path class="cls-13" d="m128.15,332.91c-.15-.06-2.08-.46-3.15-.79-4.45-13.84-6.48-28.1-7.29-42.58-.89,12.05-1.44,24.19-1.38,36.28l-34.7-4.34c-9.81-2.23-19.65-4.64-29.57-6.31.16-3.37-.05-6.65-1.18-9.86.09-.59.28-1.28.39-1.97,1.59-9.87,3.15-19.8,5.32-29.57,10.42,3.52,20.93,6.94,31.74,9.07l.79.2c2.71-5.63,7.65-9.32,11.83-13.6.12-.13,1.16.24,1.58-.2,7.05-7.24,17.54-21.16,25.63-29.38v93.05Z"/>
          <path class="cls-43" d="m52.05,315.17c-.92-.16-1.82-.44-2.76-.39.92-.85.86-4.78,1.58-9.46,1.14,3.21,1.34,6.48,1.18,9.86Z"/>
          <g>
            <path class="cls-6" d="m95.03,268.64l-6.7,14.19c-10.81-2.13-21.32-5.55-31.74-9.07-2.17,9.77-3.73,19.7-5.32,29.57-.56-1.5-1.51-3.12-1.58-4.73-.07-1.63,1.44-7.43,1.58-11.24.3-8.48-1.42-9.41,1.18-19.52.4-1.55,1.72-7.84,3.35-7.89,2.01-.05,19.64,6.04,39.23,8.67Z"/>
            <path class="cls-13" d="m100.94,269.43c-4.18,4.29-9.12,7.97-11.83,13.6l-.79-.2,6.7-14.19c1.97.26,3.94.59,5.91.79Z"/>
          </g>
          <path class="cls-5" d="m124.99,332.12c-2.34-.72-6.31-1.62-9.07-2.37.92.02.41-1.68.39-3.94-.06-12.08.49-24.23,1.38-36.28.82,14.49,2.85,28.74,7.29,42.58Z"/>
          <path class="cls-6" d="m116.32,325.81c.01,2.26.53,3.97-.39,3.94-11.34-3.05-23.12-4.56-34.3-8.28l34.7,4.34Z"/>
        </g>
        <g>
          <path class="cls-35" d="m210.16,213.83c-17.72,2.91-61.69,9.32-74.72,12.62-.29.07-.2.52-.2.79-3.31-.21-4.57,1.44-5.91,1.58-.26.03-.53,0-.79,0-2.12.07-10.7-2.44-13.8-3.15,4.75-.87,26.8-10.98,28.98-12.62,5.88-4.41,4.2-10.34,4.53-16.95.42-.5.35-1.51.59-1.58.44,1.14,2.83,2.28,3.94,2.76,18.78,8.14,40.55,15.86,61.12,14.98v.79l-3.75.79Z"/>
          <path class="cls-37" d="m152.2,193.72c1.98.21,3.62.81,5.52,1.18,5.89,1.16,11.9,2.87,17.74,4.34.91.23,1.82.55,2.76.79,15.14,3.82,30.19,8.4,45.34,12.22-3.95.8-9.27.9-13.41,1.58l3.75-.79v-.79c-20.57.88-42.34-6.84-61.12-14.98-1.11-.48-3.51-1.62-3.94-2.76-.24.07-.17,1.07-.59,1.58-20.18,23.96-44.53,15.35-71.56,16.95-1.88.11-6.1.17-6.11,1.58-6.33-1.49-12.67-2.96-18.93-4.73.32-1.17,1.27-.62,1.97-.79,11.06-2.7,25.14-4.36,36.67-6.31,13.84-2.34,45.21-8.48,55.6-9.07,2.38-.13,3.87-.26,6.31,0Z"/>
          <path class="cls-7" d="m114.74,225.66c-14.77-3.42-29.39-7.58-44.16-11.04.01-1.41,4.23-1.47,6.11-1.58,27.03-1.6,51.39,7.01,71.56-16.95-.33,6.61,1.35,12.55-4.53,16.95-2.18,1.63-24.23,11.75-28.98,12.62Z"/>
        </g>
      </g>
      <g>
        <path class="cls-20" d="m207.79,128.27c-1.88,6.88-7.43,9.44-9.07,4.73-.07-.21,0-.78,0-1.18,3.45-1.49,6.01-.51,9.07-3.55Z"/>
        <path class="cls-45" d="m122.23,69.52c-2.89,1.61-.39-.87-2.76-1.18.89-1.86,2.42-3.72,1.18-5.52,1.52-1.12,3.43-4.38,4.73-5.91-.82,3.6-1.01,9.09-1.18,9.66-.19.63-1.57,2.07-1.97,2.96Z"/>
        <path class="cls-8" d="m203.46,123.15c-.03-.12.09-2.42.79-2.37,0,1.12.67,2.29.39,3.75h-.79c.18-.77-.31-.98-.39-1.38Z"/>
        <g>
          <path class="cls-19" d="m173.89,44.29c-.1,15.88-5.03,10.28-5.52,10.84-.39.45-.42,5.17-6.11,10.05-1.49-2.2-4.88,1.31-13.21,1.97-2.43.19-4.68,0-7.1,0-.47.04-.34-.28-.39-.39-.06-.15-.35-2.65-.39-3.15-.07-.8.19-1.93,0-2.76.49-.03,1.84-.65,2.37-.79,5.59-1.43,12.47-7.9,14.19-13.21,2.05-6.28-.77-24.52-6.9-28.59-4.05-2.69-11.23-3.6-15.57-1.58-3.36,1.56-12.73,15.2-13.41,17.15-1.45,4.23-.46,7.66,1.18,11.63-2.98,2.31-3.06-8.86-7.29-11.04-7.28-3.76-7.02,6.15-3.35,5.52-2.58,5.49,6.68,9.27,5.91,1.18,3.03,3.8,3.6,8.64,7.89,13.01.16.96-.6,1.95-.79,2.76-1.31,1.54-3.21,4.79-4.73,5.91-1.24.92-5.39,2.58-6.9,2.76-2.69.32-11.93.27-14.59-.79-6.78-6.58-14.12-6.1-13.21-17.15-.66-.6-1.32-1.28-1.58-2.17-1.47-5.12.71-3.12.79-3.35.21-.59.06-6.08.39-7.89,1.91-10.32,7.73-9.55,17.15-16.76,3.23-2.62.13-4.08,5.91-9.46,6.62-6.16,12.73-6.74,21.29-4.34,11.01-10.78,32.4,4.23,32.14,18.33,5.47,2.8,10.89,10.23,11.83,16.17.18,1.11-.8,1.44-.79,1.58.07.62.8,1.89.79,4.53Z"/>
          <path class="cls-42" d="m118.29,41.13c.77,8.08-8.49,4.31-5.91-1.18,1.7-3.63,4.43-.69,5.91,1.18Z"/>
          <g>
            <path class="cls-40" d="m207.79,128.27c-3.06,3.04-5.62,2.06-9.07,3.55-.03-1.76.73-1.52,1.18-2.76,6.02,1.74,9.62-7.37,3.94-9.86.04-.68.96-2.1,1.18-2.76,5.05.38,3.78,8.1,2.76,11.83Z"/>
            <path class="cls-20" d="m199.91,129.06c.61-1.67,2.53-7.34,3.55-5.91.09.4.58.61.39,1.38h.79c.27-1.46-.39-2.63-.39-3.75,0-.27-.47-.39-.39-1.58,5.67,2.49,2.08,11.59-3.94,9.86Z"/>
            <g>
              <path class="cls-37" d="m149.83,128.27c1.03-.11,2.12.08,3.15,0-.96,2.97-3.07,6.82-1.58,9.66l-3.94,7.29c-3.74,1.5-8.5,2.17-11.43,4.14-.14.09.23,1.11-.2,1.38-.35.22-6.26,1.27-6.9-2.17-1.13-6.1,8.77-5.98,11.83-10.84,1.76-2.81,2.21-6.91,5.91-8.67,1.01-.48,2.03-.67,3.15-.79Z"/>
              <path class="cls-7" d="m140.76,137.73c-3.06,4.86-12.96,4.74-11.83,10.84.64,3.44,6.55,2.39,6.9,2.17.43-.27.06-1.29.2-1.38,2.93-1.97,7.69-2.64,11.43-4.14.03.48-.57.62-.79.79-1.25.95-7.41,2.4-9.66,3.15-.72.8.41,3.04.59,3.94-5.23.86-8.76,1.43-10.25-4.53-1.7-6.79,1.09-5.95,5.91-8.08,2.38-1.05,5.06-1.79,7.49-2.76Z"/>
            </g>
            <g>
              <path class="cls-41" d="m143.52,60.06c-.52.13-1.87.76-2.37.79-3.95.25-7.36-1.54-10.65-3.55,2.45-2.72-4.01-3.41-7.49-11.83-1.64-3.97-2.63-7.41-1.18-11.63.67-1.95,10.04-15.59,13.41-17.15-6.19,14-10.95,8.24-7.49,26.22,1.77,9.2,5.49,16.12,15.77,17.15Z"/>
              <path class="cls-20" d="m141.55,66.76c.05.12-.08.43.39.39-.27,2.17.39,3,.39,3.15-.01,3.54-1.71,7.2-2.37,10.65l-7.1.39-5.13-8.48c.29-.4,5.07-.53,9.46-2.96,1.84-1.02,3.16-3.05,4.34-3.15Z"/>
              <path class="cls-15" d="m130.51,57.3c3.28,2.01,6.7,3.8,10.65,3.55.19.83-.07,1.96,0,2.76-3.9,2.07-9.59-.46-12.42-3.55-.95.2-1.56,7.12-4.14,6.9-.17.45.51.6.39,1.38-.28,1.84.17,5.32-1.58,6.31-.33-.47-2.34-2.71-2.37-2.96-.07-.69.9-1.55,1.18-2.17.4-.89,1.79-2.33,1.97-2.96.17-.57.37-6.06,1.18-9.66.18-.81.95-1.8.79-2.76,1.31,1.34,2.76,2.19,4.34,3.15Z"/>
              <path class="cls-41" d="m141.16,63.61c.04.51.33,3.01.39,3.15-1.18.11-2.5,2.14-4.34,3.15.46-4.02-3.79,1.71-12.22-1.58.12-.78-.56-.93-.39-1.38,2.58.22,3.19-6.7,4.14-6.9,2.83,3.09,8.52,5.62,12.42,3.55Z"/>
              <path class="cls-15" d="m123.02,45.47c3.48,8.42,9.94,9.11,7.49,11.83-1.58-.97-3.03-1.82-4.34-3.15-4.28-4.37-4.86-9.21-7.89-13.01-1.49-1.87-4.21-4.82-5.91-1.18-3.67.63-3.93-9.28,3.35-5.52,4.23,2.18,4.31,13.35,7.29,11.04Z"/>
              <path class="cls-9" d="m143.92,77.01c-.55,2.1-2.38,4.54-2.37,7.49-.08.46-.24,1.16-.39,1.58-.29.76-3.29,7.17-3.55,7.49-2.69-1.49-4.12-7.83-4.73-9.07,2.22-1.4,8.92,1.4,8.67-2.56-.05-.8-1.05-.79-1.58-.99.65-3.44,2.35-7.1,2.37-10.65,3.92.29,2.3,3.96,1.58,6.7Z"/>
              <path class="cls-41" d="m137.22,69.91c-4.4,2.43-9.18,2.55-9.46,2.96l5.13,8.48-.79,1.58-.59-1.58c-3.36-1.39-6.01-3.81-8.08-6.7,1.75-.99,1.29-4.46,1.58-6.31,8.43,3.29,12.69-2.45,12.22,1.58Z"/>
              <path class="cls-40" d="m132.88,84.5c-.25-.51-.59-1.03-.79-1.58l.79-1.58,7.1-.39c.52.2,1.53.18,1.58.99.24,3.97-6.45,1.16-8.67,2.56Z"/>
              <g>
                <path class="cls-26" d="m143.52,60.06c-10.28-1.03-14-7.95-15.77-17.15-3.46-17.98,1.3-12.22,7.49-26.22,4.35-2.02,11.53-1.11,15.57,1.58,6.13,4.07,8.95,22.31,6.9,28.59-1.73,5.31-8.61,11.78-14.19,13.21Z"/>
                <g>
                  <path class="cls-15" d="m138.4,46.65c-.47-.04-2.41-.5-2.96-.79-.8.32,4.28,6.85,10.25,5.52,1.92-.43,5.11-4.75,3.35-5.13.23-.11,3.75-2.88,4.14-2.76,3.03.97-5.05,9.65-8.28,10.25-6.38,1.19-17.66-10.1-14.59-10.25.47-.02,9.4,2.98,8.08,3.15Z"/>
                  <path class="cls-42" d="m138.4,46.65c1.01.09,2.24.15,3.15-.39,1.05,2.12,2.97,1.18,3.15,1.18,2.93.06,2.14-.15,4.34-1.18,1.76.38-1.43,4.7-3.35,5.13-5.97,1.33-11.06-5.2-10.25-5.52.54.29,2.49.74,2.96.79Z"/>
                  <path class="cls-35" d="m133.08,24.97c2.79-.58,5.92.17,7.69,2.56-.02.68-7.64-.47-12.81,3.75-.8-2.34,3.41-5.95,5.13-6.31Z"/>
                  <path class="cls-15" d="m144.71,47.44c-.19,0-2.1.93-3.15-1.18-3.89-7.8,6.06-10.13,3.15,1.18Z"/>
                  <path class="cls-22" d="m134.26,33.25c2.47-.35,6.38.65,5.72,2.17-14.03,4.04-9.75-1.6-5.72-2.17Z"/>
                  <path class="cls-35" d="m152,34.82c1.93-.46,4.14.11,5.32,1.77.01,1.3-3.81-2.06-6.9,1.38-1.93-.67.5-2.9,1.58-3.15Z"/>
                  <path class="cls-22" d="m152,26.94c.41-.04,2.64.33,2.76.39,6.22,3.17-11.58.51-2.76-.39Z"/>
                </g>
              </g>
            </g>
          </g>
        </g>
        <g>
          <path class="cls-30" d="m157.72,77.8c-.93,11.75-5.37,23-6.11,34.7,4.17-10.66,7.52-21.67,8.48-33.12,3.81,2.94,7.18,6.37,10.25,10.05,3.99,4.79,6.93,11.04,11.43,14.98l-.79.59c-4.8,0-15.8-.76-19.52,1.97-2.71,1.99-7.11,17.09-8.48,21.29-1.04.08-2.13-.11-3.15,0-.54-4.02.73-8.07.79-12.03.03-1.98-.8-1.2-.79-1.77.27,0,.72.1.79-.2.28-1.18,1.65-23.04,1.58-24.25,4.33.79-.2-11.76-2.76-16.17-.11-2.02,5.4,1.98,8.28,3.94Z"/>
          <path class="cls-30" d="m171.52,155.48c.02.13-.02.27,0,.39,1.32,8.2,2.41,8.7,3.15,11.04,2.63,8.31,5.95,16.72,9.46,24.84-2.01,2.41-3.32,5.54-5.91,7.49-4.13-14.53-8.47-29.03-11.83-43.77,1.71.04,3.42-.03,5.13,0Z"/>
          <path class="cls-38" d="m160.08,79.38c-.96,11.45-4.31,22.46-8.48,33.12.74-11.7,5.18-22.94,6.11-34.7.79.54,1.59.98,2.37,1.58Z"/>
          <path class="cls-3" d="m81.62,136.16c1.04,8.73,3.09,17.32,4.34,26.02-1.65,1.97-5.72,6.69-7.49,6.31-7.64-13.94-3.84-42.08,1.18-56.78,3.36,2.89.8,7.2.79,8.87-.04,5.37.55,10.27,1.18,15.57Z"/>
          <path class="cls-36" d="m103.7,75.04c-4.69,2.1-5.31.44-4.34,3.15-2.02.28-2.13,1.79-1.58,3.35.51,1.43,12.43,17.78,16.95,25.24,5.2,8.57,10.09,17.26,14.59,26.22.96,1.91,1.76,4.06,2.76,5.91-2.09.55-1.88-.03-1.97,0,1.8-.02-2.3-7.56-3.15-8.87-.94-1.45-5.45-6.02-7.89-9.46-3.44-4.86-6.54-13.89-7.89-10.05-1.34-2.87-3.01-7.36-4.34-9.66-5.45-9.47-7.66-8.2-12.62-8.08-1.52.04-3.29.22-4.73-.39,2.42-3.08,3.5-4.57,7.1-6.9-3.35-6.15.35-10.53,7.1-10.45Z"/>
          <path class="cls-38" d="m112.77,73.46c-6.24.1-.29,6.01,2.76,14.39,2.32,6.37,3.62,13.27,6.31,19.52h-1.18c-2.63-5.28-15.19-30.02-21.29-29.18-.97-2.72-.35-1.05,4.34-3.15.03-.01-.15-.15.39-.39,3.13.21,3.94-2.02,8.67-1.18Z"/>
          <path class="cls-36" d="m96.6,150.35c-1.53.35-3.02,4.88-5.91,9.07-2.64,3.82-5.93,7.42-9.07,10.84,9.4,5.7,22.47-.84,20.11,4.14-4.64,1.44-7.18,1.19-9.46,2.37-6.51-.18-10.54-2.33-13.8-8.28,1.77.38,5.84-4.34,7.49-6.31.17-.21.49-1.1,1.18-1.97,2.96-3.73,8.44-12.34,9.07-12.81,1.57-1.18.6.41.39,2.96Z"/>
          <path class="cls-10" d="m84.77,108.56c-1.81,9.71-3.51,17.53-3.15,27.6-.63-5.3-1.22-10.21-1.18-15.57.01-1.67,2.57-5.98-.79-8.87,1.83-5.35,4.19-10.15,7.1-14.98-.07,4.09-1.24,7.87-1.97,11.83Z"/>
          <path class="cls-10" d="m94.24,92.78c-3.7,4.27-5.39,11.77-6.31,17.35-.7-1.55-1.4-1.71-3.15-1.58.74-3.96,1.9-7.73,1.97-11.83,1.13-1.88,1.08-2.21,2.76-4.34,1.44.62,3.21.43,4.73.39Z"/>
          <path class="cls-33" d="m119.47,166.91c-3.11,1.98-5.69,3.56-9.07,5.13-3.33,1.54-8.31,3.76-11.83,4.34-1.55.26-4.69.44-6.31.39,2.28-1.18,4.82-.93,9.46-2.37,6.01-1.86,11.72-5.11,16.56-9.07l1.18,1.58Z"/>
          <path class="cls-18" d="m117.89,70.31c-.6,1.36-1.13,2.92-1.58,4.34-1.17-.25-2.38-.98-3.55-1.18-4.73-.83-5.54,1.39-8.67,1.18,4.38-1.92,9.09-3.61,13.8-4.34Z"/>
          <path class="cls-44" d="m166.39,155.48c3.36,14.74,7.7,29.23,11.83,43.77.06.2-.03.53,0,.79-.94-.24-1.85-.56-2.76-.79-4.87-14.38-10.04-28.76-12.62-43.77.88.15,2.43-.03,3.55,0Z"/>
          <g>
            <path class="cls-10" d="m188.87,151.93c-.38,2-.5,8.97,0,10.84.59,2.21,1.51,2,1.97,2.56,1.94,2.37,1.9,4.46,7.49-3.15-4.91,10.97-15.01,13.99-23.66,4.73-.74-2.34-1.84-2.85-3.15-11.04,6.01-.12,12.02-.98,17.35-3.94Z"/>
            <path class="cls-38" d="m198.73,138.13l-4.34,16.76.59.59c3.6-1.49,6.23-3.97,9.27-6.31-.05.16-.06.63-.39,1.58-4.08,3.14-11.58,10.19-13.01,14.59-.46-.57-1.38-.35-1.97-2.56-.5-1.87-.38-8.84,0-10.84.34-1.79,1.25-3.48,1.97-5.13.64-1.48,3.85-6.26,5.13-8.67.92-.02,1.84.03,2.76,0Z"/>
            <path class="cls-30" d="m204.25,149.17c-3.03,2.34-5.67,4.82-9.27,6.31l-.59-.59,4.34-16.76c1.16-.03,2.61.14,3.55-.79,2.77-.18,5.09-2.21,5.52-1.38-.48,4.7-2.12,8.86-3.55,13.21Z"/>
            <path class="cls-30" d="m203.85,150.75c-1.66,4.68-2.47,7.29-5.52,11.43-5.59,7.61-5.56,5.53-7.49,3.15,1.43-4.4,8.93-11.45,13.01-14.59Z"/>
            <path class="cls-25" d="m202.27,137.34c-.94.93-2.38.75-3.55.79-.92.03-1.84-.02-2.76,0,.65-1.23.74-1.88.79-1.97,1.81,1.09,3.45,1.31,5.52,1.18Z"/>
            <path class="cls-16" d="m190.84,146.8c-.72,1.65-1.63,3.34-1.97,5.13-5.33,2.96-11.34,3.82-17.35,3.94-.02-.13.02-.27,0-.39-.11-.62.24-2.45-.2-2.76-3.59-.15-7.26.18-10.84,0-1.92-.09-3.99-.25-5.91-.39,12.25-.9,24.36-2.53,36.28-5.52Z"/>
            <path class="cls-3" d="m171.52,155.48c-1.71-.03-3.42.04-5.13,0-1.12-.03-2.67.15-3.55,0-2.04-.34-3.7-.24-2.37-2.76,3.58.18,7.25-.15,10.84,0,.44.31.09,2.14.2,2.76Z"/>
          </g>
          <path class="cls-30" d="m154.56,152.32c1.92.15,4,.3,5.91.39-1.34,2.52.33,2.42,2.37,2.76,2.58,15.01,7.75,29.39,12.62,43.77-5.84-1.47-11.85-3.18-17.74-4.34,5.58.32,4.61-.02,2.76-11.04-.43-2.57-1.15-2.41-1.18-2.56-.36-1.6.34-7.38-1.58-7.29.01-7.49-2.3-14.44-3.94-21.69.26.02.53-.02.79,0Z"/>
          <path class="cls-12" d="m87.93,110.13c-2.8,16.98,1.25,33.12-.79,50.08-.69.87-1.01,1.77-1.18,1.97-1.25-8.7-3.29-17.29-4.34-26.02-.36-10.08,1.35-17.89,3.15-27.6,1.75-.13,2.45.03,3.15,1.58Z"/>
          <path class="cls-30" d="m99.36,78.2c6.1-.84,18.66,23.89,21.29,29.18,2.96,5.94,5.63,12.05,8.28,18.14.53,2.25,3.41,10.3.39,7.49-4.5-8.96-9.39-17.66-14.59-26.22-4.52-7.45-16.45-23.8-16.95-25.24-.55-1.56-.45-3.07,1.58-3.35Z"/>
          <path class="cls-3" d="m130.12,138.92c-1.65.54-3.93,1.32-5.52,1.97-5.1-9.81-8.75-20.37-13.41-30.36,1.34-3.84,4.45,5.19,7.89,10.05,2.43,3.44,6.95,8.01,7.89,9.46.85,1.31,4.96,8.85,3.15,8.87Z"/>
          <path class="cls-30" d="m116.32,74.65c-.18.56-.39.37-.39.39-.02.08-.79.6-.79,1.38.04.74,4.5,11.73,5.13,14,.09.34-.09.85,0,1.18,2.01,7.35,3.68,14.7,5.52,22.08-.79.19-3.44-5.15-3.94-6.31-2.69-6.24-3.99-13.14-6.31-19.52-3.05-8.38-9-14.29-2.76-14.39,1.17.21,2.38.94,3.55,1.18Z"/>
          <path class="cls-33" d="m121.84,107.37c.5,1.16,3.15,6.5,3.94,6.31.98,3.96,2.21,7.85,3.15,11.83-2.65-6.09-5.32-12.2-8.28-18.14h1.18Z"/>
          <g>
            <path class="cls-17" d="m111.59,176.77c-8.1,5.96-10.47,7.08-11.43,21.69-1.78-.62-3.26-4.38-3.55-4.73l1.97-17.35c3.52-.58,8.5-2.8,11.83-4.34-.35,1.87.46,3.09,1.18,4.73Z"/>
            <path class="cls-30" d="m138.4,155.48c1.8,10.73,2.23,21.6,3.94,32.33.03.2-.66,1.47.39,3.94-12.47,2.14-25.66,5.45-38.25,6.31,4.9-14.76,9.38-17.72,18.53-28,3.79-4.25,8.33-8.05,10.65-13.41.24-.08,1.65-1.57,4.73-1.18Z"/>
            <path class="cls-10" d="m123.02,170.07c-9.15,10.28-13.63,13.24-18.53,28-2.11.14-4.26,1.06-4.34.39.97-14.61,3.34-15.73,11.43-21.69,2.54-1.87,11.94-8.36,11.43-6.7Z"/>
            <path class="cls-36" d="m133.67,156.66c-2.31,5.35-6.86,9.16-10.65,13.41.51-1.65-8.89,4.83-11.43,6.7-.72-1.64-1.53-2.87-1.18-4.73,3.38-1.56,5.95-3.14,9.07-5.13,4.32-2.75,8.55-5.88,12.22-9.46.41-.1,1.16-.52,1.97-.79Z"/>
          </g>
          <path class="cls-3" d="m115.13,147.59q-.59,7.59-1.18,15.18l10.25-4.53c.25-.03.57.06.79,0-1.24,2.2-4.72,5.47-6.7,7.1-4.84,3.96-10.55,7.21-16.56,9.07,2.36-4.98-10.71,1.56-20.11-4.14,3.14-3.42,6.43-7.03,9.07-10.84,1.01.25-1.01,10.77,2.37,6.51.83-1.04-.03-3.28,2.37-2.17-.21,3.97-.81,6.6.39,3.94,2.53,2.42,4.49-10.63,6.9-15.77l-.99,15.57,2.96-5.72c2,10.42,3.59,3.39,4.93-1.58,1.79-6.66.42-8.34,5.52-12.62Z"/>
          <path class="cls-10" d="m96.6,150.35c-.37,4.47-.95,8.93-1.18,13.41-2.39-1.11-1.54,1.13-2.37,2.17-3.38,4.27-1.36-6.25-2.37-6.51,2.89-4.19,4.38-8.72,5.91-9.07Z"/>
          <path class="cls-31" d="m130.91,157.45c.23-.05.56.06.79,0-3.67,3.59-7.91,6.72-12.22,9.46l-1.18-1.58c1.99-1.63,5.46-4.9,6.7-7.1.29-.07,2.03.09,5.91-.79Z"/>
          <g>
            <path class="cls-29" d="m150.23,90.02c.22,1.41,1.15,1.93,1.18,3.75.04,2.22-1.4,13.34-1.58,20.7-.01.58.82-.2.79,1.77-.06,3.95-1.33,8-.79,12.03-1.12.12-2.14.3-3.15.79,1.13-11.77,1.03-23.72,1.97-35.49.06-.77.46-2.97,1.18-3.55h.39Z"/>
            <path class="cls-37" d="m152.2,90.02c.07,1.21-1.3,23.07-1.58,24.25-.07.29-.52.2-.79.2.18-7.36,1.62-18.48,1.58-20.7-.03-1.81-.96-2.33-1.18-3.75-.02-.12.75-1.15.39-2.37,1.16-.84,1.48.7,1.58,2.37Z"/>
            <path class="cls-2" d="m148.65,93.57c-.94,11.76-.85,23.72-1.97,35.49-3.7,1.77-4.15,5.87-5.91,8.67-2.43.97-5.11,1.71-7.49,2.76-.15-.52-.96-1.17-1.18-1.58-1-1.86-1.8-4-2.76-5.91,3.01,2.8.14-5.24-.39-7.49-.94-3.98-2.17-7.87-3.15-11.83-1.84-7.38-3.51-14.73-5.52-22.08,2.24-.23,14.81,4.59,15.57,4.34,1.51-.49.08-1.75-.2-2.37,1.64.23.9,1.36,1.97,0,.26-.33,3.26-6.73,3.55-7.49,1.81,3.09,3.89,6.19,7.49,7.49Z"/>
            <g>
              <path class="cls-45" d="m149.04,67.15c.25,1.78-3.61-.12-3.94,1.38-.14.62,3.9,4.56,4.34,5.32,2.56,4.41,7.09,16.95,2.76,16.17-.1-1.67-.41-3.21-1.58-2.37-.36-1.25-4.95-10.05-6.7-10.65.72-2.74,2.35-6.41-1.58-6.7,0-.16-.66-.99-.39-3.15,2.41,0,4.67.19,7.1,0Z"/>
              <path class="cls-45" d="m122.23,69.52c-.28.62-1.25,1.48-1.18,2.17.02.25,2.03,2.49,2.37,2.96,2.07,2.89,4.72,5.32,8.08,6.7l.59,1.58c.19.55.54,1.07.79,1.58.61,1.24,2.05,7.58,4.73,9.07-1.07,1.36-.33.23-1.97,0-.92-2-2.47-4.54-4.73-5.13l-14.98-13.41s.22.16.39-.39c.45-1.42.98-2.98,1.58-4.34.18-.4,1.37-1.53,1.58-1.97,2.37.32-.13,2.8,2.76,1.18Z"/>
              <path class="cls-45" d="m150.62,87.66c.35,1.22-.41,2.25-.39,2.37h-.39l-8.28-5.52c0-2.95,1.81-5.39,2.37-7.49,1.75.6,6.34,9.4,6.7,10.65Z"/>
              <path class="cls-27" d="m130.91,88.45c-3.74-.98-7.13,1.12-10.65,1.97-.62-2.27-5.08-13.25-5.13-14,0-.78.77-1.3.79-1.38l14.98,13.41Z"/>
            </g>
            <path class="cls-1" d="m130.91,88.45c2.26.59,3.81,3.13,4.73,5.13.28.61,1.71,1.88.2,2.37-.77.25-13.33-4.57-15.57-4.34-.09-.34.09-.85,0-1.18,3.51-.86,6.9-2.95,10.65-1.97Z"/>
            <g>
              <path class="cls-1" d="m160.48,183.87v7.29c-2.69,1.99-8.11.87-8.28,2.56-2.44-.26-3.93-.13-6.31,0-3.92-.72-2.57-.61-3.15-1.97-1.06-2.48-.36-3.75-.39-3.94,11.43-.67,15.36-1.84,15.38-13.8,1.92-.08,1.22,5.69,1.58,7.29.04.16.75,0,1.18,2.56Z"/>
              <path class="cls-2" d="m149.04,151.93c1.54.37,3.17.27,4.73.39,1.64,7.24,3.95,14.2,3.94,21.69-.02,11.96-3.94,13.13-15.38,13.8-1.71-10.74-2.15-21.6-3.94-32.33-.15-.87-.61-1.48-.79-2.37-.19-.9-1.31-3.15-.59-3.94,2.25-.75,8.41-2.2,9.66-3.15.06,1.2-1.27,4-.79,4.93.39.75,2.32.78,3.15.99Z"/>
              <path class="cls-28" d="m157.72,194.91c-1.9-.37-3.54-.97-5.52-1.18.17-1.7,5.59-.57,8.28-2.56v-7.29c1.85,11.02,2.82,11.36-2.76,11.04Z"/>
            </g>
            <path class="cls-1" d="m149.83,90.02c-.72.57-1.12,2.78-1.18,3.55-3.6-1.3-5.68-4.4-7.49-7.49.16-.42.32-1.12.39-1.58l8.28,5.52Z"/>
          </g>
          <path class="cls-38" d="m109.61,160.21c-1.34,4.97-2.93,11.99-4.93,1.58l-2.96,5.72.99-15.57c-2.41,5.14-4.37,18.19-6.9,15.77,2.05-4.52,2.91-21.21,11.83-17.94-4.47,13.84-3.76,13,1.58.39-.44,3.61-1.01,10.14.39,10.05Z"/>
          <g>
            <path class="cls-30" d="m111.19,110.53c4.65,9.99,8.3,20.55,13.41,30.36-.61.25-1.41.51-1.97.79-5.67,2.75-2.09,4.51-2.76,9.46-.84-1.97-1.16-4.26-1.77-6.31-.17-.11-2.65,2.5-2.96,2.76-5.1,4.27-3.73,5.95-5.52,12.62-1.41.09-.83-6.45-.39-10.05-5.34,12.61-6.05,13.45-1.58-.39-8.91-3.27-9.78,13.42-11.83,17.94-1.2,2.65-.6.03-.39-3.94.23-4.48.82-8.94,1.18-13.41.21-2.55,1.18-4.14-.39-2.96-.63.47-6.11,9.09-9.07,12.81,2.04-16.95-2.01-33.1.79-50.08.92-5.58,2.61-13.08,6.31-17.35,4.95-.12,7.17-1.39,12.62,8.08,1.32,2.3,3,6.79,4.34,9.66Z"/>
            <path class="cls-10" d="m103.9,112.1c2.41,9.79,4.74,19.59,8.48,28.98-1.09.38-6.55,1.96-7.1,1.18l-1.38-30.16Z"/>
          </g>
          <path class="cls-12" d="m119.87,151.14c1.35,3.16,2.39,4.41,4.34,7.1l-10.25,4.53q.59-7.59,1.18-15.18c.31-.26,2.79-2.87,2.96-2.76.62,2.05.93,4.34,1.77,6.31Z"/>
          <g>
            <path class="cls-45" d="m132.09,138.92c.22.41,1.03,1.06,1.18,1.58-4.82,2.13-7.62,1.29-5.91,8.08,1.5,5.96,5.03,5.4,10.25,4.53.18.88.64,1.5.79,2.37-3.08-.39-4.49,1.11-4.73,1.18-.81.26-1.56.68-1.97.79-.22.06-.56-.05-.79,0,1.52-1.13.11-.62,0-.79-.13-.19.21-.82-.2-1.18-1-.89-2.17,1.33-6.51-8.67-.72-1.67-1.87-3.13-1.58-5.13.56-.27,1.36-.54,1.97-.79,1.59-.65,3.87-1.43,5.52-1.97.09-.03-.11.55,1.97,0Z"/>
            <path class="cls-24" d="m124.2,146.8c-.23,3,2.97,9.34,6.7,9.86.11.16,1.52-.34,0,.79-3.88.88-5.63.72-5.91.79-.22.06-.54-.03-.79,0-1.95-2.69-2.99-3.93-4.34-7.1.67-4.96-2.91-6.71,2.76-9.46-.3,2,.86,3.46,1.58,5.13Z"/>
            <path class="cls-32" d="m130.91,156.66c-3.73-.52-6.93-6.86-6.7-9.86,4.33,10.01,5.51,7.78,6.51,8.67.41.36.07.99.2,1.18Z"/>
          </g>
        </g>
      </g>
    </g>
  </g>
</svg>