<svg width="32" height="32" viewBox="0 0 32 32" fill="none" xmlns="http://www.w3.org/2000/svg">
<path d="M14.6666 22.6665H17.3333V14.6665H14.6666V22.6665ZM16 11.9998C16.3777 11.9998 16.6946 11.8718 16.9506 11.6158C17.2066 11.3598 17.3342 11.0434 17.3333 10.6665C17.3333 10.2887 17.2053 9.97184 16.9493 9.71584C16.6933 9.45984 16.3768 9.33228 16 9.33317C15.6222 9.33317 15.3053 9.46117 15.0493 9.71717C14.7933 9.97317 14.6657 10.2896 14.6666 10.6665C14.6666 11.0443 14.7946 11.3612 15.0506 11.6172C15.3066 11.8732 15.6231 12.0007 16 11.9998ZM16 29.3332C14.1555 29.3332 12.4222 28.9829 10.8 28.2825C9.17774 27.5821 7.76663 26.6323 6.56663 25.4332C5.36663 24.2332 4.41685 22.8221 3.71729 21.1998C3.01774 19.5776 2.66751 17.8443 2.66663 15.9998C2.66663 14.1554 3.01685 12.4221 3.71729 10.7998C4.41774 9.17762 5.36752 7.7665 6.56663 6.5665C7.76663 5.3665 9.17774 4.41673 10.8 3.71717C12.4222 3.01762 14.1555 2.66739 16 2.6665C17.8444 2.6665 19.5777 3.01673 21.2 3.71717C22.8222 4.41762 24.2333 5.36739 25.4333 6.5665C26.6333 7.7665 27.5835 9.17762 28.284 10.7998C28.9844 12.4221 29.3342 14.1554 29.3333 15.9998C29.3333 17.8443 28.9831 19.5776 28.2826 21.1998C27.5822 22.8221 26.6324 24.2332 25.4333 25.4332C24.2333 26.6332 22.8222 27.5834 21.2 28.2838C19.5777 28.9843 17.8444 29.3341 16 29.3332ZM16 26.6665C18.9777 26.6665 21.5 25.6332 23.5666 23.5665C25.6333 21.4998 26.6666 18.9776 26.6666 15.9998C26.6666 13.0221 25.6333 10.4998 23.5666 8.43317C21.5 6.3665 18.9777 5.33317 16 5.33317C13.0222 5.33317 10.5 6.3665 8.43329 8.43317C6.36663 10.4998 5.33329 13.0221 5.33329 15.9998C5.33329 18.9776 6.36663 21.4998 8.43329 23.5665C10.5 25.6332 13.0222 26.6665 16 26.6665Z" />
</svg>
