<svg width="15" height="15" viewBox="0 0 15 15" fill="none" xmlns="http://www.w3.org/2000/svg">
<g clip-path="url(#clip0_356_13238)">
<path d="M11.25 0.9375H3.75C2.1967 0.9375 0.9375 2.1967 0.9375 3.75V11.25C0.9375 12.8033 2.1967 14.0625 3.75 14.0625H11.25C12.8033 14.0625 14.0625 12.8033 14.0625 11.25V3.75C14.0625 2.1967 12.8033 0.9375 11.25 0.9375Z" fill="url(#paint0_radial_356_13238)"/>
<path d="M11.25 0.9375H3.75C2.1967 0.9375 0.9375 2.1967 0.9375 3.75V11.25C0.9375 12.8033 2.1967 14.0625 3.75 14.0625H11.25C12.8033 14.0625 14.0625 12.8033 14.0625 11.25V3.75C14.0625 2.1967 12.8033 0.9375 11.25 0.9375Z" fill="url(#paint1_radial_356_13238)"/>
<path d="M11.25 0.9375H3.75C2.1967 0.9375 0.9375 2.1967 0.9375 3.75V11.25C0.9375 12.8033 2.1967 14.0625 3.75 14.0625H11.25C12.8033 14.0625 14.0625 12.8033 14.0625 11.25V3.75C14.0625 2.1967 12.8033 0.9375 11.25 0.9375Z" fill="url(#paint2_radial_356_13238)"/>
<path d="M10.7812 4.92188C10.7812 5.31019 10.4664 5.625 10.0781 5.625C9.68981 5.625 9.375 5.31019 9.375 4.92188C9.375 4.53355 9.68981 4.21875 10.0781 4.21875C10.4664 4.21875 10.7812 4.53355 10.7812 4.92188Z" fill="white"/>
<path fill-rule="evenodd" clip-rule="evenodd" d="M7.5 9.84375C8.79441 9.84375 9.84375 8.79441 9.84375 7.5C9.84375 6.20559 8.79441 5.15625 7.5 5.15625C6.20559 5.15625 5.15625 6.20559 5.15625 7.5C5.15625 8.79441 6.20559 9.84375 7.5 9.84375ZM7.5 8.90625C8.27667 8.90625 8.90625 8.27667 8.90625 7.5C8.90625 6.72333 8.27667 6.09375 7.5 6.09375C6.72333 6.09375 6.09375 6.72333 6.09375 7.5C6.09375 8.27667 6.72333 8.90625 7.5 8.90625Z" fill="white"/>
<path fill-rule="evenodd" clip-rule="evenodd" d="M2.8125 7.3125C2.8125 5.73736 2.8125 4.94977 3.11904 4.34815C3.38869 3.81894 3.81894 3.38869 4.34815 3.11904C4.94977 2.8125 5.73736 2.8125 7.3125 2.8125H7.6875C9.26264 2.8125 10.0502 2.8125 10.6518 3.11904C11.181 3.38869 11.6113 3.81894 11.8809 4.34815C12.1875 4.94977 12.1875 5.73736 12.1875 7.3125V7.6875C12.1875 9.26264 12.1875 10.0502 11.8809 10.6518C11.6113 11.181 11.181 11.6113 10.6518 11.8809C10.0502 12.1875 9.26264 12.1875 7.6875 12.1875H7.3125C5.73736 12.1875 4.94977 12.1875 4.34815 11.8809C3.81894 11.6113 3.38869 11.181 3.11904 10.6518C2.8125 10.0502 2.8125 9.26264 2.8125 7.6875V7.3125ZM7.3125 3.75H7.6875C8.49056 3.75 9.03642 3.75073 9.45839 3.7852C9.86944 3.81878 10.0796 3.87965 10.2262 3.95436C10.579 4.13413 10.8659 4.42096 11.0456 4.77375C11.1203 4.92038 11.1812 5.13056 11.2148 5.54161C11.2493 5.96358 11.25 6.50944 11.25 7.3125V7.6875C11.25 8.49056 11.2493 9.03642 11.2148 9.45839C11.1812 9.86944 11.1203 10.0796 11.0456 10.2262C10.8659 10.579 10.579 10.8659 10.2262 11.0456C10.0796 11.1203 9.86944 11.1812 9.45839 11.2148C9.03642 11.2493 8.49056 11.25 7.6875 11.25H7.3125C6.50944 11.25 5.96358 11.2493 5.54161 11.2148C5.13056 11.1812 4.92038 11.1203 4.77375 11.0456C4.42096 10.8659 4.13413 10.579 3.95436 10.2262C3.87965 10.0796 3.81878 9.86944 3.7852 9.45839C3.75073 9.03642 3.75 8.49056 3.75 7.6875V7.3125C3.75 6.50944 3.75073 5.96358 3.7852 5.54161C3.81878 5.13056 3.87965 4.92038 3.95436 4.77375C4.13413 4.42096 4.42096 4.13413 4.77375 3.95436C4.92038 3.87965 5.13056 3.81878 5.54161 3.7852C5.96358 3.75073 6.50944 3.75 7.3125 3.75Z" fill="white"/>
</g>
<defs>
<radialGradient id="paint0_radial_356_13238" cx="0" cy="0" r="1" gradientUnits="userSpaceOnUse" gradientTransform="translate(5.625 10.7813) rotate(-55.3758) scale(11.9623)">
<stop stop-color="#B13589"/>
<stop offset="0.79309" stop-color="#C62F94"/>
<stop offset="1" stop-color="#8A3AC8"/>
</radialGradient>
<radialGradient id="paint1_radial_356_13238" cx="0" cy="0" r="1" gradientUnits="userSpaceOnUse" gradientTransform="translate(5.15625 14.5313) rotate(-65.1363) scale(10.591)">
<stop stop-color="#E0E8B7"/>
<stop offset="0.444662" stop-color="#FB8A2E"/>
<stop offset="0.71474" stop-color="#E2425C"/>
<stop offset="1" stop-color="#E2425C" stop-opacity="0"/>
</radialGradient>
<radialGradient id="paint2_radial_356_13238" cx="0" cy="0" r="1" gradientUnits="userSpaceOnUse" gradientTransform="translate(0.234375 1.40625) rotate(-8.1301) scale(18.2301 3.89923)">
<stop offset="0.156701" stop-color="#406ADC"/>
<stop offset="0.467799" stop-color="#6A45BE"/>
<stop offset="1" stop-color="#6A45BE" stop-opacity="0"/>
</radialGradient>
<clipPath id="clip0_356_13238">
<rect width="15" height="15" fill="white"/>
</clipPath>
</defs>
</svg>
