<svg width="45" height="45" viewBox="0 0 45 45" fill="currentColor" xmlns="http://www.w3.org/2000/svg">
<path fill="currentColor" d="M22.532 0H22.4677C14.6963 0 8.37402 6.3202 8.37402 14.0887C8.37402 19.1809 10.6931 25.9013 15.2668 34.0637C18.6577 40.1151 22.0962 44.7497 22.1306 44.7958C22.2264 44.9244 22.3772 45.0001 22.5371 45.0001C22.5416 45.0001 22.5462 45.0001 22.5508 44.9999C22.7157 44.9954 22.8679 44.9109 22.9594 44.7735C22.9933 44.7222 26.4073 39.5667 29.7752 33.261C34.321 24.75 36.6259 18.2994 36.6259 14.0887C36.6256 6.32009 30.3032 0 22.532 0ZM29.0375 14.4329C29.0375 18.0379 26.1047 20.9706 22.4998 20.9706C18.8949 20.9706 15.9621 18.0378 15.9621 14.4329C15.9621 10.8281 18.8949 7.89533 22.4998 7.89533C26.1047 7.89533 29.0375 10.8281 29.0375 14.4329Z"/>
</svg>
