<svg width="50" height="50" viewBox="0 0 50 50" fill="none" xmlns="http://www.w3.org/2000/svg">
<rect width="50" height="50" rx="25" fill="#E7F3F8"/>
<g clip-path="url(#clip0_488_2576)">
<path fill-rule="evenodd" clip-rule="evenodd" d="M29.1369 17.7285L30.9665 19.5581C33.6555 22.2471 35 23.5916 35 25.2623C35 26.933 33.6555 28.2775 30.9665 30.9665C28.2775 33.6555 26.933 35 25.2623 35C23.5916 35 22.2471 33.6555 19.5581 30.9665L17.7285 29.1369C16.183 27.5914 15.4102 26.8186 15.1226 25.816C14.8351 24.8134 15.0808 23.7485 15.5723 21.6188L15.8557 20.3906C16.2692 18.5988 16.476 17.7029 17.0894 17.0894C17.7029 16.476 18.5988 16.2692 20.3906 15.8557L21.6188 15.5723C23.7485 15.0808 24.8134 14.8351 25.816 15.1226C26.8186 15.4102 27.5914 16.183 29.1369 17.7285ZM24.1467 27.3284C23.4737 26.6555 23.4794 25.6899 23.8819 24.9247C23.6807 24.6325 23.7101 24.2295 23.9699 23.9697C24.2288 23.7108 24.6298 23.6807 24.9217 23.8795C25.2615 23.6988 25.635 23.6033 26.0071 23.6068C26.4213 23.6107 26.7539 23.9497 26.75 24.3639C26.7461 24.7781 26.4071 25.1107 25.9929 25.1068C25.816 25.1051 25.5835 25.1845 25.3841 25.3839C24.9966 25.7714 25.0985 26.1589 25.2073 26.2678C25.3162 26.3766 25.7037 26.4785 26.0912 26.091C26.8753 25.307 28.2289 25.0467 29.0964 25.9142C29.7694 26.5872 29.7637 27.5528 29.3612 28.318C29.5624 28.6102 29.533 29.0132 29.2732 29.273C29.0143 29.5319 28.6131 29.5619 28.3212 29.3631C27.8643 29.6059 27.3446 29.6969 26.849 29.595C26.4433 29.5117 26.182 29.1152 26.2654 28.7094C26.3487 28.3037 26.7452 28.0424 27.151 28.1257C27.3281 28.1622 27.6137 28.104 27.859 27.8588C28.2465 27.4712 28.1446 27.0837 28.0358 26.9749C27.9269 26.866 27.5394 26.7641 27.1519 27.1517C26.3678 27.9357 25.0142 28.1959 24.1467 27.3284ZM23.021 23.2931C23.802 22.5121 23.802 21.2457 23.021 20.4647C22.2399 19.6836 20.9736 19.6836 20.1925 20.4647C19.4115 21.2457 19.4115 22.5121 20.1925 23.2931C20.9736 24.0742 22.2399 24.0742 23.021 23.2931Z" fill="black"/>
<path fill-rule="evenodd" clip-rule="evenodd" d="M162.897 -217.97L223.883 -156.982C313.517 -67.3485 358.333 -22.5322 358.333 33.1578C358.333 88.8478 313.517 133.664 223.883 223.298C134.25 312.931 89.4333 357.748 33.7433 357.748C-21.9466 357.748 -66.763 312.931 -156.396 223.298L-217.384 162.311C-268.902 110.794 -294.661 85.0345 -304.245 51.6145C-313.83 18.1945 -305.639 -17.3022 -289.256 -88.2939L-279.809 -129.233C-266.026 -188.959 -259.134 -218.822 -238.685 -239.271C-218.236 -259.72 -188.373 -266.612 -128.648 -280.394L-87.7083 -289.842C-16.7166 -306.225 18.78 -314.416 52.2 -304.831C85.62 -295.246 111.38 -269.487 162.897 -217.97ZM-3.4433 102.028C-25.8766 79.5978 -25.6866 47.4111 -12.27 21.9044C-18.9766 12.1645 -17.9966 -1.26886 -9.33661 -9.92886C-0.706635 -18.5589 12.66 -19.5622 22.39 -12.9355C33.7167 -18.9589 46.1667 -22.1422 58.57 -22.0255C72.3767 -21.8955 83.4634 -10.5955 83.3334 3.21115C83.2034 17.0178 71.9034 28.1045 58.0967 27.9745C52.2 27.9178 44.45 30.5645 37.8034 37.2111C24.8867 50.1278 28.2834 63.0445 31.91 66.6745C35.54 70.3011 48.4567 73.6978 61.3734 60.7811C87.51 34.6478 132.63 25.9711 161.547 54.8878C183.98 77.3211 183.79 109.508 170.373 135.014C177.08 144.754 176.1 158.188 167.44 166.848C158.81 175.478 145.437 176.478 135.707 169.851C120.477 177.944 103.153 180.978 86.6334 177.581C73.11 174.804 64.4 161.588 67.18 148.061C69.9567 134.538 83.1734 125.828 96.7 128.604C102.603 129.821 112.123 127.881 120.3 119.708C133.217 106.788 129.82 93.8712 126.193 90.2445C122.563 86.6145 109.647 83.2178 96.73 96.1378C70.5934 122.271 25.4734 130.944 -3.4433 102.028ZM-40.9666 -32.4822C-14.9333 -58.5165 -14.9333 -100.728 -40.9666 -126.763C-67.003 -152.798 -109.214 -152.798 -135.249 -126.763C-161.284 -100.728 -161.284 -58.5165 -135.249 -32.4822C-109.214 -6.44553 -67.003 -6.44553 -40.9666 -32.4822Z" fill="#1C274C"/>
</g>
<defs>
<clipPath id="clip0_488_2576">
<rect width="20" height="20" fill="white" transform="translate(15 15)"/>
</clipPath>
</defs>
</svg>
