<svg width="67" height="67" viewBox="0 0 67 67" fill="none" xmlns="http://www.w3.org/2000/svg">
<path d="M40.4792 8.37483C38.6282 8.37483 36.853 9.11013 35.5441 10.419C34.2353 11.7278 33.5 13.503 33.5 15.354C33.5 17.205 34.2353 18.9802 35.5441 20.289C36.853 21.5979 38.6282 22.3332 40.4792 22.3332C42.3302 22.3332 44.1053 21.5979 45.4142 20.289C46.723 18.9802 47.4583 17.205 47.4583 15.354C47.4583 13.503 46.723 11.7278 45.4142 10.419C44.1053 9.11013 42.3302 8.37483 40.4792 8.37483ZM27.9167 15.354C27.9162 13.2157 28.4616 11.1127 29.5012 9.24415C30.5407 7.37558 32.04 5.80328 33.8571 4.67613C35.6742 3.54899 37.7489 2.9043 39.8848 2.80313C42.0207 2.70196 44.147 3.14765 46.0625 4.098C47.9778 3.14878 50.1036 2.704 52.2388 2.80573C54.374 2.90747 56.4479 3.55235 58.2643 4.67937C60.0806 5.80638 61.5794 7.37824 62.6187 9.24619C63.658 11.1141 64.2034 13.2164 64.2034 15.354C64.2034 17.4916 63.658 19.5939 62.6187 21.4618C61.5794 23.3298 60.0806 24.9016 58.2643 26.0286C56.4479 27.1556 54.374 27.8005 52.2388 27.9023C50.1036 28.004 47.9778 27.5592 46.0625 26.61C44.147 27.5603 42.0207 28.006 39.8848 27.9049C37.7489 27.8037 35.6742 27.159 33.8571 26.0319C32.04 24.9047 30.5407 23.3324 29.5012 21.4638C28.4616 19.5953 27.9162 17.4923 27.9167 15.354ZM50.9479 22.2997C51.9183 22.3971 52.8984 22.29 53.8249 21.9854C54.7514 21.6807 55.6038 21.1853 56.327 20.531C57.0503 19.8767 57.6284 19.0781 58.0241 18.1866C58.4197 17.2952 58.6241 16.3307 58.6241 15.3554C58.6241 14.3801 58.4197 13.4156 58.0241 12.5242C57.6284 11.6327 57.0503 10.8341 56.327 10.1798C55.6038 9.5255 54.7514 9.03006 53.8249 8.72542C52.8984 8.42078 51.9183 8.31371 50.9479 8.41112C52.3162 10.4679 53.0447 12.8837 53.0417 15.354C53.0453 17.8252 52.3167 20.2421 50.9479 22.2997ZM23.5477 36.9894C23.0893 36.9882 22.6352 37.0774 22.2113 37.2517C21.7874 37.4261 21.402 37.6822 21.0771 38.0056L15.3542 43.7285V54.4373H31.0629L47.2629 50.3894L57.1231 46.1796C57.4589 45.9981 57.7159 45.699 57.8448 45.3396C57.9737 44.9803 57.9654 44.586 57.8215 44.2324C57.6775 43.8788 57.4081 43.5908 57.0649 43.4236C56.7217 43.2565 56.3289 43.2219 55.9617 43.3265L55.9059 43.3405L38.0057 47.4582H27.9167V41.8748H36.6406C37.2885 41.8748 37.9098 41.6175 38.3679 41.1594C38.826 40.7013 39.0833 40.08 39.0833 39.4321C39.0833 38.7843 38.826 38.163 38.3679 37.7049C37.9098 37.2468 37.2885 36.9894 36.6406 36.9894H23.5477ZM44.6304 40.2054L54.5464 37.9246C55.6025 37.6469 56.7082 37.6149 57.7786 37.8311C58.849 38.0473 59.8556 38.5059 60.7212 39.1717C61.5867 39.8375 62.2882 40.6928 62.7717 41.672C63.2552 42.6511 63.5079 43.728 63.5104 44.82C63.5102 46.1458 63.1409 47.4454 62.4437 48.5731C61.7464 49.7007 60.749 50.6119 59.563 51.2046L59.4876 51.2437L49.0468 55.6964L31.7496 60.0207H0V39.7811H11.4067L17.1352 34.0526C17.9793 33.2114 18.9807 32.5448 20.0824 32.0907C21.1841 31.6366 22.3645 31.404 23.5561 31.4061H36.6406C37.7599 31.4059 38.8669 31.6399 39.8904 32.093C40.9139 32.546 41.8313 33.2081 42.5837 34.0368C43.3361 34.8654 43.9069 35.8423 44.2594 36.9047C44.6118 37.967 44.7382 39.0913 44.6304 40.2054ZM9.77083 45.3644H5.58333V54.4373H9.77083V45.3644Z"/>
</svg>
