<svg viewBox="0 0 35 35" fill="none" xmlns="http://www.w3.org/2000/svg">
<path d="M21.875 2.1875C20.1487 2.18905 18.4472 2.59885 16.9094 3.38346C15.3717 4.16807 14.0413 5.30523 13.027 6.70209C12.0126 8.09896 11.3429 9.71593 11.0727 11.421C10.8025 13.126 10.9393 14.8708 11.4721 16.5129L3.60117 24.3824C3.49963 24.4841 3.41912 24.6047 3.36423 24.7375C3.30933 24.8703 3.28114 25.0126 3.28125 25.1562V30.625C3.28125 30.9151 3.39648 31.1933 3.6016 31.3984C3.80672 31.6035 4.08492 31.7188 4.375 31.7188H9.84375C10.1338 31.7188 10.412 31.6035 10.6171 31.3984C10.8223 31.1933 10.9375 30.9151 10.9375 30.625V28.4375H13.125C13.4151 28.4375 13.6933 28.3223 13.8984 28.1171C14.1035 27.912 14.2188 27.6338 14.2188 27.3438V25.1562H16.4062C16.5499 25.1564 16.6922 25.1282 16.825 25.0733C16.9578 25.0184 17.0784 24.9379 17.1801 24.8363L18.4871 23.5279C19.9904 24.016 21.5815 24.1725 23.1511 23.9866C24.7206 23.8007 26.2312 23.2769 27.5788 22.4511C28.9265 21.6254 30.0792 20.5174 30.9576 19.2035C31.8359 17.8896 32.4191 16.4008 32.6669 14.8399C32.9147 13.2789 32.8213 11.6828 32.393 10.1615C31.9648 8.64008 31.2119 7.22958 30.1862 6.02709C29.1606 4.8246 27.8865 3.85868 26.4517 3.19584C25.0169 2.533 23.4555 2.18899 21.875 2.1875ZM21.875 21.875C20.7678 21.8769 19.6704 21.6676 18.6416 21.2584C18.4404 21.1711 18.2175 21.1463 18.002 21.1872C17.7864 21.2282 17.5882 21.333 17.433 21.4881L15.9537 22.9688H13.125C12.8349 22.9688 12.5567 23.084 12.3516 23.2891C12.1465 23.4942 12.0312 23.7724 12.0312 24.0625V26.25H9.84375C9.55367 26.25 9.27547 26.3652 9.07035 26.5704C8.86523 26.7755 8.75 27.0537 8.75 27.3438V29.5312H5.46875V25.6088L13.5119 17.567C13.667 17.4118 13.7718 17.2136 13.8128 16.998C13.8537 16.7825 13.8289 16.5597 13.7416 16.3584C13.0499 14.6191 12.9342 12.7039 13.4115 10.894C13.8887 9.08411 14.9338 7.47495 16.3931 6.30288C17.8525 5.1308 19.6492 4.45759 21.5194 4.38212C23.3897 4.30664 25.2348 4.83289 26.7839 5.88356C28.3329 6.93423 29.5042 8.45394 30.1258 10.2195C30.7473 11.985 30.7863 13.9034 30.237 15.6927C29.6878 17.4821 28.5792 19.0481 27.0741 20.1609C25.569 21.2736 23.7468 21.8744 21.875 21.875ZM26.25 10.3906C26.25 10.7151 26.1538 11.0323 25.9735 11.3021C25.7932 11.5719 25.537 11.7822 25.2372 11.9064C24.9374 12.0305 24.6076 12.063 24.2893 11.9997C23.9711 11.9364 23.6787 11.7802 23.4493 11.5507C23.2198 11.3213 23.0636 11.0289 23.0003 10.7107C22.937 10.3924 22.9695 10.0626 23.0936 9.76278C23.2178 9.463 23.4281 9.20677 23.6979 9.02649C23.9677 8.84622 24.2849 8.75 24.6094 8.75C25.0445 8.75 25.4618 8.92285 25.7695 9.23053C26.0771 9.5382 26.25 9.9555 26.25 10.3906Z" />
</svg>
