<svg width="20" height="15" viewBox="0 0 20 15" fill="none" xmlns="http://www.w3.org/2000/svg">
<path d="M18.125 15H1.875C0.820312 15 0 14.1797 0 13.125V1.875C0 0.859375 0.820312 0 1.875 0H18.125C19.1406 0 20 0.859375 20 1.875V13.125C20 14.1797 19.1406 15 18.125 15ZM4.375 2.1875C3.16406 2.1875 2.1875 3.20312 2.1875 4.375C2.1875 5.58594 3.16406 6.5625 4.375 6.5625C5.54688 6.5625 6.5625 5.58594 6.5625 4.375C6.5625 3.20312 5.54688 2.1875 4.375 2.1875ZM2.5 12.5H17.5V8.125L14.0625 4.72656C13.8672 4.53125 13.5938 4.53125 13.3984 4.72656L8.125 10L5.9375 7.85156C5.74219 7.65625 5.46875 7.65625 5.27344 7.85156L2.5 10.625V12.5Z" fill="black"/>
</svg>
