<svg width="50" height="50" viewBox="0 0 50 50" fill="none" xmlns="http://www.w3.org/2000/svg">
<rect width="50" height="50" rx="25" fill="#E7F3F8"/>
<g clip-path="url(#clip0_488_918)">
<path d="M33.125 33H16.875C15.8203 33 15 32.1797 15 31.125V19.875C15 18.8594 15.8203 18 16.875 18H33.125C34.1406 18 35 18.8594 35 19.875V31.125C35 32.1797 34.1406 33 33.125 33ZM19.375 20.1875C18.1641 20.1875 17.1875 21.2031 17.1875 22.375C17.1875 23.5859 18.1641 24.5625 19.375 24.5625C20.5469 24.5625 21.5625 23.5859 21.5625 22.375C21.5625 21.2031 20.5469 20.1875 19.375 20.1875ZM17.5 30.5H32.5V26.125L29.0625 22.7266C28.8672 22.5312 28.5938 22.5312 28.3984 22.7266L23.125 28L20.9375 25.8516C20.7422 25.6562 20.4688 25.6562 20.2734 25.8516L17.5 28.625V30.5Z" fill="black"/>
</g>
<defs>
<clipPath id="clip0_488_918">
<rect width="20" height="20" fill="white" transform="translate(15 15)"/>
</clipPath>
</defs>
</svg>
