<svg width="33" height="33" viewBox="0 0 33 33" fill="none" xmlns="http://www.w3.org/2000/svg">
<path d="M22 16.5H23.925C24.1438 16.5 24.3536 16.5869 24.5084 16.7416C24.6631 16.8964 24.75 17.1062 24.75 17.325V26.675C24.75 26.8938 24.6631 27.1036 24.5084 27.2584C24.3536 27.4131 24.1438 27.5 23.925 27.5H9.075C8.8562 27.5 8.64635 27.4131 8.49164 27.2584C8.33692 27.1036 8.25 26.8938 8.25 26.675V17.325C8.25 17.1062 8.33692 16.8964 8.49164 16.7416C8.64635 16.5869 8.8562 16.5 9.075 16.5H11M22 16.5V11C22 9.16713 20.9 5.5 16.5 5.5C12.1 5.5 11 9.16713 11 11V16.5M22 16.5H11" stroke-linecap="round" stroke-linejoin="round"/>
</svg>
