<svg width="127" height="127" viewBox="0 0 127 127" xmlns="http://www.w3.org/2000/svg">
<path d="M63.5159 111.125C56.933 111.125 50.7418 109.876 44.9421 107.378C39.146 104.877 34.103 101.484 29.8132 97.1973C25.5235 92.9146 22.128 87.8769 19.6268 82.0843C17.1256 76.2917 15.875 70.1022 15.875 63.5159C15.875 56.933 17.1238 50.7418 19.6215 44.9421C22.1227 39.146 25.5164 34.103 29.8027 29.8132C34.0854 25.5235 39.1231 22.128 44.9157 19.6268C50.7083 17.1256 56.8978 15.875 63.4841 15.875C70.067 15.875 76.2582 17.1238 82.0579 19.6215C87.854 22.1227 92.897 25.5164 97.1867 29.8027C101.477 34.0854 104.872 39.1231 107.373 44.9157C109.874 50.7083 111.125 56.8978 111.125 63.4841C111.125 70.067 109.876 76.2582 107.378 82.0579C104.877 87.854 101.484 92.897 97.1973 97.1867C92.9146 101.477 87.8769 104.872 82.0843 107.373C76.2917 109.874 70.1022 111.125 63.5159 111.125ZM58.2083 105.569V95.25C55.2979 95.25 52.8055 94.2146 50.7312 92.1438C48.6569 90.073 47.6215 87.5806 47.625 84.6667V79.375L22.225 53.975C21.9604 55.5625 21.717 57.15 21.4947 58.7375C21.2725 60.325 21.1631 61.9125 21.1667 63.5C21.1667 74.1715 24.6733 83.5201 31.6865 91.5458C38.6997 99.5715 47.5403 104.246 58.2083 105.569ZM94.7208 92.075C96.4847 90.1347 98.0722 88.041 99.4833 85.7938C100.894 83.5466 102.062 81.2094 102.986 78.7823C103.914 76.3552 104.62 73.8628 105.103 71.3052C105.586 68.7476 105.83 66.1458 105.833 63.5C105.833 54.8076 103.447 46.8683 98.6737 39.6822C93.9006 32.4961 87.4677 27.3156 79.375 24.1406V26.4583C79.375 29.3687 78.3378 31.8611 76.2635 33.9355C74.1892 36.0098 71.6986 37.0452 68.7917 37.0417H58.2083V47.625C58.2083 49.1243 57.7003 50.382 56.6843 51.398C55.6683 52.414 54.4124 52.9202 52.9167 52.9167H42.3333V63.5H74.0833C75.5826 63.5 76.8403 64.008 77.8563 65.024C78.8723 66.04 79.3785 67.2959 79.375 68.7917V84.6667H84.6667C86.9597 84.6667 89.0323 85.3511 90.8844 86.7198C92.7365 88.0886 94.0153 89.8737 94.7208 92.075Z"/>
</svg>
