<svg width="25" height="25" viewBox="0 0 25 25" fill="none" xmlns="http://www.w3.org/2000/svg">
<path d="M3.18229 11.4583H5.20833C5.76087 11.4583 6.29077 11.6778 6.68147 12.0685C7.07217 12.4592 7.29167 12.9891 7.29167 13.5417V14.5833C7.29167 15.1359 7.51116 15.6658 7.90186 16.0565C8.29256 16.4472 8.82247 16.6667 9.375 16.6667C9.92753 16.6667 10.4574 16.8862 10.8481 17.2769C11.2388 17.6676 11.4583 18.1975 11.4583 18.75V21.8177M8.33333 4.09896V5.72917C8.33333 6.41983 8.6077 7.08221 9.09608 7.57059C9.58445 8.05897 10.2468 8.33333 10.9375 8.33333H11.4583C12.0109 8.33333 12.5408 8.55283 12.9315 8.94353C13.3222 9.33423 13.5417 9.86413 13.5417 10.4167C13.5417 10.9692 13.7612 11.4991 14.1519 11.8898C14.5426 12.2805 15.0725 12.5 15.625 12.5C16.1775 12.5 16.7074 12.2805 17.0981 11.8898C17.4888 11.4991 17.7083 10.9692 17.7083 10.4167C17.7083 9.86413 17.9278 9.33423 18.3185 8.94353C18.7092 8.55283 19.2391 8.33333 19.7917 8.33333H20.9M15.625 21.3417V18.75C15.625 18.1975 15.8445 17.6676 16.2352 17.2769C16.6259 16.8862 17.1558 16.6667 17.7083 16.6667H20.9M21.875 12.5C21.875 13.7311 21.6325 14.9502 21.1614 16.0877C20.6902 17.2251 19.9997 18.2586 19.1291 19.1291C18.2586 19.9997 17.2251 20.6902 16.0877 21.1614C14.9502 21.6325 13.7311 21.875 12.5 21.875C11.2689 21.875 10.0498 21.6325 8.91234 21.1614C7.77492 20.6902 6.74142 19.9997 5.87087 19.1291C5.00032 18.2586 4.30977 17.2251 3.83863 16.0877C3.36749 14.9502 3.125 13.7311 3.125 12.5C3.125 10.0136 4.11272 7.62903 5.87087 5.87087C7.62903 4.11272 10.0136 3.125 12.5 3.125C14.9864 3.125 17.371 4.11272 19.1291 5.87087C20.8873 7.62903 21.875 10.0136 21.875 12.5Z" stroke="#048010" stroke-linecap="round" stroke-linejoin="round"/>
</svg>
