<?xml version="1.0" encoding="utf-8"?>
<!-- Generator: Adobe Illustrator 27.9.0, SVG Export Plug-In . SVG Version: 6.00 Build 0)  -->
<svg version="1.1" id="send" xmlns="http://www.w3.org/2000/svg" xmlns:xlink="http://www.w3.org/1999/xlink" x="0px" y="0px"
	 viewBox="0 0 800 800" style="enable-background:new 0 0 800 800;" xml:space="preserve">
<style type="text/css">
	.st0{fill:#ffff;}
</style>
<path class="st0" d="M399.9,397.8"/>
<path class="st0" d="M183,429l228.1-28L182,366.7l-76-171c-14.9-33.7,0.3-73,33.9-88c17.7-7.8,37.9-7.6,55.4,0.6l0,0l488.3,231.3
	c23.4,11,38.3,34.5,38.3,60.3c0.1,25.8-14.7,49.3-38,60.3L195.7,691.7c-8.9,4.9-18.8,7.7-29,8.3c-36.8-0.1-66.6-30-66.5-66.8
	c0-9.4,2-18.6,5.9-27.2l76-172.7"/>
</svg>
