<svg width="15" height="15" viewBox="0 0 15 15" fill="none" xmlns="http://www.w3.org/2000/svg">
<path d="M3.96145 9.27752C4.0347 8.671 4.28345 8.33144 4.7522 7.98335C5.42294 7.51188 6.26073 7.77855 6.26073 7.77855V6.19647C6.46445 6.19122 6.66822 6.20332 6.86964 6.23252V8.26854C6.86964 8.26854 6.03208 8.00186 5.36139 8.47357C4.89288 8.82143 4.64361 9.16127 4.57061 9.76779C4.56832 10.0971 4.63013 10.5276 4.91477 10.8999C4.84436 10.8638 4.77264 10.8227 4.69956 10.7765C4.0726 10.3555 3.95839 9.72391 3.96145 9.27752ZM10.3291 3.27114C9.86767 2.76555 9.69316 2.25508 9.63011 1.89648H10.2105C10.2105 1.89648 10.0948 2.83673 10.9382 3.76137L10.9499 3.7738C10.7226 3.63082 10.5141 3.46204 10.3291 3.27114ZM13.1251 4.70454V6.69958C13.1251 6.69958 12.3844 6.67061 11.8363 6.53116C11.071 6.33611 10.579 6.03701 10.579 6.03701C10.579 6.03701 10.2393 5.82372 10.2118 5.80886V9.92866C10.2118 10.1581 10.149 10.7309 9.95744 11.2087C9.70741 11.8338 9.32158 12.2441 9.25061 12.3279C9.25061 12.3279 8.78134 12.8825 7.95344 13.256C7.20719 13.5929 6.55197 13.5843 6.35613 13.5929C6.35613 13.5929 5.22353 13.6377 4.20435 12.9754C3.98396 12.8294 3.77824 12.6641 3.58984 12.4815L3.59493 12.4851C4.61436 13.1475 5.7467 13.1026 5.7467 13.1026C5.94283 13.0941 6.598 13.1026 7.34402 12.7657C8.17117 12.3923 8.64119 11.8377 8.64119 11.8377C8.71141 11.7538 9.09902 11.3435 9.34802 10.7183C9.53903 10.2407 9.60236 9.66757 9.60236 9.43821V5.31888C9.62983 5.33397 9.96939 5.54725 9.96939 5.54725C9.96939 5.54725 10.4616 5.84665 11.2269 6.04141C11.7753 6.18086 12.5157 6.20988 12.5157 6.20988V4.64652C12.769 4.70332 12.985 4.71869 13.1251 4.70454Z" fill="#EE1D52"/>
<path d="M12.516 4.64652V6.20936C12.516 6.20936 11.7756 6.18035 11.2273 6.04094C10.4619 5.8459 9.96975 5.54679 9.96975 5.54679C9.96975 5.54679 9.63019 5.3335 9.60272 5.31836V9.43868C9.60272 9.66808 9.5399 10.2412 9.34837 10.7187C9.09834 11.3441 8.71251 11.7543 8.64155 11.8382C8.64155 11.8382 8.17205 12.3927 7.34437 12.7662C6.59836 13.1031 5.94319 13.0946 5.74706 13.1031C5.74706 13.1031 4.61472 13.148 3.59529 12.4856L3.5902 12.482C3.48257 12.3777 3.38126 12.2677 3.28677 12.1524C2.96145 11.7558 2.76205 11.2867 2.71194 11.1529V11.1512C2.63131 10.9187 2.46192 10.3601 2.48506 9.81921C2.52601 8.86483 2.86175 8.27904 2.95052 8.13227C3.18561 7.7321 3.49138 7.37402 3.85422 7.07407C4.1744 6.81518 4.53731 6.60921 4.92806 6.4646C5.3505 6.29482 5.80284 6.20379 6.26086 6.19647V7.77855C6.26086 7.77855 5.42301 7.51286 4.75256 7.98335C4.28381 8.33144 4.03505 8.671 3.9618 9.27752C3.95875 9.72391 4.07295 10.3555 4.6994 10.7768C4.77248 10.8231 4.8442 10.8642 4.91461 10.9001C5.02401 11.0424 5.15723 11.1663 5.30883 11.267C5.92078 11.6544 6.43355 11.6814 7.08928 11.4298C7.52648 11.2616 7.85559 10.8826 8.00822 10.4625C8.10412 10.2003 8.10286 9.93621 8.10286 9.66321V1.89648H9.62892C9.69201 2.25508 9.86648 2.76555 10.3279 3.27114C10.5129 3.46204 10.7214 3.63082 10.9487 3.7738C11.0159 3.84328 11.3593 4.18676 11.8 4.39763C12.0279 4.50663 12.2682 4.59014 12.516 4.64652Z" fill="black"/>
<path d="M2.10449 10.6675V10.6687L2.14236 10.7714C2.13801 10.7594 2.12394 10.7231 2.10449 10.6675Z" fill="#69C9D0"/>
<path d="M4.92788 6.46502C4.53712 6.60968 4.17421 6.81565 3.85403 7.07449C3.49108 7.37515 3.18538 7.73398 2.95059 8.1349C2.86182 8.2812 2.52608 8.86746 2.48513 9.82184C2.46198 10.3628 2.63138 10.9213 2.71201 11.1538V11.1555C2.76287 11.2882 2.96152 11.7572 3.28683 12.155C3.38133 12.2704 3.48264 12.3804 3.59027 12.4846C3.24542 12.256 2.93787 11.9797 2.67767 11.6645C2.35516 11.2714 2.15626 10.8072 2.10437 10.6702C2.10431 10.6692 2.10431 10.6682 2.10437 10.6673V10.6655C2.02349 10.4332 1.85358 9.87448 1.87724 9.33284C1.91819 8.37846 2.25393 7.79267 2.3427 7.6459C2.57742 7.24488 2.88313 6.88606 3.24614 6.58549C3.56625 6.32651 3.92918 6.12054 4.31999 5.97602C4.56376 5.87909 4.81772 5.8076 5.07745 5.76274C5.46886 5.69726 5.86866 5.69154 6.26194 5.74592V6.1969C5.8035 6.20407 5.35069 6.2951 4.92788 6.46502Z" fill="#69C9D0"/>
<path d="M9.6299 1.89673H8.10379V9.6637C8.10379 9.9367 8.10379 10.2 8.00919 10.463C7.85507 10.8828 7.52718 11.2619 7.09021 11.4301C6.43429 11.6827 5.92152 11.6546 5.3098 11.2673C5.15793 11.167 5.02438 11.0435 4.91455 10.9016C5.43571 11.168 5.90216 11.1634 6.48004 10.9411C6.91677 10.7729 7.24513 10.3938 7.39874 9.97378C7.49488 9.71147 7.49361 9.44747 7.49361 9.17466V1.40625H9.60088C9.60088 1.40625 9.57725 1.59932 9.6299 1.89673ZM12.5157 4.21455V4.64677C12.2683 4.5903 12.0285 4.50678 11.801 4.39787C11.3602 4.18701 11.0168 3.84353 10.9497 3.77405C11.0276 3.82308 11.1085 3.86768 11.1918 3.90764C11.7277 4.16409 12.2555 4.24064 12.5157 4.21455Z" fill="#69C9D0"/>
</svg>
