<svg width="69" height="69" viewBox="0 0 69 69" xmlns="http://www.w3.org/2000/svg">
<path d="M38.8125 28.0312C38.8125 27.4594 38.5853 26.9109 38.1809 26.5066C37.7766 26.1022 37.2281 25.875 36.6562 25.875H19.4062C18.8344 25.875 18.2859 26.1022 17.8816 26.5066C17.4772 26.9109 17.25 27.4594 17.25 28.0312C17.25 28.6031 17.4772 29.1516 17.8816 29.5559C18.2859 29.9603 18.8344 30.1875 19.4062 30.1875H36.6562C37.2281 30.1875 37.7766 29.9603 38.1809 29.5559C38.5853 29.1516 38.8125 28.6031 38.8125 28.0312ZM35.9375 36.6562C35.9375 36.0844 35.7103 35.5359 35.3059 35.1316C34.9016 34.7272 34.3531 34.5 33.7812 34.5H19.4062C18.8344 34.5 18.2859 34.7272 17.8816 35.1316C17.4772 35.5359 17.25 36.0844 17.25 36.6562C17.25 37.2281 17.4772 37.7766 17.8816 38.1809C18.2859 38.5853 18.8344 38.8125 19.4062 38.8125H33.7812C34.3531 38.8125 34.9016 38.5853 35.3059 38.1809C35.7103 37.7766 35.9375 37.2281 35.9375 36.6562ZM36.6562 43.125C37.2281 43.125 37.7766 43.3522 38.1809 43.7566C38.5853 44.1609 38.8125 44.7094 38.8125 45.2812C38.8125 45.8531 38.5853 46.4016 38.1809 46.806C37.7766 47.2103 37.2281 47.4375 36.6562 47.4375H19.4062C18.8344 47.4375 18.2859 47.2103 17.8816 46.806C17.4772 46.4016 17.25 45.8531 17.25 45.2812C17.25 44.7094 17.4772 44.1609 17.8816 43.7566C18.2859 43.3522 18.8344 43.125 19.4062 43.125H36.6562Z" />
<path fill-rule="evenodd" clip-rule="evenodd" d="M17.25 62.5314H54.625C56.7219 62.5314 58.7329 61.6984 60.2156 60.2157C61.6983 58.733 62.5312 56.722 62.5312 54.6251V38.8126C62.5312 38.2408 62.3041 37.6923 61.8997 37.2879C61.4953 36.8836 60.9469 36.6564 60.375 36.6564H51.0312V14.2113C51.0312 10.1201 46.4054 7.73963 43.0761 10.1173L42.573 10.4766C41.4713 11.2587 40.1531 11.6779 38.802 11.6758C37.4509 11.6738 36.1341 11.2506 35.0347 10.4651C33.1994 9.15893 31.0027 8.45703 28.75 8.45703C26.4973 8.45703 24.3006 9.15893 22.4653 10.4651C21.3659 11.2506 20.0491 11.6738 18.698 11.6758C17.3469 11.6779 16.0287 11.2587 14.927 10.4766L14.4239 10.1173C11.0946 7.73963 6.46875 10.1173 6.46875 14.2113V51.7501C6.46875 54.6095 7.60463 57.3518 9.62651 59.3736C11.6484 61.3955 14.3906 62.5314 17.25 62.5314ZM24.9722 13.9726C26.0761 13.189 27.3963 12.7681 28.75 12.7681C30.1037 12.7681 31.4239 13.189 32.5278 13.9726C34.3583 15.2811 36.5515 15.9857 38.8016 15.9883C41.0517 15.9909 43.2465 15.2913 45.08 13.987L45.5831 13.6276C45.6905 13.5512 45.8168 13.5057 45.9483 13.4962C46.0798 13.4868 46.2113 13.5136 46.3285 13.5739C46.4458 13.6341 46.5442 13.7254 46.613 13.8379C46.6818 13.9503 46.7184 14.0794 46.7188 14.2113V54.6251C46.7188 55.9189 47.0292 57.1408 47.5812 58.2189H17.25C15.5344 58.2189 13.889 57.5374 12.6759 56.3242C11.4628 55.1111 10.7812 53.4657 10.7812 51.7501V14.2113C10.7816 14.0794 10.8182 13.9503 10.887 13.8379C10.9558 13.7254 11.0542 13.6341 11.1715 13.5739C11.2887 13.5136 11.4202 13.4868 11.5517 13.4962C11.6832 13.5057 11.8095 13.5512 11.9169 13.6276L12.42 13.987C14.2535 15.2913 16.4483 15.9909 18.6984 15.9883C20.9485 15.9857 23.1417 15.2811 24.9722 13.9726ZM51.0312 54.6251V40.9689H58.2188V54.6251C58.2187 55.5782 57.8401 56.4923 57.1662 57.1663C56.4922 57.8403 55.5781 58.2189 54.625 58.2189C53.6719 58.2189 52.7578 57.8403 52.0838 57.1663C51.4099 56.4923 51.0313 55.5782 51.0312 54.6251Z" />
</svg>
