<svg width="36" height="36" viewBox="0 0 36 36" fill="none" xmlns="http://www.w3.org/2000/svg">
<g clip-path="url(#clip0_1057_3080)">
<path d="M17.9995 35.9825C27.8466 35.9825 35.9995 27.8159 35.9995 17.9912C35.9995 8.14897 27.8289 0 17.9818 0C8.15245 0 -0.000488281 8.14897 -0.000488281 17.9912C-0.000488281 27.8159 8.17008 35.9825 17.9995 35.9825ZM17.9995 21.2719C17.0818 21.2719 16.5701 20.7604 16.5524 19.8257L16.323 10.2127C16.3054 9.27783 16.9936 8.60755 17.9818 8.60755C18.9525 8.60755 19.676 9.29545 19.6583 10.2303L19.4113 19.8257C19.3936 20.7781 18.8818 21.2719 17.9995 21.2719ZM17.9995 27.1808C16.9407 27.1808 16.023 26.3342 16.023 25.2935C16.023 24.2528 16.923 23.3885 17.9995 23.3885C19.0759 23.3885 19.976 24.2353 19.976 25.2935C19.976 26.3518 19.0584 27.1808 17.9995 27.1808Z"/>
</g>
<defs>
<clipPath id="clip0_1057_3080">
<rect width="36" height="36"/>
</clipPath>
</defs>
</svg>
