<?xml version="1.0" encoding="UTF-8"?>
<svg id="Layer_2" data-name="Layer 2" xmlns="http://www.w3.org/2000/svg" viewBox="0 0 24 24">
  <defs>
    <style>
      .cls-1 {
        fill: none;
      }

      .cls-1, .cls-2, .cls-3, .cls-4, .cls-5 {
        stroke-width: 0px;
      }

      .cls-2 {
        fill: #93cd91;
      }

      .cls-3 {
        fill: #238b44;
      }

      .cls-4 {
        fill: #164521;
      }

      .cls-5 {
        fill: #ee243d;
      }
    </style>
  </defs>
  <g id="Layer_1-2" data-name="Layer 1">
    <polygon class="cls-2" points="6.63 20.76 .61 12.73 .61 12.73 .61 12.73 4.15 10.41 4.16 10.44 4.88 13.45 6.63 20.76"/>
    <path class="cls-4" d="m12.03,5.37l-2.37,1.53L.61,12.73h0c-.99-1.36-.75-3.12.58-4.26L7.92,2.72l4.1,2.64Z"/>
    <line class="cls-1" x1="4.21" y1="10.41" x2="4.16" y2="10.44"/>
    <path class="cls-3" d="m23.44,12.73h0s-9.05-5.83-9.05-5.83l-2.37-1.53-4.1-2.64,2.55-2.18c.86-.73,2.24-.73,3.1,0l9.29,7.93c1.25,1.06,1.51,2.98.58,4.26Z"/>
    <line class="cls-1" x1="19.89" y1="10.44" x2="19.84" y2="10.41"/>
    <path class="cls-5" d="m17.54,14.18l-5.52,9.82-5.52-9.82c-.44-.78-.19-1.72.6-2.26l3.54-2.44c.8-.55,1.95-.55,2.75,0l3.54,2.44c.79.54,1.04,1.48.6,2.26Z"/>
    <polygon class="cls-2" points="23.44 12.73 17.42 20.76 19.17 13.45 19.89 10.44 23.44 12.73"/>
  </g>
</svg>